%TF.GenerationSoftware,KiCad,Pcbnew,10.0.5*%
%TF.CreationDate,2026-09-08T09:33:27-05:00*%
%TF.ProjectId,Test,54657374-2e6b-4696-9361-645f70636258,rev?*%
%TF.SameCoordinates,Original*%
%TF.FileFunction,Copper,L4,Bot*%
%TF.FilePolarity,Positive*%
%FSLAX46Y46*%
G04 Gerber Fmt 4.6, Leading zero omitted, Abs format (unit mm)*
G04 Created by KiCad (PCBNEW 10.0.5) date 2026-09-08 09:33:27*
%MOMM*%
%LPD*%
G01*
G04 APERTURE LIST*
G04 Aperture macros list*
%AMRoundRect*
0 Rectangle with rounded corners*
0 $1 Rounding radius*
0 $2 $3 $4 $5 $6 $7 $8 $9 X,Y pos of 4 corners*
0 Add a 4 corners polygon primitive as box body*
4,1,4,$2,$3,$4,$5,$6,$7,$8,$9,$2,$3,0*
0 Add four circle primitives for the rounded corners*
1,1,$1+$1,$2,$3*
1,1,$1+$1,$4,$5*
1,1,$1+$1,$6,$7*
1,1,$1+$1,$8,$9*
0 Add four rect primitives between the rounded corners*
20,1,$1+$1,$2,$3,$4,$5,0*
20,1,$1+$1,$4,$5,$6,$7,0*
20,1,$1+$1,$6,$7,$8,$9,0*
20,1,$1+$1,$8,$9,$2,$3,0*%
G04 Aperture macros list end*
%TA.AperFunction,ComponentPad*%
%ADD10R,1.700000X1.700000*%
%TD*%
%TA.AperFunction,ComponentPad*%
%ADD11C,1.700000*%
%TD*%
%TA.AperFunction,ComponentPad*%
%ADD12O,1.000000X2.100000*%
%TD*%
%TA.AperFunction,ComponentPad*%
%ADD13O,1.000000X1.800000*%
%TD*%
%TA.AperFunction,ComponentPad*%
%ADD14C,3.000000*%
%TD*%
%TA.AperFunction,ComponentPad*%
%ADD15R,1.800000X2.600000*%
%TD*%
%TA.AperFunction,ComponentPad*%
%ADD16O,1.800000X2.600000*%
%TD*%
%TA.AperFunction,ComponentPad*%
%ADD17C,2.000000*%
%TD*%
%TA.AperFunction,ComponentPad*%
%ADD18RoundRect,0.250000X-0.550000X0.550000X-0.550000X-0.550000X0.550000X-0.550000X0.550000X0.550000X0*%
%TD*%
%TA.AperFunction,ComponentPad*%
%ADD19C,1.600000*%
%TD*%
%TA.AperFunction,SMDPad,CuDef*%
%ADD20RoundRect,0.250000X0.262500X0.450000X-0.262500X0.450000X-0.262500X-0.450000X0.262500X-0.450000X0*%
%TD*%
%TA.AperFunction,SMDPad,CuDef*%
%ADD21RoundRect,0.375000X0.375000X-0.625000X0.375000X0.625000X-0.375000X0.625000X-0.375000X-0.625000X0*%
%TD*%
%TA.AperFunction,SMDPad,CuDef*%
%ADD22RoundRect,0.500000X1.400000X-0.500000X1.400000X0.500000X-1.400000X0.500000X-1.400000X-0.500000X0*%
%TD*%
%TA.AperFunction,SMDPad,CuDef*%
%ADD23RoundRect,0.250000X-0.250000X-0.475000X0.250000X-0.475000X0.250000X0.475000X-0.250000X0.475000X0*%
%TD*%
%TA.AperFunction,ComponentPad*%
%ADD24C,1.620000*%
%TD*%
%TA.AperFunction,ComponentPad*%
%ADD25C,1.500000*%
%TD*%
%TA.AperFunction,SMDPad,CuDef*%
%ADD26RoundRect,0.250000X-0.262500X-0.450000X0.262500X-0.450000X0.262500X0.450000X-0.262500X0.450000X0*%
%TD*%
%TA.AperFunction,SMDPad,CuDef*%
%ADD27RoundRect,0.250000X0.250000X0.475000X-0.250000X0.475000X-0.250000X-0.475000X0.250000X-0.475000X0*%
%TD*%
%TA.AperFunction,SMDPad,CuDef*%
%ADD28RoundRect,0.250000X0.450000X-0.262500X0.450000X0.262500X-0.450000X0.262500X-0.450000X-0.262500X0*%
%TD*%
%TA.AperFunction,SMDPad,CuDef*%
%ADD29RoundRect,0.250000X-0.450000X0.262500X-0.450000X-0.262500X0.450000X-0.262500X0.450000X0.262500X0*%
%TD*%
%TA.AperFunction,ViaPad*%
%ADD30C,0.600000*%
%TD*%
%TA.AperFunction,Conductor*%
%ADD31C,0.200000*%
%TD*%
%TA.AperFunction,Conductor*%
%ADD32C,0.450000*%
%TD*%
G04 APERTURE END LIST*
D10*
%TO.P,J1,1,MISO_1*%
%TO.N,Miso*%
X178500000Y-78420000D03*
D11*
%TO.P,J1,2,VCC_2*%
%TO.N,+5V*%
X181040000Y-78420000D03*
%TO.P,J1,3,SCK_3*%
%TO.N,SCK*%
X178500000Y-80960000D03*
%TO.P,J1,4,MOSI_4*%
%TO.N,Mosi*%
X181040000Y-80960000D03*
%TO.P,J1,5,~{RST}_5*%
%TO.N,RST*%
X178500000Y-83500000D03*
%TO.P,J1,6,GND_6*%
%TO.N,GND*%
X181040000Y-83500000D03*
%TD*%
D12*
%TO.P,P1,SH,SHIELD_SH*%
%TO.N,GND*%
X157320000Y-81000000D03*
D13*
X157320000Y-76820000D03*
D12*
X148680000Y-81000000D03*
D13*
X148680000Y-76820000D03*
%TD*%
D14*
%TO.P,DS1,*%
%TO.N,*%
X104275900Y-113560000D03*
X104275900Y-144560700D03*
X179274480Y-144560700D03*
X179275000Y-113560000D03*
D15*
%TO.P,DS1,1,VSS_1*%
%TO.N,GND*%
X109775000Y-113560000D03*
D16*
%TO.P,DS1,2,VDD_2*%
%TO.N,+5V*%
X112315000Y-113560000D03*
%TO.P,DS1,3,VO_3*%
%TO.N,Net-(DS1-VO)*%
X114855000Y-113560000D03*
%TO.P,DS1,4,RS_4*%
%TO.N,Net-(DS1-RS)*%
X117395000Y-113560000D03*
%TO.P,DS1,5,R/W_5*%
%TO.N,GND*%
X119935000Y-113560000D03*
%TO.P,DS1,6,E_6*%
%TO.N,Net-(DS1-E)*%
X122475000Y-113560000D03*
%TO.P,DS1,7,D0_7*%
%TO.N,unconnected-(DS1-D0-Pad7)*%
X125015000Y-113560000D03*
%TO.P,DS1,8,D1_8*%
%TO.N,unconnected-(DS1-D1-Pad8)*%
X127555000Y-113560000D03*
%TO.P,DS1,9,D2_9*%
%TO.N,unconnected-(DS1-D2-Pad9)*%
X130095000Y-113560000D03*
%TO.P,DS1,10,D3_10*%
%TO.N,unconnected-(DS1-D3-Pad10)*%
X132635000Y-113560000D03*
%TO.P,DS1,11,D4_11*%
%TO.N,Net-(DS1-D4)*%
X135175000Y-113560000D03*
%TO.P,DS1,12,D5_12*%
%TO.N,Net-(DS1-D5)*%
X137715000Y-113560000D03*
%TO.P,DS1,13,D6_13*%
%TO.N,Net-(DS1-D6)*%
X140255000Y-113560000D03*
%TO.P,DS1,14,D7_14*%
%TO.N,Net-(DS1-D7)*%
X142795000Y-113560000D03*
%TO.P,DS1,15,LED(+)_15*%
%TO.N,unconnected-(DS1-LED(+)-Pad15)*%
X145335000Y-113560000D03*
%TO.P,DS1,16,LED(-)_16*%
%TO.N,Net-(DS1-LED(-))*%
X147875000Y-113560000D03*
%TD*%
D17*
%TO.P,SW1,1,1_1*%
%TO.N,RST*%
X137750000Y-88250000D03*
X144250000Y-88250000D03*
%TO.P,SW1,2,2_2*%
%TO.N,GND*%
X137750000Y-92750000D03*
X144250000Y-92750000D03*
%TD*%
D18*
%TO.P,U1,1,~{RESET}/PC6_1*%
%TO.N,RST*%
X148140000Y-91380000D03*
D19*
%TO.P,U1,2,PD0_2*%
%TO.N,CH340N_TX*%
X150680000Y-91380000D03*
%TO.P,U1,3,PD1_3*%
%TO.N,CH340N_RX*%
X153220000Y-91380000D03*
%TO.P,U1,4,PD2_4*%
%TO.N,Net-(DS1-RS)*%
X155760000Y-91380000D03*
%TO.P,U1,5,PD3_5*%
%TO.N,Net-(DS1-E)*%
X158300000Y-91380000D03*
%TO.P,U1,6,PD4_6*%
%TO.N,Net-(DS1-D4)*%
X160840000Y-91380000D03*
%TO.P,U1,7,VCC_7*%
%TO.N,+5V*%
X163380000Y-91380000D03*
%TO.P,U1,8,GND_8*%
%TO.N,GND*%
X165920000Y-91380000D03*
%TO.P,U1,9,XTAL1/PB6_9*%
%TO.N,Net-(U1-XTAL1{slash}PB6)*%
X168460000Y-91380000D03*
%TO.P,U1,10,XTAL2/PB7_10*%
%TO.N,Net-(U1-XTAL2{slash}PB7)*%
X171000000Y-91380000D03*
%TO.P,U1,11,PD5_11*%
%TO.N,Net-(DS1-D5)*%
X173540000Y-91380000D03*
%TO.P,U1,12,PD6_12*%
%TO.N,Net-(DS1-D6)*%
X176080000Y-91380000D03*
%TO.P,U1,13,PD7_13*%
%TO.N,Net-(DS1-D7)*%
X178620000Y-91380000D03*
%TO.P,U1,14,PB0_14*%
%TO.N,unconnected-(U1-PB0-Pad14)*%
X181160000Y-91380000D03*
%TO.P,U1,15,PB1_15*%
%TO.N,unconnected-(U1-PB1-Pad15)*%
X181160000Y-99000000D03*
%TO.P,U1,16,PB2_16*%
%TO.N,unconnected-(U1-PB2-Pad16)*%
X178620000Y-99000000D03*
%TO.P,U1,17,PB3_17*%
%TO.N,Mosi*%
X176080000Y-99000000D03*
%TO.P,U1,18,PB4_18*%
%TO.N,Miso*%
X173540000Y-99000000D03*
%TO.P,U1,19,PB5_19*%
%TO.N,SCK*%
X171000000Y-99000000D03*
%TO.P,U1,20,AVCC_20*%
%TO.N,+5V*%
X168460000Y-99000000D03*
%TO.P,U1,21,AREF_21*%
%TO.N,unconnected-(U1-AREF-Pad21)*%
X165920000Y-99000000D03*
%TO.P,U1,22,GND_22*%
%TO.N,GND*%
X163380000Y-99000000D03*
%TO.P,U1,23,PC0_23*%
%TO.N,unconnected-(U1-PC0-Pad23)*%
X160840000Y-99000000D03*
%TO.P,U1,24,PC1_24*%
%TO.N,PC1*%
X158300000Y-99000000D03*
%TO.P,U1,25,PC2_25*%
%TO.N,PC2*%
X155760000Y-99000000D03*
%TO.P,U1,26,PC3_26*%
%TO.N,unconnected-(U1-PC3-Pad26)*%
X153220000Y-99000000D03*
%TO.P,U1,27,PC4_27*%
%TO.N,unconnected-(U1-PC4-Pad27)*%
X150680000Y-99000000D03*
%TO.P,U1,28,PC5_28*%
%TO.N,unconnected-(U1-PC5-Pad28)*%
X148140000Y-99000000D03*
%TD*%
D20*
%TO.P,R1,1*%
%TO.N,+5V*%
X136412500Y-97000000D03*
%TO.P,R1,2*%
%TO.N,RST*%
X134587500Y-97000000D03*
%TD*%
D21*
%TO.P,U3,1,ADJ_1*%
%TO.N,GND*%
X164600000Y-83150000D03*
%TO.P,U3,2,VO_2*%
%TO.N,+5V*%
X162300000Y-83150000D03*
D22*
X162300000Y-76850000D03*
D21*
%TO.P,U3,3,VI_3*%
%TO.N,Net-(U3-VI)*%
X160000000Y-83150000D03*
%TD*%
D23*
%TO.P,C2,1*%
%TO.N,GND*%
X169050000Y-82000000D03*
%TO.P,C2,2*%
%TO.N,Net-(U1-XTAL2{slash}PB7)*%
X170950000Y-82000000D03*
%TD*%
D24*
%TO.P,R3,1,1_1*%
%TO.N,GND*%
X140000000Y-97000000D03*
%TO.P,R3,2,2_2*%
%TO.N,Net-(DS1-VO)*%
X142500000Y-99500000D03*
%TO.P,R3,3,3_3*%
%TO.N,+5V*%
X145000000Y-97000000D03*
%TD*%
D20*
%TO.P,R7,1*%
%TO.N,PC2*%
X153000000Y-101000000D03*
%TO.P,R7,2*%
%TO.N,Net-(D2-K)*%
X151175000Y-101000000D03*
%TD*%
D25*
%TO.P,Y1,1,1_1*%
%TO.N,Net-(U1-XTAL1{slash}PB6)*%
X168620000Y-87000000D03*
%TO.P,Y1,2,2_2*%
%TO.N,Net-(U1-XTAL2{slash}PB7)*%
X173500000Y-87000000D03*
%TD*%
D26*
%TO.P,R2,1*%
%TO.N,GND*%
X146087500Y-109500000D03*
%TO.P,R2,2*%
%TO.N,Net-(DS1-LED(-))*%
X147912500Y-109500000D03*
%TD*%
D27*
%TO.P,C1,1*%
%TO.N,Net-(U1-XTAL1{slash}PB6)*%
X162450000Y-86500000D03*
%TO.P,C1,2*%
%TO.N,GND*%
X160550000Y-86500000D03*
%TD*%
D28*
%TO.P,R5,1*%
%TO.N,Net-(P1-CC2)*%
X144000000Y-78500000D03*
%TO.P,R5,2*%
%TO.N,GND*%
X144000000Y-76675000D03*
%TD*%
D20*
%TO.P,R6,1*%
%TO.N,PC1*%
X158412500Y-101000000D03*
%TO.P,R6,2*%
%TO.N,Net-(D1-K)*%
X156587500Y-101000000D03*
%TD*%
D29*
%TO.P,R4,1*%
%TO.N,Net-(P1-CC1)*%
X157000000Y-84587500D03*
%TO.P,R4,2*%
%TO.N,GND*%
X157000000Y-86412500D03*
%TD*%
D30*
%TO.N,USB_C D+*%
X153900000Y-85200000D03*
X151800000Y-80300000D03*
%TO.N,+5V*%
X173500000Y-77500000D03*
X147500000Y-86000000D03*
%TO.N,SCK*%
X177500000Y-86000000D03*
%TO.N,RST*%
X178000000Y-89000000D03*
%TO.N,Net-(U3-VI)*%
X157500000Y-83000000D03*
%TO.N,Net-(P1-CC1)*%
X155500000Y-83500000D03*
%TO.N,Net-(P1-CC2)*%
X146500000Y-82500000D03*
%TO.N,Net-(D2-K)*%
X130500000Y-98500000D03*
%TO.N,Net-(DS1-RS)*%
X125000000Y-106500000D03*
X132500000Y-95500000D03*
%TO.N,Net-(D1-K)*%
X127000000Y-101000000D03*
%TD*%
%TO.N,USB_C D+*%
D31*
X153900000Y-85200000D02*
X151800000Y-83100000D01*
X151800000Y-83100000D02*
X151800000Y-80300000D01*
%TO.N,*%
X172420000Y-104498440D02*
X172419380Y-104499060D01*
%TO.N,Miso*%
X178500000Y-78420000D02*
X179720000Y-79640000D01*
X179720000Y-79640000D02*
X179720000Y-92820000D01*
X179720000Y-92820000D02*
X173540000Y-99000000D01*
%TO.N,+5V*%
D32*
X162300000Y-76850000D02*
X162300000Y-83150000D01*
X143765000Y-95765000D02*
X137647500Y-95765000D01*
X162300000Y-76850000D02*
X172850000Y-76850000D01*
X172850000Y-76850000D02*
X173500000Y-77500000D01*
X137647500Y-95765000D02*
X136412500Y-97000000D01*
X145000000Y-97000000D02*
X143765000Y-95765000D01*
%TO.N,SCK*%
D31*
X177000000Y-82460000D02*
X177000000Y-85000000D01*
X177500000Y-85500000D02*
X177500000Y-86000000D01*
X177000000Y-85000000D02*
X177500000Y-85500000D01*
X178500000Y-80960000D02*
X177000000Y-82460000D01*
%TO.N,RST*%
X137750000Y-88250000D02*
X144250000Y-88250000D01*
X147380000Y-91380000D02*
X144250000Y-88250000D01*
X134587500Y-91412500D02*
X137750000Y-88250000D01*
X148140000Y-91380000D02*
X147380000Y-91380000D01*
X134587500Y-97000000D02*
X134587500Y-91412500D01*
X178000000Y-89000000D02*
X150520000Y-89000000D01*
X150520000Y-89000000D02*
X148140000Y-91380000D01*
%TO.N,Net-(U3-VI)*%
X157650000Y-83150000D02*
X157500000Y-83000000D01*
X160000000Y-83150000D02*
X157650000Y-83150000D01*
%TO.N,Net-(P1-CC1)*%
X157000000Y-84587500D02*
X156587500Y-84587500D01*
X156587500Y-84587500D02*
X155500000Y-83500000D01*
%TO.N,Net-(P1-CC2)*%
X144000000Y-78500000D02*
X146500000Y-81000000D01*
X146500000Y-81000000D02*
X146500000Y-82500000D01*
%TO.N,Net-(D2-K)*%
X130500000Y-98500000D02*
X133000000Y-101000000D01*
X133000000Y-101000000D02*
X151175000Y-101000000D01*
%TO.N,Net-(DS1-RS)*%
X131500000Y-95500000D02*
X132500000Y-95500000D01*
X125000000Y-102000000D02*
X131500000Y-95500000D01*
X125000000Y-106500000D02*
X125000000Y-102000000D01*
%TO.N,Net-(DS1-LED(-))*%
X147912500Y-109500000D02*
X147912500Y-113522500D01*
X147912500Y-113522500D02*
X147875000Y-113560000D01*
%TO.N,Net-(D1-K)*%
X127000000Y-101000000D02*
X128000000Y-102000000D01*
X156175000Y-102000000D02*
X156675000Y-101500000D01*
X128000000Y-102000000D02*
X156175000Y-102000000D01*
%TO.N,Net-(U1-XTAL1{slash}PB6)*%
X162950000Y-87000000D02*
X162450000Y-86500000D01*
X168620000Y-87000000D02*
X162950000Y-87000000D01*
%TO.N,Net-(U1-XTAL2{slash}PB7)*%
X170950000Y-84450000D02*
X173500000Y-87000000D01*
X170950000Y-82000000D02*
X170950000Y-84450000D01*
%TO.N,PC1*%
X158500000Y-101500000D02*
X158500000Y-101000000D01*
X158300000Y-100800000D02*
X158300000Y-99000000D01*
X158500000Y-101000000D02*
X158300000Y-100800000D01*
%TO.N,PC2*%
X153760000Y-101000000D02*
X155760000Y-99000000D01*
X153000000Y-101000000D02*
X153760000Y-101000000D01*
%TD*%
%TA.AperFunction,Conductor*%
%TO.N,GND*%
G36*
X143229745Y-75520185D02*
G01*
X143275500Y-75572989D01*
X143285444Y-75642147D01*
X143256419Y-75705703D01*
X143227803Y-75730039D01*
X143081654Y-75820184D01*
X142957684Y-75944154D01*
X142865643Y-76093375D01*
X142865641Y-76093380D01*
X142810494Y-76259802D01*
X142810493Y-76259809D01*
X142800000Y-76362513D01*
X142800000Y-76425000D01*
X145199999Y-76425000D01*
X145199999Y-76362528D01*
X145199998Y-76362513D01*
X145189505Y-76259802D01*
X145134358Y-76093380D01*
X145134356Y-76093375D01*
X145042315Y-75944154D01*
X144918345Y-75820184D01*
X144772197Y-75730039D01*
X144725473Y-75678091D01*
X144714250Y-75609128D01*
X144742094Y-75545046D01*
X144800163Y-75506190D01*
X144837294Y-75500500D01*
X147885923Y-75500500D01*
X147952962Y-75520185D01*
X147998717Y-75572989D01*
X148008661Y-75642147D01*
X147979636Y-75705703D01*
X147973604Y-75712181D01*
X147903251Y-75782533D01*
X147903248Y-75782537D01*
X147793814Y-75946315D01*
X147793807Y-75946328D01*
X147718430Y-76128306D01*
X147718427Y-76128318D01*
X147680000Y-76321504D01*
X147680000Y-76570000D01*
X148380000Y-76570000D01*
X148380000Y-77070000D01*
X147680000Y-77070000D01*
X147680000Y-77318495D01*
X147718427Y-77511681D01*
X147718430Y-77511693D01*
X147793807Y-77693671D01*
X147793814Y-77693684D01*
X147903248Y-77857462D01*
X147903251Y-77857466D01*
X148042533Y-77996748D01*
X148042537Y-77996751D01*
X148206315Y-78106185D01*
X148206328Y-78106192D01*
X148388308Y-78181569D01*
X148430000Y-78189862D01*
X148430000Y-77386988D01*
X148439940Y-77404205D01*
X148495795Y-77460060D01*
X148564204Y-77499556D01*
X148640504Y-77520000D01*
X148719496Y-77520000D01*
X148795796Y-77499556D01*
X148864205Y-77460060D01*
X148920060Y-77404205D01*
X148930000Y-77386988D01*
X148930000Y-78189862D01*
X148971690Y-78181569D01*
X148971692Y-78181569D01*
X149153671Y-78106192D01*
X149153684Y-78106185D01*
X149317462Y-77996751D01*
X149317466Y-77996748D01*
X149456748Y-77857466D01*
X149456751Y-77857462D01*
X149566185Y-77693684D01*
X149566192Y-77693671D01*
X149641569Y-77511693D01*
X149641572Y-77511681D01*
X149679999Y-77318495D01*
X149680000Y-77318492D01*
X149680000Y-77070000D01*
X148980000Y-77070000D01*
X148980000Y-76570000D01*
X149680000Y-76570000D01*
X149680000Y-76321508D01*
X149679999Y-76321504D01*
X149641572Y-76128318D01*
X149641569Y-76128306D01*
X149566192Y-75946328D01*
X149566185Y-75946315D01*
X149456751Y-75782537D01*
X149456748Y-75782533D01*
X149386396Y-75712181D01*
X149352911Y-75650858D01*
X149357895Y-75581166D01*
X149399767Y-75525233D01*
X149465231Y-75500816D01*
X149474077Y-75500500D01*
X156525923Y-75500500D01*
X156592962Y-75520185D01*
X156638717Y-75572989D01*
X156648661Y-75642147D01*
X156619636Y-75705703D01*
X156613604Y-75712181D01*
X156543251Y-75782533D01*
X156543248Y-75782537D01*
X156433814Y-75946315D01*
X156433807Y-75946328D01*
X156358430Y-76128306D01*
X156358427Y-76128318D01*
X156320000Y-76321504D01*
X156320000Y-76570000D01*
X157020000Y-76570000D01*
X157020000Y-77070000D01*
X156320000Y-77070000D01*
X156320000Y-77318495D01*
X156358427Y-77511681D01*
X156358430Y-77511693D01*
X156433807Y-77693671D01*
X156433814Y-77693684D01*
X156543248Y-77857462D01*
X156543251Y-77857466D01*
X156682533Y-77996748D01*
X156682537Y-77996751D01*
X156846315Y-78106185D01*
X156846328Y-78106192D01*
X157028308Y-78181569D01*
X157070000Y-78189862D01*
X157070000Y-77386988D01*
X157079940Y-77404205D01*
X157135795Y-77460060D01*
X157204204Y-77499556D01*
X157280504Y-77520000D01*
X157359496Y-77520000D01*
X157435796Y-77499556D01*
X157504205Y-77460060D01*
X157560060Y-77404205D01*
X157570000Y-77386988D01*
X157570000Y-78189862D01*
X157611690Y-78181569D01*
X157611692Y-78181569D01*
X157793671Y-78106192D01*
X157793684Y-78106185D01*
X157957462Y-77996751D01*
X157957466Y-77996748D01*
X158096748Y-77857466D01*
X158096751Y-77857462D01*
X158206185Y-77693684D01*
X158206192Y-77693671D01*
X158281569Y-77511693D01*
X158281572Y-77511681D01*
X158319999Y-77318495D01*
X158320000Y-77318492D01*
X158320000Y-77070000D01*
X157620000Y-77070000D01*
X157620000Y-76570000D01*
X158320000Y-76570000D01*
X158320000Y-76321508D01*
X158319999Y-76321504D01*
X158281572Y-76128318D01*
X158281569Y-76128306D01*
X158206192Y-75946328D01*
X158206185Y-75946315D01*
X158096751Y-75782537D01*
X158096748Y-75782533D01*
X158026396Y-75712181D01*
X157992911Y-75650858D01*
X157997895Y-75581166D01*
X158039767Y-75525233D01*
X158105231Y-75500816D01*
X158114077Y-75500500D01*
X160040628Y-75500500D01*
X160107667Y-75520185D01*
X160153422Y-75572989D01*
X160163366Y-75642147D01*
X160136730Y-75702860D01*
X160060305Y-75796587D01*
X159966089Y-75976954D01*
X159910114Y-76172583D01*
X159910113Y-76172586D01*
X159904494Y-76235795D01*
X159899989Y-76286470D01*
X159899500Y-76291966D01*
X159899500Y-77408028D01*
X159899501Y-77408034D01*
X159910113Y-77527415D01*
X159966089Y-77723045D01*
X159966090Y-77723046D01*
X159966091Y-77723049D01*
X160060302Y-77903407D01*
X160072338Y-77918168D01*
X160188890Y-78061109D01*
X160241198Y-78103760D01*
X160346593Y-78189698D01*
X160526951Y-78283909D01*
X160722582Y-78339886D01*
X160841963Y-78350500D01*
X161450500Y-78350499D01*
X161517539Y-78370183D01*
X161563294Y-78422987D01*
X161574500Y-78474499D01*
X161574500Y-81644658D01*
X161554815Y-81711697D01*
X161505595Y-81755746D01*
X161450704Y-81782969D01*
X161302278Y-81902277D01*
X161302277Y-81902278D01*
X161246647Y-81971486D01*
X161189304Y-82011405D01*
X161119482Y-82013985D01*
X161059349Y-81978406D01*
X161053353Y-81971486D01*
X160997722Y-81902278D01*
X160997721Y-81902277D01*
X160849295Y-81782969D01*
X160849292Y-81782967D01*
X160678697Y-81698360D01*
X160493892Y-81652400D01*
X160472506Y-81650950D01*
X160451123Y-81649500D01*
X160451120Y-81649500D01*
X159548877Y-81649500D01*
X159548874Y-81649501D01*
X159506113Y-81652399D01*
X159506112Y-81652399D01*
X159321303Y-81698360D01*
X159150707Y-81782967D01*
X159150704Y-81782969D01*
X159002278Y-81902277D01*
X159002277Y-81902278D01*
X158882969Y-82050704D01*
X158882967Y-82050707D01*
X158798360Y-82221302D01*
X158752400Y-82406108D01*
X158752400Y-82406111D01*
X158750516Y-82433891D01*
X158726342Y-82499443D01*
X158670564Y-82541521D01*
X158626801Y-82549500D01*
X158228018Y-82549500D01*
X158160979Y-82529815D01*
X158124914Y-82494388D01*
X158121788Y-82489709D01*
X158045828Y-82413749D01*
X158012343Y-82352426D01*
X158017327Y-82282734D01*
X158045828Y-82238387D01*
X158096748Y-82187466D01*
X158096751Y-82187462D01*
X158206185Y-82023684D01*
X158206192Y-82023671D01*
X158281569Y-81841693D01*
X158281572Y-81841681D01*
X158319999Y-81648495D01*
X158320000Y-81648492D01*
X158320000Y-81250000D01*
X157620000Y-81250000D01*
X157620000Y-80750000D01*
X158320000Y-80750000D01*
X158320000Y-80351508D01*
X158319999Y-80351504D01*
X158281572Y-80158318D01*
X158281569Y-80158306D01*
X158206192Y-79976328D01*
X158206185Y-79976315D01*
X158096751Y-79812537D01*
X158096748Y-79812533D01*
X157957466Y-79673251D01*
X157957462Y-79673248D01*
X157793684Y-79563814D01*
X157793671Y-79563807D01*
X157611691Y-79488429D01*
X157611683Y-79488427D01*
X157570000Y-79480135D01*
X157570000Y-80283011D01*
X157560060Y-80265795D01*
X157504205Y-80209940D01*
X157435796Y-80170444D01*
X157359496Y-80150000D01*
X157280504Y-80150000D01*
X157204204Y-80170444D01*
X157135795Y-80209940D01*
X157079940Y-80265795D01*
X157070000Y-80283011D01*
X157070000Y-79480136D01*
X157069999Y-79480135D01*
X157028316Y-79488427D01*
X157028308Y-79488429D01*
X156846328Y-79563807D01*
X156846315Y-79563814D01*
X156682537Y-79673248D01*
X156682533Y-79673251D01*
X156543251Y-79812533D01*
X156543248Y-79812537D01*
X156433814Y-79976315D01*
X156433809Y-79976324D01*
X156429866Y-79985845D01*
X156386023Y-80040247D01*
X156319728Y-80062310D01*
X156252030Y-80045029D01*
X156246597Y-80041351D01*
X156112136Y-79963719D01*
X156017709Y-79938418D01*
X155965766Y-79924500D01*
X155814234Y-79924500D01*
X155667863Y-79963719D01*
X155536635Y-80039485D01*
X155536632Y-80039487D01*
X155429487Y-80146632D01*
X155429485Y-80146635D01*
X155353719Y-80277863D01*
X155314500Y-80424234D01*
X155314500Y-80575765D01*
X155353719Y-80722136D01*
X155369807Y-80750000D01*
X155429485Y-80853365D01*
X155536635Y-80960515D01*
X155667865Y-81036281D01*
X155814234Y-81075500D01*
X155814236Y-81075500D01*
X155965764Y-81075500D01*
X155965766Y-81075500D01*
X156112135Y-81036281D01*
X156243365Y-80960515D01*
X156350515Y-80853365D01*
X156374397Y-80811999D01*
X156424964Y-80763784D01*
X156481784Y-80750000D01*
X157020000Y-80750000D01*
X157020000Y-81250000D01*
X156320000Y-81250000D01*
X156320000Y-81648495D01*
X156358427Y-81841681D01*
X156358430Y-81841693D01*
X156433807Y-82023671D01*
X156433814Y-82023684D01*
X156543248Y-82187462D01*
X156543251Y-82187466D01*
X156682533Y-82326748D01*
X156682537Y-82326751D01*
X156789989Y-82398549D01*
X156834794Y-82452161D01*
X156843501Y-82521486D01*
X156824201Y-82570541D01*
X156790608Y-82620816D01*
X156790602Y-82620827D01*
X156730264Y-82766498D01*
X156730261Y-82766510D01*
X156699500Y-82921153D01*
X156699500Y-83078846D01*
X156730261Y-83233489D01*
X156730264Y-83233501D01*
X156790600Y-83379167D01*
X156790609Y-83379185D01*
X156792229Y-83381609D01*
X156792687Y-83383072D01*
X156793479Y-83384554D01*
X156793198Y-83384704D01*
X156813107Y-83448287D01*
X156794622Y-83515667D01*
X156742644Y-83562357D01*
X156689128Y-83574500D01*
X156500000Y-83574500D01*
X156499983Y-83574501D01*
X156489413Y-83575581D01*
X156420721Y-83562807D01*
X156389138Y-83539903D01*
X156334574Y-83485339D01*
X156301089Y-83424016D01*
X156300638Y-83421849D01*
X156269738Y-83266510D01*
X156269737Y-83266503D01*
X156252545Y-83224998D01*
X156209397Y-83120827D01*
X156209390Y-83120814D01*
X156121789Y-82989711D01*
X156121786Y-82989707D01*
X156010292Y-82878213D01*
X156010288Y-82878210D01*
X155879185Y-82790609D01*
X155879172Y-82790602D01*
X155733501Y-82730264D01*
X155733489Y-82730261D01*
X155578845Y-82699500D01*
X155578842Y-82699500D01*
X155421158Y-82699500D01*
X155421155Y-82699500D01*
X155266510Y-82730261D01*
X155266498Y-82730264D01*
X155120827Y-82790602D01*
X155120814Y-82790609D01*
X154989711Y-82878210D01*
X154989707Y-82878213D01*
X154878213Y-82989707D01*
X154878210Y-82989711D01*
X154790609Y-83120814D01*
X154790602Y-83120827D01*
X154730264Y-83266498D01*
X154730261Y-83266510D01*
X154699500Y-83421153D01*
X154699500Y-83578846D01*
X154730261Y-83733489D01*
X154730264Y-83733501D01*
X154790602Y-83879172D01*
X154790609Y-83879185D01*
X154878210Y-84010288D01*
X154878213Y-84010292D01*
X154989707Y-84121786D01*
X154989711Y-84121789D01*
X155120814Y-84209390D01*
X155120827Y-84209397D01*
X155247138Y-84261716D01*
X155266503Y-84269737D01*
X155331147Y-84282595D01*
X155421849Y-84300638D01*
X155483760Y-84333023D01*
X155485339Y-84334574D01*
X155763181Y-84612416D01*
X155796666Y-84673739D01*
X155799500Y-84700096D01*
X155799500Y-84900000D01*
X155799501Y-84900019D01*
X155810000Y-85002796D01*
X155810001Y-85002799D01*
X155835270Y-85079054D01*
X155865186Y-85169334D01*
X155939984Y-85290602D01*
X155957289Y-85318657D01*
X156051304Y-85412672D01*
X156084789Y-85473995D01*
X156079805Y-85543687D01*
X156051305Y-85588034D01*
X155957682Y-85681657D01*
X155865643Y-85830875D01*
X155865641Y-85830880D01*
X155810494Y-85997302D01*
X155810493Y-85997309D01*
X155800000Y-86100013D01*
X155800000Y-86162500D01*
X158199999Y-86162500D01*
X158199999Y-86100028D01*
X158199998Y-86100013D01*
X158189505Y-85997302D01*
X158182119Y-85975013D01*
X159550000Y-85975013D01*
X159550000Y-86250000D01*
X160300000Y-86250000D01*
X160300000Y-85275000D01*
X160299999Y-85274999D01*
X160250029Y-85275000D01*
X160250011Y-85275001D01*
X160147302Y-85285494D01*
X159980880Y-85340641D01*
X159980875Y-85340643D01*
X159831654Y-85432684D01*
X159707684Y-85556654D01*
X159615643Y-85705875D01*
X159615641Y-85705880D01*
X159560494Y-85872302D01*
X159560493Y-85872309D01*
X159550000Y-85975013D01*
X158182119Y-85975013D01*
X158134358Y-85830880D01*
X158134356Y-85830875D01*
X158042315Y-85681654D01*
X157948695Y-85588034D01*
X157915210Y-85526711D01*
X157920194Y-85457019D01*
X157948691Y-85412676D01*
X158042712Y-85318656D01*
X158134814Y-85169334D01*
X158189999Y-85002797D01*
X158200500Y-84900009D01*
X158200499Y-84274992D01*
X158199962Y-84269738D01*
X158189999Y-84172203D01*
X158189998Y-84172200D01*
X158173292Y-84121786D01*
X158134814Y-84005666D01*
X158094061Y-83939595D01*
X158075622Y-83872204D01*
X158096545Y-83805541D01*
X158150187Y-83760771D01*
X158199601Y-83750500D01*
X158626801Y-83750500D01*
X158693840Y-83770185D01*
X158739595Y-83822989D01*
X158750517Y-83866114D01*
X158752399Y-83893886D01*
X158752399Y-83893887D01*
X158798360Y-84078696D01*
X158882967Y-84249292D01*
X158882969Y-84249295D01*
X159002277Y-84397721D01*
X159002278Y-84397722D01*
X159150704Y-84517030D01*
X159150707Y-84517032D01*
X159321302Y-84601639D01*
X159321303Y-84601639D01*
X159321307Y-84601641D01*
X159506111Y-84647600D01*
X159548877Y-84650500D01*
X160451122Y-84650499D01*
X160493889Y-84647600D01*
X160678693Y-84601641D01*
X160849296Y-84517030D01*
X160997722Y-84397722D01*
X161048482Y-84334574D01*
X161053353Y-84328514D01*
X161110696Y-84288595D01*
X161180518Y-84286015D01*
X161240651Y-84321594D01*
X161246647Y-84328514D01*
X161302277Y-84397721D01*
X161302278Y-84397722D01*
X161450704Y-84517030D01*
X161450707Y-84517032D01*
X161621302Y-84601639D01*
X161621303Y-84601639D01*
X161621307Y-84601641D01*
X161806111Y-84647600D01*
X161848877Y-84650500D01*
X162751122Y-84650499D01*
X162793889Y-84647600D01*
X162978693Y-84601641D01*
X163149296Y-84517030D01*
X163297722Y-84397722D01*
X163353675Y-84328112D01*
X163411015Y-84288196D01*
X163480837Y-84285616D01*
X163540970Y-84321194D01*
X163546967Y-84328115D01*
X163602632Y-84397366D01*
X163602633Y-84397367D01*
X163750974Y-84516607D01*
X163750977Y-84516609D01*
X163921476Y-84601168D01*
X164106175Y-84647102D01*
X164148903Y-84650000D01*
X164350000Y-84650000D01*
X164850000Y-84650000D01*
X165051097Y-84650000D01*
X165093824Y-84647102D01*
X165278523Y-84601168D01*
X165449022Y-84516609D01*
X165449025Y-84516607D01*
X165597366Y-84397367D01*
X165597367Y-84397366D01*
X165716607Y-84249025D01*
X165716609Y-84249022D01*
X165801168Y-84078523D01*
X165847102Y-83893824D01*
X165850000Y-83851096D01*
X165850000Y-83400000D01*
X164850000Y-83400000D01*
X164850000Y-84650000D01*
X164350000Y-84650000D01*
X164350000Y-82900000D01*
X164850000Y-82900000D01*
X165850000Y-82900000D01*
X165850000Y-82524986D01*
X168050001Y-82524986D01*
X168060494Y-82627697D01*
X168115641Y-82794119D01*
X168115643Y-82794124D01*
X168207684Y-82943345D01*
X168331654Y-83067315D01*
X168480875Y-83159356D01*
X168480880Y-83159358D01*
X168647302Y-83214505D01*
X168647309Y-83214506D01*
X168750019Y-83224999D01*
X168799999Y-83224998D01*
X168800000Y-83224998D01*
X168800000Y-82250000D01*
X168050001Y-82250000D01*
X168050001Y-82524986D01*
X165850000Y-82524986D01*
X165850000Y-82448903D01*
X165847101Y-82406169D01*
X165802933Y-82228570D01*
X165802930Y-82228561D01*
X165801168Y-82221475D01*
X165716609Y-82050977D01*
X165716607Y-82050974D01*
X165597367Y-81902633D01*
X165597366Y-81902632D01*
X165449025Y-81783392D01*
X165449022Y-81783390D01*
X165278523Y-81698831D01*
X165093824Y-81652897D01*
X165051097Y-81650000D01*
X164850000Y-81650000D01*
X164850000Y-82900000D01*
X164350000Y-82900000D01*
X164350000Y-81650000D01*
X164148903Y-81650000D01*
X164106175Y-81652897D01*
X163921476Y-81698831D01*
X163750977Y-81783390D01*
X163750974Y-81783392D01*
X163602635Y-81902631D01*
X163546967Y-81971885D01*
X163489624Y-82011803D01*
X163419801Y-82014383D01*
X163359669Y-81978804D01*
X163353673Y-81971884D01*
X163297722Y-81902278D01*
X163297721Y-81902277D01*
X163149295Y-81782969D01*
X163094405Y-81755746D01*
X163082742Y-81744968D01*
X163068297Y-81738371D01*
X163057609Y-81721740D01*
X163043092Y-81708324D01*
X163038645Y-81692231D01*
X163030523Y-81679593D01*
X163025500Y-81644658D01*
X163025500Y-81475013D01*
X168050000Y-81475013D01*
X168050000Y-81750000D01*
X168800000Y-81750000D01*
X168800000Y-80775000D01*
X168799999Y-80774999D01*
X168750029Y-80775000D01*
X168750011Y-80775001D01*
X168647302Y-80785494D01*
X168480880Y-80840641D01*
X168480875Y-80840643D01*
X168331654Y-80932684D01*
X168207684Y-81056654D01*
X168115643Y-81205875D01*
X168115641Y-81205880D01*
X168060494Y-81372302D01*
X168060493Y-81372309D01*
X168050000Y-81475013D01*
X163025500Y-81475013D01*
X163025500Y-78474499D01*
X163045185Y-78407460D01*
X163097989Y-78361705D01*
X163149500Y-78350499D01*
X163758028Y-78350499D01*
X163758036Y-78350499D01*
X163877418Y-78339886D01*
X164073049Y-78283909D01*
X164253407Y-78189698D01*
X164411109Y-78061109D01*
X164539698Y-77903407D01*
X164633909Y-77723049D01*
X164650408Y-77665388D01*
X164687776Y-77606350D01*
X164751130Y-77576887D01*
X164769624Y-77575500D01*
X172498126Y-77575500D01*
X172565165Y-77595185D01*
X172585807Y-77611819D01*
X172728927Y-77754939D01*
X172755807Y-77795167D01*
X172790604Y-77879176D01*
X172790609Y-77879185D01*
X172878210Y-78010288D01*
X172878213Y-78010292D01*
X172989707Y-78121786D01*
X172989711Y-78121789D01*
X173120814Y-78209390D01*
X173120827Y-78209397D01*
X173266498Y-78269735D01*
X173266503Y-78269737D01*
X173421153Y-78300499D01*
X173421156Y-78300500D01*
X173421158Y-78300500D01*
X173578844Y-78300500D01*
X173578845Y-78300499D01*
X173733497Y-78269737D01*
X173879179Y-78209394D01*
X174010289Y-78121789D01*
X174121789Y-78010289D01*
X174209394Y-77879179D01*
X174269737Y-77733497D01*
X174300500Y-77578842D01*
X174300500Y-77421158D01*
X174300500Y-77421155D01*
X174300499Y-77421153D01*
X174297128Y-77404205D01*
X174269737Y-77266503D01*
X174247350Y-77212455D01*
X174209397Y-77120827D01*
X174209390Y-77120814D01*
X174121789Y-76989711D01*
X174121786Y-76989707D01*
X174010292Y-76878213D01*
X174010288Y-76878210D01*
X173879185Y-76790609D01*
X173879176Y-76790604D01*
X173795167Y-76755807D01*
X173754939Y-76728927D01*
X173312483Y-76286470D01*
X173312482Y-76286469D01*
X173236642Y-76235795D01*
X173193653Y-76207071D01*
X173110389Y-76172582D01*
X173061620Y-76152381D01*
X173061614Y-76152379D01*
X172921457Y-76124500D01*
X172921455Y-76124500D01*
X164769624Y-76124500D01*
X164702585Y-76104815D01*
X164656830Y-76052011D01*
X164650408Y-76034612D01*
X164647097Y-76023044D01*
X164633909Y-75976951D01*
X164539698Y-75796593D01*
X164539695Y-75796590D01*
X164539694Y-75796587D01*
X164463270Y-75702860D01*
X164436161Y-75638464D01*
X164448171Y-75569634D01*
X164495486Y-75518224D01*
X164559372Y-75500500D01*
X179934108Y-75500500D01*
X179997294Y-75500500D01*
X180002702Y-75500617D01*
X180386773Y-75517386D01*
X180397505Y-75518326D01*
X180775963Y-75568150D01*
X180786601Y-75570025D01*
X181159279Y-75652647D01*
X181169720Y-75655445D01*
X181533765Y-75770227D01*
X181543911Y-75773920D01*
X181896578Y-75920000D01*
X181906369Y-75924566D01*
X182244942Y-76100816D01*
X182254309Y-76106223D01*
X182412608Y-76207071D01*
X182576244Y-76311318D01*
X182585105Y-76317523D01*
X182887930Y-76549889D01*
X182896217Y-76556843D01*
X183177635Y-76814715D01*
X183185284Y-76822364D01*
X183443156Y-77103782D01*
X183450110Y-77112069D01*
X183682476Y-77414894D01*
X183688681Y-77423755D01*
X183893775Y-77745689D01*
X183899183Y-77755057D01*
X184075430Y-78093623D01*
X184080002Y-78103427D01*
X184226075Y-78456078D01*
X184229775Y-78466244D01*
X184344553Y-78830276D01*
X184347353Y-78840724D01*
X184429972Y-79213390D01*
X184431850Y-79224044D01*
X184468509Y-79502498D01*
X184478648Y-79579514D01*
X184481671Y-79602472D01*
X184482614Y-79613248D01*
X184499382Y-79997297D01*
X184499500Y-80002706D01*
X184499500Y-144997293D01*
X184499382Y-145002702D01*
X184482614Y-145386751D01*
X184481671Y-145397527D01*
X184431850Y-145775955D01*
X184429972Y-145786609D01*
X184347353Y-146159275D01*
X184344553Y-146169723D01*
X184229775Y-146533755D01*
X184226075Y-146543921D01*
X184080002Y-146896572D01*
X184075430Y-146906376D01*
X183899183Y-147244942D01*
X183893775Y-147254310D01*
X183688681Y-147576244D01*
X183682476Y-147585105D01*
X183450110Y-147887930D01*
X183443156Y-147896217D01*
X183185284Y-148177635D01*
X183177635Y-148185284D01*
X182896217Y-148443156D01*
X182887930Y-148450110D01*
X182585105Y-148682476D01*
X182576244Y-148688681D01*
X182254310Y-148893775D01*
X182244942Y-148899183D01*
X181906376Y-149075430D01*
X181896572Y-149080002D01*
X181543921Y-149226075D01*
X181533755Y-149229775D01*
X181169723Y-149344553D01*
X181159275Y-149347353D01*
X180786609Y-149429972D01*
X180775955Y-149431850D01*
X180397527Y-149481671D01*
X180386751Y-149482614D01*
X180002703Y-149499382D01*
X179997294Y-149499500D01*
X105002706Y-149499500D01*
X104997297Y-149499382D01*
X104613248Y-149482614D01*
X104602474Y-149481671D01*
X104540007Y-149473447D01*
X104224044Y-149431850D01*
X104213390Y-149429972D01*
X103840724Y-149347353D01*
X103830276Y-149344553D01*
X103466244Y-149229775D01*
X103456078Y-149226075D01*
X103103427Y-149080002D01*
X103093623Y-149075430D01*
X102755057Y-148899183D01*
X102745689Y-148893775D01*
X102423755Y-148688681D01*
X102414894Y-148682476D01*
X102112069Y-148450110D01*
X102103782Y-148443156D01*
X101822364Y-148185284D01*
X101814715Y-148177635D01*
X101556843Y-147896217D01*
X101549889Y-147887930D01*
X101317523Y-147585105D01*
X101311318Y-147576244D01*
X101106224Y-147254310D01*
X101100816Y-147244942D01*
X100924569Y-146906376D01*
X100919997Y-146896572D01*
X100785072Y-146570834D01*
X100773920Y-146543911D01*
X100770224Y-146533755D01*
X100768084Y-146526969D01*
X100655445Y-146169720D01*
X100652646Y-146159275D01*
X100632407Y-146067982D01*
X100570025Y-145786601D01*
X100568149Y-145775955D01*
X100554793Y-145674503D01*
X100518326Y-145397505D01*
X100517386Y-145386773D01*
X100500618Y-145002702D01*
X100500500Y-144997293D01*
X100500500Y-144429572D01*
X102275400Y-144429572D01*
X102275400Y-144691827D01*
X102302023Y-144894039D01*
X102309630Y-144951816D01*
X102322541Y-145000000D01*
X102377502Y-145205118D01*
X102377505Y-145205128D01*
X102477853Y-145447390D01*
X102477858Y-145447400D01*
X102608975Y-145674503D01*
X102768618Y-145882551D01*
X102768626Y-145882560D01*
X102954040Y-146067974D01*
X102954048Y-146067981D01*
X103162096Y-146227624D01*
X103389199Y-146358741D01*
X103389209Y-146358746D01*
X103631471Y-146459094D01*
X103631481Y-146459098D01*
X103884784Y-146526970D01*
X104144780Y-146561200D01*
X104144787Y-146561200D01*
X104407013Y-146561200D01*
X104407020Y-146561200D01*
X104667016Y-146526970D01*
X104920319Y-146459098D01*
X105162597Y-146358743D01*
X105389703Y-146227624D01*
X105597751Y-146067982D01*
X105597755Y-146067977D01*
X105597760Y-146067974D01*
X105783174Y-145882560D01*
X105783177Y-145882555D01*
X105783182Y-145882551D01*
X105942824Y-145674503D01*
X106073943Y-145447397D01*
X106174298Y-145205119D01*
X106242170Y-144951816D01*
X106276400Y-144691820D01*
X106276400Y-144429580D01*
X106276399Y-144429572D01*
X177273980Y-144429572D01*
X177273980Y-144691827D01*
X177300603Y-144894039D01*
X177308210Y-144951816D01*
X177321121Y-145000000D01*
X177376082Y-145205118D01*
X177376085Y-145205128D01*
X177476433Y-145447390D01*
X177476438Y-145447400D01*
X177607555Y-145674503D01*
X177767198Y-145882551D01*
X177767206Y-145882560D01*
X177952620Y-146067974D01*
X177952628Y-146067981D01*
X178160676Y-146227624D01*
X178387779Y-146358741D01*
X178387789Y-146358746D01*
X178630051Y-146459094D01*
X178630061Y-146459098D01*
X178883364Y-146526970D01*
X179143360Y-146561200D01*
X179143367Y-146561200D01*
X179405593Y-146561200D01*
X179405600Y-146561200D01*
X179665596Y-146526970D01*
X179918899Y-146459098D01*
X180161177Y-146358743D01*
X180388283Y-146227624D01*
X180596331Y-146067982D01*
X180596335Y-146067977D01*
X180596340Y-146067974D01*
X180781754Y-145882560D01*
X180781757Y-145882555D01*
X180781762Y-145882551D01*
X180941404Y-145674503D01*
X181072523Y-145447397D01*
X181172878Y-145205119D01*
X181240750Y-144951816D01*
X181274980Y-144691820D01*
X181274980Y-144429580D01*
X181240750Y-144169584D01*
X181172878Y-143916281D01*
X181172874Y-143916271D01*
X181072526Y-143674009D01*
X181072521Y-143673999D01*
X180941404Y-143446896D01*
X180781761Y-143238848D01*
X180781754Y-143238840D01*
X180596340Y-143053426D01*
X180596331Y-143053418D01*
X180388283Y-142893775D01*
X180161180Y-142762658D01*
X180161170Y-142762653D01*
X179918908Y-142662305D01*
X179918901Y-142662303D01*
X179918899Y-142662302D01*
X179665596Y-142594430D01*
X179607819Y-142586823D01*
X179405607Y-142560200D01*
X179405600Y-142560200D01*
X179143360Y-142560200D01*
X179143352Y-142560200D01*
X178912252Y-142590626D01*
X178883364Y-142594430D01*
X178630061Y-142662302D01*
X178630051Y-142662305D01*
X178387789Y-142762653D01*
X178387779Y-142762658D01*
X178160676Y-142893775D01*
X177952628Y-143053418D01*
X177767198Y-143238848D01*
X177607555Y-143446896D01*
X177476438Y-143673999D01*
X177476433Y-143674009D01*
X177376085Y-143916271D01*
X177376082Y-143916281D01*
X177308210Y-144169585D01*
X177273980Y-144429572D01*
X106276399Y-144429572D01*
X106242170Y-144169584D01*
X106174298Y-143916281D01*
X106174294Y-143916271D01*
X106073946Y-143674009D01*
X106073941Y-143673999D01*
X105942824Y-143446896D01*
X105783181Y-143238848D01*
X105783174Y-143238840D01*
X105597760Y-143053426D01*
X105597751Y-143053418D01*
X105389703Y-142893775D01*
X105162600Y-142762658D01*
X105162590Y-142762653D01*
X104920328Y-142662305D01*
X104920321Y-142662303D01*
X104920319Y-142662302D01*
X104667016Y-142594430D01*
X104609239Y-142586823D01*
X104407027Y-142560200D01*
X104407020Y-142560200D01*
X104144780Y-142560200D01*
X104144772Y-142560200D01*
X103913672Y-142590626D01*
X103884784Y-142594430D01*
X103631481Y-142662302D01*
X103631471Y-142662305D01*
X103389209Y-142762653D01*
X103389199Y-142762658D01*
X103162096Y-142893775D01*
X102954048Y-143053418D01*
X102768618Y-143238848D01*
X102608975Y-143446896D01*
X102477858Y-143673999D01*
X102477853Y-143674009D01*
X102377505Y-143916271D01*
X102377502Y-143916281D01*
X102309630Y-144169585D01*
X102275400Y-144429572D01*
X100500500Y-144429572D01*
X100500500Y-113428872D01*
X102275400Y-113428872D01*
X102275400Y-113691127D01*
X102291051Y-113810000D01*
X102309630Y-113951116D01*
X102354644Y-114119111D01*
X102377502Y-114204418D01*
X102377505Y-114204428D01*
X102477853Y-114446690D01*
X102477858Y-114446700D01*
X102608975Y-114673803D01*
X102768618Y-114881851D01*
X102768626Y-114881860D01*
X102954040Y-115067274D01*
X102954048Y-115067281D01*
X103162096Y-115226924D01*
X103389199Y-115358041D01*
X103389209Y-115358046D01*
X103631471Y-115458394D01*
X103631481Y-115458398D01*
X103884784Y-115526270D01*
X104144780Y-115560500D01*
X104144787Y-115560500D01*
X104407013Y-115560500D01*
X104407020Y-115560500D01*
X104667016Y-115526270D01*
X104920319Y-115458398D01*
X105097240Y-115385114D01*
X105162590Y-115358046D01*
X105162591Y-115358045D01*
X105162597Y-115358043D01*
X105389703Y-115226924D01*
X105597751Y-115067282D01*
X105597755Y-115067277D01*
X105597760Y-115067274D01*
X105783174Y-114881860D01*
X105783177Y-114881855D01*
X105783182Y-114881851D01*
X105942824Y-114673803D01*
X106073943Y-114446697D01*
X106174298Y-114204419D01*
X106242170Y-113951116D01*
X106276400Y-113691120D01*
X106276400Y-113428880D01*
X106242170Y-113168884D01*
X106174298Y-112915581D01*
X106139697Y-112832047D01*
X106073946Y-112673309D01*
X106073941Y-112673299D01*
X105942824Y-112446196D01*
X105874358Y-112356971D01*
X105783182Y-112238149D01*
X105783176Y-112238143D01*
X105783173Y-112238139D01*
X105757189Y-112212155D01*
X108375000Y-112212155D01*
X108375000Y-113310000D01*
X109226518Y-113310000D01*
X109215889Y-113328409D01*
X109175000Y-113481009D01*
X109175000Y-113638991D01*
X109215889Y-113791591D01*
X109226518Y-113810000D01*
X108375000Y-113810000D01*
X108375000Y-114907844D01*
X108381401Y-114967372D01*
X108381403Y-114967379D01*
X108431645Y-115102086D01*
X108431649Y-115102093D01*
X108517809Y-115217187D01*
X108517812Y-115217190D01*
X108632906Y-115303350D01*
X108632913Y-115303354D01*
X108767620Y-115353596D01*
X108767627Y-115353598D01*
X108827155Y-115359999D01*
X108827172Y-115360000D01*
X109525000Y-115360000D01*
X109525000Y-114108482D01*
X109543409Y-114119111D01*
X109696009Y-114160000D01*
X109853991Y-114160000D01*
X110006591Y-114119111D01*
X110025000Y-114108482D01*
X110025000Y-115360000D01*
X110722828Y-115360000D01*
X110722844Y-115359999D01*
X110782372Y-115353598D01*
X110782379Y-115353596D01*
X110917086Y-115303354D01*
X110917093Y-115303350D01*
X111032187Y-115217190D01*
X111032190Y-115217187D01*
X111118350Y-115102093D01*
X111118354Y-115102086D01*
X111148213Y-115022031D01*
X111190084Y-114966097D01*
X111255548Y-114941680D01*
X111323821Y-114956531D01*
X111352076Y-114977683D01*
X111402636Y-115028243D01*
X111402641Y-115028247D01*
X111558192Y-115141260D01*
X111580978Y-115157815D01*
X111697501Y-115217187D01*
X111777393Y-115257895D01*
X111777396Y-115257896D01*
X111882221Y-115291955D01*
X111987049Y-115326015D01*
X112204778Y-115360500D01*
X112204779Y-115360500D01*
X112425221Y-115360500D01*
X112425222Y-115360500D01*
X112642951Y-115326015D01*
X112852606Y-115257895D01*
X113049022Y-115157815D01*
X113227365Y-115028242D01*
X113383242Y-114872365D01*
X113393804Y-114857826D01*
X113484682Y-114732745D01*
X113540011Y-114690079D01*
X113609625Y-114684100D01*
X113671420Y-114716705D01*
X113685318Y-114732745D01*
X113786752Y-114872358D01*
X113786756Y-114872363D01*
X113942636Y-115028243D01*
X113942641Y-115028247D01*
X114098192Y-115141260D01*
X114120978Y-115157815D01*
X114237501Y-115217187D01*
X114317393Y-115257895D01*
X114317396Y-115257896D01*
X114422221Y-115291955D01*
X114527049Y-115326015D01*
X114744778Y-115360500D01*
X114744779Y-115360500D01*
X114965221Y-115360500D01*
X114965222Y-115360500D01*
X115182951Y-115326015D01*
X115392606Y-115257895D01*
X115589022Y-115157815D01*
X115767365Y-115028242D01*
X115923242Y-114872365D01*
X115933804Y-114857826D01*
X116024682Y-114732745D01*
X116080011Y-114690079D01*
X116149625Y-114684100D01*
X116211420Y-114716705D01*
X116225318Y-114732745D01*
X116326752Y-114872358D01*
X116326756Y-114872363D01*
X116482636Y-115028243D01*
X116482641Y-115028247D01*
X116638192Y-115141260D01*
X116660978Y-115157815D01*
X116777501Y-115217187D01*
X116857393Y-115257895D01*
X116857396Y-115257896D01*
X116962221Y-115291955D01*
X117067049Y-115326015D01*
X117284778Y-115360500D01*
X117284779Y-115360500D01*
X117505221Y-115360500D01*
X117505222Y-115360500D01*
X117722951Y-115326015D01*
X117932606Y-115257895D01*
X118129022Y-115157815D01*
X118307365Y-115028242D01*
X118463242Y-114872365D01*
X118564991Y-114732317D01*
X118620320Y-114689653D01*
X118689933Y-114683674D01*
X118751729Y-114716279D01*
X118765627Y-114732318D01*
X118867142Y-114872041D01*
X119022958Y-115027857D01*
X119201239Y-115157386D01*
X119397589Y-115257432D01*
X119607163Y-115325526D01*
X119684999Y-115337854D01*
X119685000Y-115337854D01*
X119685000Y-114108482D01*
X119703409Y-114119111D01*
X119856009Y-114160000D01*
X120013991Y-114160000D01*
X120166591Y-114119111D01*
X120185000Y-114108482D01*
X120185000Y-115337854D01*
X120262834Y-115325526D01*
X120262837Y-115325526D01*
X120472410Y-115257432D01*
X120668760Y-115157386D01*
X120847041Y-115027857D01*
X121002857Y-114872041D01*
X121002862Y-114872035D01*
X121104372Y-114732319D01*
X121159702Y-114689653D01*
X121229315Y-114683674D01*
X121291110Y-114716279D01*
X121305008Y-114732319D01*
X121406752Y-114872358D01*
X121406756Y-114872363D01*
X121562636Y-115028243D01*
X121562641Y-115028247D01*
X121718192Y-115141260D01*
X121740978Y-115157815D01*
X121857501Y-115217187D01*
X121937393Y-115257895D01*
X121937396Y-115257896D01*
X122042221Y-115291955D01*
X122147049Y-115326015D01*
X122364778Y-115360500D01*
X122364779Y-115360500D01*
X122585221Y-115360500D01*
X122585222Y-115360500D01*
X122802951Y-115326015D01*
X123012606Y-115257895D01*
X123209022Y-115157815D01*
X123387365Y-115028242D01*
X123543242Y-114872365D01*
X123553804Y-114857826D01*
X123644682Y-114732745D01*
X123700011Y-114690079D01*
X123769625Y-114684100D01*
X123831420Y-114716705D01*
X123845318Y-114732745D01*
X123946752Y-114872358D01*
X123946756Y-114872363D01*
X124102636Y-115028243D01*
X124102641Y-115028247D01*
X124258192Y-115141260D01*
X124280978Y-115157815D01*
X124397501Y-115217187D01*
X124477393Y-115257895D01*
X124477396Y-115257896D01*
X124582221Y-115291955D01*
X124687049Y-115326015D01*
X124904778Y-115360500D01*
X124904779Y-115360500D01*
X125125221Y-115360500D01*
X125125222Y-115360500D01*
X125342951Y-115326015D01*
X125552606Y-115257895D01*
X125749022Y-115157815D01*
X125927365Y-115028242D01*
X126083242Y-114872365D01*
X126093804Y-114857826D01*
X126184682Y-114732745D01*
X126240011Y-114690079D01*
X126309625Y-114684100D01*
X126371420Y-114716705D01*
X126385318Y-114732745D01*
X126486752Y-114872358D01*
X126486756Y-114872363D01*
X126642636Y-115028243D01*
X126642641Y-115028247D01*
X126798192Y-115141260D01*
X126820978Y-115157815D01*
X126937501Y-115217187D01*
X127017393Y-115257895D01*
X127017396Y-115257896D01*
X127122221Y-115291955D01*
X127227049Y-115326015D01*
X127444778Y-115360500D01*
X127444779Y-115360500D01*
X127665221Y-115360500D01*
X127665222Y-115360500D01*
X127882951Y-115326015D01*
X128092606Y-115257895D01*
X128289022Y-115157815D01*
X128467365Y-115028242D01*
X128623242Y-114872365D01*
X128633804Y-114857826D01*
X128724682Y-114732745D01*
X128780011Y-114690079D01*
X128849625Y-114684100D01*
X128911420Y-114716705D01*
X128925318Y-114732745D01*
X129026752Y-114872358D01*
X129026756Y-114872363D01*
X129182636Y-115028243D01*
X129182641Y-115028247D01*
X129338192Y-115141260D01*
X129360978Y-115157815D01*
X129477501Y-115217187D01*
X129557393Y-115257895D01*
X129557396Y-115257896D01*
X129662221Y-115291955D01*
X129767049Y-115326015D01*
X129984778Y-115360500D01*
X129984779Y-115360500D01*
X130205221Y-115360500D01*
X130205222Y-115360500D01*
X130422951Y-115326015D01*
X130632606Y-115257895D01*
X130829022Y-115157815D01*
X131007365Y-115028242D01*
X131163242Y-114872365D01*
X131173804Y-114857826D01*
X131264682Y-114732745D01*
X131320011Y-114690079D01*
X131389625Y-114684100D01*
X131451420Y-114716705D01*
X131465318Y-114732745D01*
X131566752Y-114872358D01*
X131566756Y-114872363D01*
X131722636Y-115028243D01*
X131722641Y-115028247D01*
X131878192Y-115141260D01*
X131900978Y-115157815D01*
X132017501Y-115217187D01*
X132097393Y-115257895D01*
X132097396Y-115257896D01*
X132202221Y-115291955D01*
X132307049Y-115326015D01*
X132524778Y-115360500D01*
X132524779Y-115360500D01*
X132745221Y-115360500D01*
X132745222Y-115360500D01*
X132962951Y-115326015D01*
X133172606Y-115257895D01*
X133369022Y-115157815D01*
X133547365Y-115028242D01*
X133703242Y-114872365D01*
X133713804Y-114857826D01*
X133804682Y-114732745D01*
X133860011Y-114690079D01*
X133929625Y-114684100D01*
X133991420Y-114716705D01*
X134005318Y-114732745D01*
X134106752Y-114872358D01*
X134106756Y-114872363D01*
X134262636Y-115028243D01*
X134262641Y-115028247D01*
X134418192Y-115141260D01*
X134440978Y-115157815D01*
X134557501Y-115217187D01*
X134637393Y-115257895D01*
X134637396Y-115257896D01*
X134742221Y-115291955D01*
X134847049Y-115326015D01*
X135064778Y-115360500D01*
X135064779Y-115360500D01*
X135285221Y-115360500D01*
X135285222Y-115360500D01*
X135502951Y-115326015D01*
X135712606Y-115257895D01*
X135909022Y-115157815D01*
X136087365Y-115028242D01*
X136243242Y-114872365D01*
X136253804Y-114857826D01*
X136344682Y-114732745D01*
X136400011Y-114690079D01*
X136469625Y-114684100D01*
X136531420Y-114716705D01*
X136545318Y-114732745D01*
X136646752Y-114872358D01*
X136646756Y-114872363D01*
X136802636Y-115028243D01*
X136802641Y-115028247D01*
X136958192Y-115141260D01*
X136980978Y-115157815D01*
X137097501Y-115217187D01*
X137177393Y-115257895D01*
X137177396Y-115257896D01*
X137282221Y-115291955D01*
X137387049Y-115326015D01*
X137604778Y-115360500D01*
X137604779Y-115360500D01*
X137825221Y-115360500D01*
X137825222Y-115360500D01*
X138042951Y-115326015D01*
X138252606Y-115257895D01*
X138449022Y-115157815D01*
X138627365Y-115028242D01*
X138783242Y-114872365D01*
X138793804Y-114857826D01*
X138884682Y-114732745D01*
X138940011Y-114690079D01*
X139009625Y-114684100D01*
X139071420Y-114716705D01*
X139085318Y-114732745D01*
X139186752Y-114872358D01*
X139186756Y-114872363D01*
X139342636Y-115028243D01*
X139342641Y-115028247D01*
X139498192Y-115141260D01*
X139520978Y-115157815D01*
X139637501Y-115217187D01*
X139717393Y-115257895D01*
X139717396Y-115257896D01*
X139822221Y-115291955D01*
X139927049Y-115326015D01*
X140144778Y-115360500D01*
X140144779Y-115360500D01*
X140365221Y-115360500D01*
X140365222Y-115360500D01*
X140582951Y-115326015D01*
X140792606Y-115257895D01*
X140989022Y-115157815D01*
X141167365Y-115028242D01*
X141323242Y-114872365D01*
X141333804Y-114857826D01*
X141424682Y-114732745D01*
X141480011Y-114690079D01*
X141549625Y-114684100D01*
X141611420Y-114716705D01*
X141625318Y-114732745D01*
X141726752Y-114872358D01*
X141726756Y-114872363D01*
X141882636Y-115028243D01*
X141882641Y-115028247D01*
X142038192Y-115141260D01*
X142060978Y-115157815D01*
X142177501Y-115217187D01*
X142257393Y-115257895D01*
X142257396Y-115257896D01*
X142362221Y-115291955D01*
X142467049Y-115326015D01*
X142684778Y-115360500D01*
X142684779Y-115360500D01*
X142905221Y-115360500D01*
X142905222Y-115360500D01*
X143122951Y-115326015D01*
X143332606Y-115257895D01*
X143529022Y-115157815D01*
X143707365Y-115028242D01*
X143863242Y-114872365D01*
X143873804Y-114857826D01*
X143964682Y-114732745D01*
X144020011Y-114690079D01*
X144089625Y-114684100D01*
X144151420Y-114716705D01*
X144165318Y-114732745D01*
X144266752Y-114872358D01*
X144266756Y-114872363D01*
X144422636Y-115028243D01*
X144422641Y-115028247D01*
X144578192Y-115141260D01*
X144600978Y-115157815D01*
X144717501Y-115217187D01*
X144797393Y-115257895D01*
X144797396Y-115257896D01*
X144902221Y-115291955D01*
X145007049Y-115326015D01*
X145224778Y-115360500D01*
X145224779Y-115360500D01*
X145445221Y-115360500D01*
X145445222Y-115360500D01*
X145662951Y-115326015D01*
X145872606Y-115257895D01*
X146069022Y-115157815D01*
X146247365Y-115028242D01*
X146403242Y-114872365D01*
X146413804Y-114857826D01*
X146504682Y-114732745D01*
X146560011Y-114690079D01*
X146629625Y-114684100D01*
X146691420Y-114716705D01*
X146705318Y-114732745D01*
X146806752Y-114872358D01*
X146806756Y-114872363D01*
X146962636Y-115028243D01*
X146962641Y-115028247D01*
X147118192Y-115141260D01*
X147140978Y-115157815D01*
X147257501Y-115217187D01*
X147337393Y-115257895D01*
X147337396Y-115257896D01*
X147442221Y-115291955D01*
X147547049Y-115326015D01*
X147764778Y-115360500D01*
X147764779Y-115360500D01*
X147985221Y-115360500D01*
X147985222Y-115360500D01*
X148202951Y-115326015D01*
X148412606Y-115257895D01*
X148609022Y-115157815D01*
X148787365Y-115028242D01*
X148943242Y-114872365D01*
X149072815Y-114694022D01*
X149172895Y-114497606D01*
X149241015Y-114287951D01*
X149275500Y-114070222D01*
X149275500Y-113428872D01*
X177274500Y-113428872D01*
X177274500Y-113691127D01*
X177290151Y-113810000D01*
X177308730Y-113951116D01*
X177353744Y-114119111D01*
X177376602Y-114204418D01*
X177376605Y-114204428D01*
X177476953Y-114446690D01*
X177476958Y-114446700D01*
X177608075Y-114673803D01*
X177767718Y-114881851D01*
X177767726Y-114881860D01*
X177953140Y-115067274D01*
X177953148Y-115067281D01*
X178161196Y-115226924D01*
X178388299Y-115358041D01*
X178388309Y-115358046D01*
X178630571Y-115458394D01*
X178630581Y-115458398D01*
X178883884Y-115526270D01*
X179143880Y-115560500D01*
X179143887Y-115560500D01*
X179406113Y-115560500D01*
X179406120Y-115560500D01*
X179666116Y-115526270D01*
X179919419Y-115458398D01*
X180096340Y-115385114D01*
X180161690Y-115358046D01*
X180161691Y-115358045D01*
X180161697Y-115358043D01*
X180388803Y-115226924D01*
X180596851Y-115067282D01*
X180596855Y-115067277D01*
X180596860Y-115067274D01*
X180782274Y-114881860D01*
X180782277Y-114881855D01*
X180782282Y-114881851D01*
X180941924Y-114673803D01*
X181073043Y-114446697D01*
X181173398Y-114204419D01*
X181241270Y-113951116D01*
X181275500Y-113691120D01*
X181275500Y-113428880D01*
X181241270Y-113168884D01*
X181173398Y-112915581D01*
X181138797Y-112832047D01*
X181073046Y-112673309D01*
X181073041Y-112673299D01*
X180941924Y-112446196D01*
X180789813Y-112247964D01*
X180782282Y-112238149D01*
X180782281Y-112238148D01*
X180782274Y-112238140D01*
X180596860Y-112052726D01*
X180596851Y-112052718D01*
X180388803Y-111893075D01*
X180161700Y-111761958D01*
X180161690Y-111761953D01*
X179919428Y-111661605D01*
X179919421Y-111661603D01*
X179919419Y-111661602D01*
X179666116Y-111593730D01*
X179608339Y-111586123D01*
X179406127Y-111559500D01*
X179406120Y-111559500D01*
X179143880Y-111559500D01*
X179143872Y-111559500D01*
X178912772Y-111589926D01*
X178883884Y-111593730D01*
X178630581Y-111661602D01*
X178630571Y-111661605D01*
X178388309Y-111761953D01*
X178388299Y-111761958D01*
X178161196Y-111893075D01*
X177953148Y-112052718D01*
X177767718Y-112238148D01*
X177608075Y-112446196D01*
X177476958Y-112673299D01*
X177476953Y-112673309D01*
X177376605Y-112915571D01*
X177376602Y-112915581D01*
X177308730Y-113168885D01*
X177274500Y-113428872D01*
X149275500Y-113428872D01*
X149275500Y-113049778D01*
X149241015Y-112832049D01*
X149172895Y-112622394D01*
X149172895Y-112622393D01*
X149138237Y-112554375D01*
X149072815Y-112425978D01*
X149044681Y-112387254D01*
X148943247Y-112247641D01*
X148943243Y-112247636D01*
X148787363Y-112091756D01*
X148787358Y-112091752D01*
X148609025Y-111962186D01*
X148609016Y-111962181D01*
X148580704Y-111947755D01*
X148529909Y-111899780D01*
X148513000Y-111837271D01*
X148513000Y-110692507D01*
X148532685Y-110625468D01*
X148571903Y-110586968D01*
X148643656Y-110542712D01*
X148767712Y-110418656D01*
X148859814Y-110269334D01*
X148914999Y-110102797D01*
X148925500Y-110000009D01*
X148925499Y-108999992D01*
X148914999Y-108897203D01*
X148859814Y-108730666D01*
X148767712Y-108581344D01*
X148643656Y-108457288D01*
X148494334Y-108365186D01*
X148327797Y-108310001D01*
X148327795Y-108310000D01*
X148225010Y-108299500D01*
X147599998Y-108299500D01*
X147599980Y-108299501D01*
X147497203Y-108310000D01*
X147497200Y-108310001D01*
X147330668Y-108365185D01*
X147330663Y-108365187D01*
X147181345Y-108457287D01*
X147087327Y-108551305D01*
X147026003Y-108584789D01*
X146956312Y-108579805D01*
X146911965Y-108551304D01*
X146818345Y-108457684D01*
X146669124Y-108365643D01*
X146669119Y-108365641D01*
X146502697Y-108310494D01*
X146502690Y-108310493D01*
X146399986Y-108300000D01*
X146337500Y-108300000D01*
X146337500Y-110699999D01*
X146399972Y-110699999D01*
X146399986Y-110699998D01*
X146502697Y-110689505D01*
X146669119Y-110634358D01*
X146669124Y-110634356D01*
X146818342Y-110542317D01*
X146911964Y-110448695D01*
X146973287Y-110415210D01*
X147042979Y-110420194D01*
X147087327Y-110448695D01*
X147181344Y-110542712D01*
X147253096Y-110586968D01*
X147299821Y-110638915D01*
X147312000Y-110692507D01*
X147312000Y-111799056D01*
X147292315Y-111866095D01*
X147244296Y-111909540D01*
X147140976Y-111962185D01*
X146962641Y-112091752D01*
X146962636Y-112091756D01*
X146806756Y-112247636D01*
X146806752Y-112247641D01*
X146705318Y-112387254D01*
X146649988Y-112429920D01*
X146580375Y-112435899D01*
X146518580Y-112403293D01*
X146504682Y-112387254D01*
X146403247Y-112247641D01*
X146403243Y-112247636D01*
X146247363Y-112091756D01*
X146247358Y-112091752D01*
X146069025Y-111962187D01*
X146069024Y-111962186D01*
X146069022Y-111962185D01*
X146006096Y-111930122D01*
X145872606Y-111862104D01*
X145872603Y-111862103D01*
X145662952Y-111793985D01*
X145554086Y-111776742D01*
X145445222Y-111759500D01*
X145224778Y-111759500D01*
X145152201Y-111770995D01*
X145007047Y-111793985D01*
X144797396Y-111862103D01*
X144797393Y-111862104D01*
X144600974Y-111962187D01*
X144422641Y-112091752D01*
X144422636Y-112091756D01*
X144266756Y-112247636D01*
X144266752Y-112247641D01*
X144165318Y-112387254D01*
X144109988Y-112429920D01*
X144040375Y-112435899D01*
X143978580Y-112403293D01*
X143964682Y-112387254D01*
X143863247Y-112247641D01*
X143863243Y-112247636D01*
X143707363Y-112091756D01*
X143707358Y-112091752D01*
X143529025Y-111962187D01*
X143529024Y-111962186D01*
X143529022Y-111962185D01*
X143466096Y-111930122D01*
X143332606Y-111862104D01*
X143332603Y-111862103D01*
X143122952Y-111793985D01*
X143014086Y-111776742D01*
X142905222Y-111759500D01*
X142684778Y-111759500D01*
X142612201Y-111770995D01*
X142467047Y-111793985D01*
X142257396Y-111862103D01*
X142257393Y-111862104D01*
X142060974Y-111962187D01*
X141882641Y-112091752D01*
X141882636Y-112091756D01*
X141726756Y-112247636D01*
X141726752Y-112247641D01*
X141625318Y-112387254D01*
X141569988Y-112429920D01*
X141500375Y-112435899D01*
X141438580Y-112403293D01*
X141424682Y-112387254D01*
X141323247Y-112247641D01*
X141323243Y-112247636D01*
X141167363Y-112091756D01*
X141167358Y-112091752D01*
X140989025Y-111962187D01*
X140989024Y-111962186D01*
X140989022Y-111962185D01*
X140926096Y-111930122D01*
X140792606Y-111862104D01*
X140792603Y-111862103D01*
X140582952Y-111793985D01*
X140474086Y-111776742D01*
X140365222Y-111759500D01*
X140144778Y-111759500D01*
X140072201Y-111770995D01*
X139927047Y-111793985D01*
X139717396Y-111862103D01*
X139717393Y-111862104D01*
X139520974Y-111962187D01*
X139342641Y-112091752D01*
X139342636Y-112091756D01*
X139186756Y-112247636D01*
X139186752Y-112247641D01*
X139085318Y-112387254D01*
X139029988Y-112429920D01*
X138960375Y-112435899D01*
X138898580Y-112403293D01*
X138884682Y-112387254D01*
X138783247Y-112247641D01*
X138783243Y-112247636D01*
X138627363Y-112091756D01*
X138627358Y-112091752D01*
X138449025Y-111962187D01*
X138449024Y-111962186D01*
X138449022Y-111962185D01*
X138386096Y-111930122D01*
X138252606Y-111862104D01*
X138252603Y-111862103D01*
X138042952Y-111793985D01*
X137934086Y-111776742D01*
X137825222Y-111759500D01*
X137604778Y-111759500D01*
X137532201Y-111770995D01*
X137387047Y-111793985D01*
X137177396Y-111862103D01*
X137177393Y-111862104D01*
X136980974Y-111962187D01*
X136802641Y-112091752D01*
X136802636Y-112091756D01*
X136646756Y-112247636D01*
X136646752Y-112247641D01*
X136545318Y-112387254D01*
X136489988Y-112429920D01*
X136420375Y-112435899D01*
X136358580Y-112403293D01*
X136344682Y-112387254D01*
X136243247Y-112247641D01*
X136243243Y-112247636D01*
X136087363Y-112091756D01*
X136087358Y-112091752D01*
X135909025Y-111962187D01*
X135909024Y-111962186D01*
X135909022Y-111962185D01*
X135846096Y-111930122D01*
X135712606Y-111862104D01*
X135712603Y-111862103D01*
X135502952Y-111793985D01*
X135394086Y-111776742D01*
X135285222Y-111759500D01*
X135064778Y-111759500D01*
X134992201Y-111770995D01*
X134847047Y-111793985D01*
X134637396Y-111862103D01*
X134637393Y-111862104D01*
X134440974Y-111962187D01*
X134262641Y-112091752D01*
X134262636Y-112091756D01*
X134106756Y-112247636D01*
X134106752Y-112247641D01*
X134005318Y-112387254D01*
X133949988Y-112429920D01*
X133880375Y-112435899D01*
X133818580Y-112403293D01*
X133804682Y-112387254D01*
X133703247Y-112247641D01*
X133703243Y-112247636D01*
X133547363Y-112091756D01*
X133547358Y-112091752D01*
X133369025Y-111962187D01*
X133369024Y-111962186D01*
X133369022Y-111962185D01*
X133306096Y-111930122D01*
X133172606Y-111862104D01*
X133172603Y-111862103D01*
X132962952Y-111793985D01*
X132854086Y-111776742D01*
X132745222Y-111759500D01*
X132524778Y-111759500D01*
X132452201Y-111770995D01*
X132307047Y-111793985D01*
X132097396Y-111862103D01*
X132097393Y-111862104D01*
X131900974Y-111962187D01*
X131722641Y-112091752D01*
X131722636Y-112091756D01*
X131566756Y-112247636D01*
X131566752Y-112247641D01*
X131465318Y-112387254D01*
X131409988Y-112429920D01*
X131340375Y-112435899D01*
X131278580Y-112403293D01*
X131264682Y-112387254D01*
X131163247Y-112247641D01*
X131163243Y-112247636D01*
X131007363Y-112091756D01*
X131007358Y-112091752D01*
X130829025Y-111962187D01*
X130829024Y-111962186D01*
X130829022Y-111962185D01*
X130766096Y-111930122D01*
X130632606Y-111862104D01*
X130632603Y-111862103D01*
X130422952Y-111793985D01*
X130314086Y-111776742D01*
X130205222Y-111759500D01*
X129984778Y-111759500D01*
X129912201Y-111770995D01*
X129767047Y-111793985D01*
X129557396Y-111862103D01*
X129557393Y-111862104D01*
X129360974Y-111962187D01*
X129182641Y-112091752D01*
X129182636Y-112091756D01*
X129026756Y-112247636D01*
X129026752Y-112247641D01*
X128925318Y-112387254D01*
X128869988Y-112429920D01*
X128800375Y-112435899D01*
X128738580Y-112403293D01*
X128724682Y-112387254D01*
X128623247Y-112247641D01*
X128623243Y-112247636D01*
X128467363Y-112091756D01*
X128467358Y-112091752D01*
X128289025Y-111962187D01*
X128289024Y-111962186D01*
X128289022Y-111962185D01*
X128226096Y-111930122D01*
X128092606Y-111862104D01*
X128092603Y-111862103D01*
X127882952Y-111793985D01*
X127774086Y-111776742D01*
X127665222Y-111759500D01*
X127444778Y-111759500D01*
X127372201Y-111770995D01*
X127227047Y-111793985D01*
X127017396Y-111862103D01*
X127017393Y-111862104D01*
X126820974Y-111962187D01*
X126642641Y-112091752D01*
X126642636Y-112091756D01*
X126486756Y-112247636D01*
X126486752Y-112247641D01*
X126385318Y-112387254D01*
X126329988Y-112429920D01*
X126260375Y-112435899D01*
X126198580Y-112403293D01*
X126184682Y-112387254D01*
X126083247Y-112247641D01*
X126083243Y-112247636D01*
X125927363Y-112091756D01*
X125927358Y-112091752D01*
X125749025Y-111962187D01*
X125749024Y-111962186D01*
X125749022Y-111962185D01*
X125686096Y-111930122D01*
X125552606Y-111862104D01*
X125552603Y-111862103D01*
X125342952Y-111793985D01*
X125234086Y-111776742D01*
X125125222Y-111759500D01*
X124904778Y-111759500D01*
X124832201Y-111770995D01*
X124687047Y-111793985D01*
X124477396Y-111862103D01*
X124477393Y-111862104D01*
X124280974Y-111962187D01*
X124102641Y-112091752D01*
X124102636Y-112091756D01*
X123946756Y-112247636D01*
X123946752Y-112247641D01*
X123845318Y-112387254D01*
X123789988Y-112429920D01*
X123720375Y-112435899D01*
X123658580Y-112403293D01*
X123644682Y-112387254D01*
X123543247Y-112247641D01*
X123543243Y-112247636D01*
X123387363Y-112091756D01*
X123387358Y-112091752D01*
X123209025Y-111962187D01*
X123209024Y-111962186D01*
X123209022Y-111962185D01*
X123146096Y-111930122D01*
X123012606Y-111862104D01*
X123012603Y-111862103D01*
X122802952Y-111793985D01*
X122694086Y-111776742D01*
X122585222Y-111759500D01*
X122364778Y-111759500D01*
X122292201Y-111770995D01*
X122147047Y-111793985D01*
X121937396Y-111862103D01*
X121937393Y-111862104D01*
X121740974Y-111962187D01*
X121562641Y-112091752D01*
X121562636Y-112091756D01*
X121406756Y-112247636D01*
X121305008Y-112387681D01*
X121249678Y-112430346D01*
X121180065Y-112436325D01*
X121118270Y-112403719D01*
X121104372Y-112387680D01*
X121002862Y-112247964D01*
X121002857Y-112247958D01*
X120847041Y-112092142D01*
X120668760Y-111962613D01*
X120472410Y-111862567D01*
X120262836Y-111794473D01*
X120185000Y-111782144D01*
X120185000Y-113011517D01*
X120166591Y-113000889D01*
X120013991Y-112960000D01*
X119856009Y-112960000D01*
X119703409Y-113000889D01*
X119685000Y-113011517D01*
X119685000Y-111782144D01*
X119607164Y-111794473D01*
X119607161Y-111794473D01*
X119397589Y-111862567D01*
X119201239Y-111962613D01*
X119022958Y-112092142D01*
X118867142Y-112247958D01*
X118867142Y-112247959D01*
X118765627Y-112387681D01*
X118710297Y-112430346D01*
X118640683Y-112436325D01*
X118578888Y-112403719D01*
X118564991Y-112387680D01*
X118463247Y-112247641D01*
X118463243Y-112247636D01*
X118307363Y-112091756D01*
X118307358Y-112091752D01*
X118129025Y-111962187D01*
X118129024Y-111962186D01*
X118129022Y-111962185D01*
X118066096Y-111930122D01*
X117932606Y-111862104D01*
X117932603Y-111862103D01*
X117722952Y-111793985D01*
X117614086Y-111776742D01*
X117505222Y-111759500D01*
X117284778Y-111759500D01*
X117212201Y-111770995D01*
X117067047Y-111793985D01*
X116857396Y-111862103D01*
X116857393Y-111862104D01*
X116660974Y-111962187D01*
X116482641Y-112091752D01*
X116482636Y-112091756D01*
X116326756Y-112247636D01*
X116326752Y-112247641D01*
X116225318Y-112387254D01*
X116169988Y-112429920D01*
X116100375Y-112435899D01*
X116038580Y-112403293D01*
X116024682Y-112387254D01*
X115923247Y-112247641D01*
X115923243Y-112247636D01*
X115767363Y-112091756D01*
X115767358Y-112091752D01*
X115589025Y-111962187D01*
X115589024Y-111962186D01*
X115589022Y-111962185D01*
X115526096Y-111930122D01*
X115392606Y-111862104D01*
X115392603Y-111862103D01*
X115182952Y-111793985D01*
X115074086Y-111776742D01*
X114965222Y-111759500D01*
X114744778Y-111759500D01*
X114672201Y-111770995D01*
X114527047Y-111793985D01*
X114317396Y-111862103D01*
X114317393Y-111862104D01*
X114120974Y-111962187D01*
X113942641Y-112091752D01*
X113942636Y-112091756D01*
X113786756Y-112247636D01*
X113786752Y-112247641D01*
X113685318Y-112387254D01*
X113629988Y-112429920D01*
X113560375Y-112435899D01*
X113498580Y-112403293D01*
X113484682Y-112387254D01*
X113383247Y-112247641D01*
X113383243Y-112247636D01*
X113227363Y-112091756D01*
X113227358Y-112091752D01*
X113049025Y-111962187D01*
X113049024Y-111962186D01*
X113049022Y-111962185D01*
X112986096Y-111930122D01*
X112852606Y-111862104D01*
X112852603Y-111862103D01*
X112642952Y-111793985D01*
X112534086Y-111776742D01*
X112425222Y-111759500D01*
X112204778Y-111759500D01*
X112132201Y-111770995D01*
X111987047Y-111793985D01*
X111777396Y-111862103D01*
X111777393Y-111862104D01*
X111580974Y-111962187D01*
X111402641Y-112091752D01*
X111402636Y-112091756D01*
X111352075Y-112142317D01*
X111290752Y-112175801D01*
X111221060Y-112170816D01*
X111165127Y-112128945D01*
X111148213Y-112097968D01*
X111118354Y-112017913D01*
X111118350Y-112017906D01*
X111032190Y-111902812D01*
X111032187Y-111902809D01*
X110917093Y-111816649D01*
X110917086Y-111816645D01*
X110782379Y-111766403D01*
X110782372Y-111766401D01*
X110722844Y-111760000D01*
X110025000Y-111760000D01*
X110025000Y-113011517D01*
X110006591Y-113000889D01*
X109853991Y-112960000D01*
X109696009Y-112960000D01*
X109543409Y-113000889D01*
X109525000Y-113011517D01*
X109525000Y-111760000D01*
X108827155Y-111760000D01*
X108767627Y-111766401D01*
X108767620Y-111766403D01*
X108632913Y-111816645D01*
X108632906Y-111816649D01*
X108517812Y-111902809D01*
X108517809Y-111902812D01*
X108431649Y-112017906D01*
X108431645Y-112017913D01*
X108381403Y-112152620D01*
X108381401Y-112152627D01*
X108375000Y-112212155D01*
X105757189Y-112212155D01*
X105597760Y-112052726D01*
X105597751Y-112052718D01*
X105389703Y-111893075D01*
X105162600Y-111761958D01*
X105162590Y-111761953D01*
X104920328Y-111661605D01*
X104920321Y-111661603D01*
X104920319Y-111661602D01*
X104667016Y-111593730D01*
X104609239Y-111586123D01*
X104407027Y-111559500D01*
X104407020Y-111559500D01*
X104144780Y-111559500D01*
X104144772Y-111559500D01*
X103913672Y-111589926D01*
X103884784Y-111593730D01*
X103631481Y-111661602D01*
X103631471Y-111661605D01*
X103389209Y-111761953D01*
X103389199Y-111761958D01*
X103162096Y-111893075D01*
X102954048Y-112052718D01*
X102768618Y-112238148D01*
X102608975Y-112446196D01*
X102477858Y-112673299D01*
X102477853Y-112673309D01*
X102377505Y-112915571D01*
X102377502Y-112915581D01*
X102309630Y-113168885D01*
X102275400Y-113428872D01*
X100500500Y-113428872D01*
X100500500Y-109999986D01*
X145075001Y-109999986D01*
X145085494Y-110102697D01*
X145140641Y-110269119D01*
X145140643Y-110269124D01*
X145232684Y-110418345D01*
X145356654Y-110542315D01*
X145505875Y-110634356D01*
X145505880Y-110634358D01*
X145672302Y-110689505D01*
X145672309Y-110689506D01*
X145775019Y-110699999D01*
X145837499Y-110699998D01*
X145837500Y-110699998D01*
X145837500Y-109750000D01*
X145075001Y-109750000D01*
X145075001Y-109999986D01*
X100500500Y-109999986D01*
X100500500Y-109000013D01*
X145075000Y-109000013D01*
X145075000Y-109250000D01*
X145837500Y-109250000D01*
X145837500Y-108300000D01*
X145837499Y-108299999D01*
X145775028Y-108300000D01*
X145775011Y-108300001D01*
X145672302Y-108310494D01*
X145505880Y-108365641D01*
X145505875Y-108365643D01*
X145356654Y-108457684D01*
X145232684Y-108581654D01*
X145140643Y-108730875D01*
X145140641Y-108730880D01*
X145085494Y-108897302D01*
X145085493Y-108897309D01*
X145075000Y-109000013D01*
X100500500Y-109000013D01*
X100500500Y-106421153D01*
X124199500Y-106421153D01*
X124199500Y-106578846D01*
X124230261Y-106733489D01*
X124230264Y-106733501D01*
X124290602Y-106879172D01*
X124290609Y-106879185D01*
X124378210Y-107010288D01*
X124378213Y-107010292D01*
X124489707Y-107121786D01*
X124489711Y-107121789D01*
X124620814Y-107209390D01*
X124620827Y-107209397D01*
X124766498Y-107269735D01*
X124766503Y-107269737D01*
X124921153Y-107300499D01*
X124921156Y-107300500D01*
X124921158Y-107300500D01*
X125078844Y-107300500D01*
X125078845Y-107300499D01*
X125233497Y-107269737D01*
X125379179Y-107209394D01*
X125510289Y-107121789D01*
X125621789Y-107010289D01*
X125709394Y-106879179D01*
X125769737Y-106733497D01*
X125800500Y-106578842D01*
X125800500Y-106421158D01*
X125800500Y-106421155D01*
X125800499Y-106421153D01*
X125769738Y-106266510D01*
X125769737Y-106266503D01*
X125769735Y-106266498D01*
X125709397Y-106120827D01*
X125709390Y-106120814D01*
X125621398Y-105989125D01*
X125600520Y-105922447D01*
X125600500Y-105920234D01*
X125600500Y-104578114D01*
X171818878Y-104578114D01*
X171818879Y-104578117D01*
X171859803Y-104730845D01*
X171938861Y-104867776D01*
X172050664Y-104979579D01*
X172187595Y-105058637D01*
X172340323Y-105099561D01*
X172340326Y-105099561D01*
X172498434Y-105099561D01*
X172498437Y-105099561D01*
X172651165Y-105058637D01*
X172788096Y-104979579D01*
X172900519Y-104867156D01*
X172979577Y-104730225D01*
X173020501Y-104577497D01*
X173020501Y-104419383D01*
X172979577Y-104266655D01*
X172900519Y-104129724D01*
X172788716Y-104017921D01*
X172651785Y-103938863D01*
X172499057Y-103897939D01*
X172340943Y-103897939D01*
X172226397Y-103928632D01*
X172188214Y-103938863D01*
X172051284Y-104017921D01*
X172051281Y-104017923D01*
X171938863Y-104130341D01*
X171938861Y-104130344D01*
X171859803Y-104267274D01*
X171859803Y-104267275D01*
X171818879Y-104420003D01*
X171818879Y-104420005D01*
X171818879Y-104578114D01*
X171818878Y-104578114D01*
X125600500Y-104578114D01*
X125600500Y-102300096D01*
X125620185Y-102233057D01*
X125636815Y-102212419D01*
X126270898Y-101578335D01*
X126332219Y-101544852D01*
X126401910Y-101549836D01*
X126446258Y-101578337D01*
X126489707Y-101621786D01*
X126489711Y-101621789D01*
X126620814Y-101709390D01*
X126620827Y-101709397D01*
X126765523Y-101769331D01*
X126766503Y-101769737D01*
X126831147Y-101782595D01*
X126921849Y-101800638D01*
X126983760Y-101833023D01*
X126985336Y-101834571D01*
X127631284Y-102480520D01*
X127631286Y-102480521D01*
X127631290Y-102480524D01*
X127768209Y-102559573D01*
X127768216Y-102559577D01*
X127920943Y-102600501D01*
X127920945Y-102600501D01*
X128086654Y-102600501D01*
X128086670Y-102600500D01*
X156088331Y-102600500D01*
X156088347Y-102600501D01*
X156095943Y-102600501D01*
X156254054Y-102600501D01*
X156254057Y-102600501D01*
X156406785Y-102559577D01*
X156456904Y-102530639D01*
X156543716Y-102480520D01*
X156655520Y-102368716D01*
X156655521Y-102368714D01*
X156787419Y-102236815D01*
X156848740Y-102203333D01*
X156875098Y-102200499D01*
X156900002Y-102200499D01*
X156900008Y-102200499D01*
X157002797Y-102189999D01*
X157169334Y-102134814D01*
X157318656Y-102042712D01*
X157412319Y-101949049D01*
X157473642Y-101915564D01*
X157543334Y-101920548D01*
X157587681Y-101949049D01*
X157681344Y-102042712D01*
X157830666Y-102134814D01*
X157997203Y-102189999D01*
X158099991Y-102200500D01*
X158725008Y-102200499D01*
X158725016Y-102200498D01*
X158725019Y-102200498D01*
X158781302Y-102194748D01*
X158827797Y-102189999D01*
X158994334Y-102134814D01*
X159143656Y-102042712D01*
X159267712Y-101918656D01*
X159359814Y-101769334D01*
X159414999Y-101602797D01*
X159425500Y-101500009D01*
X159425499Y-100499992D01*
X159424448Y-100489707D01*
X159414999Y-100397203D01*
X159414998Y-100397200D01*
X159394875Y-100336474D01*
X159359814Y-100230666D01*
X159267712Y-100081344D01*
X159250457Y-100064089D01*
X159216972Y-100002766D01*
X159221956Y-99933074D01*
X159250456Y-99888727D01*
X159291966Y-99847219D01*
X159291968Y-99847215D01*
X159291971Y-99847213D01*
X159412284Y-99681614D01*
X159412285Y-99681613D01*
X159412287Y-99681610D01*
X159459516Y-99588917D01*
X159507489Y-99538123D01*
X159575310Y-99521328D01*
X159641445Y-99543865D01*
X159680483Y-99588917D01*
X159687730Y-99603139D01*
X159727715Y-99681614D01*
X159848028Y-99847213D01*
X159992786Y-99991971D01*
X160115800Y-100081344D01*
X160158390Y-100112287D01*
X160274607Y-100171503D01*
X160340776Y-100205218D01*
X160340778Y-100205218D01*
X160340781Y-100205220D01*
X160419096Y-100230666D01*
X160535465Y-100268477D01*
X160636557Y-100284488D01*
X160737648Y-100300500D01*
X160737649Y-100300500D01*
X160942351Y-100300500D01*
X160942352Y-100300500D01*
X161144534Y-100268477D01*
X161339219Y-100205220D01*
X161521610Y-100112287D01*
X161614590Y-100044732D01*
X161687213Y-99991971D01*
X161687215Y-99991968D01*
X161687219Y-99991966D01*
X161831966Y-99847219D01*
X161831968Y-99847215D01*
X161831971Y-99847213D01*
X161952285Y-99681613D01*
X161952287Y-99681610D01*
X161999795Y-99588369D01*
X162047769Y-99537573D01*
X162115590Y-99520778D01*
X162181725Y-99543315D01*
X162220765Y-99588369D01*
X162268141Y-99681350D01*
X162268147Y-99681359D01*
X162300523Y-99725921D01*
X162300524Y-99725922D01*
X162980000Y-99046446D01*
X162980000Y-99052661D01*
X163007259Y-99154394D01*
X163059920Y-99245606D01*
X163134394Y-99320080D01*
X163225606Y-99372741D01*
X163327339Y-99400000D01*
X163333553Y-99400000D01*
X162654076Y-100079474D01*
X162698650Y-100111859D01*
X162880968Y-100204755D01*
X163075582Y-100267990D01*
X163277683Y-100300000D01*
X163482317Y-100300000D01*
X163684417Y-100267990D01*
X163879031Y-100204755D01*
X164061349Y-100111859D01*
X164105921Y-100079474D01*
X163426447Y-99400000D01*
X163432661Y-99400000D01*
X163534394Y-99372741D01*
X163625606Y-99320080D01*
X163700080Y-99245606D01*
X163752741Y-99154394D01*
X163780000Y-99052661D01*
X163780000Y-99046447D01*
X164459474Y-99725921D01*
X164491861Y-99681347D01*
X164491861Y-99681346D01*
X164539234Y-99588371D01*
X164587208Y-99537575D01*
X164655028Y-99520779D01*
X164721164Y-99543316D01*
X164760203Y-99588369D01*
X164807713Y-99681611D01*
X164928028Y-99847213D01*
X165072786Y-99991971D01*
X165195800Y-100081344D01*
X165238390Y-100112287D01*
X165354607Y-100171503D01*
X165420776Y-100205218D01*
X165420778Y-100205218D01*
X165420781Y-100205220D01*
X165499096Y-100230666D01*
X165615465Y-100268477D01*
X165716557Y-100284488D01*
X165817648Y-100300500D01*
X165817649Y-100300500D01*
X166022351Y-100300500D01*
X166022352Y-100300500D01*
X166224534Y-100268477D01*
X166419219Y-100205220D01*
X166601610Y-100112287D01*
X166694590Y-100044732D01*
X166767213Y-99991971D01*
X166767215Y-99991968D01*
X166767219Y-99991966D01*
X166911966Y-99847219D01*
X166911968Y-99847215D01*
X166911971Y-99847213D01*
X167032284Y-99681614D01*
X167032285Y-99681613D01*
X167032287Y-99681610D01*
X167079516Y-99588917D01*
X167127489Y-99538123D01*
X167195310Y-99521328D01*
X167261445Y-99543865D01*
X167300483Y-99588917D01*
X167307730Y-99603139D01*
X167347715Y-99681614D01*
X167468028Y-99847213D01*
X167612786Y-99991971D01*
X167735800Y-100081344D01*
X167778390Y-100112287D01*
X167894607Y-100171503D01*
X167960776Y-100205218D01*
X167960778Y-100205218D01*
X167960781Y-100205220D01*
X168039096Y-100230666D01*
X168155465Y-100268477D01*
X168256557Y-100284488D01*
X168357648Y-100300500D01*
X168357649Y-100300500D01*
X168562351Y-100300500D01*
X168562352Y-100300500D01*
X168764534Y-100268477D01*
X168959219Y-100205220D01*
X169141610Y-100112287D01*
X169234590Y-100044732D01*
X169307213Y-99991971D01*
X169307215Y-99991968D01*
X169307219Y-99991966D01*
X169451966Y-99847219D01*
X169451968Y-99847215D01*
X169451971Y-99847213D01*
X169572284Y-99681614D01*
X169572285Y-99681613D01*
X169572287Y-99681610D01*
X169619516Y-99588917D01*
X169667489Y-99538123D01*
X169735310Y-99521328D01*
X169801445Y-99543865D01*
X169840483Y-99588917D01*
X169847730Y-99603139D01*
X169887715Y-99681614D01*
X170008028Y-99847213D01*
X170152786Y-99991971D01*
X170275800Y-100081344D01*
X170318390Y-100112287D01*
X170434607Y-100171503D01*
X170500776Y-100205218D01*
X170500778Y-100205218D01*
X170500781Y-100205220D01*
X170579096Y-100230666D01*
X170695465Y-100268477D01*
X170796557Y-100284488D01*
X170897648Y-100300500D01*
X170897649Y-100300500D01*
X171102351Y-100300500D01*
X171102352Y-100300500D01*
X171304534Y-100268477D01*
X171499219Y-100205220D01*
X171681610Y-100112287D01*
X171774590Y-100044732D01*
X171847213Y-99991971D01*
X171847215Y-99991968D01*
X171847219Y-99991966D01*
X171991966Y-99847219D01*
X171991968Y-99847215D01*
X171991971Y-99847213D01*
X172112284Y-99681614D01*
X172112285Y-99681613D01*
X172112287Y-99681610D01*
X172159516Y-99588917D01*
X172207489Y-99538123D01*
X172275310Y-99521328D01*
X172341445Y-99543865D01*
X172380483Y-99588917D01*
X172387730Y-99603139D01*
X172427715Y-99681614D01*
X172548028Y-99847213D01*
X172692786Y-99991971D01*
X172815800Y-100081344D01*
X172858390Y-100112287D01*
X172974607Y-100171503D01*
X173040776Y-100205218D01*
X173040778Y-100205218D01*
X173040781Y-100205220D01*
X173119096Y-100230666D01*
X173235465Y-100268477D01*
X173336557Y-100284488D01*
X173437648Y-100300500D01*
X173437649Y-100300500D01*
X173642351Y-100300500D01*
X173642352Y-100300500D01*
X173844534Y-100268477D01*
X174039219Y-100205220D01*
X174221610Y-100112287D01*
X174314590Y-100044732D01*
X174387213Y-99991971D01*
X174387215Y-99991968D01*
X174387219Y-99991966D01*
X174531966Y-99847219D01*
X174531968Y-99847215D01*
X174531971Y-99847213D01*
X174652284Y-99681614D01*
X174652285Y-99681613D01*
X174652287Y-99681610D01*
X174699516Y-99588917D01*
X174747489Y-99538123D01*
X174815310Y-99521328D01*
X174881445Y-99543865D01*
X174920483Y-99588917D01*
X174927730Y-99603139D01*
X174967715Y-99681614D01*
X175088028Y-99847213D01*
X175232786Y-99991971D01*
X175355800Y-100081344D01*
X175398390Y-100112287D01*
X175514607Y-100171503D01*
X175580776Y-100205218D01*
X175580778Y-100205218D01*
X175580781Y-100205220D01*
X175659096Y-100230666D01*
X175775465Y-100268477D01*
X175876557Y-100284488D01*
X175977648Y-100300500D01*
X175977649Y-100300500D01*
X176182351Y-100300500D01*
X176182352Y-100300500D01*
X176384534Y-100268477D01*
X176579219Y-100205220D01*
X176761610Y-100112287D01*
X176854590Y-100044732D01*
X176927213Y-99991971D01*
X176927215Y-99991968D01*
X176927219Y-99991966D01*
X177071966Y-99847219D01*
X177071968Y-99847215D01*
X177071971Y-99847213D01*
X177192284Y-99681614D01*
X177192285Y-99681613D01*
X177192287Y-99681610D01*
X177239516Y-99588917D01*
X177287489Y-99538123D01*
X177355310Y-99521328D01*
X177421445Y-99543865D01*
X177460483Y-99588917D01*
X177467730Y-99603139D01*
X177507715Y-99681614D01*
X177628028Y-99847213D01*
X177772786Y-99991971D01*
X177895800Y-100081344D01*
X177938390Y-100112287D01*
X178054607Y-100171503D01*
X178120776Y-100205218D01*
X178120778Y-100205218D01*
X178120781Y-100205220D01*
X178199096Y-100230666D01*
X178315465Y-100268477D01*
X178416557Y-100284488D01*
X178517648Y-100300500D01*
X178517649Y-100300500D01*
X178722351Y-100300500D01*
X178722352Y-100300500D01*
X178924534Y-100268477D01*
X179119219Y-100205220D01*
X179301610Y-100112287D01*
X179394590Y-100044732D01*
X179467213Y-99991971D01*
X179467215Y-99991968D01*
X179467219Y-99991966D01*
X179611966Y-99847219D01*
X179611968Y-99847215D01*
X179611971Y-99847213D01*
X179732284Y-99681614D01*
X179732285Y-99681613D01*
X179732287Y-99681610D01*
X179779516Y-99588917D01*
X179827489Y-99538123D01*
X179895310Y-99521328D01*
X179961445Y-99543865D01*
X180000483Y-99588917D01*
X180007730Y-99603139D01*
X180047715Y-99681614D01*
X180168028Y-99847213D01*
X180312786Y-99991971D01*
X180435800Y-100081344D01*
X180478390Y-100112287D01*
X180594607Y-100171503D01*
X180660776Y-100205218D01*
X180660778Y-100205218D01*
X180660781Y-100205220D01*
X180739096Y-100230666D01*
X180855465Y-100268477D01*
X180956557Y-100284488D01*
X181057648Y-100300500D01*
X181057649Y-100300500D01*
X181262351Y-100300500D01*
X181262352Y-100300500D01*
X181464534Y-100268477D01*
X181659219Y-100205220D01*
X181841610Y-100112287D01*
X181934590Y-100044732D01*
X182007213Y-99991971D01*
X182007215Y-99991968D01*
X182007219Y-99991966D01*
X182151966Y-99847219D01*
X182151968Y-99847215D01*
X182151971Y-99847213D01*
X182206046Y-99772784D01*
X182272287Y-99681610D01*
X182365220Y-99499219D01*
X182428477Y-99304534D01*
X182460500Y-99102352D01*
X182460500Y-98897648D01*
X182447116Y-98813147D01*
X182428477Y-98695465D01*
X182390585Y-98578846D01*
X182365220Y-98500781D01*
X182365218Y-98500778D01*
X182365218Y-98500776D01*
X182319515Y-98411080D01*
X182272287Y-98318390D01*
X182248400Y-98285512D01*
X182151971Y-98152786D01*
X182007213Y-98008028D01*
X181841613Y-97887715D01*
X181841612Y-97887714D01*
X181841610Y-97887713D01*
X181774921Y-97853733D01*
X181659223Y-97794781D01*
X181464534Y-97731522D01*
X181289995Y-97703878D01*
X181262352Y-97699500D01*
X181057648Y-97699500D01*
X181033329Y-97703351D01*
X180855465Y-97731522D01*
X180660776Y-97794781D01*
X180478386Y-97887715D01*
X180312786Y-98008028D01*
X180168028Y-98152786D01*
X180047715Y-98318386D01*
X180000485Y-98411080D01*
X179952510Y-98461876D01*
X179884689Y-98478671D01*
X179818554Y-98456134D01*
X179779515Y-98411080D01*
X179739687Y-98332914D01*
X179732287Y-98318390D01*
X179708400Y-98285512D01*
X179611971Y-98152786D01*
X179467213Y-98008028D01*
X179301613Y-97887715D01*
X179301612Y-97887714D01*
X179301610Y-97887713D01*
X179234921Y-97853733D01*
X179119223Y-97794781D01*
X178924534Y-97731522D01*
X178749995Y-97703878D01*
X178722352Y-97699500D01*
X178517648Y-97699500D01*
X178493329Y-97703351D01*
X178315465Y-97731522D01*
X178120776Y-97794781D01*
X177938386Y-97887715D01*
X177772786Y-98008028D01*
X177628028Y-98152786D01*
X177507715Y-98318386D01*
X177460485Y-98411080D01*
X177412510Y-98461876D01*
X177344689Y-98478671D01*
X177278554Y-98456134D01*
X177239515Y-98411080D01*
X177199687Y-98332914D01*
X177192287Y-98318390D01*
X177168400Y-98285512D01*
X177071971Y-98152786D01*
X176927213Y-98008028D01*
X176761613Y-97887715D01*
X176761612Y-97887714D01*
X176761610Y-97887713D01*
X176694921Y-97853733D01*
X176579223Y-97794781D01*
X176384534Y-97731522D01*
X176209995Y-97703878D01*
X176182352Y-97699500D01*
X175989096Y-97699500D01*
X175922057Y-97679815D01*
X175876302Y-97627011D01*
X175866358Y-97557853D01*
X175895383Y-97494297D01*
X175901415Y-97487819D01*
X177968081Y-95421153D01*
X180088713Y-93300521D01*
X180088716Y-93300520D01*
X180200520Y-93188716D01*
X180250639Y-93101904D01*
X180279577Y-93051785D01*
X180320501Y-92899057D01*
X180320501Y-92740943D01*
X180320501Y-92733348D01*
X180320500Y-92733330D01*
X180320500Y-92614187D01*
X180340185Y-92547148D01*
X180392989Y-92501393D01*
X180462147Y-92491449D01*
X180500795Y-92503703D01*
X180660771Y-92585216D01*
X180660776Y-92585217D01*
X180660781Y-92585220D01*
X180796658Y-92629369D01*
X180855465Y-92648477D01*
X180956557Y-92664488D01*
X181057648Y-92680500D01*
X181057649Y-92680500D01*
X181262351Y-92680500D01*
X181262352Y-92680500D01*
X181464534Y-92648477D01*
X181659219Y-92585220D01*
X181841610Y-92492287D01*
X181970482Y-92398657D01*
X182007213Y-92371971D01*
X182007215Y-92371968D01*
X182007219Y-92371966D01*
X182151966Y-92227219D01*
X182151968Y-92227215D01*
X182151971Y-92227213D01*
X182220021Y-92133548D01*
X182272287Y-92061610D01*
X182365220Y-91879219D01*
X182428477Y-91684534D01*
X182460500Y-91482352D01*
X182460500Y-91277648D01*
X182445147Y-91180713D01*
X182428477Y-91075465D01*
X182397458Y-90980000D01*
X182365220Y-90880781D01*
X182365218Y-90880778D01*
X182365218Y-90880776D01*
X182272420Y-90698652D01*
X182272287Y-90698390D01*
X182240092Y-90654077D01*
X182151971Y-90532786D01*
X182007213Y-90388028D01*
X181841613Y-90267715D01*
X181841612Y-90267714D01*
X181841610Y-90267713D01*
X181781898Y-90237288D01*
X181659223Y-90174781D01*
X181464534Y-90111522D01*
X181289995Y-90083878D01*
X181262352Y-90079500D01*
X181057648Y-90079500D01*
X181033329Y-90083351D01*
X180855465Y-90111522D01*
X180660776Y-90174781D01*
X180500795Y-90256297D01*
X180432126Y-90269193D01*
X180367385Y-90242917D01*
X180327128Y-90185810D01*
X180320500Y-90145812D01*
X180320500Y-84850886D01*
X180340185Y-84783847D01*
X180392989Y-84738092D01*
X180462147Y-84728148D01*
X180500797Y-84740403D01*
X180521776Y-84751093D01*
X180521779Y-84751094D01*
X180723870Y-84816757D01*
X180933754Y-84850000D01*
X181146246Y-84850000D01*
X181356127Y-84816757D01*
X181356130Y-84816757D01*
X181558217Y-84751095D01*
X181747554Y-84654622D01*
X181801716Y-84615270D01*
X181801717Y-84615270D01*
X181169409Y-83982962D01*
X181232993Y-83965925D01*
X181347007Y-83900099D01*
X181440099Y-83807007D01*
X181505925Y-83692993D01*
X181522962Y-83629408D01*
X182155270Y-84261717D01*
X182155270Y-84261716D01*
X182194622Y-84207554D01*
X182291095Y-84018217D01*
X182356757Y-83816130D01*
X182356757Y-83816127D01*
X182390000Y-83606246D01*
X182390000Y-83393753D01*
X182356757Y-83183872D01*
X182356757Y-83183869D01*
X182291095Y-82981782D01*
X182194624Y-82792449D01*
X182155270Y-82738282D01*
X182155269Y-82738282D01*
X181522962Y-83370590D01*
X181505925Y-83307007D01*
X181440099Y-83192993D01*
X181347007Y-83099901D01*
X181232993Y-83034075D01*
X181169407Y-83017036D01*
X181801716Y-82384728D01*
X181747547Y-82345373D01*
X181747547Y-82345372D01*
X181738500Y-82340763D01*
X181687706Y-82292788D01*
X181670912Y-82224966D01*
X181693451Y-82158832D01*
X181738508Y-82119793D01*
X181747816Y-82115051D01*
X181886375Y-82014383D01*
X181919786Y-81990109D01*
X181919788Y-81990106D01*
X181919792Y-81990104D01*
X182070104Y-81839792D01*
X182070106Y-81839788D01*
X182070109Y-81839786D01*
X182195048Y-81667820D01*
X182195047Y-81667820D01*
X182195051Y-81667816D01*
X182291557Y-81478412D01*
X182357246Y-81276243D01*
X182390500Y-81066287D01*
X182390500Y-80853713D01*
X182357246Y-80643757D01*
X182291557Y-80441588D01*
X182195051Y-80252184D01*
X182195049Y-80252181D01*
X182195048Y-80252179D01*
X182070109Y-80080213D01*
X181919786Y-79929890D01*
X181747820Y-79804951D01*
X181747115Y-79804591D01*
X181739054Y-79800485D01*
X181688259Y-79752512D01*
X181671463Y-79684692D01*
X181693999Y-79618556D01*
X181739054Y-79579515D01*
X181747816Y-79575051D01*
X181806131Y-79532683D01*
X181919786Y-79450109D01*
X181919788Y-79450106D01*
X181919792Y-79450104D01*
X182070104Y-79299792D01*
X182070106Y-79299788D01*
X182070109Y-79299786D01*
X182195048Y-79127820D01*
X182195047Y-79127820D01*
X182195051Y-79127816D01*
X182291557Y-78938412D01*
X182357246Y-78736243D01*
X182390500Y-78526287D01*
X182390500Y-78313713D01*
X182357246Y-78103757D01*
X182291557Y-77901588D01*
X182195051Y-77712184D01*
X182195049Y-77712181D01*
X182195048Y-77712179D01*
X182070109Y-77540213D01*
X181919786Y-77389890D01*
X181747820Y-77264951D01*
X181558414Y-77168444D01*
X181558413Y-77168443D01*
X181558412Y-77168443D01*
X181356243Y-77102754D01*
X181356241Y-77102753D01*
X181356240Y-77102753D01*
X181194957Y-77077208D01*
X181146287Y-77069500D01*
X180933713Y-77069500D01*
X180885042Y-77077208D01*
X180723760Y-77102753D01*
X180521585Y-77168444D01*
X180332179Y-77264951D01*
X180160215Y-77389889D01*
X180046673Y-77503431D01*
X179985350Y-77536915D01*
X179915658Y-77531931D01*
X179859725Y-77490059D01*
X179842810Y-77459082D01*
X179793797Y-77327671D01*
X179793793Y-77327664D01*
X179707547Y-77212455D01*
X179707544Y-77212452D01*
X179592335Y-77126206D01*
X179592328Y-77126202D01*
X179457482Y-77075908D01*
X179457483Y-77075908D01*
X179397883Y-77069501D01*
X179397881Y-77069500D01*
X179397873Y-77069500D01*
X179397864Y-77069500D01*
X177602129Y-77069500D01*
X177602123Y-77069501D01*
X177542516Y-77075908D01*
X177407671Y-77126202D01*
X177407664Y-77126206D01*
X177292455Y-77212452D01*
X177292452Y-77212455D01*
X177206206Y-77327664D01*
X177206202Y-77327671D01*
X177155908Y-77462517D01*
X177149501Y-77522116D01*
X177149500Y-77522135D01*
X177149500Y-79317870D01*
X177149501Y-79317876D01*
X177155908Y-79377483D01*
X177206202Y-79512328D01*
X177206206Y-79512335D01*
X177292452Y-79627544D01*
X177292455Y-79627547D01*
X177407664Y-79713793D01*
X177407671Y-79713797D01*
X177539082Y-79762810D01*
X177595016Y-79804681D01*
X177619433Y-79870145D01*
X177604582Y-79938418D01*
X177583431Y-79966673D01*
X177469889Y-80080215D01*
X177344951Y-80252179D01*
X177248444Y-80441585D01*
X177182753Y-80643760D01*
X177149500Y-80853713D01*
X177149500Y-81066286D01*
X177182754Y-81276244D01*
X177182754Y-81276247D01*
X177196491Y-81318523D01*
X177198486Y-81388364D01*
X177166241Y-81444522D01*
X176631286Y-81979478D01*
X176519481Y-82091282D01*
X176519480Y-82091284D01*
X176480482Y-82158832D01*
X176469361Y-82178094D01*
X176469359Y-82178096D01*
X176440425Y-82228209D01*
X176440424Y-82228210D01*
X176430162Y-82266510D01*
X176399499Y-82380943D01*
X176399499Y-82380945D01*
X176399499Y-82549046D01*
X176399500Y-82549059D01*
X176399500Y-84913330D01*
X176399499Y-84913348D01*
X176399499Y-85079054D01*
X176399498Y-85079054D01*
X176431772Y-85199500D01*
X176440423Y-85231785D01*
X176461457Y-85268216D01*
X176490577Y-85318654D01*
X176519479Y-85368715D01*
X176726448Y-85575684D01*
X176759933Y-85637007D01*
X176754949Y-85706699D01*
X176753329Y-85710816D01*
X176730262Y-85766506D01*
X176730260Y-85766511D01*
X176699500Y-85921153D01*
X176699500Y-86078846D01*
X176730261Y-86233489D01*
X176730264Y-86233501D01*
X176790602Y-86379172D01*
X176790609Y-86379185D01*
X176878210Y-86510288D01*
X176878213Y-86510292D01*
X176989707Y-86621786D01*
X176989711Y-86621789D01*
X177120814Y-86709390D01*
X177120827Y-86709397D01*
X177217646Y-86749500D01*
X177266503Y-86769737D01*
X177421153Y-86800499D01*
X177421156Y-86800500D01*
X177421158Y-86800500D01*
X177578844Y-86800500D01*
X177578845Y-86800499D01*
X177733497Y-86769737D01*
X177879179Y-86709394D01*
X178010289Y-86621789D01*
X178121789Y-86510289D01*
X178209394Y-86379179D01*
X178269737Y-86233497D01*
X178300500Y-86078842D01*
X178300500Y-85921158D01*
X178300500Y-85921155D01*
X178300499Y-85921153D01*
X178290762Y-85872203D01*
X178269737Y-85766503D01*
X178244966Y-85706699D01*
X178209397Y-85620827D01*
X178209390Y-85620814D01*
X178121399Y-85489126D01*
X178102533Y-85428874D01*
X178101562Y-85429002D01*
X178100828Y-85423429D01*
X178100521Y-85422448D01*
X178100507Y-85420996D01*
X178100501Y-85420945D01*
X178100501Y-85420943D01*
X178059577Y-85268216D01*
X178019904Y-85199500D01*
X177980524Y-85131290D01*
X177980518Y-85131282D01*
X177758804Y-84909568D01*
X177725319Y-84848245D01*
X177730303Y-84778553D01*
X177772175Y-84722620D01*
X177837639Y-84698203D01*
X177902778Y-84711401D01*
X177981588Y-84751557D01*
X178183757Y-84817246D01*
X178393713Y-84850500D01*
X178393714Y-84850500D01*
X178606286Y-84850500D01*
X178606287Y-84850500D01*
X178816243Y-84817246D01*
X178957185Y-84771450D01*
X179027022Y-84769456D01*
X179086855Y-84805536D01*
X179117684Y-84868237D01*
X179119500Y-84889382D01*
X179119500Y-90004199D01*
X179099815Y-90071238D01*
X179047011Y-90116993D01*
X178977853Y-90126937D01*
X178957183Y-90122130D01*
X178924542Y-90111524D01*
X178924535Y-90111523D01*
X178823443Y-90095511D01*
X178722352Y-90079500D01*
X178517648Y-90079500D01*
X178493329Y-90083351D01*
X178315465Y-90111522D01*
X178120776Y-90174781D01*
X177938386Y-90267715D01*
X177772786Y-90388028D01*
X177628028Y-90532786D01*
X177507715Y-90698386D01*
X177460485Y-90791080D01*
X177412510Y-90841876D01*
X177344689Y-90858671D01*
X177278554Y-90836134D01*
X177239515Y-90791080D01*
X177192420Y-90698652D01*
X177192287Y-90698390D01*
X177160092Y-90654077D01*
X177071971Y-90532786D01*
X176927213Y-90388028D01*
X176761613Y-90267715D01*
X176761612Y-90267714D01*
X176761610Y-90267713D01*
X176701898Y-90237288D01*
X176579223Y-90174781D01*
X176384534Y-90111522D01*
X176209995Y-90083878D01*
X176182352Y-90079500D01*
X175977648Y-90079500D01*
X175953329Y-90083351D01*
X175775465Y-90111522D01*
X175580776Y-90174781D01*
X175398386Y-90267715D01*
X175232786Y-90388028D01*
X175088028Y-90532786D01*
X174967715Y-90698386D01*
X174920485Y-90791080D01*
X174872510Y-90841876D01*
X174804689Y-90858671D01*
X174738554Y-90836134D01*
X174699515Y-90791080D01*
X174652420Y-90698652D01*
X174652287Y-90698390D01*
X174620092Y-90654077D01*
X174531971Y-90532786D01*
X174387213Y-90388028D01*
X174221613Y-90267715D01*
X174221612Y-90267714D01*
X174221610Y-90267713D01*
X174161898Y-90237288D01*
X174039223Y-90174781D01*
X173844534Y-90111522D01*
X173669995Y-90083878D01*
X173642352Y-90079500D01*
X173437648Y-90079500D01*
X173413329Y-90083351D01*
X173235465Y-90111522D01*
X173040776Y-90174781D01*
X172858386Y-90267715D01*
X172692786Y-90388028D01*
X172548028Y-90532786D01*
X172427715Y-90698386D01*
X172380485Y-90791080D01*
X172332510Y-90841876D01*
X172264689Y-90858671D01*
X172198554Y-90836134D01*
X172159515Y-90791080D01*
X172112420Y-90698652D01*
X172112287Y-90698390D01*
X172080092Y-90654077D01*
X171991971Y-90532786D01*
X171847213Y-90388028D01*
X171681613Y-90267715D01*
X171681612Y-90267714D01*
X171681610Y-90267713D01*
X171621898Y-90237288D01*
X171499223Y-90174781D01*
X171304534Y-90111522D01*
X171129995Y-90083878D01*
X171102352Y-90079500D01*
X170897648Y-90079500D01*
X170873329Y-90083351D01*
X170695465Y-90111522D01*
X170500776Y-90174781D01*
X170318386Y-90267715D01*
X170152786Y-90388028D01*
X170008028Y-90532786D01*
X169887715Y-90698386D01*
X169840485Y-90791080D01*
X169792510Y-90841876D01*
X169724689Y-90858671D01*
X169658554Y-90836134D01*
X169619515Y-90791080D01*
X169572420Y-90698652D01*
X169572287Y-90698390D01*
X169540092Y-90654077D01*
X169451971Y-90532786D01*
X169307213Y-90388028D01*
X169141613Y-90267715D01*
X169141612Y-90267714D01*
X169141610Y-90267713D01*
X169081898Y-90237288D01*
X168959223Y-90174781D01*
X168764534Y-90111522D01*
X168589995Y-90083878D01*
X168562352Y-90079500D01*
X168357648Y-90079500D01*
X168333329Y-90083351D01*
X168155465Y-90111522D01*
X167960776Y-90174781D01*
X167778386Y-90267715D01*
X167612786Y-90388028D01*
X167468028Y-90532786D01*
X167347713Y-90698388D01*
X167300203Y-90791630D01*
X167252228Y-90842426D01*
X167184407Y-90859220D01*
X167118272Y-90836682D01*
X167079234Y-90791628D01*
X167031861Y-90698652D01*
X166999474Y-90654077D01*
X166999474Y-90654076D01*
X166320000Y-91333551D01*
X166320000Y-91327339D01*
X166292741Y-91225606D01*
X166240080Y-91134394D01*
X166165606Y-91059920D01*
X166074394Y-91007259D01*
X165972661Y-90980000D01*
X165966446Y-90980000D01*
X166645922Y-90300524D01*
X166645921Y-90300523D01*
X166601359Y-90268147D01*
X166601350Y-90268141D01*
X166419031Y-90175244D01*
X166224417Y-90112009D01*
X166022317Y-90080000D01*
X165817683Y-90080000D01*
X165615582Y-90112009D01*
X165420968Y-90175244D01*
X165238644Y-90268143D01*
X165194077Y-90300523D01*
X165194077Y-90300524D01*
X165873554Y-90980000D01*
X165867339Y-90980000D01*
X165765606Y-91007259D01*
X165674394Y-91059920D01*
X165599920Y-91134394D01*
X165547259Y-91225606D01*
X165520000Y-91327339D01*
X165520000Y-91333553D01*
X164840524Y-90654077D01*
X164840523Y-90654077D01*
X164808143Y-90698644D01*
X164760765Y-90791630D01*
X164712790Y-90842426D01*
X164644969Y-90859221D01*
X164578834Y-90836683D01*
X164539795Y-90791630D01*
X164492284Y-90698385D01*
X164371971Y-90532786D01*
X164227213Y-90388028D01*
X164061613Y-90267715D01*
X164061612Y-90267714D01*
X164061610Y-90267713D01*
X164001898Y-90237288D01*
X163879223Y-90174781D01*
X163684534Y-90111522D01*
X163509995Y-90083878D01*
X163482352Y-90079500D01*
X163277648Y-90079500D01*
X163253329Y-90083351D01*
X163075465Y-90111522D01*
X162880776Y-90174781D01*
X162698386Y-90267715D01*
X162532786Y-90388028D01*
X162388028Y-90532786D01*
X162267715Y-90698386D01*
X162220485Y-90791080D01*
X162172510Y-90841876D01*
X162104689Y-90858671D01*
X162038554Y-90836134D01*
X161999515Y-90791080D01*
X161952420Y-90698652D01*
X161952287Y-90698390D01*
X161920092Y-90654077D01*
X161831971Y-90532786D01*
X161687213Y-90388028D01*
X161521613Y-90267715D01*
X161521612Y-90267714D01*
X161521610Y-90267713D01*
X161461898Y-90237288D01*
X161339223Y-90174781D01*
X161144534Y-90111522D01*
X160969995Y-90083878D01*
X160942352Y-90079500D01*
X160737648Y-90079500D01*
X160713329Y-90083351D01*
X160535465Y-90111522D01*
X160340776Y-90174781D01*
X160158386Y-90267715D01*
X159992786Y-90388028D01*
X159848028Y-90532786D01*
X159727715Y-90698386D01*
X159680485Y-90791080D01*
X159632510Y-90841876D01*
X159564689Y-90858671D01*
X159498554Y-90836134D01*
X159459515Y-90791080D01*
X159412420Y-90698652D01*
X159412287Y-90698390D01*
X159380092Y-90654077D01*
X159291971Y-90532786D01*
X159147213Y-90388028D01*
X158981613Y-90267715D01*
X158981612Y-90267714D01*
X158981610Y-90267713D01*
X158921898Y-90237288D01*
X158799223Y-90174781D01*
X158604534Y-90111522D01*
X158429995Y-90083878D01*
X158402352Y-90079500D01*
X158197648Y-90079500D01*
X158173329Y-90083351D01*
X157995465Y-90111522D01*
X157800776Y-90174781D01*
X157618386Y-90267715D01*
X157452786Y-90388028D01*
X157308028Y-90532786D01*
X157187715Y-90698386D01*
X157140485Y-90791080D01*
X157092510Y-90841876D01*
X157024689Y-90858671D01*
X156958554Y-90836134D01*
X156919515Y-90791080D01*
X156872420Y-90698652D01*
X156872287Y-90698390D01*
X156840092Y-90654077D01*
X156751971Y-90532786D01*
X156607213Y-90388028D01*
X156441613Y-90267715D01*
X156441612Y-90267714D01*
X156441610Y-90267713D01*
X156381898Y-90237288D01*
X156259223Y-90174781D01*
X156064534Y-90111522D01*
X155889995Y-90083878D01*
X155862352Y-90079500D01*
X155657648Y-90079500D01*
X155633329Y-90083351D01*
X155455465Y-90111522D01*
X155260776Y-90174781D01*
X155078386Y-90267715D01*
X154912786Y-90388028D01*
X154768028Y-90532786D01*
X154647715Y-90698386D01*
X154600485Y-90791080D01*
X154552510Y-90841876D01*
X154484689Y-90858671D01*
X154418554Y-90836134D01*
X154379515Y-90791080D01*
X154332420Y-90698652D01*
X154332287Y-90698390D01*
X154300092Y-90654077D01*
X154211971Y-90532786D01*
X154067213Y-90388028D01*
X153901613Y-90267715D01*
X153901612Y-90267714D01*
X153901610Y-90267713D01*
X153841898Y-90237288D01*
X153719223Y-90174781D01*
X153524534Y-90111522D01*
X153349995Y-90083878D01*
X153322352Y-90079500D01*
X153117648Y-90079500D01*
X153093329Y-90083351D01*
X152915465Y-90111522D01*
X152720776Y-90174781D01*
X152538386Y-90267715D01*
X152372786Y-90388028D01*
X152228028Y-90532786D01*
X152107715Y-90698386D01*
X152060485Y-90791080D01*
X152012510Y-90841876D01*
X151944689Y-90858671D01*
X151878554Y-90836134D01*
X151839515Y-90791080D01*
X151792420Y-90698652D01*
X151792287Y-90698390D01*
X151760092Y-90654077D01*
X151671971Y-90532786D01*
X151527213Y-90388028D01*
X151361613Y-90267715D01*
X151361612Y-90267714D01*
X151361610Y-90267713D01*
X151301898Y-90237288D01*
X151179223Y-90174781D01*
X150984534Y-90111522D01*
X150809995Y-90083878D01*
X150782352Y-90079500D01*
X150589097Y-90079500D01*
X150522058Y-90059815D01*
X150476303Y-90007011D01*
X150466359Y-89937853D01*
X150495384Y-89874297D01*
X150501416Y-89867819D01*
X150732416Y-89636819D01*
X150793739Y-89603334D01*
X150820097Y-89600500D01*
X177420234Y-89600500D01*
X177487273Y-89620185D01*
X177489125Y-89621398D01*
X177620814Y-89709390D01*
X177620827Y-89709397D01*
X177720060Y-89750500D01*
X177766503Y-89769737D01*
X177921153Y-89800499D01*
X177921156Y-89800500D01*
X177921158Y-89800500D01*
X178078844Y-89800500D01*
X178078845Y-89800499D01*
X178233497Y-89769737D01*
X178379179Y-89709394D01*
X178510289Y-89621789D01*
X178621789Y-89510289D01*
X178709394Y-89379179D01*
X178769737Y-89233497D01*
X178800500Y-89078842D01*
X178800500Y-88921158D01*
X178800500Y-88921155D01*
X178800499Y-88921153D01*
X178790361Y-88870185D01*
X178769737Y-88766503D01*
X178713728Y-88631284D01*
X178709397Y-88620827D01*
X178709390Y-88620814D01*
X178621789Y-88489711D01*
X178621786Y-88489707D01*
X178510292Y-88378213D01*
X178510288Y-88378210D01*
X178379185Y-88290609D01*
X178379172Y-88290602D01*
X178233501Y-88230264D01*
X178233489Y-88230261D01*
X178078845Y-88199500D01*
X178078842Y-88199500D01*
X177921158Y-88199500D01*
X177921155Y-88199500D01*
X177766510Y-88230261D01*
X177766498Y-88230264D01*
X177620827Y-88290602D01*
X177620814Y-88290609D01*
X177489125Y-88378602D01*
X177422447Y-88399480D01*
X177420234Y-88399500D01*
X174022389Y-88399500D01*
X173955350Y-88379815D01*
X173909595Y-88327011D01*
X173899651Y-88257853D01*
X173928676Y-88194297D01*
X173976340Y-88162697D01*
X173975532Y-88160745D01*
X173980015Y-88158887D01*
X173980025Y-88158884D01*
X174155405Y-88069524D01*
X174314646Y-87953828D01*
X174453828Y-87814646D01*
X174569524Y-87655405D01*
X174658884Y-87480025D01*
X174719709Y-87292826D01*
X174722930Y-87272487D01*
X174750500Y-87098422D01*
X174750500Y-86901577D01*
X174719709Y-86707173D01*
X174658882Y-86519970D01*
X174587145Y-86379179D01*
X174569524Y-86344595D01*
X174453828Y-86185354D01*
X174314646Y-86046172D01*
X174155405Y-85930476D01*
X174137117Y-85921158D01*
X173980029Y-85841117D01*
X173792826Y-85780290D01*
X173598422Y-85749500D01*
X173598417Y-85749500D01*
X173401583Y-85749500D01*
X173401577Y-85749500D01*
X173202544Y-85781023D01*
X173133251Y-85772068D01*
X173095466Y-85746231D01*
X171586819Y-84237583D01*
X171553334Y-84176260D01*
X171550500Y-84149902D01*
X171550500Y-83209797D01*
X171570185Y-83142758D01*
X171609403Y-83104258D01*
X171668656Y-83067712D01*
X171792712Y-82943656D01*
X171884814Y-82794334D01*
X171939999Y-82627797D01*
X171950500Y-82525009D01*
X171950499Y-81474992D01*
X171947386Y-81444522D01*
X171939999Y-81372203D01*
X171939998Y-81372200D01*
X171908201Y-81276243D01*
X171884814Y-81205666D01*
X171792712Y-81056344D01*
X171668656Y-80932288D01*
X171519334Y-80840186D01*
X171352797Y-80785001D01*
X171352795Y-80785000D01*
X171250010Y-80774500D01*
X170649998Y-80774500D01*
X170649980Y-80774501D01*
X170547203Y-80785000D01*
X170547200Y-80785001D01*
X170380668Y-80840185D01*
X170380663Y-80840187D01*
X170231342Y-80932289D01*
X170107288Y-81056343D01*
X170107283Y-81056349D01*
X170105241Y-81059661D01*
X170103247Y-81061453D01*
X170102807Y-81062011D01*
X170102711Y-81061935D01*
X170053291Y-81106383D01*
X169984328Y-81117602D01*
X169920247Y-81089755D01*
X169894168Y-81059656D01*
X169892319Y-81056659D01*
X169892316Y-81056655D01*
X169768345Y-80932684D01*
X169619124Y-80840643D01*
X169619119Y-80840641D01*
X169452697Y-80785494D01*
X169452690Y-80785493D01*
X169349986Y-80775000D01*
X169300000Y-80775000D01*
X169300000Y-83224999D01*
X169349972Y-83224999D01*
X169349986Y-83224998D01*
X169452697Y-83214505D01*
X169619119Y-83159358D01*
X169619124Y-83159356D01*
X169768345Y-83067315D01*
X169892318Y-82943342D01*
X169894165Y-82940348D01*
X169895969Y-82938724D01*
X169896798Y-82937677D01*
X169896976Y-82937818D01*
X169946110Y-82893621D01*
X170015073Y-82882396D01*
X170079156Y-82910236D01*
X170105243Y-82940341D01*
X170107288Y-82943656D01*
X170231344Y-83067712D01*
X170290596Y-83104258D01*
X170337321Y-83156204D01*
X170349500Y-83209797D01*
X170349500Y-84363330D01*
X170349499Y-84363348D01*
X170349499Y-84529054D01*
X170349498Y-84529054D01*
X170388267Y-84673739D01*
X170390423Y-84681785D01*
X170417191Y-84728148D01*
X170419358Y-84731900D01*
X170419359Y-84731904D01*
X170419360Y-84731904D01*
X170469479Y-84818714D01*
X170469481Y-84818717D01*
X170588349Y-84937585D01*
X170588355Y-84937590D01*
X172246231Y-86595466D01*
X172279716Y-86656789D01*
X172281023Y-86702544D01*
X172249500Y-86901576D01*
X172249500Y-87098422D01*
X172280290Y-87292826D01*
X172341117Y-87480029D01*
X172417437Y-87629815D01*
X172430476Y-87655405D01*
X172546172Y-87814646D01*
X172685354Y-87953828D01*
X172844595Y-88069524D01*
X173019975Y-88158884D01*
X173019979Y-88158885D01*
X173024468Y-88160745D01*
X173023607Y-88162821D01*
X173073598Y-88196999D01*
X173100802Y-88261355D01*
X173088893Y-88330202D01*
X173041653Y-88381682D01*
X172977611Y-88399500D01*
X169142389Y-88399500D01*
X169075350Y-88379815D01*
X169029595Y-88327011D01*
X169019651Y-88257853D01*
X169048676Y-88194297D01*
X169096340Y-88162697D01*
X169095532Y-88160745D01*
X169100015Y-88158887D01*
X169100025Y-88158884D01*
X169275405Y-88069524D01*
X169434646Y-87953828D01*
X169573828Y-87814646D01*
X169689524Y-87655405D01*
X169778884Y-87480025D01*
X169839709Y-87292826D01*
X169842930Y-87272487D01*
X169870500Y-87098422D01*
X169870500Y-86901577D01*
X169839709Y-86707173D01*
X169778882Y-86519970D01*
X169707145Y-86379179D01*
X169689524Y-86344595D01*
X169573828Y-86185354D01*
X169434646Y-86046172D01*
X169275405Y-85930476D01*
X169257117Y-85921158D01*
X169100029Y-85841117D01*
X168912826Y-85780290D01*
X168718422Y-85749500D01*
X168718417Y-85749500D01*
X168521583Y-85749500D01*
X168521578Y-85749500D01*
X168327173Y-85780290D01*
X168139970Y-85841117D01*
X167964594Y-85930476D01*
X167903324Y-85974992D01*
X167805354Y-86046172D01*
X167805352Y-86046174D01*
X167805351Y-86046174D01*
X167666174Y-86185351D01*
X167666174Y-86185352D01*
X167666172Y-86185354D01*
X167631200Y-86233489D01*
X167547722Y-86348386D01*
X167492392Y-86391051D01*
X167447404Y-86399500D01*
X163574499Y-86399500D01*
X163507460Y-86379815D01*
X163461705Y-86327011D01*
X163450499Y-86275500D01*
X163450499Y-85974998D01*
X163450498Y-85974981D01*
X163439999Y-85872203D01*
X163439998Y-85872200D01*
X163404976Y-85766511D01*
X163384814Y-85705666D01*
X163292712Y-85556344D01*
X163168656Y-85432288D01*
X163019334Y-85340186D01*
X162852797Y-85285001D01*
X162852795Y-85285000D01*
X162750010Y-85274500D01*
X162149998Y-85274500D01*
X162149980Y-85274501D01*
X162047203Y-85285000D01*
X162047200Y-85285001D01*
X161880668Y-85340185D01*
X161880663Y-85340187D01*
X161731342Y-85432289D01*
X161607288Y-85556343D01*
X161607283Y-85556349D01*
X161605241Y-85559661D01*
X161603247Y-85561453D01*
X161602807Y-85562011D01*
X161602711Y-85561935D01*
X161553291Y-85606383D01*
X161484328Y-85617602D01*
X161420247Y-85589755D01*
X161394168Y-85559656D01*
X161392319Y-85556659D01*
X161392316Y-85556655D01*
X161268345Y-85432684D01*
X161119124Y-85340643D01*
X161119119Y-85340641D01*
X160952697Y-85285494D01*
X160952690Y-85285493D01*
X160849986Y-85275000D01*
X160800000Y-85275000D01*
X160800000Y-87724999D01*
X160849972Y-87724999D01*
X160849986Y-87724998D01*
X160952697Y-87714505D01*
X161119119Y-87659358D01*
X161119124Y-87659356D01*
X161268345Y-87567315D01*
X161392318Y-87443342D01*
X161394165Y-87440348D01*
X161395969Y-87438724D01*
X161396798Y-87437677D01*
X161396976Y-87437818D01*
X161446110Y-87393621D01*
X161515073Y-87382396D01*
X161579156Y-87410236D01*
X161605243Y-87440341D01*
X161607288Y-87443656D01*
X161731344Y-87567712D01*
X161880666Y-87659814D01*
X162047203Y-87714999D01*
X162149991Y-87725500D01*
X162750008Y-87725499D01*
X162750016Y-87725498D01*
X162750019Y-87725498D01*
X162806302Y-87719748D01*
X162852797Y-87714999D01*
X163019334Y-87659814D01*
X163063470Y-87632591D01*
X163085568Y-87618961D01*
X163150664Y-87600500D01*
X167447404Y-87600500D01*
X167514443Y-87620185D01*
X167547722Y-87651614D01*
X167550475Y-87655403D01*
X167550476Y-87655405D01*
X167666172Y-87814646D01*
X167805354Y-87953828D01*
X167964595Y-88069524D01*
X168139975Y-88158884D01*
X168139979Y-88158885D01*
X168144468Y-88160745D01*
X168143607Y-88162821D01*
X168193598Y-88196999D01*
X168220802Y-88261355D01*
X168208893Y-88330202D01*
X168161653Y-88381682D01*
X168097611Y-88399500D01*
X150599057Y-88399500D01*
X150440942Y-88399500D01*
X150288215Y-88440423D01*
X150288214Y-88440423D01*
X150288212Y-88440424D01*
X150288209Y-88440425D01*
X150238096Y-88469359D01*
X150238095Y-88469360D01*
X150202853Y-88489707D01*
X150151285Y-88519479D01*
X150151282Y-88519481D01*
X150039478Y-88631286D01*
X148627582Y-90043181D01*
X148566259Y-90076666D01*
X148539901Y-90079500D01*
X147539998Y-90079500D01*
X147539980Y-90079501D01*
X147437203Y-90090000D01*
X147437200Y-90090001D01*
X147270668Y-90145185D01*
X147270661Y-90145189D01*
X147183253Y-90199101D01*
X147115860Y-90217540D01*
X147049197Y-90196616D01*
X147030477Y-90181242D01*
X145702798Y-88853563D01*
X145669313Y-88792240D01*
X145672547Y-88727566D01*
X145713553Y-88601368D01*
X145748348Y-88381682D01*
X145750500Y-88368097D01*
X145750500Y-88131902D01*
X145713553Y-87898631D01*
X145657136Y-87724999D01*
X145640568Y-87674008D01*
X145640566Y-87674005D01*
X145640566Y-87674003D01*
X145584002Y-87562991D01*
X145533343Y-87463567D01*
X145394517Y-87272490D01*
X145227510Y-87105483D01*
X145036433Y-86966657D01*
X144825996Y-86859433D01*
X144601368Y-86786446D01*
X144368097Y-86749500D01*
X144368092Y-86749500D01*
X144131908Y-86749500D01*
X144131903Y-86749500D01*
X143898631Y-86786446D01*
X143674003Y-86859433D01*
X143463566Y-86966657D01*
X143383284Y-87024986D01*
X143272490Y-87105483D01*
X143272488Y-87105485D01*
X143272487Y-87105485D01*
X143105485Y-87272487D01*
X143105485Y-87272488D01*
X143105483Y-87272490D01*
X143045862Y-87354550D01*
X142966657Y-87463566D01*
X142958271Y-87480025D01*
X142913593Y-87567712D01*
X142906417Y-87581795D01*
X142858442Y-87632591D01*
X142795932Y-87649500D01*
X139204068Y-87649500D01*
X139137029Y-87629815D01*
X139093583Y-87581795D01*
X139033343Y-87463567D01*
X138894517Y-87272490D01*
X138727510Y-87105483D01*
X138536433Y-86966657D01*
X138325996Y-86859433D01*
X138101368Y-86786446D01*
X137868097Y-86749500D01*
X137868092Y-86749500D01*
X137631908Y-86749500D01*
X137631903Y-86749500D01*
X137398631Y-86786446D01*
X137174003Y-86859433D01*
X136963566Y-86966657D01*
X136883284Y-87024986D01*
X136772490Y-87105483D01*
X136772488Y-87105485D01*
X136772487Y-87105485D01*
X136605485Y-87272487D01*
X136605485Y-87272488D01*
X136605483Y-87272490D01*
X136545862Y-87354550D01*
X136466657Y-87463566D01*
X136359433Y-87674003D01*
X136286446Y-87898631D01*
X136249500Y-88131902D01*
X136249500Y-88368097D01*
X136286447Y-88601369D01*
X136286447Y-88601372D01*
X136327450Y-88727564D01*
X136329445Y-88797405D01*
X136297200Y-88853563D01*
X134218786Y-90931978D01*
X134106982Y-91043781D01*
X134106980Y-91043783D01*
X134097664Y-91059920D01*
X134088689Y-91075466D01*
X134027923Y-91180715D01*
X133986999Y-91333443D01*
X133986999Y-91333445D01*
X133986999Y-91501546D01*
X133987000Y-91501559D01*
X133987000Y-95807491D01*
X133967315Y-95874530D01*
X133928098Y-95913029D01*
X133856344Y-95957287D01*
X133732289Y-96081342D01*
X133640187Y-96230663D01*
X133640186Y-96230666D01*
X133585001Y-96397203D01*
X133585001Y-96397204D01*
X133585000Y-96397204D01*
X133574500Y-96499983D01*
X133574500Y-97500001D01*
X133574501Y-97500019D01*
X133585000Y-97602796D01*
X133585001Y-97602799D01*
X133640185Y-97769331D01*
X133640187Y-97769336D01*
X133653308Y-97790609D01*
X133732288Y-97918656D01*
X133856344Y-98042712D01*
X134005666Y-98134814D01*
X134172203Y-98189999D01*
X134274991Y-98200500D01*
X134900008Y-98200499D01*
X134900016Y-98200498D01*
X134900019Y-98200498D01*
X134956302Y-98194748D01*
X135002797Y-98189999D01*
X135169334Y-98134814D01*
X135318656Y-98042712D01*
X135412319Y-97949049D01*
X135473642Y-97915564D01*
X135543334Y-97920548D01*
X135587681Y-97949049D01*
X135681344Y-98042712D01*
X135830666Y-98134814D01*
X135997203Y-98189999D01*
X136099991Y-98200500D01*
X136725008Y-98200499D01*
X136725016Y-98200498D01*
X136725019Y-98200498D01*
X136781302Y-98194748D01*
X136827797Y-98189999D01*
X136994334Y-98134814D01*
X137143656Y-98042712D01*
X137267712Y-97918656D01*
X137359814Y-97769334D01*
X137414999Y-97602797D01*
X137425500Y-97500009D01*
X137425499Y-97064372D01*
X137445183Y-96997334D01*
X137461813Y-96976697D01*
X137911692Y-96526819D01*
X137973015Y-96493334D01*
X137999373Y-96490500D01*
X138617459Y-96490500D01*
X138684498Y-96510185D01*
X138730253Y-96562989D01*
X138740197Y-96632147D01*
X138735390Y-96652818D01*
X138722256Y-96693240D01*
X138690000Y-96896895D01*
X138690000Y-97103104D01*
X138722256Y-97306759D01*
X138785976Y-97502868D01*
X138879587Y-97686590D01*
X138913365Y-97733080D01*
X138913365Y-97733081D01*
X139557861Y-97088584D01*
X139580667Y-97173694D01*
X139639910Y-97276306D01*
X139723694Y-97360090D01*
X139826306Y-97419333D01*
X139911414Y-97442137D01*
X139266917Y-98086633D01*
X139266918Y-98086634D01*
X139313404Y-98120408D01*
X139313417Y-98120416D01*
X139497131Y-98214023D01*
X139693240Y-98277743D01*
X139896896Y-98310000D01*
X140103104Y-98310000D01*
X140306759Y-98277743D01*
X140502868Y-98214023D01*
X140686590Y-98120412D01*
X140733080Y-98086634D01*
X140733080Y-98086633D01*
X140088585Y-97442138D01*
X140173694Y-97419333D01*
X140276306Y-97360090D01*
X140360090Y-97276306D01*
X140419333Y-97173694D01*
X140442138Y-97088585D01*
X141086633Y-97733080D01*
X141086634Y-97733080D01*
X141120412Y-97686590D01*
X141214023Y-97502868D01*
X141277743Y-97306759D01*
X141310000Y-97103104D01*
X141310000Y-96896895D01*
X141277743Y-96693240D01*
X141264610Y-96652818D01*
X141262615Y-96582977D01*
X141298695Y-96523144D01*
X141361396Y-96492316D01*
X141382541Y-96490500D01*
X143413126Y-96490500D01*
X143480165Y-96510185D01*
X143500807Y-96526819D01*
X143669619Y-96695631D01*
X143703104Y-96756954D01*
X143704411Y-96802709D01*
X143689500Y-96896855D01*
X143689500Y-97103138D01*
X143721769Y-97306877D01*
X143721769Y-97306880D01*
X143785510Y-97503054D01*
X143875574Y-97679815D01*
X143879160Y-97686852D01*
X144000407Y-97853733D01*
X144146267Y-97999593D01*
X144313148Y-98120840D01*
X144375846Y-98152786D01*
X144496945Y-98214489D01*
X144693120Y-98278230D01*
X144693121Y-98278230D01*
X144693124Y-98278231D01*
X144896861Y-98310500D01*
X144896862Y-98310500D01*
X145103138Y-98310500D01*
X145103139Y-98310500D01*
X145306876Y-98278231D01*
X145306879Y-98278230D01*
X145306880Y-98278230D01*
X145503054Y-98214489D01*
X145503054Y-98214488D01*
X145503057Y-98214488D01*
X145686852Y-98120840D01*
X145853733Y-97999593D01*
X145999593Y-97853733D01*
X146120840Y-97686852D01*
X146214488Y-97503057D01*
X146278231Y-97306876D01*
X146310500Y-97103139D01*
X146310500Y-96896861D01*
X146278231Y-96693124D01*
X146278230Y-96693120D01*
X146278230Y-96693119D01*
X146214489Y-96496945D01*
X146211205Y-96490500D01*
X146120840Y-96313148D01*
X145999593Y-96146267D01*
X145853733Y-96000407D01*
X145686852Y-95879160D01*
X145677765Y-95874530D01*
X145503054Y-95785510D01*
X145306879Y-95721769D01*
X145140743Y-95695456D01*
X145103139Y-95689500D01*
X144896861Y-95689500D01*
X144896855Y-95689500D01*
X144802709Y-95704411D01*
X144733416Y-95695456D01*
X144695631Y-95669619D01*
X144227483Y-95201470D01*
X144227482Y-95201469D01*
X144108657Y-95122074D01*
X144108653Y-95122071D01*
X144108648Y-95122069D01*
X143976620Y-95067381D01*
X143976614Y-95067379D01*
X143836457Y-95039500D01*
X143836455Y-95039500D01*
X137718955Y-95039500D01*
X137576045Y-95039500D01*
X137576043Y-95039500D01*
X137435885Y-95067379D01*
X137435879Y-95067381D01*
X137303849Y-95122069D01*
X137303840Y-95122074D01*
X137185021Y-95201467D01*
X137185017Y-95201470D01*
X136623306Y-95763181D01*
X136561983Y-95796666D01*
X136535625Y-95799500D01*
X136099998Y-95799500D01*
X136099980Y-95799501D01*
X135997203Y-95810000D01*
X135997200Y-95810001D01*
X135830668Y-95865185D01*
X135830663Y-95865187D01*
X135681342Y-95957289D01*
X135587681Y-96050951D01*
X135526358Y-96084436D01*
X135456666Y-96079452D01*
X135412319Y-96050951D01*
X135318655Y-95957287D01*
X135246902Y-95913029D01*
X135200178Y-95861081D01*
X135188000Y-95807491D01*
X135188000Y-92631947D01*
X136250000Y-92631947D01*
X136250000Y-92868052D01*
X136286934Y-93101247D01*
X136359897Y-93325802D01*
X136467087Y-93536174D01*
X136527338Y-93619104D01*
X136527340Y-93619105D01*
X137226212Y-92920233D01*
X137237482Y-92962292D01*
X137309890Y-93087708D01*
X137412292Y-93190110D01*
X137537708Y-93262518D01*
X137579765Y-93273787D01*
X136880893Y-93972658D01*
X136963828Y-94032914D01*
X137174197Y-94140102D01*
X137398752Y-94213065D01*
X137398751Y-94213065D01*
X137631948Y-94250000D01*
X137868052Y-94250000D01*
X138101247Y-94213065D01*
X138325802Y-94140102D01*
X138536163Y-94032918D01*
X138536169Y-94032914D01*
X138619104Y-93972658D01*
X138619105Y-93972658D01*
X137920233Y-93273787D01*
X137962292Y-93262518D01*
X138087708Y-93190110D01*
X138190110Y-93087708D01*
X138262518Y-92962292D01*
X138273787Y-92920234D01*
X138972658Y-93619105D01*
X138972658Y-93619104D01*
X139032914Y-93536169D01*
X139032918Y-93536163D01*
X139140102Y-93325802D01*
X139213065Y-93101247D01*
X139250000Y-92868052D01*
X139250000Y-92631947D01*
X142750000Y-92631947D01*
X142750000Y-92868052D01*
X142786934Y-93101247D01*
X142859897Y-93325802D01*
X142967087Y-93536174D01*
X143027338Y-93619104D01*
X143027340Y-93619105D01*
X143726212Y-92920233D01*
X143737482Y-92962292D01*
X143809890Y-93087708D01*
X143912292Y-93190110D01*
X144037708Y-93262518D01*
X144079765Y-93273787D01*
X143380893Y-93972658D01*
X143463828Y-94032914D01*
X143674197Y-94140102D01*
X143898752Y-94213065D01*
X143898751Y-94213065D01*
X144131948Y-94250000D01*
X144368052Y-94250000D01*
X144601247Y-94213065D01*
X144825802Y-94140102D01*
X145036163Y-94032918D01*
X145036169Y-94032914D01*
X145119104Y-93972658D01*
X145119105Y-93972658D01*
X144420233Y-93273787D01*
X144462292Y-93262518D01*
X144587708Y-93190110D01*
X144690110Y-93087708D01*
X144762518Y-92962292D01*
X144773787Y-92920234D01*
X145472658Y-93619105D01*
X145472658Y-93619104D01*
X145532914Y-93536169D01*
X145532918Y-93536163D01*
X145640102Y-93325802D01*
X145713065Y-93101247D01*
X145750000Y-92868052D01*
X145750000Y-92631947D01*
X145713065Y-92398752D01*
X145640102Y-92174197D01*
X145532914Y-91963828D01*
X145472658Y-91880894D01*
X145472658Y-91880893D01*
X144773787Y-92579765D01*
X144762518Y-92537708D01*
X144690110Y-92412292D01*
X144587708Y-92309890D01*
X144462292Y-92237482D01*
X144420234Y-92226212D01*
X145119105Y-91527340D01*
X145119104Y-91527338D01*
X145036174Y-91467087D01*
X144825802Y-91359897D01*
X144601247Y-91286934D01*
X144601248Y-91286934D01*
X144368052Y-91250000D01*
X144131948Y-91250000D01*
X143898752Y-91286934D01*
X143674197Y-91359897D01*
X143463830Y-91467084D01*
X143380894Y-91527340D01*
X144079766Y-92226212D01*
X144037708Y-92237482D01*
X143912292Y-92309890D01*
X143809890Y-92412292D01*
X143737482Y-92537708D01*
X143726212Y-92579765D01*
X143027340Y-91880894D01*
X142967084Y-91963830D01*
X142859897Y-92174197D01*
X142786934Y-92398752D01*
X142750000Y-92631947D01*
X139250000Y-92631947D01*
X139213065Y-92398752D01*
X139140102Y-92174197D01*
X139032914Y-91963828D01*
X138972658Y-91880894D01*
X138972658Y-91880893D01*
X138273787Y-92579765D01*
X138262518Y-92537708D01*
X138190110Y-92412292D01*
X138087708Y-92309890D01*
X137962292Y-92237482D01*
X137920234Y-92226212D01*
X138619105Y-91527340D01*
X138619104Y-91527339D01*
X138536174Y-91467087D01*
X138325802Y-91359897D01*
X138101247Y-91286934D01*
X138101248Y-91286934D01*
X137868052Y-91250000D01*
X137631948Y-91250000D01*
X137398752Y-91286934D01*
X137174197Y-91359897D01*
X136963830Y-91467084D01*
X136880894Y-91527340D01*
X137579766Y-92226212D01*
X137537708Y-92237482D01*
X137412292Y-92309890D01*
X137309890Y-92412292D01*
X137237482Y-92537708D01*
X137226212Y-92579765D01*
X136527340Y-91880894D01*
X136467084Y-91963830D01*
X136359897Y-92174197D01*
X136286934Y-92398752D01*
X136250000Y-92631947D01*
X135188000Y-92631947D01*
X135188000Y-91712596D01*
X135207685Y-91645557D01*
X135224314Y-91624920D01*
X137146437Y-89702796D01*
X137207758Y-89669313D01*
X137272433Y-89672547D01*
X137398632Y-89713553D01*
X137486110Y-89727408D01*
X137631903Y-89750500D01*
X137631908Y-89750500D01*
X137868097Y-89750500D01*
X138101368Y-89713553D01*
X138134468Y-89702798D01*
X138325992Y-89640568D01*
X138536433Y-89533343D01*
X138727510Y-89394517D01*
X138894517Y-89227510D01*
X139033343Y-89036433D01*
X139093583Y-88918204D01*
X139141558Y-88867409D01*
X139204068Y-88850500D01*
X142795932Y-88850500D01*
X142862971Y-88870185D01*
X142906416Y-88918203D01*
X142966657Y-89036433D01*
X143105483Y-89227510D01*
X143272490Y-89394517D01*
X143463567Y-89533343D01*
X143562991Y-89584002D01*
X143674003Y-89640566D01*
X143674005Y-89640566D01*
X143674008Y-89640568D01*
X143762476Y-89669313D01*
X143898631Y-89713553D01*
X144131903Y-89750500D01*
X144131908Y-89750500D01*
X144368097Y-89750500D01*
X144474126Y-89733705D01*
X144601368Y-89713553D01*
X144727566Y-89672547D01*
X144797404Y-89670553D01*
X144853563Y-89702798D01*
X146803181Y-91652416D01*
X146836666Y-91713739D01*
X146839500Y-91740096D01*
X146839500Y-91980000D01*
X146839501Y-91980019D01*
X146850000Y-92082796D01*
X146850001Y-92082799D01*
X146866818Y-92133548D01*
X146905186Y-92249334D01*
X146997288Y-92398656D01*
X147121344Y-92522712D01*
X147270666Y-92614814D01*
X147437203Y-92669999D01*
X147539991Y-92680500D01*
X148740008Y-92680499D01*
X148842797Y-92669999D01*
X149009334Y-92614814D01*
X149158656Y-92522712D01*
X149282712Y-92398656D01*
X149374814Y-92249334D01*
X149401955Y-92167427D01*
X149441726Y-92109984D01*
X149506242Y-92083161D01*
X149575018Y-92095476D01*
X149619977Y-92133547D01*
X149688030Y-92227213D01*
X149688034Y-92227219D01*
X149832786Y-92371971D01*
X149953226Y-92459474D01*
X149998390Y-92492287D01*
X150087534Y-92537708D01*
X150180776Y-92585218D01*
X150180778Y-92585218D01*
X150180781Y-92585220D01*
X150269932Y-92614187D01*
X150375465Y-92648477D01*
X150476557Y-92664488D01*
X150577648Y-92680500D01*
X150577649Y-92680500D01*
X150782351Y-92680500D01*
X150782352Y-92680500D01*
X150984534Y-92648477D01*
X151179219Y-92585220D01*
X151361610Y-92492287D01*
X151490482Y-92398657D01*
X151527213Y-92371971D01*
X151527215Y-92371968D01*
X151527219Y-92371966D01*
X151671966Y-92227219D01*
X151671968Y-92227215D01*
X151671971Y-92227213D01*
X151792284Y-92061614D01*
X151792286Y-92061611D01*
X151792287Y-92061610D01*
X151839516Y-91968917D01*
X151887489Y-91918123D01*
X151955310Y-91901328D01*
X152021445Y-91923865D01*
X152060483Y-91968917D01*
X152104348Y-92055006D01*
X152107715Y-92061614D01*
X152228028Y-92227213D01*
X152372786Y-92371971D01*
X152493226Y-92459474D01*
X152538390Y-92492287D01*
X152627534Y-92537708D01*
X152720776Y-92585218D01*
X152720778Y-92585218D01*
X152720781Y-92585220D01*
X152809932Y-92614187D01*
X152915465Y-92648477D01*
X153016557Y-92664488D01*
X153117648Y-92680500D01*
X153117649Y-92680500D01*
X153322351Y-92680500D01*
X153322352Y-92680500D01*
X153524534Y-92648477D01*
X153719219Y-92585220D01*
X153901610Y-92492287D01*
X154030482Y-92398657D01*
X154067213Y-92371971D01*
X154067215Y-92371968D01*
X154067219Y-92371966D01*
X154211966Y-92227219D01*
X154211968Y-92227215D01*
X154211971Y-92227213D01*
X154332284Y-92061614D01*
X154332286Y-92061611D01*
X154332287Y-92061610D01*
X154379516Y-91968917D01*
X154427489Y-91918123D01*
X154495310Y-91901328D01*
X154561445Y-91923865D01*
X154600483Y-91968917D01*
X154644348Y-92055006D01*
X154647715Y-92061614D01*
X154768028Y-92227213D01*
X154912786Y-92371971D01*
X155033226Y-92459474D01*
X155078390Y-92492287D01*
X155167534Y-92537708D01*
X155260776Y-92585218D01*
X155260778Y-92585218D01*
X155260781Y-92585220D01*
X155349932Y-92614187D01*
X155455465Y-92648477D01*
X155556557Y-92664488D01*
X155657648Y-92680500D01*
X155657649Y-92680500D01*
X155862351Y-92680500D01*
X155862352Y-92680500D01*
X156064534Y-92648477D01*
X156259219Y-92585220D01*
X156441610Y-92492287D01*
X156570482Y-92398657D01*
X156607213Y-92371971D01*
X156607215Y-92371968D01*
X156607219Y-92371966D01*
X156751966Y-92227219D01*
X156751968Y-92227215D01*
X156751971Y-92227213D01*
X156872284Y-92061614D01*
X156872286Y-92061611D01*
X156872287Y-92061610D01*
X156919516Y-91968917D01*
X156967489Y-91918123D01*
X157035310Y-91901328D01*
X157101445Y-91923865D01*
X157140483Y-91968917D01*
X157184348Y-92055006D01*
X157187715Y-92061614D01*
X157308028Y-92227213D01*
X157452786Y-92371971D01*
X157573226Y-92459474D01*
X157618390Y-92492287D01*
X157707534Y-92537708D01*
X157800776Y-92585218D01*
X157800778Y-92585218D01*
X157800781Y-92585220D01*
X157889932Y-92614187D01*
X157995465Y-92648477D01*
X158096557Y-92664488D01*
X158197648Y-92680500D01*
X158197649Y-92680500D01*
X158402351Y-92680500D01*
X158402352Y-92680500D01*
X158604534Y-92648477D01*
X158799219Y-92585220D01*
X158981610Y-92492287D01*
X159110482Y-92398657D01*
X159147213Y-92371971D01*
X159147215Y-92371968D01*
X159147219Y-92371966D01*
X159291966Y-92227219D01*
X159291968Y-92227215D01*
X159291971Y-92227213D01*
X159412284Y-92061614D01*
X159412286Y-92061611D01*
X159412287Y-92061610D01*
X159459516Y-91968917D01*
X159507489Y-91918123D01*
X159575310Y-91901328D01*
X159641445Y-91923865D01*
X159680483Y-91968917D01*
X159724348Y-92055006D01*
X159727715Y-92061614D01*
X159848028Y-92227213D01*
X159992786Y-92371971D01*
X160113226Y-92459474D01*
X160158390Y-92492287D01*
X160247534Y-92537708D01*
X160340776Y-92585218D01*
X160340778Y-92585218D01*
X160340781Y-92585220D01*
X160429932Y-92614187D01*
X160535465Y-92648477D01*
X160636557Y-92664488D01*
X160737648Y-92680500D01*
X160737649Y-92680500D01*
X160942351Y-92680500D01*
X160942352Y-92680500D01*
X161144534Y-92648477D01*
X161339219Y-92585220D01*
X161521610Y-92492287D01*
X161650482Y-92398657D01*
X161687213Y-92371971D01*
X161687215Y-92371968D01*
X161687219Y-92371966D01*
X161831966Y-92227219D01*
X161831968Y-92227215D01*
X161831971Y-92227213D01*
X161952284Y-92061614D01*
X161952286Y-92061611D01*
X161952287Y-92061610D01*
X161999516Y-91968917D01*
X162047489Y-91918123D01*
X162115310Y-91901328D01*
X162181445Y-91923865D01*
X162220483Y-91968917D01*
X162264348Y-92055006D01*
X162267715Y-92061614D01*
X162388028Y-92227213D01*
X162532786Y-92371971D01*
X162653226Y-92459474D01*
X162698390Y-92492287D01*
X162787534Y-92537708D01*
X162880776Y-92585218D01*
X162880778Y-92585218D01*
X162880781Y-92585220D01*
X162969932Y-92614187D01*
X163075465Y-92648477D01*
X163176557Y-92664488D01*
X163277648Y-92680500D01*
X163277649Y-92680500D01*
X163482351Y-92680500D01*
X163482352Y-92680500D01*
X163684534Y-92648477D01*
X163879219Y-92585220D01*
X164061610Y-92492287D01*
X164190482Y-92398657D01*
X164227213Y-92371971D01*
X164227215Y-92371968D01*
X164227219Y-92371966D01*
X164371966Y-92227219D01*
X164371968Y-92227215D01*
X164371971Y-92227213D01*
X164476894Y-92082797D01*
X164492287Y-92061610D01*
X164539795Y-91968369D01*
X164587769Y-91917573D01*
X164655590Y-91900778D01*
X164721725Y-91923315D01*
X164760765Y-91968369D01*
X164808141Y-92061350D01*
X164808147Y-92061359D01*
X164840523Y-92105921D01*
X164840524Y-92105922D01*
X165520000Y-91426446D01*
X165520000Y-91432661D01*
X165547259Y-91534394D01*
X165599920Y-91625606D01*
X165674394Y-91700080D01*
X165765606Y-91752741D01*
X165867339Y-91780000D01*
X165873553Y-91780000D01*
X165194076Y-92459474D01*
X165238650Y-92491859D01*
X165420968Y-92584755D01*
X165615582Y-92647990D01*
X165817683Y-92680000D01*
X166022317Y-92680000D01*
X166224417Y-92647990D01*
X166419031Y-92584755D01*
X166601349Y-92491859D01*
X166645921Y-92459474D01*
X165966447Y-91780000D01*
X165972661Y-91780000D01*
X166074394Y-91752741D01*
X166165606Y-91700080D01*
X166240080Y-91625606D01*
X166292741Y-91534394D01*
X166320000Y-91432661D01*
X166320000Y-91426447D01*
X166999474Y-92105921D01*
X167031861Y-92061347D01*
X167031861Y-92061346D01*
X167079234Y-91968371D01*
X167127208Y-91917575D01*
X167195028Y-91900779D01*
X167261164Y-91923316D01*
X167300203Y-91968369D01*
X167347713Y-92061611D01*
X167468028Y-92227213D01*
X167612786Y-92371971D01*
X167733226Y-92459474D01*
X167778390Y-92492287D01*
X167867534Y-92537708D01*
X167960776Y-92585218D01*
X167960778Y-92585218D01*
X167960781Y-92585220D01*
X168049932Y-92614187D01*
X168155465Y-92648477D01*
X168256557Y-92664488D01*
X168357648Y-92680500D01*
X168357649Y-92680500D01*
X168562351Y-92680500D01*
X168562352Y-92680500D01*
X168764534Y-92648477D01*
X168959219Y-92585220D01*
X169141610Y-92492287D01*
X169270482Y-92398657D01*
X169307213Y-92371971D01*
X169307215Y-92371968D01*
X169307219Y-92371966D01*
X169451966Y-92227219D01*
X169451968Y-92227215D01*
X169451971Y-92227213D01*
X169572284Y-92061614D01*
X169572286Y-92061611D01*
X169572287Y-92061610D01*
X169619516Y-91968917D01*
X169667489Y-91918123D01*
X169735310Y-91901328D01*
X169801445Y-91923865D01*
X169840483Y-91968917D01*
X169884348Y-92055006D01*
X169887715Y-92061614D01*
X170008028Y-92227213D01*
X170152786Y-92371971D01*
X170273226Y-92459474D01*
X170318390Y-92492287D01*
X170407534Y-92537708D01*
X170500776Y-92585218D01*
X170500778Y-92585218D01*
X170500781Y-92585220D01*
X170589932Y-92614187D01*
X170695465Y-92648477D01*
X170796557Y-92664488D01*
X170897648Y-92680500D01*
X170897649Y-92680500D01*
X171102351Y-92680500D01*
X171102352Y-92680500D01*
X171304534Y-92648477D01*
X171499219Y-92585220D01*
X171681610Y-92492287D01*
X171810482Y-92398657D01*
X171847213Y-92371971D01*
X171847215Y-92371968D01*
X171847219Y-92371966D01*
X171991966Y-92227219D01*
X171991968Y-92227215D01*
X171991971Y-92227213D01*
X172112284Y-92061614D01*
X172112286Y-92061611D01*
X172112287Y-92061610D01*
X172159516Y-91968917D01*
X172207489Y-91918123D01*
X172275310Y-91901328D01*
X172341445Y-91923865D01*
X172380483Y-91968917D01*
X172424348Y-92055006D01*
X172427715Y-92061614D01*
X172548028Y-92227213D01*
X172692786Y-92371971D01*
X172813226Y-92459474D01*
X172858390Y-92492287D01*
X172947534Y-92537708D01*
X173040776Y-92585218D01*
X173040778Y-92585218D01*
X173040781Y-92585220D01*
X173129932Y-92614187D01*
X173235465Y-92648477D01*
X173336557Y-92664488D01*
X173437648Y-92680500D01*
X173437649Y-92680500D01*
X173642351Y-92680500D01*
X173642352Y-92680500D01*
X173844534Y-92648477D01*
X174039219Y-92585220D01*
X174221610Y-92492287D01*
X174350482Y-92398657D01*
X174387213Y-92371971D01*
X174387215Y-92371968D01*
X174387219Y-92371966D01*
X174531966Y-92227219D01*
X174531968Y-92227215D01*
X174531971Y-92227213D01*
X174652284Y-92061614D01*
X174652286Y-92061611D01*
X174652287Y-92061610D01*
X174699516Y-91968917D01*
X174747489Y-91918123D01*
X174815310Y-91901328D01*
X174881445Y-91923865D01*
X174920483Y-91968917D01*
X174964348Y-92055006D01*
X174967715Y-92061614D01*
X175088028Y-92227213D01*
X175232786Y-92371971D01*
X175353226Y-92459474D01*
X175398390Y-92492287D01*
X175487534Y-92537708D01*
X175580776Y-92585218D01*
X175580778Y-92585218D01*
X175580781Y-92585220D01*
X175669932Y-92614187D01*
X175775465Y-92648477D01*
X175876557Y-92664488D01*
X175977648Y-92680500D01*
X175977649Y-92680500D01*
X176182351Y-92680500D01*
X176182352Y-92680500D01*
X176384534Y-92648477D01*
X176579219Y-92585220D01*
X176761610Y-92492287D01*
X176890482Y-92398657D01*
X176927213Y-92371971D01*
X176927215Y-92371968D01*
X176927219Y-92371966D01*
X177071966Y-92227219D01*
X177071968Y-92227215D01*
X177071971Y-92227213D01*
X177192284Y-92061614D01*
X177192286Y-92061611D01*
X177192287Y-92061610D01*
X177239516Y-91968917D01*
X177287489Y-91918123D01*
X177355310Y-91901328D01*
X177421445Y-91923865D01*
X177460483Y-91968917D01*
X177504348Y-92055006D01*
X177507715Y-92061614D01*
X177628028Y-92227213D01*
X177772786Y-92371971D01*
X177893226Y-92459474D01*
X177938390Y-92492287D01*
X178027534Y-92537708D01*
X178120776Y-92585218D01*
X178120778Y-92585218D01*
X178120781Y-92585220D01*
X178209932Y-92614187D01*
X178315465Y-92648477D01*
X178416557Y-92664488D01*
X178517648Y-92680500D01*
X178517649Y-92680500D01*
X178710902Y-92680500D01*
X178777941Y-92700185D01*
X178823696Y-92752989D01*
X178833640Y-92822147D01*
X178804615Y-92885703D01*
X178798583Y-92892181D01*
X173984842Y-97705921D01*
X173923519Y-97739406D01*
X173858848Y-97736173D01*
X173844534Y-97731522D01*
X173669995Y-97703878D01*
X173642352Y-97699500D01*
X173437648Y-97699500D01*
X173413329Y-97703351D01*
X173235465Y-97731522D01*
X173040776Y-97794781D01*
X172858386Y-97887715D01*
X172692786Y-98008028D01*
X172548028Y-98152786D01*
X172427715Y-98318386D01*
X172380485Y-98411080D01*
X172332510Y-98461876D01*
X172264689Y-98478671D01*
X172198554Y-98456134D01*
X172159515Y-98411080D01*
X172119687Y-98332914D01*
X172112287Y-98318390D01*
X172088400Y-98285512D01*
X171991971Y-98152786D01*
X171847213Y-98008028D01*
X171681613Y-97887715D01*
X171681612Y-97887714D01*
X171681610Y-97887713D01*
X171614921Y-97853733D01*
X171499223Y-97794781D01*
X171304534Y-97731522D01*
X171129995Y-97703878D01*
X171102352Y-97699500D01*
X170897648Y-97699500D01*
X170873329Y-97703351D01*
X170695465Y-97731522D01*
X170500776Y-97794781D01*
X170318386Y-97887715D01*
X170152786Y-98008028D01*
X170008028Y-98152786D01*
X169887715Y-98318386D01*
X169840485Y-98411080D01*
X169792510Y-98461876D01*
X169724689Y-98478671D01*
X169658554Y-98456134D01*
X169619515Y-98411080D01*
X169579687Y-98332914D01*
X169572287Y-98318390D01*
X169548400Y-98285512D01*
X169451971Y-98152786D01*
X169307213Y-98008028D01*
X169141613Y-97887715D01*
X169141612Y-97887714D01*
X169141610Y-97887713D01*
X169074921Y-97853733D01*
X168959223Y-97794781D01*
X168764534Y-97731522D01*
X168589995Y-97703878D01*
X168562352Y-97699500D01*
X168357648Y-97699500D01*
X168333329Y-97703351D01*
X168155465Y-97731522D01*
X167960776Y-97794781D01*
X167778386Y-97887715D01*
X167612786Y-98008028D01*
X167468028Y-98152786D01*
X167347715Y-98318386D01*
X167300485Y-98411080D01*
X167252510Y-98461876D01*
X167184689Y-98478671D01*
X167118554Y-98456134D01*
X167079515Y-98411080D01*
X167039687Y-98332914D01*
X167032287Y-98318390D01*
X167008400Y-98285512D01*
X166911971Y-98152786D01*
X166767213Y-98008028D01*
X166601613Y-97887715D01*
X166601612Y-97887714D01*
X166601610Y-97887713D01*
X166534921Y-97853733D01*
X166419223Y-97794781D01*
X166224534Y-97731522D01*
X166049995Y-97703878D01*
X166022352Y-97699500D01*
X165817648Y-97699500D01*
X165793329Y-97703351D01*
X165615465Y-97731522D01*
X165420776Y-97794781D01*
X165238386Y-97887715D01*
X165072786Y-98008028D01*
X164928028Y-98152786D01*
X164807713Y-98318388D01*
X164760203Y-98411630D01*
X164712228Y-98462426D01*
X164644407Y-98479220D01*
X164578272Y-98456682D01*
X164539234Y-98411628D01*
X164491861Y-98318652D01*
X164459474Y-98274077D01*
X164459474Y-98274076D01*
X163780000Y-98953551D01*
X163780000Y-98947339D01*
X163752741Y-98845606D01*
X163700080Y-98754394D01*
X163625606Y-98679920D01*
X163534394Y-98627259D01*
X163432661Y-98600000D01*
X163426446Y-98600000D01*
X164105922Y-97920524D01*
X164105921Y-97920523D01*
X164061359Y-97888147D01*
X164061350Y-97888141D01*
X163879031Y-97795244D01*
X163684417Y-97732009D01*
X163482317Y-97700000D01*
X163277683Y-97700000D01*
X163075582Y-97732009D01*
X162880968Y-97795244D01*
X162698644Y-97888143D01*
X162654077Y-97920523D01*
X162654077Y-97920524D01*
X163333554Y-98600000D01*
X163327339Y-98600000D01*
X163225606Y-98627259D01*
X163134394Y-98679920D01*
X163059920Y-98754394D01*
X163007259Y-98845606D01*
X162980000Y-98947339D01*
X162980000Y-98953553D01*
X162300524Y-98274077D01*
X162300523Y-98274077D01*
X162268143Y-98318644D01*
X162220765Y-98411630D01*
X162172790Y-98462426D01*
X162104969Y-98479221D01*
X162038834Y-98456683D01*
X161999795Y-98411630D01*
X161959687Y-98332914D01*
X161952287Y-98318390D01*
X161952285Y-98318387D01*
X161952284Y-98318385D01*
X161831971Y-98152786D01*
X161687213Y-98008028D01*
X161521613Y-97887715D01*
X161521612Y-97887714D01*
X161521610Y-97887713D01*
X161454921Y-97853733D01*
X161339223Y-97794781D01*
X161144534Y-97731522D01*
X160969995Y-97703878D01*
X160942352Y-97699500D01*
X160737648Y-97699500D01*
X160713329Y-97703351D01*
X160535465Y-97731522D01*
X160340776Y-97794781D01*
X160158386Y-97887715D01*
X159992786Y-98008028D01*
X159848028Y-98152786D01*
X159727715Y-98318386D01*
X159680485Y-98411080D01*
X159632510Y-98461876D01*
X159564689Y-98478671D01*
X159498554Y-98456134D01*
X159459515Y-98411080D01*
X159419687Y-98332914D01*
X159412287Y-98318390D01*
X159388400Y-98285512D01*
X159291971Y-98152786D01*
X159147213Y-98008028D01*
X158981613Y-97887715D01*
X158981612Y-97887714D01*
X158981610Y-97887713D01*
X158914921Y-97853733D01*
X158799223Y-97794781D01*
X158604534Y-97731522D01*
X158429995Y-97703878D01*
X158402352Y-97699500D01*
X158197648Y-97699500D01*
X158173329Y-97703351D01*
X157995465Y-97731522D01*
X157800776Y-97794781D01*
X157618386Y-97887715D01*
X157452786Y-98008028D01*
X157308028Y-98152786D01*
X157187715Y-98318386D01*
X157140485Y-98411080D01*
X157092510Y-98461876D01*
X157024689Y-98478671D01*
X156958554Y-98456134D01*
X156919515Y-98411080D01*
X156879687Y-98332914D01*
X156872287Y-98318390D01*
X156848400Y-98285512D01*
X156751971Y-98152786D01*
X156607213Y-98008028D01*
X156441613Y-97887715D01*
X156441612Y-97887714D01*
X156441610Y-97887713D01*
X156374921Y-97853733D01*
X156259223Y-97794781D01*
X156064534Y-97731522D01*
X155889995Y-97703878D01*
X155862352Y-97699500D01*
X155657648Y-97699500D01*
X155633329Y-97703351D01*
X155455465Y-97731522D01*
X155260776Y-97794781D01*
X155078386Y-97887715D01*
X154912786Y-98008028D01*
X154768028Y-98152786D01*
X154647715Y-98318386D01*
X154600485Y-98411080D01*
X154552510Y-98461876D01*
X154484689Y-98478671D01*
X154418554Y-98456134D01*
X154379515Y-98411080D01*
X154339687Y-98332914D01*
X154332287Y-98318390D01*
X154308400Y-98285512D01*
X154211971Y-98152786D01*
X154067213Y-98008028D01*
X153901613Y-97887715D01*
X153901612Y-97887714D01*
X153901610Y-97887713D01*
X153834921Y-97853733D01*
X153719223Y-97794781D01*
X153524534Y-97731522D01*
X153349995Y-97703878D01*
X153322352Y-97699500D01*
X153117648Y-97699500D01*
X153093329Y-97703351D01*
X152915465Y-97731522D01*
X152720776Y-97794781D01*
X152538386Y-97887715D01*
X152372786Y-98008028D01*
X152228028Y-98152786D01*
X152107715Y-98318386D01*
X152060485Y-98411080D01*
X152012510Y-98461876D01*
X151944689Y-98478671D01*
X151878554Y-98456134D01*
X151839515Y-98411080D01*
X151799687Y-98332914D01*
X151792287Y-98318390D01*
X151768400Y-98285512D01*
X151671971Y-98152786D01*
X151527213Y-98008028D01*
X151361613Y-97887715D01*
X151361612Y-97887714D01*
X151361610Y-97887713D01*
X151294921Y-97853733D01*
X151179223Y-97794781D01*
X150984534Y-97731522D01*
X150809995Y-97703878D01*
X150782352Y-97699500D01*
X150577648Y-97699500D01*
X150553329Y-97703351D01*
X150375465Y-97731522D01*
X150180776Y-97794781D01*
X149998386Y-97887715D01*
X149832786Y-98008028D01*
X149688028Y-98152786D01*
X149567715Y-98318386D01*
X149520485Y-98411080D01*
X149472510Y-98461876D01*
X149404689Y-98478671D01*
X149338554Y-98456134D01*
X149299515Y-98411080D01*
X149259687Y-98332914D01*
X149252287Y-98318390D01*
X149228400Y-98285512D01*
X149131971Y-98152786D01*
X148987213Y-98008028D01*
X148821613Y-97887715D01*
X148821612Y-97887714D01*
X148821610Y-97887713D01*
X148754921Y-97853733D01*
X148639223Y-97794781D01*
X148444534Y-97731522D01*
X148269995Y-97703878D01*
X148242352Y-97699500D01*
X148037648Y-97699500D01*
X148013329Y-97703351D01*
X147835465Y-97731522D01*
X147640776Y-97794781D01*
X147458386Y-97887715D01*
X147292786Y-98008028D01*
X147148028Y-98152786D01*
X147027715Y-98318386D01*
X146934781Y-98500776D01*
X146871522Y-98695465D01*
X146839500Y-98897648D01*
X146839500Y-99102351D01*
X146871522Y-99304534D01*
X146934781Y-99499223D01*
X146987729Y-99603138D01*
X147027712Y-99681609D01*
X147027715Y-99681613D01*
X147148028Y-99847213D01*
X147292786Y-99991971D01*
X147415800Y-100081344D01*
X147458390Y-100112287D01*
X147545042Y-100156438D01*
X147561874Y-100165015D01*
X147612670Y-100212990D01*
X147629465Y-100280811D01*
X147606927Y-100346946D01*
X147552212Y-100390397D01*
X147505579Y-100399500D01*
X143709706Y-100399500D01*
X143642667Y-100379815D01*
X143596912Y-100327011D01*
X143586968Y-100257853D01*
X143609388Y-100202614D01*
X143620840Y-100186852D01*
X143714488Y-100003057D01*
X143718092Y-99991966D01*
X143778230Y-99806880D01*
X143778230Y-99806879D01*
X143778231Y-99806876D01*
X143810500Y-99603139D01*
X143810500Y-99396861D01*
X143778231Y-99193124D01*
X143778230Y-99193120D01*
X143778230Y-99193119D01*
X143714489Y-98996945D01*
X143714488Y-98996943D01*
X143620840Y-98813148D01*
X143499593Y-98646267D01*
X143353733Y-98500407D01*
X143186852Y-98379160D01*
X143178268Y-98374786D01*
X143003054Y-98285510D01*
X142806879Y-98221769D01*
X142654073Y-98197567D01*
X142603139Y-98189500D01*
X142396861Y-98189500D01*
X142328948Y-98200256D01*
X142193122Y-98221769D01*
X142193119Y-98221769D01*
X141996945Y-98285510D01*
X141813147Y-98379160D01*
X141646265Y-98500408D01*
X141500408Y-98646265D01*
X141379160Y-98813147D01*
X141285510Y-98996945D01*
X141221769Y-99193119D01*
X141221769Y-99193122D01*
X141209634Y-99269738D01*
X141189500Y-99396861D01*
X141189500Y-99603139D01*
X141201889Y-99681359D01*
X141221769Y-99806877D01*
X141221769Y-99806880D01*
X141285510Y-100003054D01*
X141379160Y-100186852D01*
X141390612Y-100202614D01*
X141414092Y-100268420D01*
X141398267Y-100336474D01*
X141348161Y-100385169D01*
X141290294Y-100399500D01*
X133300097Y-100399500D01*
X133233058Y-100379815D01*
X133212416Y-100363181D01*
X131334574Y-98485339D01*
X131301089Y-98424016D01*
X131300638Y-98421849D01*
X131280110Y-98318652D01*
X131269737Y-98266503D01*
X131242398Y-98200500D01*
X131209397Y-98120827D01*
X131209390Y-98120814D01*
X131121789Y-97989711D01*
X131121786Y-97989707D01*
X131010292Y-97878213D01*
X131010288Y-97878210D01*
X130879185Y-97790609D01*
X130879172Y-97790602D01*
X130733501Y-97730264D01*
X130733489Y-97730261D01*
X130578845Y-97699500D01*
X130578842Y-97699500D01*
X130449097Y-97699500D01*
X130382058Y-97679815D01*
X130336303Y-97627011D01*
X130326359Y-97557853D01*
X130355384Y-97494297D01*
X130361416Y-97487819D01*
X131712416Y-96136819D01*
X131773739Y-96103334D01*
X131800097Y-96100500D01*
X131920234Y-96100500D01*
X131987273Y-96120185D01*
X131989125Y-96121398D01*
X132120814Y-96209390D01*
X132120827Y-96209397D01*
X132172181Y-96230668D01*
X132266503Y-96269737D01*
X132421153Y-96300499D01*
X132421156Y-96300500D01*
X132421158Y-96300500D01*
X132578844Y-96300500D01*
X132578845Y-96300499D01*
X132733497Y-96269737D01*
X132879179Y-96209394D01*
X133010289Y-96121789D01*
X133121789Y-96010289D01*
X133209394Y-95879179D01*
X133215191Y-95865185D01*
X133248192Y-95785512D01*
X133269737Y-95733497D01*
X133300500Y-95578842D01*
X133300500Y-95421158D01*
X133300500Y-95421155D01*
X133300499Y-95421153D01*
X133269738Y-95266510D01*
X133269737Y-95266503D01*
X133242800Y-95201470D01*
X133209397Y-95120827D01*
X133209390Y-95120814D01*
X133121789Y-94989711D01*
X133121786Y-94989707D01*
X133010292Y-94878213D01*
X133010288Y-94878210D01*
X132879185Y-94790609D01*
X132879172Y-94790602D01*
X132733501Y-94730264D01*
X132733489Y-94730261D01*
X132578845Y-94699500D01*
X132578842Y-94699500D01*
X132421158Y-94699500D01*
X132421155Y-94699500D01*
X132266510Y-94730261D01*
X132266498Y-94730264D01*
X132120827Y-94790602D01*
X132120814Y-94790609D01*
X131989125Y-94878602D01*
X131922447Y-94899480D01*
X131920234Y-94899500D01*
X131579057Y-94899500D01*
X131420943Y-94899500D01*
X131268215Y-94940423D01*
X131268214Y-94940423D01*
X131268212Y-94940424D01*
X131268209Y-94940425D01*
X131218096Y-94969359D01*
X131218095Y-94969360D01*
X131182853Y-94989707D01*
X131131285Y-95019479D01*
X131131282Y-95019481D01*
X124519481Y-101631282D01*
X124519479Y-101631285D01*
X124474385Y-101709392D01*
X124474384Y-101709393D01*
X124440423Y-101768214D01*
X124440423Y-101768215D01*
X124399499Y-101920943D01*
X124399499Y-101920945D01*
X124399499Y-102089046D01*
X124399500Y-102089059D01*
X124399500Y-105920234D01*
X124379815Y-105987273D01*
X124378602Y-105989125D01*
X124290609Y-106120814D01*
X124290602Y-106120827D01*
X124230264Y-106266498D01*
X124230261Y-106266510D01*
X124199500Y-106421153D01*
X100500500Y-106421153D01*
X100500500Y-85921153D01*
X146699500Y-85921153D01*
X146699500Y-86078846D01*
X146730261Y-86233489D01*
X146730264Y-86233501D01*
X146790602Y-86379172D01*
X146790609Y-86379185D01*
X146878210Y-86510288D01*
X146878213Y-86510292D01*
X146989707Y-86621786D01*
X146989711Y-86621789D01*
X147120814Y-86709390D01*
X147120827Y-86709397D01*
X147217646Y-86749500D01*
X147266503Y-86769737D01*
X147421153Y-86800499D01*
X147421156Y-86800500D01*
X147421158Y-86800500D01*
X147578844Y-86800500D01*
X147578845Y-86800499D01*
X147733497Y-86769737D01*
X147841536Y-86724986D01*
X155800001Y-86724986D01*
X155810494Y-86827697D01*
X155865641Y-86994119D01*
X155865643Y-86994124D01*
X155957684Y-87143345D01*
X156081654Y-87267315D01*
X156230875Y-87359356D01*
X156230880Y-87359358D01*
X156397302Y-87414505D01*
X156397309Y-87414506D01*
X156500019Y-87424999D01*
X156749999Y-87424999D01*
X157250000Y-87424999D01*
X157499972Y-87424999D01*
X157499986Y-87424998D01*
X157602697Y-87414505D01*
X157769119Y-87359358D01*
X157769124Y-87359356D01*
X157918345Y-87267315D01*
X158042315Y-87143345D01*
X158115320Y-87024986D01*
X159550001Y-87024986D01*
X159560494Y-87127697D01*
X159615641Y-87294119D01*
X159615643Y-87294124D01*
X159707684Y-87443345D01*
X159831654Y-87567315D01*
X159980875Y-87659356D01*
X159980880Y-87659358D01*
X160147302Y-87714505D01*
X160147309Y-87714506D01*
X160250019Y-87724999D01*
X160299999Y-87724998D01*
X160300000Y-87724998D01*
X160300000Y-86750000D01*
X159550001Y-86750000D01*
X159550001Y-87024986D01*
X158115320Y-87024986D01*
X158134356Y-86994124D01*
X158134358Y-86994119D01*
X158189505Y-86827697D01*
X158189506Y-86827690D01*
X158199999Y-86724986D01*
X158200000Y-86724973D01*
X158200000Y-86662500D01*
X157250000Y-86662500D01*
X157250000Y-87424999D01*
X156749999Y-87424999D01*
X156750000Y-87424998D01*
X156750000Y-86662500D01*
X155800001Y-86662500D01*
X155800001Y-86724986D01*
X147841536Y-86724986D01*
X147879179Y-86709394D01*
X148010289Y-86621789D01*
X148036612Y-86595466D01*
X148108622Y-86523457D01*
X148121786Y-86510292D01*
X148121789Y-86510289D01*
X148209394Y-86379179D01*
X148269737Y-86233497D01*
X148300500Y-86078842D01*
X148300500Y-85921158D01*
X148300500Y-85921155D01*
X148300499Y-85921153D01*
X148290762Y-85872203D01*
X148269737Y-85766503D01*
X148244966Y-85706699D01*
X148209397Y-85620827D01*
X148209390Y-85620814D01*
X148121789Y-85489711D01*
X148121786Y-85489707D01*
X148010292Y-85378213D01*
X148010288Y-85378210D01*
X147879185Y-85290609D01*
X147879172Y-85290602D01*
X147733501Y-85230264D01*
X147733489Y-85230261D01*
X147578845Y-85199500D01*
X147578842Y-85199500D01*
X147421158Y-85199500D01*
X147421155Y-85199500D01*
X147266510Y-85230261D01*
X147266498Y-85230264D01*
X147120827Y-85290602D01*
X147120814Y-85290609D01*
X146989711Y-85378210D01*
X146989707Y-85378213D01*
X146878213Y-85489707D01*
X146878210Y-85489711D01*
X146790609Y-85620814D01*
X146790602Y-85620827D01*
X146730264Y-85766498D01*
X146730261Y-85766510D01*
X146699500Y-85921153D01*
X100500500Y-85921153D01*
X100500500Y-80002706D01*
X100500618Y-79997297D01*
X100501118Y-79985838D01*
X100517387Y-79613224D01*
X100518325Y-79602496D01*
X100568151Y-79224032D01*
X100570024Y-79213402D01*
X100652648Y-78840714D01*
X100655446Y-78830276D01*
X100770230Y-78466227D01*
X100773917Y-78456095D01*
X100885180Y-78187483D01*
X142799500Y-78187483D01*
X142799500Y-78812501D01*
X142799501Y-78812519D01*
X142810000Y-78915296D01*
X142810001Y-78915299D01*
X142817661Y-78938414D01*
X142865186Y-79081834D01*
X142957288Y-79231156D01*
X143081344Y-79355212D01*
X143230666Y-79447314D01*
X143397203Y-79502499D01*
X143499991Y-79513000D01*
X144112402Y-79512999D01*
X144179441Y-79532683D01*
X144200083Y-79549318D01*
X145863181Y-81212416D01*
X145896666Y-81273739D01*
X145899500Y-81300097D01*
X145899500Y-81920234D01*
X145879815Y-81987273D01*
X145878602Y-81989125D01*
X145790609Y-82120814D01*
X145790602Y-82120827D01*
X145730264Y-82266498D01*
X145730261Y-82266510D01*
X145699500Y-82421153D01*
X145699500Y-82578846D01*
X145730261Y-82733489D01*
X145730264Y-82733501D01*
X145790602Y-82879172D01*
X145790609Y-82879185D01*
X145878210Y-83010288D01*
X145878213Y-83010292D01*
X145989707Y-83121786D01*
X145989711Y-83121789D01*
X146120814Y-83209390D01*
X146120827Y-83209397D01*
X146258683Y-83266498D01*
X146266503Y-83269737D01*
X146421153Y-83300499D01*
X146421156Y-83300500D01*
X146421158Y-83300500D01*
X146578844Y-83300500D01*
X146578845Y-83300499D01*
X146733497Y-83269737D01*
X146846166Y-83223067D01*
X146879172Y-83209397D01*
X146879172Y-83209396D01*
X146879179Y-83209394D01*
X147010289Y-83121789D01*
X147121789Y-83010289D01*
X147209394Y-82879179D01*
X147269737Y-82733497D01*
X147300500Y-82578842D01*
X147300500Y-82421158D01*
X147300500Y-82421155D01*
X147300499Y-82421153D01*
X147296003Y-82398549D01*
X147269737Y-82266503D01*
X147251086Y-82221475D01*
X147209397Y-82120827D01*
X147209390Y-82120814D01*
X147121398Y-81989125D01*
X147100520Y-81922447D01*
X147100500Y-81920234D01*
X147100500Y-81089059D01*
X147100501Y-81089046D01*
X147100501Y-80920945D01*
X147100501Y-80920943D01*
X147059577Y-80768215D01*
X147028662Y-80714669D01*
X146980520Y-80631284D01*
X146868716Y-80519480D01*
X146868715Y-80519479D01*
X146864385Y-80515149D01*
X146864374Y-80515139D01*
X146700739Y-80351504D01*
X147680000Y-80351504D01*
X147680000Y-80750000D01*
X148380000Y-80750000D01*
X148380000Y-81250000D01*
X147680000Y-81250000D01*
X147680000Y-81648495D01*
X147718427Y-81841681D01*
X147718430Y-81841693D01*
X147793807Y-82023671D01*
X147793814Y-82023684D01*
X147903248Y-82187462D01*
X147903251Y-82187466D01*
X148042533Y-82326748D01*
X148042537Y-82326751D01*
X148206315Y-82436185D01*
X148206328Y-82436192D01*
X148388308Y-82511569D01*
X148430000Y-82519862D01*
X148430000Y-81716988D01*
X148439940Y-81734205D01*
X148495795Y-81790060D01*
X148564204Y-81829556D01*
X148640504Y-81850000D01*
X148719496Y-81850000D01*
X148795796Y-81829556D01*
X148864205Y-81790060D01*
X148920060Y-81734205D01*
X148930000Y-81716988D01*
X148930000Y-82519862D01*
X148971690Y-82511569D01*
X148971692Y-82511569D01*
X149153671Y-82436192D01*
X149153684Y-82436185D01*
X149317462Y-82326751D01*
X149317466Y-82326748D01*
X149456748Y-82187466D01*
X149456751Y-82187462D01*
X149566185Y-82023684D01*
X149566192Y-82023671D01*
X149641569Y-81841693D01*
X149641572Y-81841681D01*
X149679999Y-81648495D01*
X149680000Y-81648492D01*
X149680000Y-81250000D01*
X148980000Y-81250000D01*
X148980000Y-80750000D01*
X149518216Y-80750000D01*
X149585255Y-80769685D01*
X149625602Y-80811999D01*
X149649485Y-80853365D01*
X149756635Y-80960515D01*
X149887865Y-81036281D01*
X150034234Y-81075500D01*
X150034236Y-81075500D01*
X150185764Y-81075500D01*
X150185766Y-81075500D01*
X150332135Y-81036281D01*
X150463365Y-80960515D01*
X150570515Y-80853365D01*
X150646281Y-80722135D01*
X150685500Y-80575766D01*
X150685500Y-80424234D01*
X150646281Y-80277865D01*
X150646279Y-80277861D01*
X150645822Y-80277069D01*
X150645821Y-80277067D01*
X150645820Y-80277066D01*
X150613538Y-80221153D01*
X150999500Y-80221153D01*
X150999500Y-80378846D01*
X151030261Y-80533489D01*
X151030264Y-80533501D01*
X151090602Y-80679172D01*
X151090609Y-80679185D01*
X151178602Y-80810874D01*
X151199480Y-80877551D01*
X151199500Y-80879765D01*
X151199500Y-83013330D01*
X151199499Y-83013348D01*
X151199499Y-83179054D01*
X151199498Y-83179054D01*
X151199499Y-83179057D01*
X151240423Y-83331785D01*
X151267786Y-83379179D01*
X151267786Y-83379180D01*
X151319475Y-83468709D01*
X151319481Y-83468717D01*
X151438349Y-83587585D01*
X151438355Y-83587590D01*
X153065425Y-85214660D01*
X153098910Y-85275983D01*
X153099361Y-85278149D01*
X153130261Y-85433491D01*
X153130264Y-85433501D01*
X153190602Y-85579172D01*
X153190609Y-85579185D01*
X153278210Y-85710288D01*
X153278213Y-85710292D01*
X153389707Y-85821786D01*
X153389711Y-85821789D01*
X153520814Y-85909390D01*
X153520827Y-85909397D01*
X153666498Y-85969735D01*
X153666503Y-85969737D01*
X153805081Y-85997302D01*
X153821153Y-86000499D01*
X153821156Y-86000500D01*
X153821158Y-86000500D01*
X153978844Y-86000500D01*
X153978845Y-86000499D01*
X154133497Y-85969737D01*
X154279179Y-85909394D01*
X154410289Y-85821789D01*
X154521789Y-85710289D01*
X154609394Y-85579179D01*
X154618853Y-85556344D01*
X154631127Y-85526711D01*
X154669737Y-85433497D01*
X154700500Y-85278842D01*
X154700500Y-85121158D01*
X154700500Y-85121155D01*
X154700499Y-85121153D01*
X154669737Y-84966503D01*
X154654833Y-84930521D01*
X154609397Y-84820827D01*
X154609390Y-84820814D01*
X154521789Y-84689711D01*
X154521786Y-84689707D01*
X154410292Y-84578213D01*
X154410288Y-84578210D01*
X154279185Y-84490609D01*
X154279172Y-84490602D01*
X154133501Y-84430264D01*
X154133491Y-84430261D01*
X153978149Y-84399361D01*
X153916238Y-84366976D01*
X153914660Y-84365425D01*
X152436819Y-82887584D01*
X152403334Y-82826261D01*
X152400500Y-82799903D01*
X152400500Y-80879765D01*
X152420185Y-80812726D01*
X152421398Y-80810874D01*
X152438357Y-80785494D01*
X152509394Y-80679179D01*
X152569737Y-80533497D01*
X152594202Y-80410504D01*
X152597900Y-80391916D01*
X152597900Y-80391915D01*
X152600500Y-80378844D01*
X152600500Y-80221155D01*
X152600499Y-80221153D01*
X152585676Y-80146632D01*
X152569737Y-80066503D01*
X152559318Y-80041349D01*
X152509397Y-79920827D01*
X152509390Y-79920814D01*
X152421789Y-79789711D01*
X152421786Y-79789707D01*
X152310292Y-79678213D01*
X152310288Y-79678210D01*
X152179185Y-79590609D01*
X152179172Y-79590602D01*
X152033501Y-79530264D01*
X152033489Y-79530261D01*
X151878845Y-79499500D01*
X151878842Y-79499500D01*
X151721158Y-79499500D01*
X151721155Y-79499500D01*
X151566510Y-79530261D01*
X151566498Y-79530264D01*
X151420827Y-79590602D01*
X151420814Y-79590609D01*
X151289711Y-79678210D01*
X151289707Y-79678213D01*
X151178213Y-79789707D01*
X151178210Y-79789711D01*
X151090609Y-79920814D01*
X151090602Y-79920827D01*
X151030264Y-80066498D01*
X151030261Y-80066510D01*
X150999500Y-80221153D01*
X150613538Y-80221153D01*
X150577253Y-80158306D01*
X150570515Y-80146635D01*
X150463365Y-80039485D01*
X150390294Y-79997297D01*
X150332136Y-79963719D01*
X150237709Y-79938418D01*
X150185766Y-79924500D01*
X150034234Y-79924500D01*
X149887863Y-79963719D01*
X149796428Y-80016510D01*
X149756635Y-80039485D01*
X149756633Y-80039486D01*
X149749597Y-80043549D01*
X149748327Y-80041349D01*
X149694995Y-80061960D01*
X149626552Y-80047914D01*
X149576568Y-79999094D01*
X149570131Y-79985838D01*
X149566192Y-79976328D01*
X149566185Y-79976315D01*
X149456751Y-79812537D01*
X149456748Y-79812533D01*
X149317466Y-79673251D01*
X149317462Y-79673248D01*
X149153684Y-79563814D01*
X149153671Y-79563807D01*
X148971691Y-79488429D01*
X148971683Y-79488427D01*
X148930000Y-79480135D01*
X148930000Y-80283011D01*
X148920060Y-80265795D01*
X148864205Y-80209940D01*
X148795796Y-80170444D01*
X148719496Y-80150000D01*
X148640504Y-80150000D01*
X148564204Y-80170444D01*
X148495795Y-80209940D01*
X148439940Y-80265795D01*
X148430000Y-80283011D01*
X148430000Y-79480136D01*
X148429999Y-79480135D01*
X148388316Y-79488427D01*
X148388308Y-79488429D01*
X148206328Y-79563807D01*
X148206315Y-79563814D01*
X148042537Y-79673248D01*
X148042533Y-79673251D01*
X147903251Y-79812533D01*
X147903248Y-79812537D01*
X147793814Y-79976315D01*
X147793807Y-79976328D01*
X147718430Y-80158306D01*
X147718427Y-80158318D01*
X147680000Y-80351504D01*
X146700739Y-80351504D01*
X145236818Y-78887583D01*
X145203333Y-78826260D01*
X145200499Y-78799911D01*
X145200499Y-78187492D01*
X145189999Y-78084703D01*
X145134814Y-77918166D01*
X145042712Y-77768844D01*
X144948695Y-77674827D01*
X144915210Y-77613504D01*
X144920194Y-77543812D01*
X144948695Y-77499464D01*
X145042317Y-77405842D01*
X145134356Y-77256624D01*
X145134358Y-77256619D01*
X145189505Y-77090197D01*
X145189506Y-77090189D01*
X145198104Y-77006036D01*
X145198104Y-77006033D01*
X145199999Y-76987481D01*
X145200000Y-76987473D01*
X145200000Y-76925000D01*
X142800001Y-76925000D01*
X142800001Y-76987486D01*
X142810494Y-77090197D01*
X142865641Y-77256619D01*
X142865643Y-77256624D01*
X142957684Y-77405845D01*
X143051304Y-77499465D01*
X143084789Y-77560788D01*
X143079805Y-77630480D01*
X143051305Y-77674827D01*
X142957287Y-77768845D01*
X142865187Y-77918163D01*
X142865186Y-77918166D01*
X142810001Y-78084703D01*
X142810001Y-78084704D01*
X142810000Y-78084704D01*
X142799500Y-78187483D01*
X100885180Y-78187483D01*
X100920000Y-78103421D01*
X100924561Y-78093638D01*
X101100822Y-77755045D01*
X101106217Y-77745700D01*
X101311325Y-77423744D01*
X101317515Y-77414905D01*
X101549896Y-77112060D01*
X101556834Y-77103791D01*
X101814726Y-76822352D01*
X101822352Y-76814726D01*
X102103791Y-76556834D01*
X102112060Y-76549896D01*
X102414905Y-76317515D01*
X102423744Y-76311325D01*
X102745700Y-76106217D01*
X102755045Y-76100822D01*
X103093638Y-75924561D01*
X103103412Y-75920003D01*
X103456095Y-75773917D01*
X103466227Y-75770230D01*
X103830285Y-75655443D01*
X103840714Y-75652648D01*
X104213402Y-75570024D01*
X104224032Y-75568151D01*
X104602496Y-75518325D01*
X104613224Y-75517387D01*
X104997297Y-75500617D01*
X105002706Y-75500500D01*
X105065892Y-75500500D01*
X143162706Y-75500500D01*
X143229745Y-75520185D01*
G37*
%TD.AperFunction*%
%TD*%
M02*
