%TF.GenerationSoftware,KiCad,Pcbnew,10.0.5*%
%TF.CreationDate,2026-09-08T09:33:27-05:00*%
%TF.ProjectId,Test,54657374-2e6b-4696-9361-645f70636258,rev?*%
%TF.SameCoordinates,Original*%
%TF.FileFunction,Copper,L2,Inr*%
%TF.FilePolarity,Positive*%
%FSLAX46Y46*%
G04 Gerber Fmt 4.6, Leading zero omitted, Abs format (unit mm)*
G04 Created by KiCad (PCBNEW 10.0.5) date 2026-09-08 09:33:27*
%MOMM*%
%LPD*%
G01*
G04 APERTURE LIST*
G04 Aperture macros list*
%AMRoundRect*
0 Rectangle with rounded corners*
0 $1 Rounding radius*
0 $2 $3 $4 $5 $6 $7 $8 $9 X,Y pos of 4 corners*
0 Add a 4 corners polygon primitive as box body*
4,1,4,$2,$3,$4,$5,$6,$7,$8,$9,$2,$3,0*
0 Add four circle primitives for the rounded corners*
1,1,$1+$1,$2,$3*
1,1,$1+$1,$4,$5*
1,1,$1+$1,$6,$7*
1,1,$1+$1,$8,$9*
0 Add four rect primitives between the rounded corners*
20,1,$1+$1,$2,$3,$4,$5,0*
20,1,$1+$1,$4,$5,$6,$7,0*
20,1,$1+$1,$6,$7,$8,$9,0*
20,1,$1+$1,$8,$9,$2,$3,0*%
G04 Aperture macros list end*
%TA.AperFunction,ComponentPad*%
%ADD10R,1.700000X1.700000*%
%TD*%
%TA.AperFunction,ComponentPad*%
%ADD11C,1.700000*%
%TD*%
%TA.AperFunction,ComponentPad*%
%ADD12O,1.000000X2.100000*%
%TD*%
%TA.AperFunction,ComponentPad*%
%ADD13O,1.000000X1.800000*%
%TD*%
%TA.AperFunction,ComponentPad*%
%ADD14C,3.000000*%
%TD*%
%TA.AperFunction,ComponentPad*%
%ADD15R,1.800000X2.600000*%
%TD*%
%TA.AperFunction,ComponentPad*%
%ADD16O,1.800000X2.600000*%
%TD*%
%TA.AperFunction,ComponentPad*%
%ADD17C,2.000000*%
%TD*%
%TA.AperFunction,ComponentPad*%
%ADD18RoundRect,0.250000X-0.550000X0.550000X-0.550000X-0.550000X0.550000X-0.550000X0.550000X0.550000X0*%
%TD*%
%TA.AperFunction,ComponentPad*%
%ADD19C,1.600000*%
%TD*%
%TA.AperFunction,ComponentPad*%
%ADD20C,1.620000*%
%TD*%
%TA.AperFunction,ComponentPad*%
%ADD21C,1.500000*%
%TD*%
%TA.AperFunction,ViaPad*%
%ADD22C,0.600000*%
%TD*%
G04 APERTURE END LIST*
D10*
%TO.N,Miso*%
%TO.C,J1*%
X178500000Y-78420000D03*
D11*
%TO.N,+5V*%
X181040000Y-78420000D03*
%TO.N,SCK*%
X178500000Y-80960000D03*
%TO.N,Mosi*%
X181040000Y-80960000D03*
%TO.N,RST*%
X178500000Y-83500000D03*
%TO.N,GND*%
X181040000Y-83500000D03*
%TD*%
D12*
%TO.N,GND*%
%TO.C,P1*%
X157320000Y-81000000D03*
D13*
X157320000Y-76820000D03*
D12*
X148680000Y-81000000D03*
D13*
X148680000Y-76820000D03*
%TD*%
D14*
%TO.N,*%
%TO.C,DS1*%
X104275900Y-113560000D03*
X104275900Y-144560700D03*
X179274480Y-144560700D03*
X179275000Y-113560000D03*
D15*
%TO.N,GND*%
X109775000Y-113560000D03*
D16*
%TO.N,+5V*%
X112315000Y-113560000D03*
%TO.N,Net-(DS1-VO)*%
X114855000Y-113560000D03*
%TO.N,Net-(DS1-RS)*%
X117395000Y-113560000D03*
%TO.N,GND*%
X119935000Y-113560000D03*
%TO.N,Net-(DS1-E)*%
X122475000Y-113560000D03*
%TO.N,unconnected-(DS1-D0-Pad7)*%
X125015000Y-113560000D03*
%TO.N,unconnected-(DS1-D1-Pad8)*%
X127555000Y-113560000D03*
%TO.N,unconnected-(DS1-D2-Pad9)*%
X130095000Y-113560000D03*
%TO.N,unconnected-(DS1-D3-Pad10)*%
X132635000Y-113560000D03*
%TO.N,Net-(DS1-D4)*%
X135175000Y-113560000D03*
%TO.N,Net-(DS1-D5)*%
X137715000Y-113560000D03*
%TO.N,Net-(DS1-D6)*%
X140255000Y-113560000D03*
%TO.N,Net-(DS1-D7)*%
X142795000Y-113560000D03*
%TO.N,unconnected-(DS1-LED(+)-Pad15)*%
X145335000Y-113560000D03*
%TO.N,Net-(DS1-LED(-))*%
X147875000Y-113560000D03*
%TD*%
D17*
%TO.N,RST*%
%TO.C,SW1*%
X137750000Y-88250000D03*
X144250000Y-88250000D03*
%TO.N,GND*%
X137750000Y-92750000D03*
X144250000Y-92750000D03*
%TD*%
D18*
%TO.N,RST*%
%TO.C,U1*%
X148140000Y-91380000D03*
D19*
%TO.N,CH340N_TX*%
X150680000Y-91380000D03*
%TO.N,CH340N_RX*%
X153220000Y-91380000D03*
%TO.N,Net-(DS1-RS)*%
X155760000Y-91380000D03*
%TO.N,Net-(DS1-E)*%
X158300000Y-91380000D03*
%TO.N,Net-(DS1-D4)*%
X160840000Y-91380000D03*
%TO.N,+5V*%
X163380000Y-91380000D03*
%TO.N,GND*%
X165920000Y-91380000D03*
%TO.N,Net-(U1-XTAL1{slash}PB6)*%
X168460000Y-91380000D03*
%TO.N,Net-(U1-XTAL2{slash}PB7)*%
X171000000Y-91380000D03*
%TO.N,Net-(DS1-D5)*%
X173540000Y-91380000D03*
%TO.N,Net-(DS1-D6)*%
X176080000Y-91380000D03*
%TO.N,Net-(DS1-D7)*%
X178620000Y-91380000D03*
%TO.N,unconnected-(U1-PB0-Pad14)*%
X181160000Y-91380000D03*
%TO.N,unconnected-(U1-PB1-Pad15)*%
X181160000Y-99000000D03*
%TO.N,unconnected-(U1-PB2-Pad16)*%
X178620000Y-99000000D03*
%TO.N,Mosi*%
X176080000Y-99000000D03*
%TO.N,Miso*%
X173540000Y-99000000D03*
%TO.N,SCK*%
X171000000Y-99000000D03*
%TO.N,+5V*%
X168460000Y-99000000D03*
%TO.N,unconnected-(U1-AREF-Pad21)*%
X165920000Y-99000000D03*
%TO.N,GND*%
X163380000Y-99000000D03*
%TO.N,unconnected-(U1-PC0-Pad23)*%
X160840000Y-99000000D03*
%TO.N,PC1*%
X158300000Y-99000000D03*
%TO.N,PC2*%
X155760000Y-99000000D03*
%TO.N,unconnected-(U1-PC3-Pad26)*%
X153220000Y-99000000D03*
%TO.N,unconnected-(U1-PC4-Pad27)*%
X150680000Y-99000000D03*
%TO.N,unconnected-(U1-PC5-Pad28)*%
X148140000Y-99000000D03*
%TD*%
D20*
%TO.N,GND*%
%TO.C,R3*%
X140000000Y-97000000D03*
%TO.N,Net-(DS1-VO)*%
X142500000Y-99500000D03*
%TO.N,+5V*%
X145000000Y-97000000D03*
%TD*%
D21*
%TO.N,Net-(U1-XTAL1{slash}PB6)*%
%TO.C,Y1*%
X168620000Y-87000000D03*
%TO.N,Net-(U1-XTAL2{slash}PB7)*%
X173500000Y-87000000D03*
%TD*%
D22*
%TO.N,USB_C D+*%
X153900000Y-85200000D03*
X151800000Y-80300000D03*
%TO.N,+5V*%
X173500000Y-77500000D03*
X147500000Y-86000000D03*
%TO.N,SCK*%
X177500000Y-86000000D03*
%TO.N,RST*%
X178000000Y-89000000D03*
%TO.N,Net-(U3-VI)*%
X157500000Y-83000000D03*
%TO.N,Net-(P1-CC1)*%
X155500000Y-83500000D03*
%TO.N,Net-(P1-CC2)*%
X146500000Y-82500000D03*
%TO.N,Net-(D2-K)*%
X130500000Y-98500000D03*
%TO.N,Net-(DS1-RS)*%
X125000000Y-106500000D03*
X132500000Y-95500000D03*
%TO.N,Net-(D1-K)*%
X127000000Y-101000000D03*
%TD*%
%TA.AperFunction,Conductor*%
%TO.N,+5V*%
G36*
X180574075Y-78612993D02*
G01*
X180639901Y-78727007D01*
X180732993Y-78820099D01*
X180847007Y-78885925D01*
X180910590Y-78902962D01*
X180278282Y-79535269D01*
X180278282Y-79535270D01*
X180332452Y-79574626D01*
X180332451Y-79574626D01*
X180341495Y-79579234D01*
X180392292Y-79627208D01*
X180409087Y-79695029D01*
X180386550Y-79761164D01*
X180341499Y-79800202D01*
X180332182Y-79804949D01*
X180160213Y-79929890D01*
X180009890Y-80080213D01*
X179884949Y-80252182D01*
X179880484Y-80260946D01*
X179832509Y-80311742D01*
X179764688Y-80328536D01*
X179698553Y-80305998D01*
X179659516Y-80260946D01*
X179655050Y-80252182D01*
X179530109Y-80080213D01*
X179416569Y-79966673D01*
X179383084Y-79905350D01*
X179388068Y-79835658D01*
X179429940Y-79779725D01*
X179460915Y-79762810D01*
X179592331Y-79713796D01*
X179707546Y-79627546D01*
X179793796Y-79512331D01*
X179844091Y-79377483D01*
X179850500Y-79317873D01*
X179850499Y-79307312D01*
X179870179Y-79240275D01*
X179886818Y-79219626D01*
X180557037Y-78549408D01*
X180574075Y-78612993D01*
G37*
%TD.AperFunction*%
%TA.AperFunction,Conductor*%
G36*
X147952255Y-75520185D02*
G01*
X147998010Y-75572989D01*
X148007954Y-75642147D01*
X147978929Y-75705703D01*
X147972897Y-75712181D01*
X147902863Y-75782214D01*
X147902860Y-75782218D01*
X147793371Y-75946079D01*
X147793364Y-75946092D01*
X147717950Y-76128160D01*
X147717947Y-76128170D01*
X147679500Y-76321456D01*
X147679500Y-76321459D01*
X147679500Y-77318541D01*
X147679500Y-77318543D01*
X147679499Y-77318543D01*
X147717947Y-77511829D01*
X147717950Y-77511839D01*
X147793364Y-77693907D01*
X147793371Y-77693920D01*
X147902860Y-77857781D01*
X147902863Y-77857785D01*
X148042214Y-77997136D01*
X148042218Y-77997139D01*
X148206079Y-78106628D01*
X148206092Y-78106635D01*
X148388160Y-78182049D01*
X148388165Y-78182051D01*
X148388169Y-78182051D01*
X148388170Y-78182052D01*
X148581456Y-78220500D01*
X148581459Y-78220500D01*
X148778543Y-78220500D01*
X148908582Y-78194632D01*
X148971835Y-78182051D01*
X149153914Y-78106632D01*
X149317782Y-77997139D01*
X149457139Y-77857782D01*
X149566632Y-77693914D01*
X149642051Y-77511835D01*
X149678684Y-77327671D01*
X149680500Y-77318543D01*
X149680500Y-76321456D01*
X149642052Y-76128170D01*
X149642051Y-76128169D01*
X149642051Y-76128165D01*
X149630723Y-76100816D01*
X149566635Y-75946092D01*
X149566628Y-75946079D01*
X149457139Y-75782218D01*
X149457136Y-75782214D01*
X149387103Y-75712181D01*
X149353618Y-75650858D01*
X149358602Y-75581166D01*
X149400474Y-75525233D01*
X149465938Y-75500816D01*
X149474784Y-75500500D01*
X156525216Y-75500500D01*
X156592255Y-75520185D01*
X156638010Y-75572989D01*
X156647954Y-75642147D01*
X156618929Y-75705703D01*
X156612897Y-75712181D01*
X156542863Y-75782214D01*
X156542860Y-75782218D01*
X156433371Y-75946079D01*
X156433364Y-75946092D01*
X156357950Y-76128160D01*
X156357947Y-76128170D01*
X156319500Y-76321456D01*
X156319500Y-76321459D01*
X156319500Y-77318541D01*
X156319500Y-77318543D01*
X156319499Y-77318543D01*
X156357947Y-77511829D01*
X156357950Y-77511839D01*
X156433364Y-77693907D01*
X156433371Y-77693920D01*
X156542860Y-77857781D01*
X156542863Y-77857785D01*
X156682214Y-77997136D01*
X156682218Y-77997139D01*
X156846079Y-78106628D01*
X156846092Y-78106635D01*
X157028160Y-78182049D01*
X157028165Y-78182051D01*
X157028169Y-78182051D01*
X157028170Y-78182052D01*
X157221456Y-78220500D01*
X157221459Y-78220500D01*
X157418543Y-78220500D01*
X157548582Y-78194632D01*
X157611835Y-78182051D01*
X157793914Y-78106632D01*
X157957782Y-77997139D01*
X158097139Y-77857782D01*
X158206632Y-77693914D01*
X158277785Y-77522135D01*
X177149500Y-77522135D01*
X177149500Y-79317870D01*
X177149501Y-79317876D01*
X177155908Y-79377483D01*
X177206202Y-79512328D01*
X177206206Y-79512335D01*
X177292452Y-79627544D01*
X177292455Y-79627547D01*
X177407664Y-79713793D01*
X177407671Y-79713797D01*
X177539082Y-79762810D01*
X177595016Y-79804681D01*
X177619433Y-79870145D01*
X177604582Y-79938418D01*
X177583431Y-79966673D01*
X177469889Y-80080215D01*
X177344951Y-80252179D01*
X177248444Y-80441585D01*
X177182753Y-80643760D01*
X177170340Y-80722135D01*
X177149500Y-80853713D01*
X177149500Y-81066287D01*
X177150047Y-81069738D01*
X177182753Y-81276239D01*
X177248444Y-81478414D01*
X177344951Y-81667820D01*
X177469890Y-81839786D01*
X177620213Y-81990109D01*
X177792182Y-82115050D01*
X177800946Y-82119516D01*
X177851742Y-82167491D01*
X177868536Y-82235312D01*
X177845998Y-82301447D01*
X177800946Y-82340484D01*
X177792182Y-82344949D01*
X177620213Y-82469890D01*
X177469890Y-82620213D01*
X177344951Y-82792179D01*
X177248444Y-82981585D01*
X177182753Y-83183760D01*
X177149500Y-83393713D01*
X177149500Y-83606286D01*
X177180260Y-83800500D01*
X177182754Y-83816243D01*
X177245803Y-84010288D01*
X177248444Y-84018414D01*
X177344951Y-84207820D01*
X177469890Y-84379786D01*
X177620213Y-84530109D01*
X177792179Y-84655048D01*
X177792181Y-84655049D01*
X177792184Y-84655051D01*
X177981588Y-84751557D01*
X178183757Y-84817246D01*
X178393713Y-84850500D01*
X178393714Y-84850500D01*
X178606286Y-84850500D01*
X178606287Y-84850500D01*
X178816243Y-84817246D01*
X179018412Y-84751557D01*
X179207816Y-84655051D01*
X179229789Y-84639086D01*
X179379786Y-84530109D01*
X179379788Y-84530106D01*
X179379792Y-84530104D01*
X179530104Y-84379792D01*
X179530106Y-84379788D01*
X179530109Y-84379786D01*
X179653902Y-84209397D01*
X179655051Y-84207816D01*
X179659514Y-84199054D01*
X179707488Y-84148259D01*
X179775308Y-84131463D01*
X179841444Y-84153999D01*
X179880486Y-84199056D01*
X179884951Y-84207820D01*
X180009890Y-84379786D01*
X180160213Y-84530109D01*
X180332179Y-84655048D01*
X180332181Y-84655049D01*
X180332184Y-84655051D01*
X180521588Y-84751557D01*
X180723757Y-84817246D01*
X180933713Y-84850500D01*
X180933714Y-84850500D01*
X181146286Y-84850500D01*
X181146287Y-84850500D01*
X181356243Y-84817246D01*
X181558412Y-84751557D01*
X181747816Y-84655051D01*
X181769789Y-84639086D01*
X181919786Y-84530109D01*
X181919788Y-84530106D01*
X181919792Y-84530104D01*
X182070104Y-84379792D01*
X182070106Y-84379788D01*
X182070109Y-84379786D01*
X182193902Y-84209397D01*
X182195051Y-84207816D01*
X182291557Y-84018412D01*
X182357246Y-83816243D01*
X182390500Y-83606287D01*
X182390500Y-83393713D01*
X182357246Y-83183757D01*
X182291557Y-82981588D01*
X182195051Y-82792184D01*
X182195049Y-82792181D01*
X182195048Y-82792179D01*
X182070109Y-82620213D01*
X181919786Y-82469890D01*
X181747820Y-82344951D01*
X181747115Y-82344591D01*
X181739054Y-82340485D01*
X181688259Y-82292512D01*
X181671463Y-82224692D01*
X181693999Y-82158556D01*
X181739054Y-82119515D01*
X181747816Y-82115051D01*
X181769789Y-82099086D01*
X181919786Y-81990109D01*
X181919788Y-81990106D01*
X181919792Y-81990104D01*
X182070104Y-81839792D01*
X182070106Y-81839788D01*
X182070109Y-81839786D01*
X182195048Y-81667820D01*
X182195047Y-81667820D01*
X182195051Y-81667816D01*
X182291557Y-81478412D01*
X182357246Y-81276243D01*
X182390500Y-81066287D01*
X182390500Y-80853713D01*
X182357246Y-80643757D01*
X182291557Y-80441588D01*
X182195051Y-80252184D01*
X182195049Y-80252181D01*
X182195048Y-80252179D01*
X182070109Y-80080213D01*
X181919786Y-79929890D01*
X181747817Y-79804949D01*
X181738504Y-79800204D01*
X181687707Y-79752230D01*
X181670912Y-79684409D01*
X181693449Y-79618274D01*
X181738507Y-79579232D01*
X181747555Y-79574622D01*
X181801716Y-79535270D01*
X181801717Y-79535270D01*
X181169408Y-78902962D01*
X181232993Y-78885925D01*
X181347007Y-78820099D01*
X181440099Y-78727007D01*
X181505925Y-78612993D01*
X181522962Y-78549408D01*
X182155270Y-79181717D01*
X182155270Y-79181716D01*
X182194622Y-79127554D01*
X182291095Y-78938217D01*
X182356757Y-78736130D01*
X182356757Y-78736127D01*
X182390000Y-78526246D01*
X182390000Y-78313753D01*
X182356757Y-78103872D01*
X182356757Y-78103869D01*
X182291095Y-77901782D01*
X182194624Y-77712449D01*
X182155270Y-77658282D01*
X182155269Y-77658282D01*
X181522962Y-78290590D01*
X181505925Y-78227007D01*
X181440099Y-78112993D01*
X181347007Y-78019901D01*
X181232993Y-77954075D01*
X181169409Y-77937037D01*
X181801716Y-77304728D01*
X181747550Y-77265375D01*
X181558217Y-77168904D01*
X181356129Y-77103242D01*
X181146246Y-77070000D01*
X180933754Y-77070000D01*
X180723872Y-77103242D01*
X180723869Y-77103242D01*
X180521782Y-77168904D01*
X180332439Y-77265380D01*
X180278282Y-77304727D01*
X180278282Y-77304728D01*
X180910591Y-77937037D01*
X180847007Y-77954075D01*
X180732993Y-78019901D01*
X180639901Y-78112993D01*
X180574075Y-78227007D01*
X180557037Y-78290590D01*
X179886818Y-77620371D01*
X179853333Y-77559048D01*
X179853330Y-77559035D01*
X179850499Y-77546014D01*
X179850499Y-77522128D01*
X179844091Y-77462517D01*
X179815926Y-77387002D01*
X179793798Y-77327673D01*
X179793793Y-77327664D01*
X179707547Y-77212455D01*
X179707544Y-77212452D01*
X179592335Y-77126206D01*
X179592328Y-77126202D01*
X179457482Y-77075908D01*
X179457483Y-77075908D01*
X179397883Y-77069501D01*
X179397881Y-77069500D01*
X179397873Y-77069500D01*
X179397864Y-77069500D01*
X177602129Y-77069500D01*
X177602123Y-77069501D01*
X177542516Y-77075908D01*
X177407671Y-77126202D01*
X177407664Y-77126206D01*
X177292455Y-77212452D01*
X177292452Y-77212455D01*
X177206206Y-77327664D01*
X177206202Y-77327671D01*
X177155908Y-77462517D01*
X177149501Y-77522116D01*
X177149500Y-77522135D01*
X158277785Y-77522135D01*
X158282051Y-77511835D01*
X158320500Y-77318541D01*
X158320500Y-76321459D01*
X158320500Y-76321456D01*
X158282052Y-76128170D01*
X158282051Y-76128169D01*
X158282051Y-76128165D01*
X158270723Y-76100816D01*
X158206635Y-75946092D01*
X158206628Y-75946079D01*
X158097139Y-75782218D01*
X158097136Y-75782214D01*
X158027103Y-75712181D01*
X157993618Y-75650858D01*
X157998602Y-75581166D01*
X158040474Y-75525233D01*
X158105938Y-75500816D01*
X158114784Y-75500500D01*
X179934108Y-75500500D01*
X179997294Y-75500500D01*
X180002702Y-75500617D01*
X180386773Y-75517386D01*
X180397505Y-75518326D01*
X180775963Y-75568150D01*
X180786601Y-75570025D01*
X181159279Y-75652647D01*
X181169720Y-75655445D01*
X181533765Y-75770227D01*
X181543911Y-75773920D01*
X181896578Y-75920000D01*
X181906369Y-75924566D01*
X181947721Y-75946092D01*
X182244942Y-76100816D01*
X182254310Y-76106224D01*
X182576244Y-76311318D01*
X182585105Y-76317523D01*
X182887930Y-76549889D01*
X182896217Y-76556843D01*
X183177635Y-76814715D01*
X183185284Y-76822364D01*
X183443156Y-77103782D01*
X183450110Y-77112069D01*
X183682476Y-77414894D01*
X183688681Y-77423755D01*
X183893775Y-77745689D01*
X183899183Y-77755057D01*
X184075430Y-78093623D01*
X184080002Y-78103427D01*
X184226075Y-78456078D01*
X184229775Y-78466244D01*
X184344553Y-78830276D01*
X184347353Y-78840724D01*
X184429972Y-79213390D01*
X184431850Y-79224044D01*
X184481671Y-79602472D01*
X184482613Y-79613247D01*
X184483223Y-79627208D01*
X184499382Y-79997297D01*
X184499500Y-80002706D01*
X184499500Y-144997293D01*
X184499382Y-145002702D01*
X184482614Y-145386751D01*
X184481671Y-145397527D01*
X184431850Y-145775955D01*
X184429972Y-145786609D01*
X184347353Y-146159275D01*
X184344553Y-146169723D01*
X184229775Y-146533755D01*
X184226075Y-146543921D01*
X184080002Y-146896572D01*
X184075430Y-146906376D01*
X183899183Y-147244942D01*
X183893775Y-147254310D01*
X183688681Y-147576244D01*
X183682476Y-147585105D01*
X183450110Y-147887930D01*
X183443156Y-147896217D01*
X183185284Y-148177635D01*
X183177635Y-148185284D01*
X182896217Y-148443156D01*
X182887930Y-148450110D01*
X182585105Y-148682476D01*
X182576244Y-148688681D01*
X182254310Y-148893775D01*
X182244942Y-148899183D01*
X181906376Y-149075430D01*
X181896572Y-149080002D01*
X181543921Y-149226075D01*
X181533755Y-149229775D01*
X181169723Y-149344553D01*
X181159275Y-149347353D01*
X180786609Y-149429972D01*
X180775955Y-149431850D01*
X180397527Y-149481671D01*
X180386751Y-149482614D01*
X180002703Y-149499382D01*
X179997294Y-149499500D01*
X105002706Y-149499500D01*
X104997297Y-149499382D01*
X104613248Y-149482614D01*
X104602474Y-149481671D01*
X104540007Y-149473447D01*
X104224044Y-149431850D01*
X104213390Y-149429972D01*
X103840724Y-149347353D01*
X103830276Y-149344553D01*
X103466244Y-149229775D01*
X103456078Y-149226075D01*
X103103427Y-149080002D01*
X103093623Y-149075430D01*
X102755057Y-148899183D01*
X102745689Y-148893775D01*
X102423755Y-148688681D01*
X102414894Y-148682476D01*
X102112069Y-148450110D01*
X102103782Y-148443156D01*
X101822364Y-148185284D01*
X101814715Y-148177635D01*
X101556843Y-147896217D01*
X101549889Y-147887930D01*
X101317523Y-147585105D01*
X101311318Y-147576244D01*
X101106224Y-147254310D01*
X101100816Y-147244942D01*
X100924569Y-146906376D01*
X100919997Y-146896572D01*
X100785072Y-146570834D01*
X100773920Y-146543911D01*
X100770224Y-146533755D01*
X100768084Y-146526969D01*
X100655445Y-146169720D01*
X100652646Y-146159275D01*
X100632407Y-146067982D01*
X100570025Y-145786601D01*
X100568149Y-145775955D01*
X100554793Y-145674503D01*
X100518326Y-145397505D01*
X100517386Y-145386773D01*
X100500618Y-145002702D01*
X100500500Y-144997293D01*
X100500500Y-144429572D01*
X102275400Y-144429572D01*
X102275400Y-144691827D01*
X102302023Y-144894039D01*
X102309630Y-144951816D01*
X102322541Y-145000000D01*
X102377502Y-145205118D01*
X102377505Y-145205128D01*
X102477853Y-145447390D01*
X102477858Y-145447400D01*
X102608975Y-145674503D01*
X102768618Y-145882551D01*
X102768626Y-145882560D01*
X102954040Y-146067974D01*
X102954048Y-146067981D01*
X103162096Y-146227624D01*
X103389199Y-146358741D01*
X103389209Y-146358746D01*
X103631471Y-146459094D01*
X103631481Y-146459098D01*
X103884784Y-146526970D01*
X104144780Y-146561200D01*
X104144787Y-146561200D01*
X104407013Y-146561200D01*
X104407020Y-146561200D01*
X104667016Y-146526970D01*
X104920319Y-146459098D01*
X105162597Y-146358743D01*
X105389703Y-146227624D01*
X105597751Y-146067982D01*
X105597755Y-146067977D01*
X105597760Y-146067974D01*
X105783174Y-145882560D01*
X105783177Y-145882555D01*
X105783182Y-145882551D01*
X105942824Y-145674503D01*
X106073943Y-145447397D01*
X106174298Y-145205119D01*
X106242170Y-144951816D01*
X106276400Y-144691820D01*
X106276400Y-144429580D01*
X106276399Y-144429572D01*
X177273980Y-144429572D01*
X177273980Y-144691827D01*
X177300603Y-144894039D01*
X177308210Y-144951816D01*
X177321121Y-145000000D01*
X177376082Y-145205118D01*
X177376085Y-145205128D01*
X177476433Y-145447390D01*
X177476438Y-145447400D01*
X177607555Y-145674503D01*
X177767198Y-145882551D01*
X177767206Y-145882560D01*
X177952620Y-146067974D01*
X177952628Y-146067981D01*
X178160676Y-146227624D01*
X178387779Y-146358741D01*
X178387789Y-146358746D01*
X178630051Y-146459094D01*
X178630061Y-146459098D01*
X178883364Y-146526970D01*
X179143360Y-146561200D01*
X179143367Y-146561200D01*
X179405593Y-146561200D01*
X179405600Y-146561200D01*
X179665596Y-146526970D01*
X179918899Y-146459098D01*
X180161177Y-146358743D01*
X180388283Y-146227624D01*
X180596331Y-146067982D01*
X180596335Y-146067977D01*
X180596340Y-146067974D01*
X180781754Y-145882560D01*
X180781757Y-145882555D01*
X180781762Y-145882551D01*
X180941404Y-145674503D01*
X181072523Y-145447397D01*
X181172878Y-145205119D01*
X181240750Y-144951816D01*
X181274980Y-144691820D01*
X181274980Y-144429580D01*
X181240750Y-144169584D01*
X181172878Y-143916281D01*
X181172874Y-143916271D01*
X181072526Y-143674009D01*
X181072521Y-143673999D01*
X180941404Y-143446896D01*
X180781761Y-143238848D01*
X180781754Y-143238840D01*
X180596340Y-143053426D01*
X180596331Y-143053418D01*
X180388283Y-142893775D01*
X180161180Y-142762658D01*
X180161170Y-142762653D01*
X179918908Y-142662305D01*
X179918901Y-142662303D01*
X179918899Y-142662302D01*
X179665596Y-142594430D01*
X179607819Y-142586823D01*
X179405607Y-142560200D01*
X179405600Y-142560200D01*
X179143360Y-142560200D01*
X179143352Y-142560200D01*
X178912252Y-142590626D01*
X178883364Y-142594430D01*
X178630061Y-142662302D01*
X178630051Y-142662305D01*
X178387789Y-142762653D01*
X178387779Y-142762658D01*
X178160676Y-142893775D01*
X177952628Y-143053418D01*
X177767198Y-143238848D01*
X177607555Y-143446896D01*
X177476438Y-143673999D01*
X177476433Y-143674009D01*
X177376085Y-143916271D01*
X177376082Y-143916281D01*
X177308210Y-144169585D01*
X177273980Y-144429572D01*
X106276399Y-144429572D01*
X106242170Y-144169584D01*
X106174298Y-143916281D01*
X106174294Y-143916271D01*
X106073946Y-143674009D01*
X106073941Y-143673999D01*
X105942824Y-143446896D01*
X105783181Y-143238848D01*
X105783174Y-143238840D01*
X105597760Y-143053426D01*
X105597751Y-143053418D01*
X105389703Y-142893775D01*
X105162600Y-142762658D01*
X105162590Y-142762653D01*
X104920328Y-142662305D01*
X104920321Y-142662303D01*
X104920319Y-142662302D01*
X104667016Y-142594430D01*
X104609239Y-142586823D01*
X104407027Y-142560200D01*
X104407020Y-142560200D01*
X104144780Y-142560200D01*
X104144772Y-142560200D01*
X103913672Y-142590626D01*
X103884784Y-142594430D01*
X103631481Y-142662302D01*
X103631471Y-142662305D01*
X103389209Y-142762653D01*
X103389199Y-142762658D01*
X103162096Y-142893775D01*
X102954048Y-143053418D01*
X102768618Y-143238848D01*
X102608975Y-143446896D01*
X102477858Y-143673999D01*
X102477853Y-143674009D01*
X102377505Y-143916271D01*
X102377502Y-143916281D01*
X102309630Y-144169585D01*
X102275400Y-144429572D01*
X100500500Y-144429572D01*
X100500500Y-113428872D01*
X102275400Y-113428872D01*
X102275400Y-113691127D01*
X102302023Y-113893339D01*
X102309630Y-113951116D01*
X102354644Y-114119111D01*
X102377502Y-114204418D01*
X102377505Y-114204428D01*
X102477853Y-114446690D01*
X102477858Y-114446700D01*
X102608975Y-114673803D01*
X102768618Y-114881851D01*
X102768626Y-114881860D01*
X102954040Y-115067274D01*
X102954048Y-115067281D01*
X103162096Y-115226924D01*
X103389199Y-115358041D01*
X103389209Y-115358046D01*
X103631471Y-115458394D01*
X103631481Y-115458398D01*
X103884784Y-115526270D01*
X104144780Y-115560500D01*
X104144787Y-115560500D01*
X104407013Y-115560500D01*
X104407020Y-115560500D01*
X104667016Y-115526270D01*
X104920319Y-115458398D01*
X105097240Y-115385114D01*
X105162590Y-115358046D01*
X105162591Y-115358045D01*
X105162597Y-115358043D01*
X105389703Y-115226924D01*
X105597751Y-115067282D01*
X105597755Y-115067277D01*
X105597760Y-115067274D01*
X105783174Y-114881860D01*
X105783177Y-114881855D01*
X105783182Y-114881851D01*
X105942824Y-114673803D01*
X106073943Y-114446697D01*
X106174298Y-114204419D01*
X106242170Y-113951116D01*
X106276400Y-113691120D01*
X106276400Y-113428880D01*
X106242170Y-113168884D01*
X106174298Y-112915581D01*
X106139697Y-112832047D01*
X106073946Y-112673309D01*
X106073941Y-112673299D01*
X105942824Y-112446196D01*
X105818590Y-112284293D01*
X105790709Y-112247958D01*
X105783182Y-112238149D01*
X105783181Y-112238148D01*
X105783174Y-112238140D01*
X105757169Y-112212135D01*
X108374500Y-112212135D01*
X108374500Y-114907870D01*
X108374501Y-114907876D01*
X108380908Y-114967483D01*
X108431202Y-115102328D01*
X108431206Y-115102335D01*
X108517452Y-115217544D01*
X108517455Y-115217547D01*
X108632664Y-115303793D01*
X108632671Y-115303797D01*
X108767517Y-115354091D01*
X108767516Y-115354091D01*
X108774444Y-115354835D01*
X108827127Y-115360500D01*
X110722872Y-115360499D01*
X110782483Y-115354091D01*
X110917331Y-115303796D01*
X111032546Y-115217546D01*
X111118796Y-115102331D01*
X111148793Y-115021903D01*
X111190663Y-114965970D01*
X111256127Y-114941552D01*
X111324400Y-114956403D01*
X111352656Y-114977555D01*
X111402958Y-115027857D01*
X111581239Y-115157386D01*
X111777589Y-115257432D01*
X111987163Y-115325526D01*
X112064999Y-115337854D01*
X112065000Y-115337854D01*
X112065000Y-114108482D01*
X112083409Y-114119111D01*
X112236009Y-114160000D01*
X112393991Y-114160000D01*
X112546591Y-114119111D01*
X112565000Y-114108482D01*
X112565000Y-115337854D01*
X112642834Y-115325526D01*
X112642837Y-115325526D01*
X112852410Y-115257432D01*
X113048760Y-115157386D01*
X113227041Y-115027857D01*
X113382857Y-114872041D01*
X113382862Y-114872035D01*
X113484372Y-114732319D01*
X113539702Y-114689653D01*
X113609315Y-114683674D01*
X113671110Y-114716279D01*
X113685008Y-114732319D01*
X113786752Y-114872358D01*
X113786756Y-114872363D01*
X113942636Y-115028243D01*
X113942641Y-115028247D01*
X113996369Y-115067282D01*
X114120978Y-115157815D01*
X114249375Y-115223237D01*
X114317393Y-115257895D01*
X114317396Y-115257896D01*
X114422221Y-115291955D01*
X114527049Y-115326015D01*
X114744778Y-115360500D01*
X114744779Y-115360500D01*
X114965221Y-115360500D01*
X114965222Y-115360500D01*
X115182951Y-115326015D01*
X115392606Y-115257895D01*
X115589022Y-115157815D01*
X115767365Y-115028242D01*
X115923242Y-114872365D01*
X115933804Y-114857826D01*
X116024682Y-114732745D01*
X116080011Y-114690079D01*
X116149625Y-114684100D01*
X116211420Y-114716705D01*
X116225318Y-114732745D01*
X116326752Y-114872358D01*
X116326756Y-114872363D01*
X116482636Y-115028243D01*
X116482641Y-115028247D01*
X116536369Y-115067282D01*
X116660978Y-115157815D01*
X116789375Y-115223237D01*
X116857393Y-115257895D01*
X116857396Y-115257896D01*
X116962221Y-115291955D01*
X117067049Y-115326015D01*
X117284778Y-115360500D01*
X117284779Y-115360500D01*
X117505221Y-115360500D01*
X117505222Y-115360500D01*
X117722951Y-115326015D01*
X117932606Y-115257895D01*
X118129022Y-115157815D01*
X118307365Y-115028242D01*
X118463242Y-114872365D01*
X118473804Y-114857826D01*
X118564682Y-114732745D01*
X118620011Y-114690079D01*
X118689625Y-114684100D01*
X118751420Y-114716705D01*
X118765318Y-114732745D01*
X118866752Y-114872358D01*
X118866756Y-114872363D01*
X119022636Y-115028243D01*
X119022641Y-115028247D01*
X119076369Y-115067282D01*
X119200978Y-115157815D01*
X119329375Y-115223237D01*
X119397393Y-115257895D01*
X119397396Y-115257896D01*
X119502221Y-115291955D01*
X119607049Y-115326015D01*
X119824778Y-115360500D01*
X119824779Y-115360500D01*
X120045221Y-115360500D01*
X120045222Y-115360500D01*
X120262951Y-115326015D01*
X120472606Y-115257895D01*
X120669022Y-115157815D01*
X120847365Y-115028242D01*
X121003242Y-114872365D01*
X121013804Y-114857826D01*
X121104682Y-114732745D01*
X121160011Y-114690079D01*
X121229625Y-114684100D01*
X121291420Y-114716705D01*
X121305318Y-114732745D01*
X121406752Y-114872358D01*
X121406756Y-114872363D01*
X121562636Y-115028243D01*
X121562641Y-115028247D01*
X121616369Y-115067282D01*
X121740978Y-115157815D01*
X121869375Y-115223237D01*
X121937393Y-115257895D01*
X121937396Y-115257896D01*
X122042221Y-115291955D01*
X122147049Y-115326015D01*
X122364778Y-115360500D01*
X122364779Y-115360500D01*
X122585221Y-115360500D01*
X122585222Y-115360500D01*
X122802951Y-115326015D01*
X123012606Y-115257895D01*
X123209022Y-115157815D01*
X123387365Y-115028242D01*
X123543242Y-114872365D01*
X123553804Y-114857826D01*
X123644682Y-114732745D01*
X123700011Y-114690079D01*
X123769625Y-114684100D01*
X123831420Y-114716705D01*
X123845318Y-114732745D01*
X123946752Y-114872358D01*
X123946756Y-114872363D01*
X124102636Y-115028243D01*
X124102641Y-115028247D01*
X124156369Y-115067282D01*
X124280978Y-115157815D01*
X124409375Y-115223237D01*
X124477393Y-115257895D01*
X124477396Y-115257896D01*
X124582221Y-115291955D01*
X124687049Y-115326015D01*
X124904778Y-115360500D01*
X124904779Y-115360500D01*
X125125221Y-115360500D01*
X125125222Y-115360500D01*
X125342951Y-115326015D01*
X125552606Y-115257895D01*
X125749022Y-115157815D01*
X125927365Y-115028242D01*
X126083242Y-114872365D01*
X126093804Y-114857826D01*
X126184682Y-114732745D01*
X126240011Y-114690079D01*
X126309625Y-114684100D01*
X126371420Y-114716705D01*
X126385318Y-114732745D01*
X126486752Y-114872358D01*
X126486756Y-114872363D01*
X126642636Y-115028243D01*
X126642641Y-115028247D01*
X126696369Y-115067282D01*
X126820978Y-115157815D01*
X126949375Y-115223237D01*
X127017393Y-115257895D01*
X127017396Y-115257896D01*
X127122221Y-115291955D01*
X127227049Y-115326015D01*
X127444778Y-115360500D01*
X127444779Y-115360500D01*
X127665221Y-115360500D01*
X127665222Y-115360500D01*
X127882951Y-115326015D01*
X128092606Y-115257895D01*
X128289022Y-115157815D01*
X128467365Y-115028242D01*
X128623242Y-114872365D01*
X128633804Y-114857826D01*
X128724682Y-114732745D01*
X128780011Y-114690079D01*
X128849625Y-114684100D01*
X128911420Y-114716705D01*
X128925318Y-114732745D01*
X129026752Y-114872358D01*
X129026756Y-114872363D01*
X129182636Y-115028243D01*
X129182641Y-115028247D01*
X129236369Y-115067282D01*
X129360978Y-115157815D01*
X129489375Y-115223237D01*
X129557393Y-115257895D01*
X129557396Y-115257896D01*
X129662221Y-115291955D01*
X129767049Y-115326015D01*
X129984778Y-115360500D01*
X129984779Y-115360500D01*
X130205221Y-115360500D01*
X130205222Y-115360500D01*
X130422951Y-115326015D01*
X130632606Y-115257895D01*
X130829022Y-115157815D01*
X131007365Y-115028242D01*
X131163242Y-114872365D01*
X131173804Y-114857826D01*
X131264682Y-114732745D01*
X131320011Y-114690079D01*
X131389625Y-114684100D01*
X131451420Y-114716705D01*
X131465318Y-114732745D01*
X131566752Y-114872358D01*
X131566756Y-114872363D01*
X131722636Y-115028243D01*
X131722641Y-115028247D01*
X131776369Y-115067282D01*
X131900978Y-115157815D01*
X132029375Y-115223237D01*
X132097393Y-115257895D01*
X132097396Y-115257896D01*
X132202221Y-115291955D01*
X132307049Y-115326015D01*
X132524778Y-115360500D01*
X132524779Y-115360500D01*
X132745221Y-115360500D01*
X132745222Y-115360500D01*
X132962951Y-115326015D01*
X133172606Y-115257895D01*
X133369022Y-115157815D01*
X133547365Y-115028242D01*
X133703242Y-114872365D01*
X133713804Y-114857826D01*
X133804682Y-114732745D01*
X133860011Y-114690079D01*
X133929625Y-114684100D01*
X133991420Y-114716705D01*
X134005318Y-114732745D01*
X134106752Y-114872358D01*
X134106756Y-114872363D01*
X134262636Y-115028243D01*
X134262641Y-115028247D01*
X134316369Y-115067282D01*
X134440978Y-115157815D01*
X134569375Y-115223237D01*
X134637393Y-115257895D01*
X134637396Y-115257896D01*
X134742221Y-115291955D01*
X134847049Y-115326015D01*
X135064778Y-115360500D01*
X135064779Y-115360500D01*
X135285221Y-115360500D01*
X135285222Y-115360500D01*
X135502951Y-115326015D01*
X135712606Y-115257895D01*
X135909022Y-115157815D01*
X136087365Y-115028242D01*
X136243242Y-114872365D01*
X136253804Y-114857826D01*
X136344682Y-114732745D01*
X136400011Y-114690079D01*
X136469625Y-114684100D01*
X136531420Y-114716705D01*
X136545318Y-114732745D01*
X136646752Y-114872358D01*
X136646756Y-114872363D01*
X136802636Y-115028243D01*
X136802641Y-115028247D01*
X136856369Y-115067282D01*
X136980978Y-115157815D01*
X137109375Y-115223237D01*
X137177393Y-115257895D01*
X137177396Y-115257896D01*
X137282221Y-115291955D01*
X137387049Y-115326015D01*
X137604778Y-115360500D01*
X137604779Y-115360500D01*
X137825221Y-115360500D01*
X137825222Y-115360500D01*
X138042951Y-115326015D01*
X138252606Y-115257895D01*
X138449022Y-115157815D01*
X138627365Y-115028242D01*
X138783242Y-114872365D01*
X138793804Y-114857826D01*
X138884682Y-114732745D01*
X138940011Y-114690079D01*
X139009625Y-114684100D01*
X139071420Y-114716705D01*
X139085318Y-114732745D01*
X139186752Y-114872358D01*
X139186756Y-114872363D01*
X139342636Y-115028243D01*
X139342641Y-115028247D01*
X139396369Y-115067282D01*
X139520978Y-115157815D01*
X139649375Y-115223237D01*
X139717393Y-115257895D01*
X139717396Y-115257896D01*
X139822221Y-115291955D01*
X139927049Y-115326015D01*
X140144778Y-115360500D01*
X140144779Y-115360500D01*
X140365221Y-115360500D01*
X140365222Y-115360500D01*
X140582951Y-115326015D01*
X140792606Y-115257895D01*
X140989022Y-115157815D01*
X141167365Y-115028242D01*
X141323242Y-114872365D01*
X141333804Y-114857826D01*
X141424682Y-114732745D01*
X141480011Y-114690079D01*
X141549625Y-114684100D01*
X141611420Y-114716705D01*
X141625318Y-114732745D01*
X141726752Y-114872358D01*
X141726756Y-114872363D01*
X141882636Y-115028243D01*
X141882641Y-115028247D01*
X141936369Y-115067282D01*
X142060978Y-115157815D01*
X142189375Y-115223237D01*
X142257393Y-115257895D01*
X142257396Y-115257896D01*
X142362221Y-115291955D01*
X142467049Y-115326015D01*
X142684778Y-115360500D01*
X142684779Y-115360500D01*
X142905221Y-115360500D01*
X142905222Y-115360500D01*
X143122951Y-115326015D01*
X143332606Y-115257895D01*
X143529022Y-115157815D01*
X143707365Y-115028242D01*
X143863242Y-114872365D01*
X143873804Y-114857826D01*
X143964682Y-114732745D01*
X144020011Y-114690079D01*
X144089625Y-114684100D01*
X144151420Y-114716705D01*
X144165318Y-114732745D01*
X144266752Y-114872358D01*
X144266756Y-114872363D01*
X144422636Y-115028243D01*
X144422641Y-115028247D01*
X144476369Y-115067282D01*
X144600978Y-115157815D01*
X144729375Y-115223237D01*
X144797393Y-115257895D01*
X144797396Y-115257896D01*
X144902221Y-115291955D01*
X145007049Y-115326015D01*
X145224778Y-115360500D01*
X145224779Y-115360500D01*
X145445221Y-115360500D01*
X145445222Y-115360500D01*
X145662951Y-115326015D01*
X145872606Y-115257895D01*
X146069022Y-115157815D01*
X146247365Y-115028242D01*
X146403242Y-114872365D01*
X146413804Y-114857826D01*
X146504682Y-114732745D01*
X146560011Y-114690079D01*
X146629625Y-114684100D01*
X146691420Y-114716705D01*
X146705318Y-114732745D01*
X146806752Y-114872358D01*
X146806756Y-114872363D01*
X146962636Y-115028243D01*
X146962641Y-115028247D01*
X147016369Y-115067282D01*
X147140978Y-115157815D01*
X147269375Y-115223237D01*
X147337393Y-115257895D01*
X147337396Y-115257896D01*
X147442221Y-115291955D01*
X147547049Y-115326015D01*
X147764778Y-115360500D01*
X147764779Y-115360500D01*
X147985221Y-115360500D01*
X147985222Y-115360500D01*
X148202951Y-115326015D01*
X148412606Y-115257895D01*
X148609022Y-115157815D01*
X148787365Y-115028242D01*
X148943242Y-114872365D01*
X149072815Y-114694022D01*
X149172895Y-114497606D01*
X149241015Y-114287951D01*
X149275500Y-114070222D01*
X149275500Y-113428872D01*
X177274500Y-113428872D01*
X177274500Y-113691127D01*
X177301123Y-113893339D01*
X177308730Y-113951116D01*
X177353744Y-114119111D01*
X177376602Y-114204418D01*
X177376605Y-114204428D01*
X177476953Y-114446690D01*
X177476958Y-114446700D01*
X177608075Y-114673803D01*
X177767718Y-114881851D01*
X177767726Y-114881860D01*
X177953140Y-115067274D01*
X177953148Y-115067281D01*
X178161196Y-115226924D01*
X178388299Y-115358041D01*
X178388309Y-115358046D01*
X178630571Y-115458394D01*
X178630581Y-115458398D01*
X178883884Y-115526270D01*
X179143880Y-115560500D01*
X179143887Y-115560500D01*
X179406113Y-115560500D01*
X179406120Y-115560500D01*
X179666116Y-115526270D01*
X179919419Y-115458398D01*
X180096340Y-115385114D01*
X180161690Y-115358046D01*
X180161691Y-115358045D01*
X180161697Y-115358043D01*
X180388803Y-115226924D01*
X180596851Y-115067282D01*
X180596855Y-115067277D01*
X180596860Y-115067274D01*
X180782274Y-114881860D01*
X180782277Y-114881855D01*
X180782282Y-114881851D01*
X180941924Y-114673803D01*
X181073043Y-114446697D01*
X181173398Y-114204419D01*
X181241270Y-113951116D01*
X181275500Y-113691120D01*
X181275500Y-113428880D01*
X181241270Y-113168884D01*
X181173398Y-112915581D01*
X181138797Y-112832047D01*
X181073046Y-112673309D01*
X181073041Y-112673299D01*
X180941924Y-112446196D01*
X180789809Y-112247958D01*
X180782282Y-112238149D01*
X180782281Y-112238148D01*
X180782274Y-112238140D01*
X180596860Y-112052726D01*
X180596851Y-112052718D01*
X180388803Y-111893075D01*
X180161700Y-111761958D01*
X180161690Y-111761953D01*
X179919428Y-111661605D01*
X179919421Y-111661603D01*
X179919419Y-111661602D01*
X179666116Y-111593730D01*
X179608339Y-111586123D01*
X179406127Y-111559500D01*
X179406120Y-111559500D01*
X179143880Y-111559500D01*
X179143872Y-111559500D01*
X178912772Y-111589926D01*
X178883884Y-111593730D01*
X178630581Y-111661602D01*
X178630571Y-111661605D01*
X178388309Y-111761953D01*
X178388299Y-111761958D01*
X178161196Y-111893075D01*
X177953148Y-112052718D01*
X177767718Y-112238148D01*
X177608075Y-112446196D01*
X177476958Y-112673299D01*
X177476953Y-112673309D01*
X177376605Y-112915571D01*
X177376602Y-112915581D01*
X177308730Y-113168885D01*
X177274500Y-113428872D01*
X149275500Y-113428872D01*
X149275500Y-113049778D01*
X149241015Y-112832049D01*
X149172895Y-112622394D01*
X149172895Y-112622393D01*
X149138237Y-112554375D01*
X149072815Y-112425978D01*
X149044681Y-112387254D01*
X148943247Y-112247641D01*
X148943243Y-112247636D01*
X148787363Y-112091756D01*
X148787358Y-112091752D01*
X148609025Y-111962187D01*
X148609024Y-111962186D01*
X148609022Y-111962185D01*
X148491791Y-111902452D01*
X148412606Y-111862104D01*
X148412603Y-111862103D01*
X148202952Y-111793985D01*
X148094086Y-111776742D01*
X147985222Y-111759500D01*
X147764778Y-111759500D01*
X147692201Y-111770995D01*
X147547047Y-111793985D01*
X147337396Y-111862103D01*
X147337393Y-111862104D01*
X147140974Y-111962187D01*
X146962641Y-112091752D01*
X146962636Y-112091756D01*
X146806756Y-112247636D01*
X146806752Y-112247641D01*
X146705318Y-112387254D01*
X146649988Y-112429920D01*
X146580375Y-112435899D01*
X146518580Y-112403293D01*
X146504682Y-112387254D01*
X146403247Y-112247641D01*
X146403243Y-112247636D01*
X146247363Y-112091756D01*
X146247358Y-112091752D01*
X146069025Y-111962187D01*
X146069024Y-111962186D01*
X146069022Y-111962185D01*
X145951791Y-111902452D01*
X145872606Y-111862104D01*
X145872603Y-111862103D01*
X145662952Y-111793985D01*
X145554086Y-111776742D01*
X145445222Y-111759500D01*
X145224778Y-111759500D01*
X145152201Y-111770995D01*
X145007047Y-111793985D01*
X144797396Y-111862103D01*
X144797393Y-111862104D01*
X144600974Y-111962187D01*
X144422641Y-112091752D01*
X144422636Y-112091756D01*
X144266756Y-112247636D01*
X144266752Y-112247641D01*
X144165318Y-112387254D01*
X144109988Y-112429920D01*
X144040375Y-112435899D01*
X143978580Y-112403293D01*
X143964682Y-112387254D01*
X143863247Y-112247641D01*
X143863243Y-112247636D01*
X143707363Y-112091756D01*
X143707358Y-112091752D01*
X143529025Y-111962187D01*
X143529024Y-111962186D01*
X143529022Y-111962185D01*
X143411791Y-111902452D01*
X143332606Y-111862104D01*
X143332603Y-111862103D01*
X143122952Y-111793985D01*
X143014086Y-111776742D01*
X142905222Y-111759500D01*
X142684778Y-111759500D01*
X142612201Y-111770995D01*
X142467047Y-111793985D01*
X142257396Y-111862103D01*
X142257393Y-111862104D01*
X142060974Y-111962187D01*
X141882641Y-112091752D01*
X141882636Y-112091756D01*
X141726756Y-112247636D01*
X141726752Y-112247641D01*
X141625318Y-112387254D01*
X141569988Y-112429920D01*
X141500375Y-112435899D01*
X141438580Y-112403293D01*
X141424682Y-112387254D01*
X141323247Y-112247641D01*
X141323243Y-112247636D01*
X141167363Y-112091756D01*
X141167358Y-112091752D01*
X140989025Y-111962187D01*
X140989024Y-111962186D01*
X140989022Y-111962185D01*
X140871791Y-111902452D01*
X140792606Y-111862104D01*
X140792603Y-111862103D01*
X140582952Y-111793985D01*
X140474086Y-111776742D01*
X140365222Y-111759500D01*
X140144778Y-111759500D01*
X140072201Y-111770995D01*
X139927047Y-111793985D01*
X139717396Y-111862103D01*
X139717393Y-111862104D01*
X139520974Y-111962187D01*
X139342641Y-112091752D01*
X139342636Y-112091756D01*
X139186756Y-112247636D01*
X139186752Y-112247641D01*
X139085318Y-112387254D01*
X139029988Y-112429920D01*
X138960375Y-112435899D01*
X138898580Y-112403293D01*
X138884682Y-112387254D01*
X138783247Y-112247641D01*
X138783243Y-112247636D01*
X138627363Y-112091756D01*
X138627358Y-112091752D01*
X138449025Y-111962187D01*
X138449024Y-111962186D01*
X138449022Y-111962185D01*
X138331791Y-111902452D01*
X138252606Y-111862104D01*
X138252603Y-111862103D01*
X138042952Y-111793985D01*
X137934086Y-111776742D01*
X137825222Y-111759500D01*
X137604778Y-111759500D01*
X137532201Y-111770995D01*
X137387047Y-111793985D01*
X137177396Y-111862103D01*
X137177393Y-111862104D01*
X136980974Y-111962187D01*
X136802641Y-112091752D01*
X136802636Y-112091756D01*
X136646756Y-112247636D01*
X136646752Y-112247641D01*
X136545318Y-112387254D01*
X136489988Y-112429920D01*
X136420375Y-112435899D01*
X136358580Y-112403293D01*
X136344682Y-112387254D01*
X136243247Y-112247641D01*
X136243243Y-112247636D01*
X136087363Y-112091756D01*
X136087358Y-112091752D01*
X135909025Y-111962187D01*
X135909024Y-111962186D01*
X135909022Y-111962185D01*
X135791791Y-111902452D01*
X135712606Y-111862104D01*
X135712603Y-111862103D01*
X135502952Y-111793985D01*
X135394086Y-111776742D01*
X135285222Y-111759500D01*
X135064778Y-111759500D01*
X134992201Y-111770995D01*
X134847047Y-111793985D01*
X134637396Y-111862103D01*
X134637393Y-111862104D01*
X134440974Y-111962187D01*
X134262641Y-112091752D01*
X134262636Y-112091756D01*
X134106756Y-112247636D01*
X134106752Y-112247641D01*
X134005318Y-112387254D01*
X133949988Y-112429920D01*
X133880375Y-112435899D01*
X133818580Y-112403293D01*
X133804682Y-112387254D01*
X133703247Y-112247641D01*
X133703243Y-112247636D01*
X133547363Y-112091756D01*
X133547358Y-112091752D01*
X133369025Y-111962187D01*
X133369024Y-111962186D01*
X133369022Y-111962185D01*
X133251791Y-111902452D01*
X133172606Y-111862104D01*
X133172603Y-111862103D01*
X132962952Y-111793985D01*
X132854086Y-111776742D01*
X132745222Y-111759500D01*
X132524778Y-111759500D01*
X132452201Y-111770995D01*
X132307047Y-111793985D01*
X132097396Y-111862103D01*
X132097393Y-111862104D01*
X131900974Y-111962187D01*
X131722641Y-112091752D01*
X131722636Y-112091756D01*
X131566756Y-112247636D01*
X131566752Y-112247641D01*
X131465318Y-112387254D01*
X131409988Y-112429920D01*
X131340375Y-112435899D01*
X131278580Y-112403293D01*
X131264682Y-112387254D01*
X131163247Y-112247641D01*
X131163243Y-112247636D01*
X131007363Y-112091756D01*
X131007358Y-112091752D01*
X130829025Y-111962187D01*
X130829024Y-111962186D01*
X130829022Y-111962185D01*
X130711791Y-111902452D01*
X130632606Y-111862104D01*
X130632603Y-111862103D01*
X130422952Y-111793985D01*
X130314086Y-111776742D01*
X130205222Y-111759500D01*
X129984778Y-111759500D01*
X129912201Y-111770995D01*
X129767047Y-111793985D01*
X129557396Y-111862103D01*
X129557393Y-111862104D01*
X129360974Y-111962187D01*
X129182641Y-112091752D01*
X129182636Y-112091756D01*
X129026756Y-112247636D01*
X129026752Y-112247641D01*
X128925318Y-112387254D01*
X128869988Y-112429920D01*
X128800375Y-112435899D01*
X128738580Y-112403293D01*
X128724682Y-112387254D01*
X128623247Y-112247641D01*
X128623243Y-112247636D01*
X128467363Y-112091756D01*
X128467358Y-112091752D01*
X128289025Y-111962187D01*
X128289024Y-111962186D01*
X128289022Y-111962185D01*
X128171791Y-111902452D01*
X128092606Y-111862104D01*
X128092603Y-111862103D01*
X127882952Y-111793985D01*
X127774086Y-111776742D01*
X127665222Y-111759500D01*
X127444778Y-111759500D01*
X127372201Y-111770995D01*
X127227047Y-111793985D01*
X127017396Y-111862103D01*
X127017393Y-111862104D01*
X126820974Y-111962187D01*
X126642641Y-112091752D01*
X126642636Y-112091756D01*
X126486756Y-112247636D01*
X126486752Y-112247641D01*
X126385318Y-112387254D01*
X126329988Y-112429920D01*
X126260375Y-112435899D01*
X126198580Y-112403293D01*
X126184682Y-112387254D01*
X126083247Y-112247641D01*
X126083243Y-112247636D01*
X125927363Y-112091756D01*
X125927358Y-112091752D01*
X125749025Y-111962187D01*
X125749024Y-111962186D01*
X125749022Y-111962185D01*
X125631791Y-111902452D01*
X125552606Y-111862104D01*
X125552603Y-111862103D01*
X125342952Y-111793985D01*
X125234086Y-111776742D01*
X125125222Y-111759500D01*
X124904778Y-111759500D01*
X124832201Y-111770995D01*
X124687047Y-111793985D01*
X124477396Y-111862103D01*
X124477393Y-111862104D01*
X124280974Y-111962187D01*
X124102641Y-112091752D01*
X124102636Y-112091756D01*
X123946756Y-112247636D01*
X123946752Y-112247641D01*
X123845318Y-112387254D01*
X123789988Y-112429920D01*
X123720375Y-112435899D01*
X123658580Y-112403293D01*
X123644682Y-112387254D01*
X123543247Y-112247641D01*
X123543243Y-112247636D01*
X123387363Y-112091756D01*
X123387358Y-112091752D01*
X123209025Y-111962187D01*
X123209024Y-111962186D01*
X123209022Y-111962185D01*
X123091791Y-111902452D01*
X123012606Y-111862104D01*
X123012603Y-111862103D01*
X122802952Y-111793985D01*
X122694086Y-111776742D01*
X122585222Y-111759500D01*
X122364778Y-111759500D01*
X122292201Y-111770995D01*
X122147047Y-111793985D01*
X121937396Y-111862103D01*
X121937393Y-111862104D01*
X121740974Y-111962187D01*
X121562641Y-112091752D01*
X121562636Y-112091756D01*
X121406756Y-112247636D01*
X121406752Y-112247641D01*
X121305318Y-112387254D01*
X121249988Y-112429920D01*
X121180375Y-112435899D01*
X121118580Y-112403293D01*
X121104682Y-112387254D01*
X121003247Y-112247641D01*
X121003243Y-112247636D01*
X120847363Y-112091756D01*
X120847358Y-112091752D01*
X120669025Y-111962187D01*
X120669024Y-111962186D01*
X120669022Y-111962185D01*
X120551791Y-111902452D01*
X120472606Y-111862104D01*
X120472603Y-111862103D01*
X120262952Y-111793985D01*
X120154086Y-111776742D01*
X120045222Y-111759500D01*
X119824778Y-111759500D01*
X119752201Y-111770995D01*
X119607047Y-111793985D01*
X119397396Y-111862103D01*
X119397393Y-111862104D01*
X119200974Y-111962187D01*
X119022641Y-112091752D01*
X119022636Y-112091756D01*
X118866756Y-112247636D01*
X118866752Y-112247641D01*
X118765318Y-112387254D01*
X118709988Y-112429920D01*
X118640375Y-112435899D01*
X118578580Y-112403293D01*
X118564682Y-112387254D01*
X118463247Y-112247641D01*
X118463243Y-112247636D01*
X118307363Y-112091756D01*
X118307358Y-112091752D01*
X118129025Y-111962187D01*
X118129024Y-111962186D01*
X118129022Y-111962185D01*
X118011791Y-111902452D01*
X117932606Y-111862104D01*
X117932603Y-111862103D01*
X117722952Y-111793985D01*
X117614086Y-111776742D01*
X117505222Y-111759500D01*
X117284778Y-111759500D01*
X117212201Y-111770995D01*
X117067047Y-111793985D01*
X116857396Y-111862103D01*
X116857393Y-111862104D01*
X116660974Y-111962187D01*
X116482641Y-112091752D01*
X116482636Y-112091756D01*
X116326756Y-112247636D01*
X116326752Y-112247641D01*
X116225318Y-112387254D01*
X116169988Y-112429920D01*
X116100375Y-112435899D01*
X116038580Y-112403293D01*
X116024682Y-112387254D01*
X115923247Y-112247641D01*
X115923243Y-112247636D01*
X115767363Y-112091756D01*
X115767358Y-112091752D01*
X115589025Y-111962187D01*
X115589024Y-111962186D01*
X115589022Y-111962185D01*
X115471791Y-111902452D01*
X115392606Y-111862104D01*
X115392603Y-111862103D01*
X115182952Y-111793985D01*
X115074086Y-111776742D01*
X114965222Y-111759500D01*
X114744778Y-111759500D01*
X114672201Y-111770995D01*
X114527047Y-111793985D01*
X114317396Y-111862103D01*
X114317393Y-111862104D01*
X114120974Y-111962187D01*
X113942641Y-112091752D01*
X113942636Y-112091756D01*
X113786756Y-112247636D01*
X113685008Y-112387681D01*
X113629678Y-112430346D01*
X113560065Y-112436325D01*
X113498270Y-112403719D01*
X113484372Y-112387680D01*
X113382862Y-112247964D01*
X113382857Y-112247958D01*
X113227041Y-112092142D01*
X113048760Y-111962613D01*
X112852410Y-111862567D01*
X112642836Y-111794473D01*
X112565000Y-111782144D01*
X112565000Y-113011517D01*
X112546591Y-113000889D01*
X112393991Y-112960000D01*
X112236009Y-112960000D01*
X112083409Y-113000889D01*
X112065000Y-113011517D01*
X112065000Y-111782144D01*
X111987164Y-111794473D01*
X111987161Y-111794473D01*
X111777589Y-111862567D01*
X111581239Y-111962613D01*
X111402958Y-112092142D01*
X111352655Y-112142445D01*
X111291332Y-112175929D01*
X111221640Y-112170944D01*
X111165707Y-112129073D01*
X111148793Y-112098095D01*
X111118798Y-112017673D01*
X111118793Y-112017664D01*
X111032547Y-111902455D01*
X111032544Y-111902452D01*
X110917335Y-111816206D01*
X110917328Y-111816202D01*
X110782482Y-111765908D01*
X110782483Y-111765908D01*
X110722883Y-111759501D01*
X110722881Y-111759500D01*
X110722873Y-111759500D01*
X110722864Y-111759500D01*
X108827129Y-111759500D01*
X108827123Y-111759501D01*
X108767516Y-111765908D01*
X108632671Y-111816202D01*
X108632664Y-111816206D01*
X108517455Y-111902452D01*
X108517452Y-111902455D01*
X108431206Y-112017664D01*
X108431202Y-112017671D01*
X108380908Y-112152517D01*
X108374501Y-112212116D01*
X108374500Y-112212135D01*
X105757169Y-112212135D01*
X105597760Y-112052726D01*
X105597751Y-112052718D01*
X105389703Y-111893075D01*
X105162600Y-111761958D01*
X105162590Y-111761953D01*
X104920328Y-111661605D01*
X104920321Y-111661603D01*
X104920319Y-111661602D01*
X104667016Y-111593730D01*
X104609239Y-111586123D01*
X104407027Y-111559500D01*
X104407020Y-111559500D01*
X104144780Y-111559500D01*
X104144772Y-111559500D01*
X103913672Y-111589926D01*
X103884784Y-111593730D01*
X103631481Y-111661602D01*
X103631471Y-111661605D01*
X103389209Y-111761953D01*
X103389199Y-111761958D01*
X103162096Y-111893075D01*
X102954048Y-112052718D01*
X102768618Y-112238148D01*
X102608975Y-112446196D01*
X102477858Y-112673299D01*
X102477853Y-112673309D01*
X102377505Y-112915571D01*
X102377502Y-112915581D01*
X102309630Y-113168885D01*
X102275400Y-113428872D01*
X100500500Y-113428872D01*
X100500500Y-106421153D01*
X124199500Y-106421153D01*
X124199500Y-106578846D01*
X124230261Y-106733489D01*
X124230264Y-106733501D01*
X124290602Y-106879172D01*
X124290609Y-106879185D01*
X124378210Y-107010288D01*
X124378213Y-107010292D01*
X124489707Y-107121786D01*
X124489711Y-107121789D01*
X124620814Y-107209390D01*
X124620827Y-107209397D01*
X124766498Y-107269735D01*
X124766503Y-107269737D01*
X124921153Y-107300499D01*
X124921156Y-107300500D01*
X124921158Y-107300500D01*
X125078844Y-107300500D01*
X125078845Y-107300499D01*
X125233497Y-107269737D01*
X125379179Y-107209394D01*
X125510289Y-107121789D01*
X125621789Y-107010289D01*
X125709394Y-106879179D01*
X125769737Y-106733497D01*
X125800500Y-106578842D01*
X125800500Y-106421158D01*
X125800500Y-106421155D01*
X125800499Y-106421153D01*
X125769738Y-106266510D01*
X125769737Y-106266503D01*
X125769735Y-106266498D01*
X125709397Y-106120827D01*
X125709390Y-106120814D01*
X125621789Y-105989711D01*
X125621786Y-105989707D01*
X125510292Y-105878213D01*
X125510288Y-105878210D01*
X125379185Y-105790609D01*
X125379172Y-105790602D01*
X125233501Y-105730264D01*
X125233489Y-105730261D01*
X125078845Y-105699500D01*
X125078842Y-105699500D01*
X124921158Y-105699500D01*
X124921155Y-105699500D01*
X124766510Y-105730261D01*
X124766498Y-105730264D01*
X124620827Y-105790602D01*
X124620814Y-105790609D01*
X124489711Y-105878210D01*
X124489707Y-105878213D01*
X124378213Y-105989707D01*
X124378210Y-105989711D01*
X124290609Y-106120814D01*
X124290602Y-106120827D01*
X124230264Y-106266498D01*
X124230261Y-106266510D01*
X124199500Y-106421153D01*
X100500500Y-106421153D01*
X100500500Y-100921153D01*
X126199500Y-100921153D01*
X126199500Y-101078846D01*
X126230261Y-101233489D01*
X126230264Y-101233501D01*
X126290602Y-101379172D01*
X126290609Y-101379185D01*
X126378210Y-101510288D01*
X126378213Y-101510292D01*
X126489707Y-101621786D01*
X126489711Y-101621789D01*
X126620814Y-101709390D01*
X126620827Y-101709397D01*
X126766498Y-101769735D01*
X126766503Y-101769737D01*
X126921153Y-101800499D01*
X126921156Y-101800500D01*
X126921158Y-101800500D01*
X127078844Y-101800500D01*
X127078845Y-101800499D01*
X127233497Y-101769737D01*
X127379179Y-101709394D01*
X127510289Y-101621789D01*
X127621789Y-101510289D01*
X127709394Y-101379179D01*
X127769737Y-101233497D01*
X127800500Y-101078842D01*
X127800500Y-100921158D01*
X127800500Y-100921155D01*
X127800499Y-100921153D01*
X127769737Y-100766503D01*
X127709402Y-100620840D01*
X127709397Y-100620827D01*
X127709390Y-100620814D01*
X127621789Y-100489711D01*
X127621786Y-100489707D01*
X127510292Y-100378213D01*
X127510288Y-100378210D01*
X127379185Y-100290609D01*
X127379172Y-100290602D01*
X127233501Y-100230264D01*
X127233489Y-100230261D01*
X127078845Y-100199500D01*
X127078842Y-100199500D01*
X126921158Y-100199500D01*
X126921155Y-100199500D01*
X126766510Y-100230261D01*
X126766498Y-100230264D01*
X126620827Y-100290602D01*
X126620814Y-100290609D01*
X126489711Y-100378210D01*
X126489707Y-100378213D01*
X126378213Y-100489707D01*
X126378210Y-100489711D01*
X126290609Y-100620814D01*
X126290602Y-100620827D01*
X126230264Y-100766498D01*
X126230261Y-100766510D01*
X126199500Y-100921153D01*
X100500500Y-100921153D01*
X100500500Y-99396861D01*
X141189500Y-99396861D01*
X141189500Y-99603139D01*
X141201889Y-99681359D01*
X141221769Y-99806877D01*
X141221769Y-99806880D01*
X141285510Y-100003054D01*
X141285512Y-100003057D01*
X141379160Y-100186852D01*
X141500407Y-100353733D01*
X141646267Y-100499593D01*
X141813148Y-100620840D01*
X141996943Y-100714488D01*
X141996945Y-100714489D01*
X142193120Y-100778230D01*
X142193121Y-100778230D01*
X142193124Y-100778231D01*
X142396861Y-100810500D01*
X142396862Y-100810500D01*
X142603138Y-100810500D01*
X142603139Y-100810500D01*
X142806876Y-100778231D01*
X142806879Y-100778230D01*
X142806880Y-100778230D01*
X143003054Y-100714489D01*
X143003054Y-100714488D01*
X143003057Y-100714488D01*
X143186852Y-100620840D01*
X143353733Y-100499593D01*
X143499593Y-100353733D01*
X143620840Y-100186852D01*
X143714488Y-100003057D01*
X143765123Y-99847219D01*
X143778230Y-99806880D01*
X143778230Y-99806879D01*
X143778231Y-99806876D01*
X143810500Y-99603139D01*
X143810500Y-99396861D01*
X143778231Y-99193124D01*
X143778230Y-99193120D01*
X143778230Y-99193119D01*
X143714489Y-98996945D01*
X143690096Y-98949071D01*
X143663895Y-98897648D01*
X146839500Y-98897648D01*
X146839500Y-99102351D01*
X146871522Y-99304534D01*
X146934781Y-99499223D01*
X146987729Y-99603138D01*
X147027585Y-99681359D01*
X147027715Y-99681613D01*
X147148028Y-99847213D01*
X147292786Y-99991971D01*
X147413226Y-100079474D01*
X147458390Y-100112287D01*
X147574607Y-100171503D01*
X147640776Y-100205218D01*
X147640778Y-100205218D01*
X147640781Y-100205220D01*
X147745137Y-100239127D01*
X147835465Y-100268477D01*
X147936557Y-100284488D01*
X148037648Y-100300500D01*
X148037649Y-100300500D01*
X148242351Y-100300500D01*
X148242352Y-100300500D01*
X148444534Y-100268477D01*
X148639219Y-100205220D01*
X148821610Y-100112287D01*
X148914590Y-100044732D01*
X148987213Y-99991971D01*
X148987215Y-99991968D01*
X148987219Y-99991966D01*
X149131966Y-99847219D01*
X149131968Y-99847215D01*
X149131971Y-99847213D01*
X149252284Y-99681614D01*
X149252286Y-99681611D01*
X149252287Y-99681610D01*
X149299516Y-99588917D01*
X149347489Y-99538123D01*
X149415310Y-99521328D01*
X149481445Y-99543865D01*
X149520483Y-99588917D01*
X149527730Y-99603139D01*
X149567715Y-99681614D01*
X149688028Y-99847213D01*
X149832786Y-99991971D01*
X149953226Y-100079474D01*
X149998390Y-100112287D01*
X150114607Y-100171503D01*
X150180776Y-100205218D01*
X150180778Y-100205218D01*
X150180781Y-100205220D01*
X150285137Y-100239127D01*
X150375465Y-100268477D01*
X150476557Y-100284488D01*
X150577648Y-100300500D01*
X150577649Y-100300500D01*
X150782351Y-100300500D01*
X150782352Y-100300500D01*
X150984534Y-100268477D01*
X151179219Y-100205220D01*
X151361610Y-100112287D01*
X151454590Y-100044732D01*
X151527213Y-99991971D01*
X151527215Y-99991968D01*
X151527219Y-99991966D01*
X151671966Y-99847219D01*
X151671968Y-99847215D01*
X151671971Y-99847213D01*
X151792284Y-99681614D01*
X151792286Y-99681611D01*
X151792287Y-99681610D01*
X151839516Y-99588917D01*
X151887489Y-99538123D01*
X151955310Y-99521328D01*
X152021445Y-99543865D01*
X152060483Y-99588917D01*
X152067730Y-99603139D01*
X152107715Y-99681614D01*
X152228028Y-99847213D01*
X152372786Y-99991971D01*
X152493226Y-100079474D01*
X152538390Y-100112287D01*
X152654607Y-100171503D01*
X152720776Y-100205218D01*
X152720778Y-100205218D01*
X152720781Y-100205220D01*
X152825137Y-100239127D01*
X152915465Y-100268477D01*
X153016557Y-100284488D01*
X153117648Y-100300500D01*
X153117649Y-100300500D01*
X153322351Y-100300500D01*
X153322352Y-100300500D01*
X153524534Y-100268477D01*
X153719219Y-100205220D01*
X153901610Y-100112287D01*
X153994590Y-100044732D01*
X154067213Y-99991971D01*
X154067215Y-99991968D01*
X154067219Y-99991966D01*
X154211966Y-99847219D01*
X154211968Y-99847215D01*
X154211971Y-99847213D01*
X154332284Y-99681614D01*
X154332286Y-99681611D01*
X154332287Y-99681610D01*
X154379516Y-99588917D01*
X154427489Y-99538123D01*
X154495310Y-99521328D01*
X154561445Y-99543865D01*
X154600483Y-99588917D01*
X154607730Y-99603139D01*
X154647715Y-99681614D01*
X154768028Y-99847213D01*
X154912786Y-99991971D01*
X155033226Y-100079474D01*
X155078390Y-100112287D01*
X155194607Y-100171503D01*
X155260776Y-100205218D01*
X155260778Y-100205218D01*
X155260781Y-100205220D01*
X155365137Y-100239127D01*
X155455465Y-100268477D01*
X155556557Y-100284488D01*
X155657648Y-100300500D01*
X155657649Y-100300500D01*
X155862351Y-100300500D01*
X155862352Y-100300500D01*
X156064534Y-100268477D01*
X156259219Y-100205220D01*
X156441610Y-100112287D01*
X156534590Y-100044732D01*
X156607213Y-99991971D01*
X156607215Y-99991968D01*
X156607219Y-99991966D01*
X156751966Y-99847219D01*
X156751968Y-99847215D01*
X156751971Y-99847213D01*
X156872284Y-99681614D01*
X156872286Y-99681611D01*
X156872287Y-99681610D01*
X156919516Y-99588917D01*
X156967489Y-99538123D01*
X157035310Y-99521328D01*
X157101445Y-99543865D01*
X157140483Y-99588917D01*
X157147730Y-99603139D01*
X157187715Y-99681614D01*
X157308028Y-99847213D01*
X157452786Y-99991971D01*
X157573226Y-100079474D01*
X157618390Y-100112287D01*
X157734607Y-100171503D01*
X157800776Y-100205218D01*
X157800778Y-100205218D01*
X157800781Y-100205220D01*
X157905137Y-100239127D01*
X157995465Y-100268477D01*
X158096557Y-100284488D01*
X158197648Y-100300500D01*
X158197649Y-100300500D01*
X158402351Y-100300500D01*
X158402352Y-100300500D01*
X158604534Y-100268477D01*
X158799219Y-100205220D01*
X158981610Y-100112287D01*
X159074590Y-100044732D01*
X159147213Y-99991971D01*
X159147215Y-99991968D01*
X159147219Y-99991966D01*
X159291966Y-99847219D01*
X159291968Y-99847215D01*
X159291971Y-99847213D01*
X159412284Y-99681614D01*
X159412286Y-99681611D01*
X159412287Y-99681610D01*
X159459516Y-99588917D01*
X159507489Y-99538123D01*
X159575310Y-99521328D01*
X159641445Y-99543865D01*
X159680483Y-99588917D01*
X159687730Y-99603139D01*
X159727715Y-99681614D01*
X159848028Y-99847213D01*
X159992786Y-99991971D01*
X160113226Y-100079474D01*
X160158390Y-100112287D01*
X160274607Y-100171503D01*
X160340776Y-100205218D01*
X160340778Y-100205218D01*
X160340781Y-100205220D01*
X160445137Y-100239127D01*
X160535465Y-100268477D01*
X160636557Y-100284488D01*
X160737648Y-100300500D01*
X160737649Y-100300500D01*
X160942351Y-100300500D01*
X160942352Y-100300500D01*
X161144534Y-100268477D01*
X161339219Y-100205220D01*
X161521610Y-100112287D01*
X161614590Y-100044732D01*
X161687213Y-99991971D01*
X161687215Y-99991968D01*
X161687219Y-99991966D01*
X161831966Y-99847219D01*
X161831968Y-99847215D01*
X161831971Y-99847213D01*
X161952284Y-99681614D01*
X161952286Y-99681611D01*
X161952287Y-99681610D01*
X161999516Y-99588917D01*
X162047489Y-99538123D01*
X162115310Y-99521328D01*
X162181445Y-99543865D01*
X162220483Y-99588917D01*
X162227730Y-99603139D01*
X162267715Y-99681614D01*
X162388028Y-99847213D01*
X162532786Y-99991971D01*
X162653226Y-100079474D01*
X162698390Y-100112287D01*
X162814607Y-100171503D01*
X162880776Y-100205218D01*
X162880778Y-100205218D01*
X162880781Y-100205220D01*
X162985137Y-100239127D01*
X163075465Y-100268477D01*
X163176557Y-100284488D01*
X163277648Y-100300500D01*
X163277649Y-100300500D01*
X163482351Y-100300500D01*
X163482352Y-100300500D01*
X163684534Y-100268477D01*
X163879219Y-100205220D01*
X164061610Y-100112287D01*
X164154590Y-100044732D01*
X164227213Y-99991971D01*
X164227215Y-99991968D01*
X164227219Y-99991966D01*
X164371966Y-99847219D01*
X164371968Y-99847215D01*
X164371971Y-99847213D01*
X164492284Y-99681614D01*
X164492286Y-99681611D01*
X164492287Y-99681610D01*
X164539516Y-99588917D01*
X164587489Y-99538123D01*
X164655310Y-99521328D01*
X164721445Y-99543865D01*
X164760483Y-99588917D01*
X164767730Y-99603139D01*
X164807715Y-99681614D01*
X164928028Y-99847213D01*
X165072786Y-99991971D01*
X165193226Y-100079474D01*
X165238390Y-100112287D01*
X165354607Y-100171503D01*
X165420776Y-100205218D01*
X165420778Y-100205218D01*
X165420781Y-100205220D01*
X165525137Y-100239127D01*
X165615465Y-100268477D01*
X165716557Y-100284488D01*
X165817648Y-100300500D01*
X165817649Y-100300500D01*
X166022351Y-100300500D01*
X166022352Y-100300500D01*
X166224534Y-100268477D01*
X166419219Y-100205220D01*
X166601610Y-100112287D01*
X166694590Y-100044732D01*
X166767213Y-99991971D01*
X166767215Y-99991968D01*
X166767219Y-99991966D01*
X166911966Y-99847219D01*
X166911968Y-99847215D01*
X166911971Y-99847213D01*
X167032286Y-99681611D01*
X167032415Y-99681359D01*
X167079795Y-99588369D01*
X167127769Y-99537573D01*
X167195590Y-99520778D01*
X167261725Y-99543315D01*
X167300765Y-99588369D01*
X167348141Y-99681350D01*
X167348147Y-99681359D01*
X167380523Y-99725921D01*
X167380524Y-99725922D01*
X168060000Y-99046446D01*
X168060000Y-99052661D01*
X168087259Y-99154394D01*
X168139920Y-99245606D01*
X168214394Y-99320080D01*
X168305606Y-99372741D01*
X168407339Y-99400000D01*
X168413553Y-99400000D01*
X167734076Y-100079474D01*
X167778650Y-100111859D01*
X167960968Y-100204755D01*
X168155582Y-100267990D01*
X168357683Y-100300000D01*
X168562317Y-100300000D01*
X168764417Y-100267990D01*
X168959031Y-100204755D01*
X169141349Y-100111859D01*
X169185921Y-100079474D01*
X168506447Y-99400000D01*
X168512661Y-99400000D01*
X168614394Y-99372741D01*
X168705606Y-99320080D01*
X168780080Y-99245606D01*
X168832741Y-99154394D01*
X168860000Y-99052661D01*
X168860000Y-99046447D01*
X169539474Y-99725921D01*
X169571861Y-99681347D01*
X169571861Y-99681346D01*
X169619234Y-99588371D01*
X169667208Y-99537575D01*
X169735028Y-99520779D01*
X169801164Y-99543316D01*
X169840203Y-99588369D01*
X169887713Y-99681611D01*
X170008028Y-99847213D01*
X170152786Y-99991971D01*
X170273226Y-100079474D01*
X170318390Y-100112287D01*
X170434607Y-100171503D01*
X170500776Y-100205218D01*
X170500778Y-100205218D01*
X170500781Y-100205220D01*
X170605137Y-100239127D01*
X170695465Y-100268477D01*
X170796557Y-100284488D01*
X170897648Y-100300500D01*
X170897649Y-100300500D01*
X171102351Y-100300500D01*
X171102352Y-100300500D01*
X171304534Y-100268477D01*
X171499219Y-100205220D01*
X171681610Y-100112287D01*
X171774590Y-100044732D01*
X171847213Y-99991971D01*
X171847215Y-99991968D01*
X171847219Y-99991966D01*
X171991966Y-99847219D01*
X171991968Y-99847215D01*
X171991971Y-99847213D01*
X172112284Y-99681614D01*
X172112286Y-99681611D01*
X172112287Y-99681610D01*
X172159516Y-99588917D01*
X172207489Y-99538123D01*
X172275310Y-99521328D01*
X172341445Y-99543865D01*
X172380483Y-99588917D01*
X172387730Y-99603139D01*
X172427715Y-99681614D01*
X172548028Y-99847213D01*
X172692786Y-99991971D01*
X172813226Y-100079474D01*
X172858390Y-100112287D01*
X172974607Y-100171503D01*
X173040776Y-100205218D01*
X173040778Y-100205218D01*
X173040781Y-100205220D01*
X173145137Y-100239127D01*
X173235465Y-100268477D01*
X173336557Y-100284488D01*
X173437648Y-100300500D01*
X173437649Y-100300500D01*
X173642351Y-100300500D01*
X173642352Y-100300500D01*
X173844534Y-100268477D01*
X174039219Y-100205220D01*
X174221610Y-100112287D01*
X174314590Y-100044732D01*
X174387213Y-99991971D01*
X174387215Y-99991968D01*
X174387219Y-99991966D01*
X174531966Y-99847219D01*
X174531968Y-99847215D01*
X174531971Y-99847213D01*
X174652284Y-99681614D01*
X174652286Y-99681611D01*
X174652287Y-99681610D01*
X174699516Y-99588917D01*
X174747489Y-99538123D01*
X174815310Y-99521328D01*
X174881445Y-99543865D01*
X174920483Y-99588917D01*
X174927730Y-99603139D01*
X174967715Y-99681614D01*
X175088028Y-99847213D01*
X175232786Y-99991971D01*
X175353226Y-100079474D01*
X175398390Y-100112287D01*
X175514607Y-100171503D01*
X175580776Y-100205218D01*
X175580778Y-100205218D01*
X175580781Y-100205220D01*
X175685137Y-100239127D01*
X175775465Y-100268477D01*
X175876557Y-100284488D01*
X175977648Y-100300500D01*
X175977649Y-100300500D01*
X176182351Y-100300500D01*
X176182352Y-100300500D01*
X176384534Y-100268477D01*
X176579219Y-100205220D01*
X176761610Y-100112287D01*
X176854590Y-100044732D01*
X176927213Y-99991971D01*
X176927215Y-99991968D01*
X176927219Y-99991966D01*
X177071966Y-99847219D01*
X177071968Y-99847215D01*
X177071971Y-99847213D01*
X177192284Y-99681614D01*
X177192286Y-99681611D01*
X177192287Y-99681610D01*
X177239516Y-99588917D01*
X177287489Y-99538123D01*
X177355310Y-99521328D01*
X177421445Y-99543865D01*
X177460483Y-99588917D01*
X177467730Y-99603139D01*
X177507715Y-99681614D01*
X177628028Y-99847213D01*
X177772786Y-99991971D01*
X177893226Y-100079474D01*
X177938390Y-100112287D01*
X178054607Y-100171503D01*
X178120776Y-100205218D01*
X178120778Y-100205218D01*
X178120781Y-100205220D01*
X178225137Y-100239127D01*
X178315465Y-100268477D01*
X178416557Y-100284488D01*
X178517648Y-100300500D01*
X178517649Y-100300500D01*
X178722351Y-100300500D01*
X178722352Y-100300500D01*
X178924534Y-100268477D01*
X179119219Y-100205220D01*
X179301610Y-100112287D01*
X179394590Y-100044732D01*
X179467213Y-99991971D01*
X179467215Y-99991968D01*
X179467219Y-99991966D01*
X179611966Y-99847219D01*
X179611968Y-99847215D01*
X179611971Y-99847213D01*
X179732284Y-99681614D01*
X179732286Y-99681611D01*
X179732287Y-99681610D01*
X179779516Y-99588917D01*
X179827489Y-99538123D01*
X179895310Y-99521328D01*
X179961445Y-99543865D01*
X180000483Y-99588917D01*
X180007730Y-99603139D01*
X180047715Y-99681614D01*
X180168028Y-99847213D01*
X180312786Y-99991971D01*
X180433226Y-100079474D01*
X180478390Y-100112287D01*
X180594607Y-100171503D01*
X180660776Y-100205218D01*
X180660778Y-100205218D01*
X180660781Y-100205220D01*
X180765137Y-100239127D01*
X180855465Y-100268477D01*
X180956557Y-100284488D01*
X181057648Y-100300500D01*
X181057649Y-100300500D01*
X181262351Y-100300500D01*
X181262352Y-100300500D01*
X181464534Y-100268477D01*
X181659219Y-100205220D01*
X181841610Y-100112287D01*
X181934590Y-100044732D01*
X182007213Y-99991971D01*
X182007215Y-99991968D01*
X182007219Y-99991966D01*
X182151966Y-99847219D01*
X182151968Y-99847215D01*
X182151971Y-99847213D01*
X182204732Y-99774590D01*
X182272287Y-99681610D01*
X182365220Y-99499219D01*
X182428477Y-99304534D01*
X182460500Y-99102352D01*
X182460500Y-98897648D01*
X182447116Y-98813147D01*
X182428477Y-98695465D01*
X182390584Y-98578844D01*
X182365220Y-98500781D01*
X182365218Y-98500778D01*
X182365218Y-98500776D01*
X182319515Y-98411080D01*
X182272287Y-98318390D01*
X182248400Y-98285512D01*
X182151971Y-98152786D01*
X182007213Y-98008028D01*
X181841613Y-97887715D01*
X181841612Y-97887714D01*
X181841610Y-97887713D01*
X181774921Y-97853733D01*
X181659223Y-97794781D01*
X181464534Y-97731522D01*
X181289995Y-97703878D01*
X181262352Y-97699500D01*
X181057648Y-97699500D01*
X181033329Y-97703351D01*
X180855465Y-97731522D01*
X180660776Y-97794781D01*
X180478386Y-97887715D01*
X180312786Y-98008028D01*
X180168028Y-98152786D01*
X180047715Y-98318386D01*
X180000485Y-98411080D01*
X179952510Y-98461876D01*
X179884689Y-98478671D01*
X179818554Y-98456134D01*
X179779515Y-98411080D01*
X179732420Y-98318652D01*
X179732287Y-98318390D01*
X179708400Y-98285512D01*
X179611971Y-98152786D01*
X179467213Y-98008028D01*
X179301613Y-97887715D01*
X179301612Y-97887714D01*
X179301610Y-97887713D01*
X179234921Y-97853733D01*
X179119223Y-97794781D01*
X178924534Y-97731522D01*
X178749995Y-97703878D01*
X178722352Y-97699500D01*
X178517648Y-97699500D01*
X178493329Y-97703351D01*
X178315465Y-97731522D01*
X178120776Y-97794781D01*
X177938386Y-97887715D01*
X177772786Y-98008028D01*
X177628028Y-98152786D01*
X177507715Y-98318386D01*
X177460485Y-98411080D01*
X177412510Y-98461876D01*
X177344689Y-98478671D01*
X177278554Y-98456134D01*
X177239515Y-98411080D01*
X177192420Y-98318652D01*
X177192287Y-98318390D01*
X177168400Y-98285512D01*
X177071971Y-98152786D01*
X176927213Y-98008028D01*
X176761613Y-97887715D01*
X176761612Y-97887714D01*
X176761610Y-97887713D01*
X176694921Y-97853733D01*
X176579223Y-97794781D01*
X176384534Y-97731522D01*
X176209995Y-97703878D01*
X176182352Y-97699500D01*
X175977648Y-97699500D01*
X175953329Y-97703351D01*
X175775465Y-97731522D01*
X175580776Y-97794781D01*
X175398386Y-97887715D01*
X175232786Y-98008028D01*
X175088028Y-98152786D01*
X174967715Y-98318386D01*
X174920485Y-98411080D01*
X174872510Y-98461876D01*
X174804689Y-98478671D01*
X174738554Y-98456134D01*
X174699515Y-98411080D01*
X174652420Y-98318652D01*
X174652287Y-98318390D01*
X174628400Y-98285512D01*
X174531971Y-98152786D01*
X174387213Y-98008028D01*
X174221613Y-97887715D01*
X174221612Y-97887714D01*
X174221610Y-97887713D01*
X174154921Y-97853733D01*
X174039223Y-97794781D01*
X173844534Y-97731522D01*
X173669995Y-97703878D01*
X173642352Y-97699500D01*
X173437648Y-97699500D01*
X173413329Y-97703351D01*
X173235465Y-97731522D01*
X173040776Y-97794781D01*
X172858386Y-97887715D01*
X172692786Y-98008028D01*
X172548028Y-98152786D01*
X172427715Y-98318386D01*
X172380485Y-98411080D01*
X172332510Y-98461876D01*
X172264689Y-98478671D01*
X172198554Y-98456134D01*
X172159515Y-98411080D01*
X172112420Y-98318652D01*
X172112287Y-98318390D01*
X172088400Y-98285512D01*
X171991971Y-98152786D01*
X171847213Y-98008028D01*
X171681613Y-97887715D01*
X171681612Y-97887714D01*
X171681610Y-97887713D01*
X171614921Y-97853733D01*
X171499223Y-97794781D01*
X171304534Y-97731522D01*
X171129995Y-97703878D01*
X171102352Y-97699500D01*
X170897648Y-97699500D01*
X170873329Y-97703351D01*
X170695465Y-97731522D01*
X170500776Y-97794781D01*
X170318386Y-97887715D01*
X170152786Y-98008028D01*
X170008028Y-98152786D01*
X169887713Y-98318388D01*
X169840203Y-98411630D01*
X169792228Y-98462426D01*
X169724407Y-98479220D01*
X169658272Y-98456682D01*
X169619234Y-98411628D01*
X169571861Y-98318652D01*
X169539474Y-98274077D01*
X169539474Y-98274076D01*
X168860000Y-98953551D01*
X168860000Y-98947339D01*
X168832741Y-98845606D01*
X168780080Y-98754394D01*
X168705606Y-98679920D01*
X168614394Y-98627259D01*
X168512661Y-98600000D01*
X168506446Y-98600000D01*
X169185922Y-97920524D01*
X169185921Y-97920523D01*
X169141359Y-97888147D01*
X169141350Y-97888141D01*
X168959031Y-97795244D01*
X168764417Y-97732009D01*
X168562317Y-97700000D01*
X168357683Y-97700000D01*
X168155582Y-97732009D01*
X167960968Y-97795244D01*
X167778644Y-97888143D01*
X167734077Y-97920523D01*
X167734077Y-97920524D01*
X168413554Y-98600000D01*
X168407339Y-98600000D01*
X168305606Y-98627259D01*
X168214394Y-98679920D01*
X168139920Y-98754394D01*
X168087259Y-98845606D01*
X168060000Y-98947339D01*
X168060000Y-98953553D01*
X167380524Y-98274077D01*
X167380523Y-98274077D01*
X167348143Y-98318644D01*
X167300765Y-98411630D01*
X167252790Y-98462426D01*
X167184969Y-98479221D01*
X167118834Y-98456683D01*
X167079795Y-98411630D01*
X167032284Y-98318385D01*
X166911971Y-98152786D01*
X166767213Y-98008028D01*
X166601613Y-97887715D01*
X166601612Y-97887714D01*
X166601610Y-97887713D01*
X166534921Y-97853733D01*
X166419223Y-97794781D01*
X166224534Y-97731522D01*
X166049995Y-97703878D01*
X166022352Y-97699500D01*
X165817648Y-97699500D01*
X165793329Y-97703351D01*
X165615465Y-97731522D01*
X165420776Y-97794781D01*
X165238386Y-97887715D01*
X165072786Y-98008028D01*
X164928028Y-98152786D01*
X164807715Y-98318386D01*
X164760485Y-98411080D01*
X164712510Y-98461876D01*
X164644689Y-98478671D01*
X164578554Y-98456134D01*
X164539515Y-98411080D01*
X164492420Y-98318652D01*
X164492287Y-98318390D01*
X164468400Y-98285512D01*
X164371971Y-98152786D01*
X164227213Y-98008028D01*
X164061613Y-97887715D01*
X164061612Y-97887714D01*
X164061610Y-97887713D01*
X163994921Y-97853733D01*
X163879223Y-97794781D01*
X163684534Y-97731522D01*
X163509995Y-97703878D01*
X163482352Y-97699500D01*
X163277648Y-97699500D01*
X163253329Y-97703351D01*
X163075465Y-97731522D01*
X162880776Y-97794781D01*
X162698386Y-97887715D01*
X162532786Y-98008028D01*
X162388028Y-98152786D01*
X162267715Y-98318386D01*
X162220485Y-98411080D01*
X162172510Y-98461876D01*
X162104689Y-98478671D01*
X162038554Y-98456134D01*
X161999515Y-98411080D01*
X161952420Y-98318652D01*
X161952287Y-98318390D01*
X161928400Y-98285512D01*
X161831971Y-98152786D01*
X161687213Y-98008028D01*
X161521613Y-97887715D01*
X161521612Y-97887714D01*
X161521610Y-97887713D01*
X161454921Y-97853733D01*
X161339223Y-97794781D01*
X161144534Y-97731522D01*
X160969995Y-97703878D01*
X160942352Y-97699500D01*
X160737648Y-97699500D01*
X160713329Y-97703351D01*
X160535465Y-97731522D01*
X160340776Y-97794781D01*
X160158386Y-97887715D01*
X159992786Y-98008028D01*
X159848028Y-98152786D01*
X159727715Y-98318386D01*
X159680485Y-98411080D01*
X159632510Y-98461876D01*
X159564689Y-98478671D01*
X159498554Y-98456134D01*
X159459515Y-98411080D01*
X159412420Y-98318652D01*
X159412287Y-98318390D01*
X159388400Y-98285512D01*
X159291971Y-98152786D01*
X159147213Y-98008028D01*
X158981613Y-97887715D01*
X158981612Y-97887714D01*
X158981610Y-97887713D01*
X158914921Y-97853733D01*
X158799223Y-97794781D01*
X158604534Y-97731522D01*
X158429995Y-97703878D01*
X158402352Y-97699500D01*
X158197648Y-97699500D01*
X158173329Y-97703351D01*
X157995465Y-97731522D01*
X157800776Y-97794781D01*
X157618386Y-97887715D01*
X157452786Y-98008028D01*
X157308028Y-98152786D01*
X157187715Y-98318386D01*
X157140485Y-98411080D01*
X157092510Y-98461876D01*
X157024689Y-98478671D01*
X156958554Y-98456134D01*
X156919515Y-98411080D01*
X156872420Y-98318652D01*
X156872287Y-98318390D01*
X156848400Y-98285512D01*
X156751971Y-98152786D01*
X156607213Y-98008028D01*
X156441613Y-97887715D01*
X156441612Y-97887714D01*
X156441610Y-97887713D01*
X156374921Y-97853733D01*
X156259223Y-97794781D01*
X156064534Y-97731522D01*
X155889995Y-97703878D01*
X155862352Y-97699500D01*
X155657648Y-97699500D01*
X155633329Y-97703351D01*
X155455465Y-97731522D01*
X155260776Y-97794781D01*
X155078386Y-97887715D01*
X154912786Y-98008028D01*
X154768028Y-98152786D01*
X154647715Y-98318386D01*
X154600485Y-98411080D01*
X154552510Y-98461876D01*
X154484689Y-98478671D01*
X154418554Y-98456134D01*
X154379515Y-98411080D01*
X154332420Y-98318652D01*
X154332287Y-98318390D01*
X154308400Y-98285512D01*
X154211971Y-98152786D01*
X154067213Y-98008028D01*
X153901613Y-97887715D01*
X153901612Y-97887714D01*
X153901610Y-97887713D01*
X153834921Y-97853733D01*
X153719223Y-97794781D01*
X153524534Y-97731522D01*
X153349995Y-97703878D01*
X153322352Y-97699500D01*
X153117648Y-97699500D01*
X153093329Y-97703351D01*
X152915465Y-97731522D01*
X152720776Y-97794781D01*
X152538386Y-97887715D01*
X152372786Y-98008028D01*
X152228028Y-98152786D01*
X152107715Y-98318386D01*
X152060485Y-98411080D01*
X152012510Y-98461876D01*
X151944689Y-98478671D01*
X151878554Y-98456134D01*
X151839515Y-98411080D01*
X151792420Y-98318652D01*
X151792287Y-98318390D01*
X151768400Y-98285512D01*
X151671971Y-98152786D01*
X151527213Y-98008028D01*
X151361613Y-97887715D01*
X151361612Y-97887714D01*
X151361610Y-97887713D01*
X151294921Y-97853733D01*
X151179223Y-97794781D01*
X150984534Y-97731522D01*
X150809995Y-97703878D01*
X150782352Y-97699500D01*
X150577648Y-97699500D01*
X150553329Y-97703351D01*
X150375465Y-97731522D01*
X150180776Y-97794781D01*
X149998386Y-97887715D01*
X149832786Y-98008028D01*
X149688028Y-98152786D01*
X149567715Y-98318386D01*
X149520485Y-98411080D01*
X149472510Y-98461876D01*
X149404689Y-98478671D01*
X149338554Y-98456134D01*
X149299515Y-98411080D01*
X149252420Y-98318652D01*
X149252287Y-98318390D01*
X149228400Y-98285512D01*
X149131971Y-98152786D01*
X148987213Y-98008028D01*
X148821613Y-97887715D01*
X148821612Y-97887714D01*
X148821610Y-97887713D01*
X148754921Y-97853733D01*
X148639223Y-97794781D01*
X148444534Y-97731522D01*
X148269995Y-97703878D01*
X148242352Y-97699500D01*
X148037648Y-97699500D01*
X148013329Y-97703351D01*
X147835465Y-97731522D01*
X147640776Y-97794781D01*
X147458386Y-97887715D01*
X147292786Y-98008028D01*
X147148028Y-98152786D01*
X147027715Y-98318386D01*
X146934781Y-98500776D01*
X146871522Y-98695465D01*
X146839500Y-98897648D01*
X143663895Y-98897648D01*
X143620840Y-98813148D01*
X143499593Y-98646267D01*
X143353733Y-98500407D01*
X143186852Y-98379160D01*
X143003054Y-98285510D01*
X142806879Y-98221769D01*
X142654073Y-98197567D01*
X142603139Y-98189500D01*
X142396861Y-98189500D01*
X142328948Y-98200256D01*
X142193122Y-98221769D01*
X142193119Y-98221769D01*
X141996945Y-98285510D01*
X141813147Y-98379160D01*
X141646265Y-98500408D01*
X141500408Y-98646265D01*
X141379160Y-98813147D01*
X141285510Y-98996945D01*
X141221769Y-99193119D01*
X141221769Y-99193122D01*
X141209634Y-99269738D01*
X141189500Y-99396861D01*
X100500500Y-99396861D01*
X100500500Y-98421153D01*
X129699500Y-98421153D01*
X129699500Y-98578846D01*
X129730261Y-98733489D01*
X129730264Y-98733501D01*
X129790602Y-98879172D01*
X129790609Y-98879185D01*
X129878210Y-99010288D01*
X129878213Y-99010292D01*
X129989707Y-99121786D01*
X129989711Y-99121789D01*
X130120814Y-99209390D01*
X130120827Y-99209397D01*
X130208245Y-99245606D01*
X130266503Y-99269737D01*
X130393096Y-99294918D01*
X130421153Y-99300499D01*
X130421156Y-99300500D01*
X130421158Y-99300500D01*
X130578844Y-99300500D01*
X130730306Y-99270372D01*
X130730306Y-99270371D01*
X130733497Y-99269737D01*
X130879179Y-99209394D01*
X131010289Y-99121789D01*
X131121789Y-99010289D01*
X131209394Y-98879179D01*
X131269737Y-98733497D01*
X131300500Y-98578842D01*
X131300500Y-98421158D01*
X131300500Y-98421155D01*
X131300499Y-98421153D01*
X131280110Y-98318652D01*
X131269737Y-98266503D01*
X131237842Y-98189500D01*
X131209397Y-98120827D01*
X131209390Y-98120814D01*
X131121789Y-97989711D01*
X131121786Y-97989707D01*
X131010292Y-97878213D01*
X131010288Y-97878210D01*
X130879185Y-97790609D01*
X130879172Y-97790602D01*
X130733501Y-97730264D01*
X130733489Y-97730261D01*
X130578845Y-97699500D01*
X130578842Y-97699500D01*
X130421158Y-97699500D01*
X130421155Y-97699500D01*
X130266510Y-97730261D01*
X130266498Y-97730264D01*
X130120827Y-97790602D01*
X130120814Y-97790609D01*
X129989711Y-97878210D01*
X129989707Y-97878213D01*
X129878213Y-97989707D01*
X129878210Y-97989711D01*
X129790609Y-98120814D01*
X129790602Y-98120827D01*
X129730264Y-98266498D01*
X129730261Y-98266510D01*
X129699500Y-98421153D01*
X100500500Y-98421153D01*
X100500500Y-96896861D01*
X138689500Y-96896861D01*
X138689500Y-97103138D01*
X138721769Y-97306877D01*
X138721769Y-97306880D01*
X138785510Y-97503054D01*
X138785512Y-97503057D01*
X138879160Y-97686852D01*
X139000407Y-97853733D01*
X139146267Y-97999593D01*
X139313148Y-98120840D01*
X139375846Y-98152786D01*
X139496945Y-98214489D01*
X139693120Y-98278230D01*
X139693121Y-98278230D01*
X139693124Y-98278231D01*
X139896861Y-98310500D01*
X139896862Y-98310500D01*
X140103138Y-98310500D01*
X140103139Y-98310500D01*
X140306876Y-98278231D01*
X140306879Y-98278230D01*
X140306880Y-98278230D01*
X140503054Y-98214489D01*
X140503054Y-98214488D01*
X140503057Y-98214488D01*
X140686852Y-98120840D01*
X140853733Y-97999593D01*
X140999593Y-97853733D01*
X141120840Y-97686852D01*
X141214488Y-97503057D01*
X141278231Y-97306876D01*
X141310500Y-97103139D01*
X141310500Y-96896895D01*
X143690000Y-96896895D01*
X143690000Y-97103104D01*
X143722256Y-97306759D01*
X143785976Y-97502868D01*
X143879587Y-97686590D01*
X143913365Y-97733080D01*
X143913365Y-97733081D01*
X144557861Y-97088584D01*
X144580667Y-97173694D01*
X144639910Y-97276306D01*
X144723694Y-97360090D01*
X144826306Y-97419333D01*
X144911414Y-97442137D01*
X144266917Y-98086633D01*
X144266918Y-98086634D01*
X144313404Y-98120408D01*
X144313417Y-98120416D01*
X144497131Y-98214023D01*
X144693240Y-98277743D01*
X144896896Y-98310000D01*
X145103104Y-98310000D01*
X145306759Y-98277743D01*
X145502868Y-98214023D01*
X145686590Y-98120412D01*
X145733080Y-98086634D01*
X145733080Y-98086633D01*
X145088585Y-97442138D01*
X145173694Y-97419333D01*
X145276306Y-97360090D01*
X145360090Y-97276306D01*
X145419333Y-97173694D01*
X145442138Y-97088585D01*
X146086633Y-97733080D01*
X146086634Y-97733080D01*
X146120412Y-97686590D01*
X146214023Y-97502868D01*
X146277743Y-97306759D01*
X146310000Y-97103104D01*
X146310000Y-96896895D01*
X146277743Y-96693240D01*
X146214023Y-96497131D01*
X146120416Y-96313417D01*
X146120408Y-96313404D01*
X146086634Y-96266918D01*
X146086633Y-96266917D01*
X145442137Y-96911413D01*
X145419333Y-96826306D01*
X145360090Y-96723694D01*
X145276306Y-96639910D01*
X145173694Y-96580667D01*
X145088583Y-96557861D01*
X145733081Y-95913365D01*
X145686590Y-95879587D01*
X145502868Y-95785976D01*
X145306759Y-95722256D01*
X145103104Y-95690000D01*
X144896896Y-95690000D01*
X144693240Y-95722256D01*
X144497131Y-95785976D01*
X144313413Y-95879585D01*
X144266918Y-95913365D01*
X144266918Y-95913366D01*
X144911414Y-96557861D01*
X144826306Y-96580667D01*
X144723694Y-96639910D01*
X144639910Y-96723694D01*
X144580667Y-96826306D01*
X144557861Y-96911414D01*
X143913366Y-96266918D01*
X143913365Y-96266918D01*
X143879585Y-96313413D01*
X143785976Y-96497131D01*
X143722256Y-96693240D01*
X143690000Y-96896895D01*
X141310500Y-96896895D01*
X141310500Y-96896861D01*
X141278231Y-96693124D01*
X141278230Y-96693120D01*
X141278230Y-96693119D01*
X141214489Y-96496945D01*
X141120839Y-96313147D01*
X140999593Y-96146267D01*
X140853733Y-96000407D01*
X140686852Y-95879160D01*
X140503054Y-95785510D01*
X140306879Y-95721769D01*
X140154073Y-95697567D01*
X140103139Y-95689500D01*
X139896861Y-95689500D01*
X139828948Y-95700256D01*
X139693122Y-95721769D01*
X139693119Y-95721769D01*
X139496945Y-95785510D01*
X139313147Y-95879160D01*
X139146265Y-96000408D01*
X139000408Y-96146265D01*
X138879160Y-96313147D01*
X138785510Y-96496945D01*
X138721769Y-96693119D01*
X138721769Y-96693122D01*
X138689500Y-96896861D01*
X100500500Y-96896861D01*
X100500500Y-95421153D01*
X131699500Y-95421153D01*
X131699500Y-95578846D01*
X131730261Y-95733489D01*
X131730264Y-95733501D01*
X131790602Y-95879172D01*
X131790609Y-95879185D01*
X131878210Y-96010288D01*
X131878213Y-96010292D01*
X131989707Y-96121786D01*
X131989711Y-96121789D01*
X132120814Y-96209390D01*
X132120827Y-96209397D01*
X132259695Y-96266917D01*
X132266503Y-96269737D01*
X132421153Y-96300499D01*
X132421156Y-96300500D01*
X132421158Y-96300500D01*
X132578844Y-96300500D01*
X132578845Y-96300499D01*
X132733497Y-96269737D01*
X132879179Y-96209394D01*
X133010289Y-96121789D01*
X133121789Y-96010289D01*
X133209394Y-95879179D01*
X133269737Y-95733497D01*
X133300500Y-95578842D01*
X133300500Y-95421158D01*
X133300500Y-95421155D01*
X133300499Y-95421153D01*
X133269738Y-95266510D01*
X133269737Y-95266503D01*
X133269735Y-95266498D01*
X133209397Y-95120827D01*
X133209390Y-95120814D01*
X133121789Y-94989711D01*
X133121786Y-94989707D01*
X133010292Y-94878213D01*
X133010288Y-94878210D01*
X132879185Y-94790609D01*
X132879172Y-94790602D01*
X132733501Y-94730264D01*
X132733489Y-94730261D01*
X132578845Y-94699500D01*
X132578842Y-94699500D01*
X132421158Y-94699500D01*
X132421155Y-94699500D01*
X132266510Y-94730261D01*
X132266498Y-94730264D01*
X132120827Y-94790602D01*
X132120814Y-94790609D01*
X131989711Y-94878210D01*
X131989707Y-94878213D01*
X131878213Y-94989707D01*
X131878210Y-94989711D01*
X131790609Y-95120814D01*
X131790602Y-95120827D01*
X131730264Y-95266498D01*
X131730261Y-95266510D01*
X131699500Y-95421153D01*
X100500500Y-95421153D01*
X100500500Y-92631902D01*
X136249500Y-92631902D01*
X136249500Y-92868097D01*
X136286446Y-93101368D01*
X136359433Y-93325996D01*
X136466657Y-93536433D01*
X136605483Y-93727510D01*
X136772490Y-93894517D01*
X136963567Y-94033343D01*
X137062991Y-94084002D01*
X137174003Y-94140566D01*
X137174005Y-94140566D01*
X137174008Y-94140568D01*
X137294412Y-94179689D01*
X137398631Y-94213553D01*
X137631903Y-94250500D01*
X137631908Y-94250500D01*
X137868097Y-94250500D01*
X138101368Y-94213553D01*
X138325992Y-94140568D01*
X138536433Y-94033343D01*
X138727510Y-93894517D01*
X138894517Y-93727510D01*
X139033343Y-93536433D01*
X139140568Y-93325992D01*
X139213553Y-93101368D01*
X139250500Y-92868097D01*
X139250500Y-92631902D01*
X142749500Y-92631902D01*
X142749500Y-92868097D01*
X142786446Y-93101368D01*
X142859433Y-93325996D01*
X142966657Y-93536433D01*
X143105483Y-93727510D01*
X143272490Y-93894517D01*
X143463567Y-94033343D01*
X143562991Y-94084002D01*
X143674003Y-94140566D01*
X143674005Y-94140566D01*
X143674008Y-94140568D01*
X143794412Y-94179689D01*
X143898631Y-94213553D01*
X144131903Y-94250500D01*
X144131908Y-94250500D01*
X144368097Y-94250500D01*
X144601368Y-94213553D01*
X144825992Y-94140568D01*
X145036433Y-94033343D01*
X145227510Y-93894517D01*
X145394517Y-93727510D01*
X145533343Y-93536433D01*
X145640568Y-93325992D01*
X145713553Y-93101368D01*
X145750500Y-92868097D01*
X145750500Y-92631902D01*
X145713553Y-92398631D01*
X145679689Y-92294412D01*
X145640568Y-92174008D01*
X145640566Y-92174005D01*
X145640566Y-92174003D01*
X145541725Y-91980018D01*
X145533343Y-91963567D01*
X145394517Y-91772490D01*
X145227510Y-91605483D01*
X145036433Y-91466657D01*
X144825996Y-91359433D01*
X144601368Y-91286446D01*
X144368097Y-91249500D01*
X144368092Y-91249500D01*
X144131908Y-91249500D01*
X144131903Y-91249500D01*
X143898631Y-91286446D01*
X143674003Y-91359433D01*
X143463566Y-91466657D01*
X143370335Y-91534394D01*
X143272490Y-91605483D01*
X143272488Y-91605485D01*
X143272487Y-91605485D01*
X143105485Y-91772487D01*
X143105485Y-91772488D01*
X143105483Y-91772490D01*
X143100027Y-91780000D01*
X142966657Y-91963566D01*
X142859433Y-92174003D01*
X142786446Y-92398631D01*
X142749500Y-92631902D01*
X139250500Y-92631902D01*
X139213553Y-92398631D01*
X139179689Y-92294412D01*
X139140568Y-92174008D01*
X139140566Y-92174005D01*
X139140566Y-92174003D01*
X139041725Y-91980018D01*
X139033343Y-91963567D01*
X138894517Y-91772490D01*
X138727510Y-91605483D01*
X138536433Y-91466657D01*
X138325996Y-91359433D01*
X138101368Y-91286446D01*
X137868097Y-91249500D01*
X137868092Y-91249500D01*
X137631908Y-91249500D01*
X137631903Y-91249500D01*
X137398631Y-91286446D01*
X137174003Y-91359433D01*
X136963566Y-91466657D01*
X136870335Y-91534394D01*
X136772490Y-91605483D01*
X136772488Y-91605485D01*
X136772487Y-91605485D01*
X136605485Y-91772487D01*
X136605485Y-91772488D01*
X136605483Y-91772490D01*
X136600027Y-91780000D01*
X136466657Y-91963566D01*
X136359433Y-92174003D01*
X136286446Y-92398631D01*
X136249500Y-92631902D01*
X100500500Y-92631902D01*
X100500500Y-90779983D01*
X146839500Y-90779983D01*
X146839500Y-91980001D01*
X146839501Y-91980018D01*
X146850000Y-92082796D01*
X146850001Y-92082799D01*
X146880225Y-92174008D01*
X146905186Y-92249334D01*
X146997288Y-92398656D01*
X147121344Y-92522712D01*
X147270666Y-92614814D01*
X147437203Y-92669999D01*
X147539991Y-92680500D01*
X148740008Y-92680499D01*
X148842797Y-92669999D01*
X149009334Y-92614814D01*
X149158656Y-92522712D01*
X149282712Y-92398656D01*
X149374814Y-92249334D01*
X149401955Y-92167427D01*
X149441726Y-92109984D01*
X149506242Y-92083161D01*
X149575018Y-92095476D01*
X149619977Y-92133547D01*
X149649371Y-92174003D01*
X149688034Y-92227219D01*
X149832786Y-92371971D01*
X149953226Y-92459474D01*
X149998390Y-92492287D01*
X150114607Y-92551503D01*
X150180776Y-92585218D01*
X150180778Y-92585218D01*
X150180781Y-92585220D01*
X150271856Y-92614812D01*
X150375465Y-92648477D01*
X150476557Y-92664488D01*
X150577648Y-92680500D01*
X150577649Y-92680500D01*
X150782351Y-92680500D01*
X150782352Y-92680500D01*
X150984534Y-92648477D01*
X151179219Y-92585220D01*
X151361610Y-92492287D01*
X151490482Y-92398657D01*
X151527213Y-92371971D01*
X151527215Y-92371968D01*
X151527219Y-92371966D01*
X151671966Y-92227219D01*
X151671968Y-92227215D01*
X151671971Y-92227213D01*
X151792284Y-92061614D01*
X151792286Y-92061611D01*
X151792287Y-92061610D01*
X151839516Y-91968917D01*
X151887489Y-91918123D01*
X151955310Y-91901328D01*
X152021445Y-91923865D01*
X152060483Y-91968917D01*
X152066140Y-91980018D01*
X152107715Y-92061614D01*
X152228028Y-92227213D01*
X152372786Y-92371971D01*
X152493226Y-92459474D01*
X152538390Y-92492287D01*
X152654607Y-92551503D01*
X152720776Y-92585218D01*
X152720778Y-92585218D01*
X152720781Y-92585220D01*
X152811856Y-92614812D01*
X152915465Y-92648477D01*
X153016557Y-92664488D01*
X153117648Y-92680500D01*
X153117649Y-92680500D01*
X153322351Y-92680500D01*
X153322352Y-92680500D01*
X153524534Y-92648477D01*
X153719219Y-92585220D01*
X153901610Y-92492287D01*
X154030482Y-92398657D01*
X154067213Y-92371971D01*
X154067215Y-92371968D01*
X154067219Y-92371966D01*
X154211966Y-92227219D01*
X154211968Y-92227215D01*
X154211971Y-92227213D01*
X154332284Y-92061614D01*
X154332286Y-92061611D01*
X154332287Y-92061610D01*
X154379516Y-91968917D01*
X154427489Y-91918123D01*
X154495310Y-91901328D01*
X154561445Y-91923865D01*
X154600483Y-91968917D01*
X154606140Y-91980018D01*
X154647715Y-92061614D01*
X154768028Y-92227213D01*
X154912786Y-92371971D01*
X155033226Y-92459474D01*
X155078390Y-92492287D01*
X155194607Y-92551503D01*
X155260776Y-92585218D01*
X155260778Y-92585218D01*
X155260781Y-92585220D01*
X155351856Y-92614812D01*
X155455465Y-92648477D01*
X155556557Y-92664488D01*
X155657648Y-92680500D01*
X155657649Y-92680500D01*
X155862351Y-92680500D01*
X155862352Y-92680500D01*
X156064534Y-92648477D01*
X156259219Y-92585220D01*
X156441610Y-92492287D01*
X156570482Y-92398657D01*
X156607213Y-92371971D01*
X156607215Y-92371968D01*
X156607219Y-92371966D01*
X156751966Y-92227219D01*
X156751968Y-92227215D01*
X156751971Y-92227213D01*
X156872284Y-92061614D01*
X156872286Y-92061611D01*
X156872287Y-92061610D01*
X156919516Y-91968917D01*
X156967489Y-91918123D01*
X157035310Y-91901328D01*
X157101445Y-91923865D01*
X157140483Y-91968917D01*
X157146140Y-91980018D01*
X157187715Y-92061614D01*
X157308028Y-92227213D01*
X157452786Y-92371971D01*
X157573226Y-92459474D01*
X157618390Y-92492287D01*
X157734607Y-92551503D01*
X157800776Y-92585218D01*
X157800778Y-92585218D01*
X157800781Y-92585220D01*
X157891856Y-92614812D01*
X157995465Y-92648477D01*
X158096557Y-92664488D01*
X158197648Y-92680500D01*
X158197649Y-92680500D01*
X158402351Y-92680500D01*
X158402352Y-92680500D01*
X158604534Y-92648477D01*
X158799219Y-92585220D01*
X158981610Y-92492287D01*
X159110482Y-92398657D01*
X159147213Y-92371971D01*
X159147215Y-92371968D01*
X159147219Y-92371966D01*
X159291966Y-92227219D01*
X159291968Y-92227215D01*
X159291971Y-92227213D01*
X159412284Y-92061614D01*
X159412286Y-92061611D01*
X159412287Y-92061610D01*
X159459516Y-91968917D01*
X159507489Y-91918123D01*
X159575310Y-91901328D01*
X159641445Y-91923865D01*
X159680483Y-91968917D01*
X159686140Y-91980018D01*
X159727715Y-92061614D01*
X159848028Y-92227213D01*
X159992786Y-92371971D01*
X160113226Y-92459474D01*
X160158390Y-92492287D01*
X160274607Y-92551503D01*
X160340776Y-92585218D01*
X160340778Y-92585218D01*
X160340781Y-92585220D01*
X160431856Y-92614812D01*
X160535465Y-92648477D01*
X160636557Y-92664488D01*
X160737648Y-92680500D01*
X160737649Y-92680500D01*
X160942351Y-92680500D01*
X160942352Y-92680500D01*
X161144534Y-92648477D01*
X161339219Y-92585220D01*
X161521610Y-92492287D01*
X161650482Y-92398657D01*
X161687213Y-92371971D01*
X161687215Y-92371968D01*
X161687219Y-92371966D01*
X161831966Y-92227219D01*
X161831968Y-92227215D01*
X161831971Y-92227213D01*
X161936894Y-92082797D01*
X161952287Y-92061610D01*
X161999795Y-91968369D01*
X162047769Y-91917573D01*
X162115590Y-91900778D01*
X162181725Y-91923315D01*
X162220765Y-91968369D01*
X162268141Y-92061350D01*
X162268147Y-92061359D01*
X162300523Y-92105921D01*
X162300524Y-92105922D01*
X162980000Y-91426446D01*
X162980000Y-91432661D01*
X163007259Y-91534394D01*
X163059920Y-91625606D01*
X163134394Y-91700080D01*
X163225606Y-91752741D01*
X163327339Y-91780000D01*
X163333553Y-91780000D01*
X162654076Y-92459474D01*
X162698650Y-92491859D01*
X162880968Y-92584755D01*
X163075582Y-92647990D01*
X163277683Y-92680000D01*
X163482317Y-92680000D01*
X163684417Y-92647990D01*
X163879031Y-92584755D01*
X164061349Y-92491859D01*
X164105921Y-92459474D01*
X163426447Y-91780000D01*
X163432661Y-91780000D01*
X163534394Y-91752741D01*
X163625606Y-91700080D01*
X163700080Y-91625606D01*
X163752741Y-91534394D01*
X163780000Y-91432661D01*
X163780000Y-91426447D01*
X164459474Y-92105921D01*
X164491861Y-92061347D01*
X164491861Y-92061346D01*
X164539234Y-91968371D01*
X164587208Y-91917575D01*
X164655028Y-91900779D01*
X164721164Y-91923316D01*
X164760203Y-91968369D01*
X164807713Y-92061611D01*
X164928028Y-92227213D01*
X165072786Y-92371971D01*
X165193226Y-92459474D01*
X165238390Y-92492287D01*
X165354607Y-92551503D01*
X165420776Y-92585218D01*
X165420778Y-92585218D01*
X165420781Y-92585220D01*
X165511856Y-92614812D01*
X165615465Y-92648477D01*
X165716557Y-92664488D01*
X165817648Y-92680500D01*
X165817649Y-92680500D01*
X166022351Y-92680500D01*
X166022352Y-92680500D01*
X166224534Y-92648477D01*
X166419219Y-92585220D01*
X166601610Y-92492287D01*
X166730482Y-92398657D01*
X166767213Y-92371971D01*
X166767215Y-92371968D01*
X166767219Y-92371966D01*
X166911966Y-92227219D01*
X166911968Y-92227215D01*
X166911971Y-92227213D01*
X167032284Y-92061614D01*
X167032286Y-92061611D01*
X167032287Y-92061610D01*
X167079516Y-91968917D01*
X167127489Y-91918123D01*
X167195310Y-91901328D01*
X167261445Y-91923865D01*
X167300483Y-91968917D01*
X167306140Y-91980018D01*
X167347715Y-92061614D01*
X167468028Y-92227213D01*
X167612786Y-92371971D01*
X167733226Y-92459474D01*
X167778390Y-92492287D01*
X167894607Y-92551503D01*
X167960776Y-92585218D01*
X167960778Y-92585218D01*
X167960781Y-92585220D01*
X168051856Y-92614812D01*
X168155465Y-92648477D01*
X168256557Y-92664488D01*
X168357648Y-92680500D01*
X168357649Y-92680500D01*
X168562351Y-92680500D01*
X168562352Y-92680500D01*
X168764534Y-92648477D01*
X168959219Y-92585220D01*
X169141610Y-92492287D01*
X169270482Y-92398657D01*
X169307213Y-92371971D01*
X169307215Y-92371968D01*
X169307219Y-92371966D01*
X169451966Y-92227219D01*
X169451968Y-92227215D01*
X169451971Y-92227213D01*
X169572284Y-92061614D01*
X169572286Y-92061611D01*
X169572287Y-92061610D01*
X169619516Y-91968917D01*
X169667489Y-91918123D01*
X169735310Y-91901328D01*
X169801445Y-91923865D01*
X169840483Y-91968917D01*
X169846140Y-91980018D01*
X169887715Y-92061614D01*
X170008028Y-92227213D01*
X170152786Y-92371971D01*
X170273226Y-92459474D01*
X170318390Y-92492287D01*
X170434607Y-92551503D01*
X170500776Y-92585218D01*
X170500778Y-92585218D01*
X170500781Y-92585220D01*
X170591856Y-92614812D01*
X170695465Y-92648477D01*
X170796557Y-92664488D01*
X170897648Y-92680500D01*
X170897649Y-92680500D01*
X171102351Y-92680500D01*
X171102352Y-92680500D01*
X171304534Y-92648477D01*
X171499219Y-92585220D01*
X171681610Y-92492287D01*
X171810482Y-92398657D01*
X171847213Y-92371971D01*
X171847215Y-92371968D01*
X171847219Y-92371966D01*
X171991966Y-92227219D01*
X171991968Y-92227215D01*
X171991971Y-92227213D01*
X172112284Y-92061614D01*
X172112286Y-92061611D01*
X172112287Y-92061610D01*
X172159516Y-91968917D01*
X172207489Y-91918123D01*
X172275310Y-91901328D01*
X172341445Y-91923865D01*
X172380483Y-91968917D01*
X172386140Y-91980018D01*
X172427715Y-92061614D01*
X172548028Y-92227213D01*
X172692786Y-92371971D01*
X172813226Y-92459474D01*
X172858390Y-92492287D01*
X172974607Y-92551503D01*
X173040776Y-92585218D01*
X173040778Y-92585218D01*
X173040781Y-92585220D01*
X173131856Y-92614812D01*
X173235465Y-92648477D01*
X173336557Y-92664488D01*
X173437648Y-92680500D01*
X173437649Y-92680500D01*
X173642351Y-92680500D01*
X173642352Y-92680500D01*
X173844534Y-92648477D01*
X174039219Y-92585220D01*
X174221610Y-92492287D01*
X174350482Y-92398657D01*
X174387213Y-92371971D01*
X174387215Y-92371968D01*
X174387219Y-92371966D01*
X174531966Y-92227219D01*
X174531968Y-92227215D01*
X174531971Y-92227213D01*
X174652284Y-92061614D01*
X174652286Y-92061611D01*
X174652287Y-92061610D01*
X174699516Y-91968917D01*
X174747489Y-91918123D01*
X174815310Y-91901328D01*
X174881445Y-91923865D01*
X174920483Y-91968917D01*
X174926140Y-91980018D01*
X174967715Y-92061614D01*
X175088028Y-92227213D01*
X175232786Y-92371971D01*
X175353226Y-92459474D01*
X175398390Y-92492287D01*
X175514607Y-92551503D01*
X175580776Y-92585218D01*
X175580778Y-92585218D01*
X175580781Y-92585220D01*
X175671856Y-92614812D01*
X175775465Y-92648477D01*
X175876557Y-92664488D01*
X175977648Y-92680500D01*
X175977649Y-92680500D01*
X176182351Y-92680500D01*
X176182352Y-92680500D01*
X176384534Y-92648477D01*
X176579219Y-92585220D01*
X176761610Y-92492287D01*
X176890482Y-92398657D01*
X176927213Y-92371971D01*
X176927215Y-92371968D01*
X176927219Y-92371966D01*
X177071966Y-92227219D01*
X177071968Y-92227215D01*
X177071971Y-92227213D01*
X177192284Y-92061614D01*
X177192286Y-92061611D01*
X177192287Y-92061610D01*
X177239516Y-91968917D01*
X177287489Y-91918123D01*
X177355310Y-91901328D01*
X177421445Y-91923865D01*
X177460483Y-91968917D01*
X177466140Y-91980018D01*
X177507715Y-92061614D01*
X177628028Y-92227213D01*
X177772786Y-92371971D01*
X177893226Y-92459474D01*
X177938390Y-92492287D01*
X178054607Y-92551503D01*
X178120776Y-92585218D01*
X178120778Y-92585218D01*
X178120781Y-92585220D01*
X178211856Y-92614812D01*
X178315465Y-92648477D01*
X178416557Y-92664488D01*
X178517648Y-92680500D01*
X178517649Y-92680500D01*
X178722351Y-92680500D01*
X178722352Y-92680500D01*
X178924534Y-92648477D01*
X179119219Y-92585220D01*
X179301610Y-92492287D01*
X179430482Y-92398657D01*
X179467213Y-92371971D01*
X179467215Y-92371968D01*
X179467219Y-92371966D01*
X179611966Y-92227219D01*
X179611968Y-92227215D01*
X179611971Y-92227213D01*
X179732284Y-92061614D01*
X179732286Y-92061611D01*
X179732287Y-92061610D01*
X179779516Y-91968917D01*
X179827489Y-91918123D01*
X179895310Y-91901328D01*
X179961445Y-91923865D01*
X180000483Y-91968917D01*
X180006140Y-91980018D01*
X180047715Y-92061614D01*
X180168028Y-92227213D01*
X180312786Y-92371971D01*
X180433226Y-92459474D01*
X180478390Y-92492287D01*
X180594607Y-92551503D01*
X180660776Y-92585218D01*
X180660778Y-92585218D01*
X180660781Y-92585220D01*
X180751856Y-92614812D01*
X180855465Y-92648477D01*
X180956557Y-92664488D01*
X181057648Y-92680500D01*
X181057649Y-92680500D01*
X181262351Y-92680500D01*
X181262352Y-92680500D01*
X181464534Y-92648477D01*
X181659219Y-92585220D01*
X181841610Y-92492287D01*
X181970482Y-92398657D01*
X182007213Y-92371971D01*
X182007215Y-92371968D01*
X182007219Y-92371966D01*
X182151966Y-92227219D01*
X182151968Y-92227215D01*
X182151971Y-92227213D01*
X182220021Y-92133548D01*
X182272287Y-92061610D01*
X182365220Y-91879219D01*
X182428477Y-91684534D01*
X182460500Y-91482352D01*
X182460500Y-91277648D01*
X182452257Y-91225606D01*
X182428477Y-91075465D01*
X182365218Y-90880776D01*
X182313865Y-90779991D01*
X182272287Y-90698390D01*
X182240092Y-90654077D01*
X182151971Y-90532786D01*
X182007213Y-90388028D01*
X181841613Y-90267715D01*
X181841612Y-90267714D01*
X181841610Y-90267713D01*
X181781898Y-90237288D01*
X181659223Y-90174781D01*
X181464534Y-90111522D01*
X181289995Y-90083878D01*
X181262352Y-90079500D01*
X181057648Y-90079500D01*
X181033329Y-90083351D01*
X180855465Y-90111522D01*
X180660776Y-90174781D01*
X180478386Y-90267715D01*
X180312786Y-90388028D01*
X180168028Y-90532786D01*
X180047715Y-90698386D01*
X180000485Y-90791080D01*
X179952510Y-90841876D01*
X179884689Y-90858671D01*
X179818554Y-90836134D01*
X179779515Y-90791080D01*
X179732420Y-90698652D01*
X179732287Y-90698390D01*
X179700092Y-90654077D01*
X179611971Y-90532786D01*
X179467213Y-90388028D01*
X179301613Y-90267715D01*
X179301612Y-90267714D01*
X179301610Y-90267713D01*
X179241898Y-90237288D01*
X179119223Y-90174781D01*
X178924534Y-90111522D01*
X178749995Y-90083878D01*
X178722352Y-90079500D01*
X178517648Y-90079500D01*
X178493329Y-90083351D01*
X178315465Y-90111522D01*
X178120776Y-90174781D01*
X177938386Y-90267715D01*
X177772786Y-90388028D01*
X177628028Y-90532786D01*
X177507715Y-90698386D01*
X177460485Y-90791080D01*
X177412510Y-90841876D01*
X177344689Y-90858671D01*
X177278554Y-90836134D01*
X177239515Y-90791080D01*
X177192420Y-90698652D01*
X177192287Y-90698390D01*
X177160092Y-90654077D01*
X177071971Y-90532786D01*
X176927213Y-90388028D01*
X176761613Y-90267715D01*
X176761612Y-90267714D01*
X176761610Y-90267713D01*
X176701898Y-90237288D01*
X176579223Y-90174781D01*
X176384534Y-90111522D01*
X176209995Y-90083878D01*
X176182352Y-90079500D01*
X175977648Y-90079500D01*
X175953329Y-90083351D01*
X175775465Y-90111522D01*
X175580776Y-90174781D01*
X175398386Y-90267715D01*
X175232786Y-90388028D01*
X175088028Y-90532786D01*
X174967715Y-90698386D01*
X174920485Y-90791080D01*
X174872510Y-90841876D01*
X174804689Y-90858671D01*
X174738554Y-90836134D01*
X174699515Y-90791080D01*
X174652420Y-90698652D01*
X174652287Y-90698390D01*
X174620092Y-90654077D01*
X174531971Y-90532786D01*
X174387213Y-90388028D01*
X174221613Y-90267715D01*
X174221612Y-90267714D01*
X174221610Y-90267713D01*
X174161898Y-90237288D01*
X174039223Y-90174781D01*
X173844534Y-90111522D01*
X173669995Y-90083878D01*
X173642352Y-90079500D01*
X173437648Y-90079500D01*
X173413329Y-90083351D01*
X173235465Y-90111522D01*
X173040776Y-90174781D01*
X172858386Y-90267715D01*
X172692786Y-90388028D01*
X172548028Y-90532786D01*
X172427715Y-90698386D01*
X172380485Y-90791080D01*
X172332510Y-90841876D01*
X172264689Y-90858671D01*
X172198554Y-90836134D01*
X172159515Y-90791080D01*
X172112420Y-90698652D01*
X172112287Y-90698390D01*
X172080092Y-90654077D01*
X171991971Y-90532786D01*
X171847213Y-90388028D01*
X171681613Y-90267715D01*
X171681612Y-90267714D01*
X171681610Y-90267713D01*
X171621898Y-90237288D01*
X171499223Y-90174781D01*
X171304534Y-90111522D01*
X171129995Y-90083878D01*
X171102352Y-90079500D01*
X170897648Y-90079500D01*
X170873329Y-90083351D01*
X170695465Y-90111522D01*
X170500776Y-90174781D01*
X170318386Y-90267715D01*
X170152786Y-90388028D01*
X170008028Y-90532786D01*
X169887715Y-90698386D01*
X169840485Y-90791080D01*
X169792510Y-90841876D01*
X169724689Y-90858671D01*
X169658554Y-90836134D01*
X169619515Y-90791080D01*
X169572420Y-90698652D01*
X169572287Y-90698390D01*
X169540092Y-90654077D01*
X169451971Y-90532786D01*
X169307213Y-90388028D01*
X169141613Y-90267715D01*
X169141612Y-90267714D01*
X169141610Y-90267713D01*
X169081898Y-90237288D01*
X168959223Y-90174781D01*
X168764534Y-90111522D01*
X168589995Y-90083878D01*
X168562352Y-90079500D01*
X168357648Y-90079500D01*
X168333329Y-90083351D01*
X168155465Y-90111522D01*
X167960776Y-90174781D01*
X167778386Y-90267715D01*
X167612786Y-90388028D01*
X167468028Y-90532786D01*
X167347715Y-90698386D01*
X167300485Y-90791080D01*
X167252510Y-90841876D01*
X167184689Y-90858671D01*
X167118554Y-90836134D01*
X167079515Y-90791080D01*
X167032420Y-90698652D01*
X167032287Y-90698390D01*
X167000092Y-90654077D01*
X166911971Y-90532786D01*
X166767213Y-90388028D01*
X166601613Y-90267715D01*
X166601612Y-90267714D01*
X166601610Y-90267713D01*
X166541898Y-90237288D01*
X166419223Y-90174781D01*
X166224534Y-90111522D01*
X166049995Y-90083878D01*
X166022352Y-90079500D01*
X165817648Y-90079500D01*
X165793329Y-90083351D01*
X165615465Y-90111522D01*
X165420776Y-90174781D01*
X165238386Y-90267715D01*
X165072786Y-90388028D01*
X164928028Y-90532786D01*
X164807713Y-90698388D01*
X164760203Y-90791630D01*
X164712228Y-90842426D01*
X164644407Y-90859220D01*
X164578272Y-90836682D01*
X164539234Y-90791628D01*
X164491861Y-90698652D01*
X164459474Y-90654077D01*
X164459474Y-90654076D01*
X163780000Y-91333551D01*
X163780000Y-91327339D01*
X163752741Y-91225606D01*
X163700080Y-91134394D01*
X163625606Y-91059920D01*
X163534394Y-91007259D01*
X163432661Y-90980000D01*
X163426446Y-90980000D01*
X164105922Y-90300524D01*
X164105921Y-90300523D01*
X164061359Y-90268147D01*
X164061350Y-90268141D01*
X163879031Y-90175244D01*
X163684417Y-90112009D01*
X163482317Y-90080000D01*
X163277683Y-90080000D01*
X163075582Y-90112009D01*
X162880968Y-90175244D01*
X162698644Y-90268143D01*
X162654077Y-90300523D01*
X162654077Y-90300524D01*
X163333554Y-90980000D01*
X163327339Y-90980000D01*
X163225606Y-91007259D01*
X163134394Y-91059920D01*
X163059920Y-91134394D01*
X163007259Y-91225606D01*
X162980000Y-91327339D01*
X162980000Y-91333553D01*
X162300524Y-90654077D01*
X162300523Y-90654077D01*
X162268143Y-90698644D01*
X162220765Y-90791630D01*
X162172790Y-90842426D01*
X162104969Y-90859221D01*
X162038834Y-90836683D01*
X161999795Y-90791630D01*
X161952284Y-90698385D01*
X161831971Y-90532786D01*
X161687213Y-90388028D01*
X161521613Y-90267715D01*
X161521612Y-90267714D01*
X161521610Y-90267713D01*
X161461898Y-90237288D01*
X161339223Y-90174781D01*
X161144534Y-90111522D01*
X160969995Y-90083878D01*
X160942352Y-90079500D01*
X160737648Y-90079500D01*
X160713329Y-90083351D01*
X160535465Y-90111522D01*
X160340776Y-90174781D01*
X160158386Y-90267715D01*
X159992786Y-90388028D01*
X159848028Y-90532786D01*
X159727715Y-90698386D01*
X159680485Y-90791080D01*
X159632510Y-90841876D01*
X159564689Y-90858671D01*
X159498554Y-90836134D01*
X159459515Y-90791080D01*
X159412420Y-90698652D01*
X159412287Y-90698390D01*
X159380092Y-90654077D01*
X159291971Y-90532786D01*
X159147213Y-90388028D01*
X158981613Y-90267715D01*
X158981612Y-90267714D01*
X158981610Y-90267713D01*
X158921898Y-90237288D01*
X158799223Y-90174781D01*
X158604534Y-90111522D01*
X158429995Y-90083878D01*
X158402352Y-90079500D01*
X158197648Y-90079500D01*
X158173329Y-90083351D01*
X157995465Y-90111522D01*
X157800776Y-90174781D01*
X157618386Y-90267715D01*
X157452786Y-90388028D01*
X157308028Y-90532786D01*
X157187715Y-90698386D01*
X157140485Y-90791080D01*
X157092510Y-90841876D01*
X157024689Y-90858671D01*
X156958554Y-90836134D01*
X156919515Y-90791080D01*
X156872420Y-90698652D01*
X156872287Y-90698390D01*
X156840092Y-90654077D01*
X156751971Y-90532786D01*
X156607213Y-90388028D01*
X156441613Y-90267715D01*
X156441612Y-90267714D01*
X156441610Y-90267713D01*
X156381898Y-90237288D01*
X156259223Y-90174781D01*
X156064534Y-90111522D01*
X155889995Y-90083878D01*
X155862352Y-90079500D01*
X155657648Y-90079500D01*
X155633329Y-90083351D01*
X155455465Y-90111522D01*
X155260776Y-90174781D01*
X155078386Y-90267715D01*
X154912786Y-90388028D01*
X154768028Y-90532786D01*
X154647715Y-90698386D01*
X154600485Y-90791080D01*
X154552510Y-90841876D01*
X154484689Y-90858671D01*
X154418554Y-90836134D01*
X154379515Y-90791080D01*
X154332420Y-90698652D01*
X154332287Y-90698390D01*
X154300092Y-90654077D01*
X154211971Y-90532786D01*
X154067213Y-90388028D01*
X153901613Y-90267715D01*
X153901612Y-90267714D01*
X153901610Y-90267713D01*
X153841898Y-90237288D01*
X153719223Y-90174781D01*
X153524534Y-90111522D01*
X153349995Y-90083878D01*
X153322352Y-90079500D01*
X153117648Y-90079500D01*
X153093329Y-90083351D01*
X152915465Y-90111522D01*
X152720776Y-90174781D01*
X152538386Y-90267715D01*
X152372786Y-90388028D01*
X152228028Y-90532786D01*
X152107715Y-90698386D01*
X152060485Y-90791080D01*
X152012510Y-90841876D01*
X151944689Y-90858671D01*
X151878554Y-90836134D01*
X151839515Y-90791080D01*
X151792420Y-90698652D01*
X151792287Y-90698390D01*
X151760092Y-90654077D01*
X151671971Y-90532786D01*
X151527213Y-90388028D01*
X151361613Y-90267715D01*
X151361612Y-90267714D01*
X151361610Y-90267713D01*
X151301898Y-90237288D01*
X151179223Y-90174781D01*
X150984534Y-90111522D01*
X150809995Y-90083878D01*
X150782352Y-90079500D01*
X150577648Y-90079500D01*
X150553329Y-90083351D01*
X150375465Y-90111522D01*
X150180776Y-90174781D01*
X149998386Y-90267715D01*
X149832786Y-90388028D01*
X149688032Y-90532782D01*
X149688028Y-90532787D01*
X149619978Y-90626451D01*
X149564648Y-90669117D01*
X149495035Y-90675096D01*
X149433240Y-90642490D01*
X149401954Y-90592570D01*
X149382144Y-90532787D01*
X149374814Y-90510666D01*
X149282712Y-90361344D01*
X149158656Y-90237288D01*
X149009334Y-90145186D01*
X148842797Y-90090001D01*
X148842795Y-90090000D01*
X148740010Y-90079500D01*
X147539998Y-90079500D01*
X147539981Y-90079501D01*
X147437203Y-90090000D01*
X147437200Y-90090001D01*
X147270668Y-90145185D01*
X147270663Y-90145187D01*
X147121342Y-90237289D01*
X146997289Y-90361342D01*
X146905187Y-90510663D01*
X146905186Y-90510666D01*
X146850001Y-90677203D01*
X146850001Y-90677204D01*
X146850000Y-90677204D01*
X146839500Y-90779983D01*
X100500500Y-90779983D01*
X100500500Y-88131902D01*
X136249500Y-88131902D01*
X136249500Y-88368097D01*
X136286446Y-88601368D01*
X136359433Y-88825996D01*
X136407921Y-88921158D01*
X136466657Y-89036433D01*
X136605483Y-89227510D01*
X136772490Y-89394517D01*
X136963567Y-89533343D01*
X137062991Y-89584002D01*
X137174003Y-89640566D01*
X137174005Y-89640566D01*
X137174008Y-89640568D01*
X137294412Y-89679689D01*
X137398631Y-89713553D01*
X137631903Y-89750500D01*
X137631908Y-89750500D01*
X137868097Y-89750500D01*
X138101368Y-89713553D01*
X138114180Y-89709390D01*
X138325992Y-89640568D01*
X138536433Y-89533343D01*
X138727510Y-89394517D01*
X138894517Y-89227510D01*
X139033343Y-89036433D01*
X139140568Y-88825992D01*
X139213553Y-88601368D01*
X139231238Y-88489711D01*
X139250500Y-88368097D01*
X139250500Y-88131902D01*
X142749500Y-88131902D01*
X142749500Y-88368097D01*
X142786446Y-88601368D01*
X142859433Y-88825996D01*
X142907921Y-88921158D01*
X142966657Y-89036433D01*
X143105483Y-89227510D01*
X143272490Y-89394517D01*
X143463567Y-89533343D01*
X143562991Y-89584002D01*
X143674003Y-89640566D01*
X143674005Y-89640566D01*
X143674008Y-89640568D01*
X143794412Y-89679689D01*
X143898631Y-89713553D01*
X144131903Y-89750500D01*
X144131908Y-89750500D01*
X144368097Y-89750500D01*
X144601368Y-89713553D01*
X144614180Y-89709390D01*
X144825992Y-89640568D01*
X145036433Y-89533343D01*
X145227510Y-89394517D01*
X145394517Y-89227510D01*
X145533343Y-89036433D01*
X145592081Y-88921153D01*
X177199500Y-88921153D01*
X177199500Y-89078846D01*
X177230261Y-89233489D01*
X177230264Y-89233501D01*
X177290602Y-89379172D01*
X177290609Y-89379185D01*
X177378210Y-89510288D01*
X177378213Y-89510292D01*
X177489707Y-89621786D01*
X177489711Y-89621789D01*
X177620814Y-89709390D01*
X177620827Y-89709397D01*
X177720060Y-89750500D01*
X177766503Y-89769737D01*
X177921153Y-89800499D01*
X177921156Y-89800500D01*
X177921158Y-89800500D01*
X178078844Y-89800500D01*
X178078845Y-89800499D01*
X178233497Y-89769737D01*
X178379179Y-89709394D01*
X178510289Y-89621789D01*
X178621789Y-89510289D01*
X178709394Y-89379179D01*
X178769737Y-89233497D01*
X178800500Y-89078842D01*
X178800500Y-88921158D01*
X178800500Y-88921155D01*
X178800499Y-88921153D01*
X178769738Y-88766510D01*
X178769737Y-88766503D01*
X178769735Y-88766498D01*
X178709397Y-88620827D01*
X178709390Y-88620814D01*
X178621789Y-88489711D01*
X178621786Y-88489707D01*
X178510292Y-88378213D01*
X178510288Y-88378210D01*
X178379185Y-88290609D01*
X178379172Y-88290602D01*
X178233501Y-88230264D01*
X178233489Y-88230261D01*
X178078845Y-88199500D01*
X178078842Y-88199500D01*
X177921158Y-88199500D01*
X177921155Y-88199500D01*
X177766510Y-88230261D01*
X177766498Y-88230264D01*
X177620827Y-88290602D01*
X177620814Y-88290609D01*
X177489711Y-88378210D01*
X177489707Y-88378213D01*
X177378213Y-88489707D01*
X177378210Y-88489711D01*
X177290609Y-88620814D01*
X177290602Y-88620827D01*
X177230264Y-88766498D01*
X177230261Y-88766510D01*
X177199500Y-88921153D01*
X145592081Y-88921153D01*
X145640568Y-88825992D01*
X145713553Y-88601368D01*
X145731238Y-88489711D01*
X145750500Y-88368097D01*
X145750500Y-88131902D01*
X145713553Y-87898631D01*
X145640566Y-87674003D01*
X145584002Y-87562991D01*
X145533343Y-87463567D01*
X145394517Y-87272490D01*
X145227510Y-87105483D01*
X145036433Y-86966657D01*
X144908707Y-86901577D01*
X167369500Y-86901577D01*
X167369500Y-87098422D01*
X167400290Y-87292826D01*
X167461117Y-87480029D01*
X167550476Y-87655405D01*
X167666172Y-87814646D01*
X167805354Y-87953828D01*
X167964595Y-88069524D01*
X168047455Y-88111743D01*
X168139970Y-88158882D01*
X168139972Y-88158882D01*
X168139975Y-88158884D01*
X168240317Y-88191487D01*
X168327173Y-88219709D01*
X168521578Y-88250500D01*
X168521583Y-88250500D01*
X168718422Y-88250500D01*
X168912826Y-88219709D01*
X169100025Y-88158884D01*
X169275405Y-88069524D01*
X169434646Y-87953828D01*
X169573828Y-87814646D01*
X169689524Y-87655405D01*
X169778884Y-87480025D01*
X169839709Y-87292826D01*
X169869381Y-87105485D01*
X169870500Y-87098422D01*
X169870500Y-86901577D01*
X172249500Y-86901577D01*
X172249500Y-87098422D01*
X172280290Y-87292826D01*
X172341117Y-87480029D01*
X172430476Y-87655405D01*
X172546172Y-87814646D01*
X172685354Y-87953828D01*
X172844595Y-88069524D01*
X172927455Y-88111743D01*
X173019970Y-88158882D01*
X173019972Y-88158882D01*
X173019975Y-88158884D01*
X173120317Y-88191487D01*
X173207173Y-88219709D01*
X173401578Y-88250500D01*
X173401583Y-88250500D01*
X173598422Y-88250500D01*
X173792826Y-88219709D01*
X173980025Y-88158884D01*
X174155405Y-88069524D01*
X174314646Y-87953828D01*
X174453828Y-87814646D01*
X174569524Y-87655405D01*
X174658884Y-87480025D01*
X174719709Y-87292826D01*
X174749381Y-87105485D01*
X174750500Y-87098422D01*
X174750500Y-86901577D01*
X174719709Y-86707173D01*
X174658882Y-86519970D01*
X174587145Y-86379179D01*
X174569524Y-86344595D01*
X174453828Y-86185354D01*
X174314646Y-86046172D01*
X174155405Y-85930476D01*
X174137117Y-85921158D01*
X174137107Y-85921153D01*
X176699500Y-85921153D01*
X176699500Y-86078846D01*
X176730261Y-86233489D01*
X176730264Y-86233501D01*
X176790602Y-86379172D01*
X176790609Y-86379185D01*
X176878210Y-86510288D01*
X176878213Y-86510292D01*
X176989707Y-86621786D01*
X176989711Y-86621789D01*
X177120814Y-86709390D01*
X177120827Y-86709397D01*
X177217646Y-86749500D01*
X177266503Y-86769737D01*
X177421153Y-86800499D01*
X177421156Y-86800500D01*
X177421158Y-86800500D01*
X177578844Y-86800500D01*
X177578845Y-86800499D01*
X177733497Y-86769737D01*
X177879179Y-86709394D01*
X178010289Y-86621789D01*
X178121789Y-86510289D01*
X178209394Y-86379179D01*
X178269737Y-86233497D01*
X178300500Y-86078842D01*
X178300500Y-85921158D01*
X178300500Y-85921155D01*
X178300499Y-85921153D01*
X178284579Y-85841117D01*
X178269737Y-85766503D01*
X178246452Y-85710288D01*
X178209397Y-85620827D01*
X178209390Y-85620814D01*
X178121789Y-85489711D01*
X178121786Y-85489707D01*
X178010292Y-85378213D01*
X178010288Y-85378210D01*
X177879185Y-85290609D01*
X177879172Y-85290602D01*
X177733501Y-85230264D01*
X177733489Y-85230261D01*
X177578845Y-85199500D01*
X177578842Y-85199500D01*
X177421158Y-85199500D01*
X177421155Y-85199500D01*
X177266510Y-85230261D01*
X177266498Y-85230264D01*
X177120827Y-85290602D01*
X177120814Y-85290609D01*
X176989711Y-85378210D01*
X176989707Y-85378213D01*
X176878213Y-85489707D01*
X176878210Y-85489711D01*
X176790609Y-85620814D01*
X176790602Y-85620827D01*
X176730264Y-85766498D01*
X176730261Y-85766510D01*
X176699500Y-85921153D01*
X174137107Y-85921153D01*
X173980029Y-85841117D01*
X173792826Y-85780290D01*
X173598422Y-85749500D01*
X173598417Y-85749500D01*
X173401583Y-85749500D01*
X173401578Y-85749500D01*
X173207173Y-85780290D01*
X173019970Y-85841117D01*
X172844594Y-85930476D01*
X172753741Y-85996485D01*
X172685354Y-86046172D01*
X172685352Y-86046174D01*
X172685351Y-86046174D01*
X172546174Y-86185351D01*
X172546174Y-86185352D01*
X172546172Y-86185354D01*
X172511200Y-86233489D01*
X172430476Y-86344594D01*
X172341117Y-86519970D01*
X172280290Y-86707173D01*
X172249500Y-86901577D01*
X169870500Y-86901577D01*
X169839709Y-86707173D01*
X169778882Y-86519970D01*
X169707145Y-86379179D01*
X169689524Y-86344595D01*
X169573828Y-86185354D01*
X169434646Y-86046172D01*
X169275405Y-85930476D01*
X169257117Y-85921158D01*
X169100029Y-85841117D01*
X168912826Y-85780290D01*
X168718422Y-85749500D01*
X168718417Y-85749500D01*
X168521583Y-85749500D01*
X168521578Y-85749500D01*
X168327173Y-85780290D01*
X168139970Y-85841117D01*
X167964594Y-85930476D01*
X167873741Y-85996485D01*
X167805354Y-86046172D01*
X167805352Y-86046174D01*
X167805351Y-86046174D01*
X167666174Y-86185351D01*
X167666174Y-86185352D01*
X167666172Y-86185354D01*
X167631200Y-86233489D01*
X167550476Y-86344594D01*
X167461117Y-86519970D01*
X167400290Y-86707173D01*
X167369500Y-86901577D01*
X144908707Y-86901577D01*
X144825996Y-86859433D01*
X144601368Y-86786446D01*
X144368097Y-86749500D01*
X144368092Y-86749500D01*
X144131908Y-86749500D01*
X144131903Y-86749500D01*
X143898631Y-86786446D01*
X143674003Y-86859433D01*
X143463566Y-86966657D01*
X143354550Y-87045862D01*
X143272490Y-87105483D01*
X143272488Y-87105485D01*
X143272487Y-87105485D01*
X143105485Y-87272487D01*
X143105485Y-87272488D01*
X143105483Y-87272490D01*
X143090708Y-87292826D01*
X142966657Y-87463566D01*
X142859433Y-87674003D01*
X142786446Y-87898631D01*
X142749500Y-88131902D01*
X139250500Y-88131902D01*
X139213553Y-87898631D01*
X139140566Y-87674003D01*
X139084002Y-87562991D01*
X139033343Y-87463567D01*
X138894517Y-87272490D01*
X138727510Y-87105483D01*
X138536433Y-86966657D01*
X138325996Y-86859433D01*
X138101368Y-86786446D01*
X137868097Y-86749500D01*
X137868092Y-86749500D01*
X137631908Y-86749500D01*
X137631903Y-86749500D01*
X137398631Y-86786446D01*
X137174003Y-86859433D01*
X136963566Y-86966657D01*
X136854550Y-87045862D01*
X136772490Y-87105483D01*
X136772488Y-87105485D01*
X136772487Y-87105485D01*
X136605485Y-87272487D01*
X136605485Y-87272488D01*
X136605483Y-87272490D01*
X136590708Y-87292826D01*
X136466657Y-87463566D01*
X136359433Y-87674003D01*
X136286446Y-87898631D01*
X136249500Y-88131902D01*
X100500500Y-88131902D01*
X100500500Y-85121153D01*
X153099500Y-85121153D01*
X153099500Y-85278846D01*
X153130261Y-85433489D01*
X153130264Y-85433501D01*
X153190602Y-85579172D01*
X153190609Y-85579185D01*
X153278210Y-85710288D01*
X153278213Y-85710292D01*
X153389707Y-85821786D01*
X153389711Y-85821789D01*
X153520814Y-85909390D01*
X153520827Y-85909397D01*
X153666498Y-85969735D01*
X153666503Y-85969737D01*
X153821153Y-86000499D01*
X153821156Y-86000500D01*
X153821158Y-86000500D01*
X153978844Y-86000500D01*
X153978845Y-86000499D01*
X154133497Y-85969737D01*
X154279179Y-85909394D01*
X154410289Y-85821789D01*
X154521789Y-85710289D01*
X154609394Y-85579179D01*
X154669737Y-85433497D01*
X154700500Y-85278842D01*
X154700500Y-85121158D01*
X154700500Y-85121155D01*
X154700499Y-85121153D01*
X154669738Y-84966510D01*
X154669737Y-84966503D01*
X154669735Y-84966498D01*
X154609397Y-84820827D01*
X154609390Y-84820814D01*
X154521789Y-84689711D01*
X154521786Y-84689707D01*
X154410292Y-84578213D01*
X154410288Y-84578210D01*
X154279185Y-84490609D01*
X154279172Y-84490602D01*
X154133501Y-84430264D01*
X154133489Y-84430261D01*
X153978845Y-84399500D01*
X153978842Y-84399500D01*
X153821158Y-84399500D01*
X153821155Y-84399500D01*
X153666510Y-84430261D01*
X153666498Y-84430264D01*
X153520827Y-84490602D01*
X153520814Y-84490609D01*
X153389711Y-84578210D01*
X153389707Y-84578213D01*
X153278213Y-84689707D01*
X153278210Y-84689711D01*
X153190609Y-84820814D01*
X153190602Y-84820827D01*
X153130264Y-84966498D01*
X153130261Y-84966510D01*
X153099500Y-85121153D01*
X100500500Y-85121153D01*
X100500500Y-83421153D01*
X154699500Y-83421153D01*
X154699500Y-83578846D01*
X154730261Y-83733489D01*
X154730264Y-83733501D01*
X154790602Y-83879172D01*
X154790609Y-83879185D01*
X154878210Y-84010288D01*
X154878213Y-84010292D01*
X154989707Y-84121786D01*
X154989711Y-84121789D01*
X155120814Y-84209390D01*
X155120827Y-84209397D01*
X155266498Y-84269735D01*
X155266503Y-84269737D01*
X155421153Y-84300499D01*
X155421156Y-84300500D01*
X155421158Y-84300500D01*
X155578844Y-84300500D01*
X155578845Y-84300499D01*
X155733497Y-84269737D01*
X155879179Y-84209394D01*
X156010289Y-84121789D01*
X156121789Y-84010289D01*
X156209394Y-83879179D01*
X156269737Y-83733497D01*
X156300500Y-83578842D01*
X156300500Y-83421158D01*
X156300500Y-83421155D01*
X156300499Y-83421153D01*
X156269738Y-83266510D01*
X156269737Y-83266503D01*
X156209794Y-83121786D01*
X156209397Y-83120827D01*
X156209390Y-83120814D01*
X156121789Y-82989711D01*
X156121786Y-82989707D01*
X156010292Y-82878213D01*
X156010288Y-82878210D01*
X155879185Y-82790609D01*
X155879172Y-82790602D01*
X155733501Y-82730264D01*
X155733489Y-82730261D01*
X155578845Y-82699500D01*
X155578842Y-82699500D01*
X155421158Y-82699500D01*
X155421155Y-82699500D01*
X155266510Y-82730261D01*
X155266498Y-82730264D01*
X155120827Y-82790602D01*
X155120814Y-82790609D01*
X154989711Y-82878210D01*
X154989707Y-82878213D01*
X154878213Y-82989707D01*
X154878210Y-82989711D01*
X154790609Y-83120814D01*
X154790602Y-83120827D01*
X154730264Y-83266498D01*
X154730261Y-83266510D01*
X154699500Y-83421153D01*
X100500500Y-83421153D01*
X100500500Y-82421153D01*
X145699500Y-82421153D01*
X145699500Y-82578846D01*
X145730261Y-82733489D01*
X145730264Y-82733501D01*
X145790602Y-82879172D01*
X145790609Y-82879185D01*
X145878210Y-83010288D01*
X145878213Y-83010292D01*
X145989707Y-83121786D01*
X145989711Y-83121789D01*
X146120814Y-83209390D01*
X146120827Y-83209397D01*
X146258683Y-83266498D01*
X146266503Y-83269737D01*
X146421153Y-83300499D01*
X146421156Y-83300500D01*
X146421158Y-83300500D01*
X146578844Y-83300500D01*
X146578845Y-83300499D01*
X146589179Y-83298443D01*
X146614287Y-83293450D01*
X146614292Y-83293449D01*
X146699800Y-83276439D01*
X146733497Y-83269737D01*
X146879179Y-83209394D01*
X147010289Y-83121789D01*
X147121789Y-83010289D01*
X147209394Y-82879179D01*
X147213803Y-82868536D01*
X147245430Y-82792179D01*
X147269737Y-82733497D01*
X147300500Y-82578842D01*
X147300500Y-82421158D01*
X147300500Y-82421155D01*
X147300499Y-82421153D01*
X147281798Y-82327139D01*
X147269737Y-82266503D01*
X147258237Y-82238739D01*
X147209397Y-82120827D01*
X147209390Y-82120814D01*
X147121789Y-81989711D01*
X147121786Y-81989707D01*
X147010292Y-81878213D01*
X147010288Y-81878210D01*
X146879185Y-81790609D01*
X146879172Y-81790602D01*
X146733501Y-81730264D01*
X146733489Y-81730261D01*
X146578845Y-81699500D01*
X146578842Y-81699500D01*
X146421158Y-81699500D01*
X146421155Y-81699500D01*
X146266510Y-81730261D01*
X146266498Y-81730264D01*
X146120827Y-81790602D01*
X146120814Y-81790609D01*
X145989711Y-81878210D01*
X145989707Y-81878213D01*
X145878213Y-81989707D01*
X145878210Y-81989711D01*
X145790609Y-82120814D01*
X145790602Y-82120827D01*
X145730264Y-82266498D01*
X145730261Y-82266510D01*
X145699500Y-82421153D01*
X100500500Y-82421153D01*
X100500500Y-81648543D01*
X147679499Y-81648543D01*
X147717947Y-81841829D01*
X147717950Y-81841839D01*
X147793364Y-82023907D01*
X147793371Y-82023920D01*
X147902860Y-82187781D01*
X147902863Y-82187785D01*
X148042214Y-82327136D01*
X148042218Y-82327139D01*
X148206079Y-82436628D01*
X148206092Y-82436635D01*
X148334221Y-82489707D01*
X148388165Y-82512051D01*
X148388169Y-82512051D01*
X148388170Y-82512052D01*
X148581456Y-82550500D01*
X148581459Y-82550500D01*
X148778543Y-82550500D01*
X148922316Y-82521901D01*
X148971835Y-82512051D01*
X149153914Y-82436632D01*
X149317782Y-82327139D01*
X149457139Y-82187782D01*
X149566632Y-82023914D01*
X149642051Y-81841835D01*
X149676666Y-81667816D01*
X149680500Y-81648543D01*
X149680500Y-81131333D01*
X149700185Y-81064294D01*
X149752989Y-81018539D01*
X149822147Y-81008595D01*
X149866501Y-81023947D01*
X149887859Y-81036278D01*
X149887860Y-81036278D01*
X149887865Y-81036281D01*
X150034234Y-81075500D01*
X150034236Y-81075500D01*
X150185764Y-81075500D01*
X150185766Y-81075500D01*
X150332135Y-81036281D01*
X150463365Y-80960515D01*
X150570515Y-80853365D01*
X150646281Y-80722135D01*
X150685500Y-80575766D01*
X150685500Y-80424234D01*
X150646281Y-80277865D01*
X150646279Y-80277861D01*
X150645822Y-80277069D01*
X150645821Y-80277067D01*
X150645820Y-80277066D01*
X150613538Y-80221153D01*
X150999500Y-80221153D01*
X150999500Y-80378846D01*
X151030261Y-80533489D01*
X151030264Y-80533501D01*
X151090602Y-80679172D01*
X151090609Y-80679185D01*
X151178210Y-80810288D01*
X151178213Y-80810292D01*
X151289707Y-80921786D01*
X151289711Y-80921789D01*
X151420814Y-81009390D01*
X151420827Y-81009397D01*
X151485732Y-81036281D01*
X151566503Y-81069737D01*
X151721153Y-81100499D01*
X151721156Y-81100500D01*
X151721158Y-81100500D01*
X151878844Y-81100500D01*
X151878845Y-81100499D01*
X152033497Y-81069737D01*
X152179179Y-81009394D01*
X152310289Y-80921789D01*
X152421789Y-80810289D01*
X152509394Y-80679179D01*
X152569737Y-80533497D01*
X152591471Y-80424234D01*
X155314500Y-80424234D01*
X155314500Y-80575765D01*
X155353719Y-80722136D01*
X155391602Y-80787750D01*
X155429485Y-80853365D01*
X155536635Y-80960515D01*
X155619912Y-81008595D01*
X155667861Y-81036279D01*
X155667865Y-81036281D01*
X155814234Y-81075500D01*
X155814236Y-81075500D01*
X155965764Y-81075500D01*
X155965766Y-81075500D01*
X156112135Y-81036281D01*
X156122451Y-81030325D01*
X156133499Y-81023947D01*
X156201398Y-81007473D01*
X156267426Y-81030325D01*
X156310617Y-81085245D01*
X156319500Y-81131333D01*
X156319500Y-81648541D01*
X156319500Y-81648543D01*
X156319499Y-81648543D01*
X156357947Y-81841829D01*
X156357950Y-81841839D01*
X156433364Y-82023907D01*
X156433371Y-82023920D01*
X156542860Y-82187781D01*
X156542863Y-82187785D01*
X156682214Y-82327136D01*
X156682222Y-82327142D01*
X156789711Y-82398964D01*
X156834517Y-82452576D01*
X156843224Y-82521901D01*
X156823924Y-82570956D01*
X156790608Y-82620816D01*
X156790602Y-82620827D01*
X156730264Y-82766498D01*
X156730261Y-82766510D01*
X156699500Y-82921153D01*
X156699500Y-83078846D01*
X156730261Y-83233489D01*
X156730264Y-83233501D01*
X156790602Y-83379172D01*
X156790609Y-83379185D01*
X156878210Y-83510288D01*
X156878213Y-83510292D01*
X156989707Y-83621786D01*
X156989711Y-83621789D01*
X157120814Y-83709390D01*
X157120827Y-83709397D01*
X157266498Y-83769735D01*
X157266503Y-83769737D01*
X157421153Y-83800499D01*
X157421156Y-83800500D01*
X157421158Y-83800500D01*
X157578844Y-83800500D01*
X157578845Y-83800499D01*
X157733497Y-83769737D01*
X157879179Y-83709394D01*
X158010289Y-83621789D01*
X158121789Y-83510289D01*
X158209394Y-83379179D01*
X158269737Y-83233497D01*
X158300500Y-83078842D01*
X158300500Y-82921158D01*
X158300500Y-82921155D01*
X158300499Y-82921153D01*
X158286692Y-82851742D01*
X158269737Y-82766503D01*
X158256062Y-82733489D01*
X158209397Y-82620827D01*
X158209390Y-82620814D01*
X158121789Y-82489711D01*
X158121786Y-82489707D01*
X158046181Y-82414102D01*
X158012696Y-82352779D01*
X158017680Y-82283087D01*
X158046182Y-82238739D01*
X158097136Y-82187785D01*
X158097139Y-82187782D01*
X158206632Y-82023914D01*
X158282051Y-81841835D01*
X158316666Y-81667816D01*
X158320500Y-81648543D01*
X158320500Y-80351456D01*
X158282052Y-80158170D01*
X158282051Y-80158169D01*
X158282051Y-80158165D01*
X158277274Y-80146632D01*
X158206635Y-79976092D01*
X158206628Y-79976079D01*
X158097139Y-79812218D01*
X158097136Y-79812214D01*
X157957785Y-79672863D01*
X157957781Y-79672860D01*
X157793920Y-79563371D01*
X157793907Y-79563364D01*
X157611839Y-79487950D01*
X157611829Y-79487947D01*
X157418543Y-79449500D01*
X157418541Y-79449500D01*
X157221459Y-79449500D01*
X157221457Y-79449500D01*
X157028170Y-79487947D01*
X157028160Y-79487950D01*
X156846092Y-79563364D01*
X156846079Y-79563371D01*
X156682218Y-79672860D01*
X156682214Y-79672863D01*
X156542863Y-79812214D01*
X156542860Y-79812218D01*
X156433371Y-79976079D01*
X156433363Y-79976094D01*
X156429456Y-79985528D01*
X156385615Y-80039931D01*
X156319320Y-80061995D01*
X156251621Y-80044715D01*
X156246968Y-80041566D01*
X156243366Y-80039486D01*
X156243365Y-80039485D01*
X156149899Y-79985522D01*
X156112136Y-79963719D01*
X156017709Y-79938418D01*
X155965766Y-79924500D01*
X155814234Y-79924500D01*
X155667863Y-79963719D01*
X155536635Y-80039485D01*
X155536632Y-80039487D01*
X155429487Y-80146632D01*
X155429485Y-80146635D01*
X155353719Y-80277863D01*
X155314500Y-80424234D01*
X152591471Y-80424234D01*
X152597900Y-80391916D01*
X152597900Y-80391915D01*
X152600500Y-80378844D01*
X152600500Y-80221155D01*
X152600499Y-80221153D01*
X152585676Y-80146632D01*
X152569737Y-80066503D01*
X152541071Y-79997297D01*
X152509397Y-79920827D01*
X152509390Y-79920814D01*
X152421789Y-79789711D01*
X152421786Y-79789707D01*
X152310292Y-79678213D01*
X152310288Y-79678210D01*
X152179185Y-79590609D01*
X152179172Y-79590602D01*
X152033501Y-79530264D01*
X152033489Y-79530261D01*
X151878845Y-79499500D01*
X151878842Y-79499500D01*
X151721158Y-79499500D01*
X151721155Y-79499500D01*
X151566510Y-79530261D01*
X151566498Y-79530264D01*
X151420827Y-79590602D01*
X151420814Y-79590609D01*
X151289711Y-79678210D01*
X151289707Y-79678213D01*
X151178213Y-79789707D01*
X151178210Y-79789711D01*
X151090609Y-79920814D01*
X151090602Y-79920827D01*
X151030264Y-80066498D01*
X151030261Y-80066510D01*
X150999500Y-80221153D01*
X150613538Y-80221153D01*
X150570515Y-80146635D01*
X150463365Y-80039485D01*
X150390294Y-79997297D01*
X150332136Y-79963719D01*
X150237709Y-79938418D01*
X150185766Y-79924500D01*
X150034234Y-79924500D01*
X149887863Y-79963719D01*
X149796428Y-80016510D01*
X149756635Y-80039485D01*
X149756633Y-80039486D01*
X149749597Y-80043549D01*
X149748254Y-80041224D01*
X149695391Y-80061647D01*
X149626949Y-80047592D01*
X149576971Y-79998766D01*
X149570540Y-79985522D01*
X149566632Y-79976087D01*
X149566628Y-79976079D01*
X149457139Y-79812218D01*
X149457136Y-79812214D01*
X149317785Y-79672863D01*
X149317781Y-79672860D01*
X149153920Y-79563371D01*
X149153907Y-79563364D01*
X148971839Y-79487950D01*
X148971829Y-79487947D01*
X148778543Y-79449500D01*
X148778541Y-79449500D01*
X148581459Y-79449500D01*
X148581457Y-79449500D01*
X148388170Y-79487947D01*
X148388160Y-79487950D01*
X148206092Y-79563364D01*
X148206079Y-79563371D01*
X148042218Y-79672860D01*
X148042214Y-79672863D01*
X147902863Y-79812214D01*
X147902860Y-79812218D01*
X147793371Y-79976079D01*
X147793364Y-79976092D01*
X147717950Y-80158160D01*
X147717947Y-80158170D01*
X147679500Y-80351456D01*
X147679500Y-80351459D01*
X147679500Y-81648541D01*
X147679500Y-81648543D01*
X147679499Y-81648543D01*
X100500500Y-81648543D01*
X100500500Y-80002706D01*
X100500618Y-79997297D01*
X100503957Y-79920814D01*
X100517387Y-79613224D01*
X100518325Y-79602496D01*
X100568151Y-79224032D01*
X100570024Y-79213402D01*
X100652648Y-78840714D01*
X100655446Y-78830276D01*
X100658655Y-78820099D01*
X100770230Y-78466227D01*
X100773917Y-78456095D01*
X100920003Y-78103412D01*
X100924561Y-78093638D01*
X101100822Y-77755045D01*
X101106217Y-77745700D01*
X101311325Y-77423744D01*
X101317515Y-77414905D01*
X101549896Y-77112060D01*
X101556834Y-77103791D01*
X101814726Y-76822352D01*
X101822352Y-76814726D01*
X102103791Y-76556834D01*
X102112060Y-76549896D01*
X102414905Y-76317515D01*
X102423744Y-76311325D01*
X102745700Y-76106217D01*
X102755045Y-76100822D01*
X103093638Y-75924561D01*
X103103412Y-75920003D01*
X103456095Y-75773917D01*
X103466227Y-75770230D01*
X103830285Y-75655443D01*
X103840714Y-75652648D01*
X104213402Y-75570024D01*
X104224032Y-75568151D01*
X104602496Y-75518325D01*
X104613224Y-75517387D01*
X104997297Y-75500617D01*
X105002706Y-75500500D01*
X105065892Y-75500500D01*
X147885216Y-75500500D01*
X147952255Y-75520185D01*
G37*
%TD.AperFunction*%
%TD*%
M02*
