M48
; DRILL file KiCad 10.0.5 date 2026-09-08T09:33:33
; FORMAT={-:-/ absolute / metric / decimal}
; #@! TF.CreationDate,2026-09-08T09:33:33-05:00
; #@! TF.GenerationSoftware,Kicad,Pcbnew,10.0.5
; #@! TF.FileFunction,Plated,1,4,PTH
FMAT,2
METRIC
; #@! TA.AperFunction,Plated,PTH,ViaDrill
T1C0.300
; #@! TA.AperFunction,Plated,PTH,ComponentDrill
T2C0.600
; #@! TA.AperFunction,Plated,PTH,ComponentDrill
T3C0.800
; #@! TA.AperFunction,Plated,PTH,ComponentDrill
T4C0.900
; #@! TA.AperFunction,Plated,PTH,ComponentDrill
T5C1.000
; #@! TA.AperFunction,Plated,PTH,ComponentDrill
T6C1.100
; #@! TA.AperFunction,Plated,PTH,ComponentDrill
T7C1.200
; #@! TA.AperFunction,Plated,PTH,ComponentDrill
T8C2.500
%
G90
G05
T1
X125.0Y-106.5
X127.0Y-101.0
X130.5Y-98.5
X132.5Y-95.5
X146.5Y-82.5
X147.5Y-86.0
X151.8Y-80.3
X153.9Y-85.2
X155.5Y-83.5
X157.5Y-83.0
X173.5Y-77.5
X177.5Y-86.0
X178.0Y-89.0
T3
X148.14Y-91.38
X148.14Y-99.0
X150.68Y-91.38
X150.68Y-99.0
X153.22Y-91.38
X153.22Y-99.0
X155.76Y-91.38
X155.76Y-99.0
X158.3Y-91.38
X158.3Y-99.0
X160.84Y-91.38
X160.84Y-99.0
X163.38Y-91.38
X163.38Y-99.0
X165.92Y-91.38
X165.92Y-99.0
X168.46Y-91.38
X168.46Y-99.0
X168.62Y-87.0
X171.0Y-91.38
X171.0Y-99.0
X173.5Y-87.0
X173.54Y-91.38
X173.54Y-99.0
X176.08Y-91.38
X176.08Y-99.0
X178.62Y-91.38
X178.62Y-99.0
X181.16Y-91.38
X181.16Y-99.0
T4
X140.0Y-97.0
X142.5Y-99.5
X145.0Y-97.0
T5
X178.5Y-78.42
X178.5Y-80.96
X178.5Y-83.5
X181.04Y-78.42
X181.04Y-80.96
X181.04Y-83.5
T6
X137.75Y-88.25
X137.75Y-92.75
X144.25Y-88.25
X144.25Y-92.75
T7
X109.775Y-113.56
X112.315Y-113.56
X114.855Y-113.56
X117.395Y-113.56
X119.935Y-113.56
X122.475Y-113.56
X125.015Y-113.56
X127.555Y-113.56
X130.095Y-113.56
X132.635Y-113.56
X135.175Y-113.56
X137.715Y-113.56
X140.255Y-113.56
X142.795Y-113.56
X145.335Y-113.56
X147.875Y-113.56
T8
X104.276Y-113.56
X104.276Y-144.561
X179.274Y-144.561
X179.275Y-113.56
T2
G00X148.68Y-77.22
M15
G01X148.68Y-76.42
M16
G05
G00X148.68Y-81.55
M15
G01X148.68Y-80.45
M16
G05
G00X157.32Y-77.22
M15
G01X157.32Y-76.42
M16
G05
G00X157.32Y-81.55
M15
G01X157.32Y-80.45
M16
G05
M30
