%TF.GenerationSoftware,KiCad,Pcbnew,10.0.5*%
%TF.CreationDate,2026-09-08T09:33:27-05:00*%
%TF.ProjectId,Test,54657374-2e6b-4696-9361-645f70636258,rev?*%
%TF.SameCoordinates,Original*%
%TF.FileFunction,Legend,Top*%
%TF.FilePolarity,Positive*%
%FSLAX46Y46*%
G04 Gerber Fmt 4.6, Leading zero omitted, Abs format (unit mm)*
G04 Created by KiCad (PCBNEW 10.0.5) date 2026-09-08 09:33:27*
%MOMM*%
%LPD*%
G01*
G04 APERTURE LIST*
%ADD10C,0.200000*%
%ADD11C,0.150000*%
%ADD12C,0.120000*%
%ADD13C,0.000000*%
G04 APERTURE END LIST*
D10*
X103345863Y-83622457D02*
X103345863Y-80622457D01*
X103345863Y-80622457D02*
X104345863Y-82765314D01*
X104345863Y-82765314D02*
X105345863Y-80622457D01*
X105345863Y-80622457D02*
X105345863Y-83622457D01*
X107203006Y-83622457D02*
X106917291Y-83479600D01*
X106917291Y-83479600D02*
X106774434Y-83336742D01*
X106774434Y-83336742D02*
X106631577Y-83051028D01*
X106631577Y-83051028D02*
X106631577Y-82193885D01*
X106631577Y-82193885D02*
X106774434Y-81908171D01*
X106774434Y-81908171D02*
X106917291Y-81765314D01*
X106917291Y-81765314D02*
X107203006Y-81622457D01*
X107203006Y-81622457D02*
X107631577Y-81622457D01*
X107631577Y-81622457D02*
X107917291Y-81765314D01*
X107917291Y-81765314D02*
X108060149Y-81908171D01*
X108060149Y-81908171D02*
X108203006Y-82193885D01*
X108203006Y-82193885D02*
X108203006Y-83051028D01*
X108203006Y-83051028D02*
X108060149Y-83336742D01*
X108060149Y-83336742D02*
X107917291Y-83479600D01*
X107917291Y-83479600D02*
X107631577Y-83622457D01*
X107631577Y-83622457D02*
X107203006Y-83622457D01*
X109488720Y-83622457D02*
X109488720Y-81622457D01*
X109488720Y-82193885D02*
X109631577Y-81908171D01*
X109631577Y-81908171D02*
X109774435Y-81765314D01*
X109774435Y-81765314D02*
X110060149Y-81622457D01*
X110060149Y-81622457D02*
X110345863Y-81622457D01*
X111203006Y-83479600D02*
X111488720Y-83622457D01*
X111488720Y-83622457D02*
X112060149Y-83622457D01*
X112060149Y-83622457D02*
X112345863Y-83479600D01*
X112345863Y-83479600D02*
X112488720Y-83193885D01*
X112488720Y-83193885D02*
X112488720Y-83051028D01*
X112488720Y-83051028D02*
X112345863Y-82765314D01*
X112345863Y-82765314D02*
X112060149Y-82622457D01*
X112060149Y-82622457D02*
X111631578Y-82622457D01*
X111631578Y-82622457D02*
X111345863Y-82479600D01*
X111345863Y-82479600D02*
X111203006Y-82193885D01*
X111203006Y-82193885D02*
X111203006Y-82051028D01*
X111203006Y-82051028D02*
X111345863Y-81765314D01*
X111345863Y-81765314D02*
X111631578Y-81622457D01*
X111631578Y-81622457D02*
X112060149Y-81622457D01*
X112060149Y-81622457D02*
X112345863Y-81765314D01*
X114917291Y-83479600D02*
X114631577Y-83622457D01*
X114631577Y-83622457D02*
X114060149Y-83622457D01*
X114060149Y-83622457D02*
X113774434Y-83479600D01*
X113774434Y-83479600D02*
X113631577Y-83193885D01*
X113631577Y-83193885D02*
X113631577Y-82051028D01*
X113631577Y-82051028D02*
X113774434Y-81765314D01*
X113774434Y-81765314D02*
X114060149Y-81622457D01*
X114060149Y-81622457D02*
X114631577Y-81622457D01*
X114631577Y-81622457D02*
X114917291Y-81765314D01*
X114917291Y-81765314D02*
X115060149Y-82051028D01*
X115060149Y-82051028D02*
X115060149Y-82336742D01*
X115060149Y-82336742D02*
X113631577Y-82622457D01*
X119917292Y-83479600D02*
X119631577Y-83622457D01*
X119631577Y-83622457D02*
X119060149Y-83622457D01*
X119060149Y-83622457D02*
X118774434Y-83479600D01*
X118774434Y-83479600D02*
X118631577Y-83336742D01*
X118631577Y-83336742D02*
X118488720Y-83051028D01*
X118488720Y-83051028D02*
X118488720Y-82193885D01*
X118488720Y-82193885D02*
X118631577Y-81908171D01*
X118631577Y-81908171D02*
X118774434Y-81765314D01*
X118774434Y-81765314D02*
X119060149Y-81622457D01*
X119060149Y-81622457D02*
X119631577Y-81622457D01*
X119631577Y-81622457D02*
X119917292Y-81765314D01*
X121631578Y-83622457D02*
X121345863Y-83479600D01*
X121345863Y-83479600D02*
X121203006Y-83336742D01*
X121203006Y-83336742D02*
X121060149Y-83051028D01*
X121060149Y-83051028D02*
X121060149Y-82193885D01*
X121060149Y-82193885D02*
X121203006Y-81908171D01*
X121203006Y-81908171D02*
X121345863Y-81765314D01*
X121345863Y-81765314D02*
X121631578Y-81622457D01*
X121631578Y-81622457D02*
X122060149Y-81622457D01*
X122060149Y-81622457D02*
X122345863Y-81765314D01*
X122345863Y-81765314D02*
X122488721Y-81908171D01*
X122488721Y-81908171D02*
X122631578Y-82193885D01*
X122631578Y-82193885D02*
X122631578Y-83051028D01*
X122631578Y-83051028D02*
X122488721Y-83336742D01*
X122488721Y-83336742D02*
X122345863Y-83479600D01*
X122345863Y-83479600D02*
X122060149Y-83622457D01*
X122060149Y-83622457D02*
X121631578Y-83622457D01*
X125203007Y-83622457D02*
X125203007Y-80622457D01*
X125203007Y-83479600D02*
X124917292Y-83622457D01*
X124917292Y-83622457D02*
X124345864Y-83622457D01*
X124345864Y-83622457D02*
X124060149Y-83479600D01*
X124060149Y-83479600D02*
X123917292Y-83336742D01*
X123917292Y-83336742D02*
X123774435Y-83051028D01*
X123774435Y-83051028D02*
X123774435Y-82193885D01*
X123774435Y-82193885D02*
X123917292Y-81908171D01*
X123917292Y-81908171D02*
X124060149Y-81765314D01*
X124060149Y-81765314D02*
X124345864Y-81622457D01*
X124345864Y-81622457D02*
X124917292Y-81622457D01*
X124917292Y-81622457D02*
X125203007Y-81765314D01*
X127774435Y-83479600D02*
X127488721Y-83622457D01*
X127488721Y-83622457D02*
X126917293Y-83622457D01*
X126917293Y-83622457D02*
X126631578Y-83479600D01*
X126631578Y-83479600D02*
X126488721Y-83193885D01*
X126488721Y-83193885D02*
X126488721Y-82051028D01*
X126488721Y-82051028D02*
X126631578Y-81765314D01*
X126631578Y-81765314D02*
X126917293Y-81622457D01*
X126917293Y-81622457D02*
X127488721Y-81622457D01*
X127488721Y-81622457D02*
X127774435Y-81765314D01*
X127774435Y-81765314D02*
X127917293Y-82051028D01*
X127917293Y-82051028D02*
X127917293Y-82336742D01*
X127917293Y-82336742D02*
X126488721Y-82622457D01*
X131488721Y-83622457D02*
X131488721Y-80622457D01*
X131488721Y-80622457D02*
X132631578Y-80622457D01*
X132631578Y-80622457D02*
X132917293Y-80765314D01*
X132917293Y-80765314D02*
X133060150Y-80908171D01*
X133060150Y-80908171D02*
X133203007Y-81193885D01*
X133203007Y-81193885D02*
X133203007Y-81622457D01*
X133203007Y-81622457D02*
X133060150Y-81908171D01*
X133060150Y-81908171D02*
X132917293Y-82051028D01*
X132917293Y-82051028D02*
X132631578Y-82193885D01*
X132631578Y-82193885D02*
X131488721Y-82193885D01*
X136203007Y-83336742D02*
X136060150Y-83479600D01*
X136060150Y-83479600D02*
X135631578Y-83622457D01*
X135631578Y-83622457D02*
X135345864Y-83622457D01*
X135345864Y-83622457D02*
X134917293Y-83479600D01*
X134917293Y-83479600D02*
X134631578Y-83193885D01*
X134631578Y-83193885D02*
X134488721Y-82908171D01*
X134488721Y-82908171D02*
X134345864Y-82336742D01*
X134345864Y-82336742D02*
X134345864Y-81908171D01*
X134345864Y-81908171D02*
X134488721Y-81336742D01*
X134488721Y-81336742D02*
X134631578Y-81051028D01*
X134631578Y-81051028D02*
X134917293Y-80765314D01*
X134917293Y-80765314D02*
X135345864Y-80622457D01*
X135345864Y-80622457D02*
X135631578Y-80622457D01*
X135631578Y-80622457D02*
X136060150Y-80765314D01*
X136060150Y-80765314D02*
X136203007Y-80908171D01*
X138488721Y-82051028D02*
X138917293Y-82193885D01*
X138917293Y-82193885D02*
X139060150Y-82336742D01*
X139060150Y-82336742D02*
X139203007Y-82622457D01*
X139203007Y-82622457D02*
X139203007Y-83051028D01*
X139203007Y-83051028D02*
X139060150Y-83336742D01*
X139060150Y-83336742D02*
X138917293Y-83479600D01*
X138917293Y-83479600D02*
X138631578Y-83622457D01*
X138631578Y-83622457D02*
X137488721Y-83622457D01*
X137488721Y-83622457D02*
X137488721Y-80622457D01*
X137488721Y-80622457D02*
X138488721Y-80622457D01*
X138488721Y-80622457D02*
X138774436Y-80765314D01*
X138774436Y-80765314D02*
X138917293Y-80908171D01*
X138917293Y-80908171D02*
X139060150Y-81193885D01*
X139060150Y-81193885D02*
X139060150Y-81479600D01*
X139060150Y-81479600D02*
X138917293Y-81765314D01*
X138917293Y-81765314D02*
X138774436Y-81908171D01*
X138774436Y-81908171D02*
X138488721Y-82051028D01*
X138488721Y-82051028D02*
X137488721Y-82051028D01*
D11*
X179436666Y-75494819D02*
X179436666Y-76209104D01*
X179436666Y-76209104D02*
X179389047Y-76351961D01*
X179389047Y-76351961D02*
X179293809Y-76447200D01*
X179293809Y-76447200D02*
X179150952Y-76494819D01*
X179150952Y-76494819D02*
X179055714Y-76494819D01*
X180436666Y-76494819D02*
X179865238Y-76494819D01*
X180150952Y-76494819D02*
X180150952Y-75494819D01*
X180150952Y-75494819D02*
X180055714Y-75637676D01*
X180055714Y-75637676D02*
X179960476Y-75732914D01*
X179960476Y-75732914D02*
X179865238Y-75780533D01*
X153738094Y-82940180D02*
X153738094Y-83940180D01*
X153738094Y-83940180D02*
X153357142Y-83940180D01*
X153357142Y-83940180D02*
X153261904Y-83892561D01*
X153261904Y-83892561D02*
X153214285Y-83844942D01*
X153214285Y-83844942D02*
X153166666Y-83749704D01*
X153166666Y-83749704D02*
X153166666Y-83606847D01*
X153166666Y-83606847D02*
X153214285Y-83511609D01*
X153214285Y-83511609D02*
X153261904Y-83463990D01*
X153261904Y-83463990D02*
X153357142Y-83416371D01*
X153357142Y-83416371D02*
X153738094Y-83416371D01*
X152214285Y-82940180D02*
X152785713Y-82940180D01*
X152499999Y-82940180D02*
X152499999Y-83940180D01*
X152499999Y-83940180D02*
X152595237Y-83797323D01*
X152595237Y-83797323D02*
X152690475Y-83702085D01*
X152690475Y-83702085D02*
X152785713Y-83654466D01*
X155238095Y-87954819D02*
X155238095Y-88764342D01*
X155238095Y-88764342D02*
X155285714Y-88859580D01*
X155285714Y-88859580D02*
X155333333Y-88907200D01*
X155333333Y-88907200D02*
X155428571Y-88954819D01*
X155428571Y-88954819D02*
X155619047Y-88954819D01*
X155619047Y-88954819D02*
X155714285Y-88907200D01*
X155714285Y-88907200D02*
X155761904Y-88859580D01*
X155761904Y-88859580D02*
X155809523Y-88764342D01*
X155809523Y-88764342D02*
X155809523Y-87954819D01*
X156238095Y-88050057D02*
X156285714Y-88002438D01*
X156285714Y-88002438D02*
X156380952Y-87954819D01*
X156380952Y-87954819D02*
X156619047Y-87954819D01*
X156619047Y-87954819D02*
X156714285Y-88002438D01*
X156714285Y-88002438D02*
X156761904Y-88050057D01*
X156761904Y-88050057D02*
X156809523Y-88145295D01*
X156809523Y-88145295D02*
X156809523Y-88240533D01*
X156809523Y-88240533D02*
X156761904Y-88383390D01*
X156761904Y-88383390D02*
X156190476Y-88954819D01*
X156190476Y-88954819D02*
X156809523Y-88954819D01*
X118199405Y-88454819D02*
X118199405Y-87454819D01*
X118199405Y-87454819D02*
X118437500Y-87454819D01*
X118437500Y-87454819D02*
X118580357Y-87502438D01*
X118580357Y-87502438D02*
X118675595Y-87597676D01*
X118675595Y-87597676D02*
X118723214Y-87692914D01*
X118723214Y-87692914D02*
X118770833Y-87883390D01*
X118770833Y-87883390D02*
X118770833Y-88026247D01*
X118770833Y-88026247D02*
X118723214Y-88216723D01*
X118723214Y-88216723D02*
X118675595Y-88311961D01*
X118675595Y-88311961D02*
X118580357Y-88407200D01*
X118580357Y-88407200D02*
X118437500Y-88454819D01*
X118437500Y-88454819D02*
X118199405Y-88454819D01*
X119151786Y-87550057D02*
X119199405Y-87502438D01*
X119199405Y-87502438D02*
X119294643Y-87454819D01*
X119294643Y-87454819D02*
X119532738Y-87454819D01*
X119532738Y-87454819D02*
X119627976Y-87502438D01*
X119627976Y-87502438D02*
X119675595Y-87550057D01*
X119675595Y-87550057D02*
X119723214Y-87645295D01*
X119723214Y-87645295D02*
X119723214Y-87740533D01*
X119723214Y-87740533D02*
X119675595Y-87883390D01*
X119675595Y-87883390D02*
X119104167Y-88454819D01*
X119104167Y-88454819D02*
X119723214Y-88454819D01*
X102740714Y-110204819D02*
X102740714Y-109204819D01*
X102740714Y-109204819D02*
X102978809Y-109204819D01*
X102978809Y-109204819D02*
X103121666Y-109252438D01*
X103121666Y-109252438D02*
X103216904Y-109347676D01*
X103216904Y-109347676D02*
X103264523Y-109442914D01*
X103264523Y-109442914D02*
X103312142Y-109633390D01*
X103312142Y-109633390D02*
X103312142Y-109776247D01*
X103312142Y-109776247D02*
X103264523Y-109966723D01*
X103264523Y-109966723D02*
X103216904Y-110061961D01*
X103216904Y-110061961D02*
X103121666Y-110157200D01*
X103121666Y-110157200D02*
X102978809Y-110204819D01*
X102978809Y-110204819D02*
X102740714Y-110204819D01*
X103693095Y-110157200D02*
X103835952Y-110204819D01*
X103835952Y-110204819D02*
X104074047Y-110204819D01*
X104074047Y-110204819D02*
X104169285Y-110157200D01*
X104169285Y-110157200D02*
X104216904Y-110109580D01*
X104216904Y-110109580D02*
X104264523Y-110014342D01*
X104264523Y-110014342D02*
X104264523Y-109919104D01*
X104264523Y-109919104D02*
X104216904Y-109823866D01*
X104216904Y-109823866D02*
X104169285Y-109776247D01*
X104169285Y-109776247D02*
X104074047Y-109728628D01*
X104074047Y-109728628D02*
X103883571Y-109681009D01*
X103883571Y-109681009D02*
X103788333Y-109633390D01*
X103788333Y-109633390D02*
X103740714Y-109585771D01*
X103740714Y-109585771D02*
X103693095Y-109490533D01*
X103693095Y-109490533D02*
X103693095Y-109395295D01*
X103693095Y-109395295D02*
X103740714Y-109300057D01*
X103740714Y-109300057D02*
X103788333Y-109252438D01*
X103788333Y-109252438D02*
X103883571Y-109204819D01*
X103883571Y-109204819D02*
X104121666Y-109204819D01*
X104121666Y-109204819D02*
X104264523Y-109252438D01*
X105216904Y-110204819D02*
X104645476Y-110204819D01*
X104931190Y-110204819D02*
X104931190Y-109204819D01*
X104931190Y-109204819D02*
X104835952Y-109347676D01*
X104835952Y-109347676D02*
X104740714Y-109442914D01*
X104740714Y-109442914D02*
X104645476Y-109490533D01*
X112699405Y-88454819D02*
X112699405Y-87454819D01*
X112699405Y-87454819D02*
X112937500Y-87454819D01*
X112937500Y-87454819D02*
X113080357Y-87502438D01*
X113080357Y-87502438D02*
X113175595Y-87597676D01*
X113175595Y-87597676D02*
X113223214Y-87692914D01*
X113223214Y-87692914D02*
X113270833Y-87883390D01*
X113270833Y-87883390D02*
X113270833Y-88026247D01*
X113270833Y-88026247D02*
X113223214Y-88216723D01*
X113223214Y-88216723D02*
X113175595Y-88311961D01*
X113175595Y-88311961D02*
X113080357Y-88407200D01*
X113080357Y-88407200D02*
X112937500Y-88454819D01*
X112937500Y-88454819D02*
X112699405Y-88454819D01*
X114223214Y-88454819D02*
X113651786Y-88454819D01*
X113937500Y-88454819D02*
X113937500Y-87454819D01*
X113937500Y-87454819D02*
X113842262Y-87597676D01*
X113842262Y-87597676D02*
X113747024Y-87692914D01*
X113747024Y-87692914D02*
X113651786Y-87740533D01*
X139666667Y-86657200D02*
X139809524Y-86704819D01*
X139809524Y-86704819D02*
X140047619Y-86704819D01*
X140047619Y-86704819D02*
X140142857Y-86657200D01*
X140142857Y-86657200D02*
X140190476Y-86609580D01*
X140190476Y-86609580D02*
X140238095Y-86514342D01*
X140238095Y-86514342D02*
X140238095Y-86419104D01*
X140238095Y-86419104D02*
X140190476Y-86323866D01*
X140190476Y-86323866D02*
X140142857Y-86276247D01*
X140142857Y-86276247D02*
X140047619Y-86228628D01*
X140047619Y-86228628D02*
X139857143Y-86181009D01*
X139857143Y-86181009D02*
X139761905Y-86133390D01*
X139761905Y-86133390D02*
X139714286Y-86085771D01*
X139714286Y-86085771D02*
X139666667Y-85990533D01*
X139666667Y-85990533D02*
X139666667Y-85895295D01*
X139666667Y-85895295D02*
X139714286Y-85800057D01*
X139714286Y-85800057D02*
X139761905Y-85752438D01*
X139761905Y-85752438D02*
X139857143Y-85704819D01*
X139857143Y-85704819D02*
X140095238Y-85704819D01*
X140095238Y-85704819D02*
X140238095Y-85752438D01*
X140571429Y-85704819D02*
X140809524Y-86704819D01*
X140809524Y-86704819D02*
X141000000Y-85990533D01*
X141000000Y-85990533D02*
X141190476Y-86704819D01*
X141190476Y-86704819D02*
X141428572Y-85704819D01*
X142333333Y-86704819D02*
X141761905Y-86704819D01*
X142047619Y-86704819D02*
X142047619Y-85704819D01*
X142047619Y-85704819D02*
X141952381Y-85847676D01*
X141952381Y-85847676D02*
X141857143Y-85942914D01*
X141857143Y-85942914D02*
X141761905Y-85990533D01*
%TO.C,J1*%
D12*
X177120000Y-77040000D02*
X178500000Y-77040000D01*
X177120000Y-78420000D02*
X177120000Y-77040000D01*
X177120000Y-79690000D02*
X177120000Y-84880000D01*
X177120000Y-79690000D02*
X179770000Y-79690000D01*
X177120000Y-84880000D02*
X182420000Y-84880000D01*
X179770000Y-77040000D02*
X182420000Y-77040000D01*
X179770000Y-79690000D02*
X179770000Y-77040000D01*
X182420000Y-77040000D02*
X182420000Y-84880000D01*
%TO.C,P1*%
X148330000Y-77995000D02*
X148330000Y-79695000D01*
X157670000Y-77995000D02*
X157670000Y-79695000D01*
%TO.C,U2*%
X149440000Y-84290000D02*
X149560000Y-84290000D01*
X149440000Y-88410000D02*
X149440000Y-84290000D01*
X149560000Y-88410000D02*
X149440000Y-88410000D01*
X154440000Y-84290000D02*
X154560000Y-84290000D01*
X154560000Y-84290000D02*
X154560000Y-88410000D01*
X154560000Y-88410000D02*
X154440000Y-88410000D01*
X154450000Y-83690000D02*
X154780000Y-83450000D01*
X154780000Y-83930000D01*
X154450000Y-83690000D01*
G36*
X154780000Y-83930000D02*
G01*
X154450000Y-83690000D01*
X154780000Y-83450000D01*
X154780000Y-83930000D01*
G37*
%TO.C,D2*%
X117252500Y-89040000D02*
X117252500Y-90960000D01*
X117252500Y-90960000D02*
X119937500Y-90960000D01*
X119937500Y-89040000D02*
X117252500Y-89040000D01*
%TO.C,DS1*%
X101635000Y-110920000D02*
X101635000Y-147200000D01*
X101635000Y-147200000D02*
X181915000Y-147200000D01*
X101645000Y-110920000D02*
X102435000Y-110920000D01*
X104775000Y-116560000D02*
X177775000Y-116560000D01*
X104775000Y-141560000D02*
X104775000Y-116560000D01*
X108275000Y-110560000D02*
X111275000Y-110560000D01*
X109475280Y-136059320D02*
X109475280Y-122060000D01*
X109975000Y-121560000D02*
X173475000Y-121560000D01*
X173475660Y-136560000D02*
X109975000Y-136560000D01*
X173975000Y-122060000D02*
X173975000Y-136060000D01*
X177775000Y-116560000D02*
X177775000Y-141560000D01*
X177775000Y-141560000D02*
X104775000Y-141560000D01*
X181915000Y-110920000D02*
X102435000Y-110920000D01*
X181915000Y-147200000D02*
X181915000Y-110920000D01*
X109475280Y-122058840D02*
G75*
G02*
X109975660Y-121558460I500380J0D01*
G01*
X109975660Y-136559700D02*
G75*
G02*
X109475280Y-136059320I0J500380D01*
G01*
X173475000Y-121560000D02*
G75*
G02*
X173975000Y-122060000I0J-500000D01*
G01*
X173976040Y-136059320D02*
G75*
G02*
X173475660Y-136559640I-500340J20D01*
G01*
%TO.C,D1*%
X111752500Y-89040000D02*
X111752500Y-90960000D01*
X111752500Y-90960000D02*
X114437500Y-90960000D01*
X114437500Y-89040000D02*
X111752500Y-89040000D01*
%TO.C,SW1*%
X137500000Y-89750000D02*
X137500000Y-91250000D01*
X138750000Y-93750000D02*
X143250000Y-93750000D01*
X143250000Y-87250000D02*
X138750000Y-87250000D01*
X144500000Y-91250000D02*
X144500000Y-89750000D01*
D13*
%TO.C,G\u002A\u002A\u002A*%
G36*
X105579722Y-101036149D02*
G01*
X105620896Y-101068054D01*
X105642672Y-101100390D01*
X105655579Y-101147613D01*
X105648526Y-101193181D01*
X105625375Y-101233183D01*
X105589986Y-101263709D01*
X105546223Y-101280849D01*
X105497947Y-101280694D01*
X105472590Y-101272589D01*
X105427577Y-101241519D01*
X105402169Y-101196817D01*
X105396279Y-101154172D01*
X105400733Y-101118660D01*
X105417454Y-101088552D01*
X105436957Y-101067103D01*
X105483271Y-101034948D01*
X105532353Y-101024871D01*
X105579722Y-101036149D01*
G37*
G36*
X109103064Y-105534581D02*
G01*
X109146856Y-105550596D01*
X109184375Y-105581667D01*
X109211230Y-105628133D01*
X109217151Y-105647497D01*
X109217067Y-105689933D01*
X109201094Y-105734910D01*
X109173523Y-105772112D01*
X109161285Y-105781811D01*
X109120448Y-105799757D01*
X109074112Y-105807561D01*
X109033687Y-105803566D01*
X109027414Y-105801248D01*
X108981115Y-105768942D01*
X108952520Y-105721832D01*
X108943665Y-105668535D01*
X108952967Y-105614333D01*
X108977949Y-105573498D01*
X109014220Y-105546370D01*
X109057388Y-105533285D01*
X109103064Y-105534581D01*
G37*
G36*
X113487130Y-99086596D02*
G01*
X113533708Y-99109810D01*
X113553218Y-99127455D01*
X113580848Y-99172015D01*
X113588277Y-99220028D01*
X113577763Y-99266690D01*
X113551561Y-99307197D01*
X113511931Y-99336745D01*
X113461128Y-99350531D01*
X113448186Y-99350968D01*
X113410326Y-99346071D01*
X113377858Y-99334817D01*
X113377718Y-99334740D01*
X113340920Y-99301206D01*
X113320663Y-99251812D01*
X113317004Y-99215695D01*
X113326597Y-99163186D01*
X113353225Y-99122222D01*
X113392069Y-99094601D01*
X113438310Y-99082126D01*
X113487130Y-99086596D01*
G37*
G36*
X113500256Y-101060007D02*
G01*
X113545088Y-101084781D01*
X113573084Y-101112768D01*
X113590387Y-101156574D01*
X113589452Y-101205696D01*
X113572455Y-101252970D01*
X113541574Y-101291235D01*
X113513579Y-101308526D01*
X113470052Y-101322536D01*
X113432865Y-101321976D01*
X113392131Y-101308018D01*
X113355590Y-101281067D01*
X113328220Y-101240711D01*
X113316630Y-101196914D01*
X113316580Y-101194133D01*
X113327153Y-101141682D01*
X113355592Y-101096853D01*
X113396978Y-101064784D01*
X113446392Y-101050617D01*
X113454169Y-101050353D01*
X113500256Y-101060007D01*
G37*
G36*
X105552467Y-98938167D02*
G01*
X105600063Y-98966924D01*
X105606849Y-98973368D01*
X105638215Y-99019070D01*
X105648060Y-99068238D01*
X105636932Y-99115893D01*
X105605378Y-99157058D01*
X105585013Y-99171923D01*
X105532311Y-99193436D01*
X105482583Y-99191296D01*
X105434534Y-99165397D01*
X105426606Y-99158770D01*
X105399585Y-99131538D01*
X105387290Y-99105673D01*
X105384316Y-99069606D01*
X105384315Y-99068252D01*
X105389120Y-99016171D01*
X105405604Y-98980318D01*
X105436863Y-98954582D01*
X105443896Y-98950760D01*
X105500049Y-98932729D01*
X105552467Y-98938167D01*
G37*
G36*
X105556510Y-99978449D02*
G01*
X105587026Y-99996238D01*
X105608368Y-100015773D01*
X105633675Y-100043351D01*
X105644941Y-100066030D01*
X105646128Y-100094672D01*
X105644241Y-100114089D01*
X105627891Y-100168765D01*
X105595588Y-100208739D01*
X105551713Y-100231923D01*
X105500647Y-100236227D01*
X105446773Y-100219561D01*
X105435897Y-100213437D01*
X105405540Y-100184182D01*
X105384603Y-100143936D01*
X105377223Y-100102353D01*
X105380135Y-100083351D01*
X105406323Y-100027365D01*
X105443931Y-99991842D01*
X105494932Y-99975262D01*
X105522505Y-99973575D01*
X105556510Y-99978449D01*
G37*
G36*
X112660038Y-100075410D02*
G01*
X112683318Y-100092209D01*
X112700127Y-100108473D01*
X112728272Y-100141671D01*
X112740560Y-100172395D01*
X112742299Y-100194310D01*
X112732338Y-100252858D01*
X112703520Y-100298578D01*
X112666241Y-100324906D01*
X112622738Y-100340976D01*
X112585631Y-100341179D01*
X112543369Y-100325475D01*
X112541277Y-100324451D01*
X112498528Y-100291157D01*
X112474324Y-100244414D01*
X112470545Y-100187945D01*
X112470896Y-100185158D01*
X112487735Y-100132376D01*
X112522009Y-100095898D01*
X112573897Y-100075565D01*
X112597366Y-100072123D01*
X112635043Y-100070008D01*
X112660038Y-100075410D01*
G37*
G36*
X109645199Y-94112871D02*
G01*
X109696108Y-94139227D01*
X109696886Y-94139816D01*
X109735075Y-94182796D01*
X109757006Y-94236979D01*
X109762101Y-94295780D01*
X109749784Y-94352612D01*
X109719714Y-94400640D01*
X109664990Y-94445026D01*
X109606810Y-94466096D01*
X109546319Y-94463636D01*
X109494018Y-94442926D01*
X109447649Y-94405181D01*
X109418023Y-94359479D01*
X109401717Y-94323253D01*
X109396015Y-94295515D01*
X109399470Y-94264080D01*
X109404203Y-94243071D01*
X109427060Y-94188346D01*
X109464478Y-94142156D01*
X109510654Y-94110880D01*
X109530852Y-94103829D01*
X109586292Y-94100243D01*
X109645199Y-94112871D01*
G37*
G36*
X110103021Y-105535302D02*
G01*
X110116761Y-105539590D01*
X110159284Y-105563493D01*
X110193879Y-105600823D01*
X110214548Y-105643998D01*
X110217807Y-105667313D01*
X110207448Y-105711290D01*
X110180619Y-105754110D01*
X110143520Y-105786948D01*
X110128243Y-105794879D01*
X110091229Y-105808278D01*
X110063415Y-105810110D01*
X110032841Y-105799981D01*
X110014461Y-105791149D01*
X109973815Y-105759127D01*
X109949712Y-105723374D01*
X109935883Y-105690774D01*
X109933503Y-105665289D01*
X109941736Y-105633502D01*
X109943730Y-105627661D01*
X109960029Y-105593197D01*
X109985068Y-105568875D01*
X110015502Y-105551554D01*
X110050707Y-105535717D01*
X110076233Y-105530731D01*
X110103021Y-105535302D01*
G37*
G36*
X117001554Y-100500000D02*
G01*
X117001554Y-108001554D01*
X109500000Y-108001554D01*
X101998446Y-108001554D01*
X101998446Y-100500000D01*
X101998446Y-99931313D01*
X104319887Y-99931313D01*
X104322782Y-100271809D01*
X104346185Y-100609881D01*
X104379865Y-100876872D01*
X104442639Y-101214077D01*
X104527322Y-101548391D01*
X104632940Y-101877255D01*
X104758521Y-102198109D01*
X104903091Y-102508395D01*
X105065677Y-102805553D01*
X105187648Y-103001282D01*
X105396714Y-103298979D01*
X105621108Y-103578947D01*
X105860309Y-103840770D01*
X106113796Y-104084030D01*
X106381047Y-104308312D01*
X106661541Y-104513197D01*
X106954757Y-104698270D01*
X107260173Y-104863112D01*
X107577269Y-105007307D01*
X107805652Y-105095644D01*
X107880668Y-105121830D01*
X107959761Y-105148031D01*
X108039549Y-105173274D01*
X108116645Y-105196582D01*
X108187667Y-105216982D01*
X108249228Y-105233497D01*
X108297946Y-105245154D01*
X108330434Y-105250977D01*
X108343000Y-105250424D01*
X108347075Y-105235004D01*
X108349306Y-105202151D01*
X108349317Y-105158314D01*
X108348982Y-105147784D01*
X108345454Y-105054031D01*
X108183938Y-105007384D01*
X107859442Y-104901305D01*
X107544072Y-104773379D01*
X107238701Y-104624217D01*
X106944198Y-104454432D01*
X106661435Y-104264635D01*
X106391282Y-104055439D01*
X106134611Y-103827453D01*
X105892292Y-103581292D01*
X105665196Y-103317565D01*
X105531257Y-103143924D01*
X105333717Y-102856551D01*
X105156530Y-102556958D01*
X105000104Y-102246145D01*
X104864847Y-101925113D01*
X104751168Y-101594864D01*
X104659474Y-101256397D01*
X104590176Y-100910714D01*
X104571990Y-100793123D01*
X104554585Y-100667013D01*
X104541223Y-100557635D01*
X104531421Y-100458225D01*
X104524694Y-100362018D01*
X104520560Y-100262250D01*
X104518535Y-100152157D01*
X104518304Y-100090244D01*
X105231038Y-100090244D01*
X105236399Y-100169581D01*
X105261522Y-100240197D01*
X105303165Y-100299866D01*
X105358090Y-100346362D01*
X105423057Y-100377459D01*
X105494826Y-100390930D01*
X105570159Y-100384548D01*
X105629668Y-100364191D01*
X105678106Y-100335148D01*
X105722777Y-100297084D01*
X105757119Y-100256346D01*
X105772902Y-100225609D01*
X105774875Y-100220482D01*
X105778489Y-100216118D01*
X105785547Y-100212455D01*
X105797853Y-100209433D01*
X105817212Y-100206990D01*
X105845427Y-100205063D01*
X105884303Y-100203593D01*
X105935644Y-100202517D01*
X106001254Y-100201773D01*
X106082937Y-100201301D01*
X106182496Y-100201038D01*
X106301737Y-100200923D01*
X106442464Y-100200896D01*
X106497792Y-100200895D01*
X107214837Y-100200895D01*
X107214837Y-100434197D01*
X107214837Y-100667499D01*
X107008455Y-100668055D01*
X106802072Y-100668611D01*
X106592699Y-100871123D01*
X106383325Y-101073635D01*
X106088348Y-101073958D01*
X105793371Y-101074282D01*
X105763462Y-101023434D01*
X105714823Y-100957534D01*
X105657910Y-100913280D01*
X105589869Y-100889011D01*
X105521903Y-100882854D01*
X105439403Y-100893206D01*
X105369635Y-100922987D01*
X105314505Y-100970287D01*
X105275920Y-101033196D01*
X105255786Y-101109804D01*
X105253234Y-101152049D01*
X105262300Y-101231783D01*
X105290555Y-101298863D01*
X105339583Y-101356841D01*
X105347852Y-101364141D01*
X105413308Y-101405701D01*
X105484994Y-101426627D01*
X105558552Y-101427638D01*
X105629628Y-101409455D01*
X105693862Y-101372801D01*
X105746900Y-101318394D01*
X105761806Y-101295642D01*
X105794433Y-101239969D01*
X106130754Y-101243137D01*
X106467075Y-101246304D01*
X106673911Y-101046298D01*
X106880748Y-100846292D01*
X107044802Y-100849618D01*
X107208855Y-100852944D01*
X107211921Y-101771335D01*
X107214986Y-102689726D01*
X107684507Y-102686597D01*
X108154027Y-102683467D01*
X108157154Y-102194449D01*
X108160233Y-101712741D01*
X108542864Y-101712741D01*
X108543166Y-102634797D01*
X108543469Y-103556853D01*
X108763934Y-103784173D01*
X108984400Y-104011493D01*
X108984411Y-104699435D01*
X108984422Y-105387376D01*
X108934133Y-105412106D01*
X108873971Y-105454428D01*
X108827332Y-105513218D01*
X108796657Y-105583735D01*
X108784387Y-105661238D01*
X108785809Y-105700090D01*
X108805311Y-105782997D01*
X108844812Y-105853395D01*
X108903047Y-105909746D01*
X108978750Y-105950513D01*
X108997426Y-105957173D01*
X109040819Y-105963776D01*
X109095966Y-105961948D01*
X109152676Y-105952807D01*
X109200762Y-105937470D01*
X109207743Y-105934123D01*
X109275266Y-105886927D01*
X109328774Y-105824264D01*
X109364447Y-105751309D01*
X109375321Y-105707193D01*
X109374847Y-105640616D01*
X109355371Y-105571318D01*
X109320117Y-105505446D01*
X109272307Y-105449148D01*
X109220103Y-105411148D01*
X109176966Y-105387917D01*
X109176966Y-104662537D01*
X109176966Y-103937158D01*
X108955629Y-103709281D01*
X108734291Y-103481405D01*
X108734291Y-102799433D01*
X109236787Y-102799433D01*
X109329510Y-102898098D01*
X109360759Y-102931317D01*
X109405604Y-102978941D01*
X109461217Y-103037972D01*
X109524773Y-103105409D01*
X109593445Y-103178255D01*
X109664408Y-103253510D01*
X109700400Y-103291672D01*
X109978568Y-103586581D01*
X109978568Y-104488518D01*
X109978568Y-105390455D01*
X109942976Y-105405198D01*
X109896692Y-105434654D01*
X109852250Y-105480855D01*
X109815215Y-105536909D01*
X109792280Y-105591898D01*
X109780540Y-105670915D01*
X109792057Y-105748845D01*
X109827093Y-105827241D01*
X109834261Y-105838927D01*
X109881943Y-105892996D01*
X109944674Y-105933339D01*
X110016702Y-105958061D01*
X110092278Y-105965267D01*
X110165650Y-105953062D01*
X110173011Y-105950570D01*
X110246538Y-105912575D01*
X110304495Y-105858518D01*
X110345155Y-105791853D01*
X110366794Y-105716032D01*
X110367686Y-105634510D01*
X110356976Y-105582315D01*
X110329949Y-105521810D01*
X110288199Y-105466176D01*
X110237949Y-105422707D01*
X110205963Y-105405354D01*
X110169995Y-105390455D01*
X110169995Y-104452169D01*
X110169995Y-103513882D01*
X109836366Y-103158495D01*
X109762516Y-103079939D01*
X109692498Y-103005669D01*
X109628289Y-102937768D01*
X109571868Y-102878319D01*
X109525214Y-102829404D01*
X109490303Y-102793107D01*
X109469115Y-102771510D01*
X109465476Y-102767969D01*
X109428215Y-102732829D01*
X109428215Y-102223317D01*
X109428215Y-101713805D01*
X109332501Y-101618653D01*
X109236787Y-101523501D01*
X109236787Y-102161467D01*
X109236787Y-102799433D01*
X108734291Y-102799433D01*
X108734291Y-102511145D01*
X108734202Y-102361097D01*
X108733944Y-102218144D01*
X108733769Y-102161467D01*
X108733530Y-102084066D01*
X108732974Y-101960641D01*
X108732289Y-101849649D01*
X108731490Y-101752868D01*
X108730589Y-101672076D01*
X108729601Y-101609052D01*
X108728539Y-101565575D01*
X108727416Y-101543424D01*
X108726879Y-101540885D01*
X108715743Y-101548721D01*
X108691550Y-101569874D01*
X108658233Y-101600812D01*
X108631165Y-101626813D01*
X108542864Y-101712741D01*
X108160233Y-101712741D01*
X108160280Y-101705431D01*
X108611096Y-101260399D01*
X109061911Y-100815368D01*
X109468103Y-101264867D01*
X109555938Y-101362090D01*
X109645907Y-101461720D01*
X109735338Y-101560794D01*
X109821559Y-101656350D01*
X109901898Y-101745427D01*
X109973683Y-101825062D01*
X110034240Y-101892293D01*
X110072993Y-101935364D01*
X110133119Y-102002154D01*
X110192784Y-102068282D01*
X110248568Y-102129969D01*
X110297050Y-102183433D01*
X110334809Y-102224894D01*
X110349458Y-102240877D01*
X110375769Y-102269576D01*
X110415736Y-102313310D01*
X110466925Y-102369409D01*
X110526898Y-102435199D01*
X110593221Y-102508010D01*
X110663457Y-102585167D01*
X110726060Y-102653982D01*
X110798625Y-102733610D01*
X110870257Y-102811909D01*
X110938362Y-102886068D01*
X111000346Y-102953271D01*
X111053615Y-103010707D01*
X111095575Y-103055561D01*
X111120010Y-103081276D01*
X111215125Y-103179981D01*
X111823177Y-103179981D01*
X111941268Y-103179842D01*
X112051794Y-103179442D01*
X112152509Y-103178809D01*
X112241166Y-103177969D01*
X112315518Y-103176949D01*
X112373319Y-103175777D01*
X112412321Y-103174480D01*
X112430279Y-103173084D01*
X112431229Y-103172674D01*
X112423302Y-103161280D01*
X112400204Y-103133438D01*
X112362964Y-103090310D01*
X112312609Y-103033060D01*
X112250168Y-102962852D01*
X112176668Y-102880849D01*
X112093136Y-102788215D01*
X112030472Y-102719019D01*
X111986812Y-102670753D01*
X111931423Y-102609316D01*
X111868511Y-102539386D01*
X111802283Y-102465639D01*
X111736945Y-102392754D01*
X111710386Y-102363084D01*
X111578066Y-102215214D01*
X111460601Y-102083999D01*
X111356914Y-101968238D01*
X111265929Y-101866733D01*
X111186571Y-101778283D01*
X111117763Y-101701688D01*
X111058428Y-101635750D01*
X111007492Y-101579267D01*
X110983561Y-101552787D01*
X110946533Y-101511839D01*
X110909015Y-101470323D01*
X110869649Y-101426733D01*
X110827076Y-101379562D01*
X110779940Y-101327305D01*
X110726882Y-101268454D01*
X110666545Y-101201504D01*
X110597570Y-101124947D01*
X110518600Y-101037277D01*
X110428277Y-100936988D01*
X110325243Y-100822574D01*
X110319051Y-100815698D01*
X110708927Y-100815698D01*
X110788842Y-100900124D01*
X110825084Y-100938158D01*
X110873093Y-100988178D01*
X110927923Y-101045049D01*
X110984626Y-101103635D01*
X111017120Y-101137094D01*
X111165483Y-101289637D01*
X112173777Y-101289637D01*
X113182071Y-101289637D01*
X113197108Y-101325940D01*
X113220928Y-101363176D01*
X113259223Y-101402800D01*
X113304301Y-101438203D01*
X113348464Y-101462776D01*
X113361903Y-101467489D01*
X113421918Y-101476200D01*
X113489702Y-101473514D01*
X113553905Y-101460465D01*
X113588346Y-101446912D01*
X113654521Y-101400977D01*
X113703281Y-101342015D01*
X113734094Y-101273956D01*
X113746427Y-101200730D01*
X113739749Y-101126268D01*
X113713527Y-101054500D01*
X113667230Y-100989356D01*
X113652326Y-100974444D01*
X113583882Y-100925301D01*
X113508553Y-100898968D01*
X113427418Y-100895689D01*
X113362743Y-100908704D01*
X113309993Y-100933818D01*
X113257623Y-100974326D01*
X113213984Y-101023060D01*
X113196282Y-101051639D01*
X113172523Y-101098210D01*
X112204653Y-101098210D01*
X111236784Y-101098210D01*
X111038554Y-100892071D01*
X110840325Y-100685932D01*
X110774626Y-100750815D01*
X110708927Y-100815698D01*
X110319051Y-100815698D01*
X110208141Y-100692527D01*
X110153287Y-100631606D01*
X110017130Y-100480391D01*
X110410654Y-100480391D01*
X110470971Y-100550017D01*
X110500493Y-100583082D01*
X110524092Y-100607643D01*
X110537461Y-100619262D01*
X110538549Y-100619642D01*
X110548926Y-100611622D01*
X110573490Y-100589297D01*
X110609491Y-100555265D01*
X110654182Y-100512127D01*
X110704814Y-100462483D01*
X110707855Y-100459478D01*
X110869901Y-100299315D01*
X111596121Y-100297251D01*
X112322340Y-100295187D01*
X112346169Y-100341896D01*
X112390757Y-100404122D01*
X112452007Y-100452871D01*
X112516982Y-100481540D01*
X112567144Y-100494675D01*
X112606244Y-100498840D01*
X112645380Y-100494090D01*
X112689279Y-100482397D01*
X112762962Y-100448597D01*
X112823202Y-100397081D01*
X112867281Y-100331525D01*
X112892483Y-100255602D01*
X112897454Y-100200895D01*
X112887927Y-100125214D01*
X112858460Y-100058574D01*
X112807177Y-99996940D01*
X112799196Y-99989439D01*
X112735100Y-99945010D01*
X112663901Y-99919847D01*
X112589837Y-99913259D01*
X112517145Y-99924557D01*
X112450062Y-99953050D01*
X112392828Y-99998049D01*
X112349678Y-100058862D01*
X112347637Y-100062981D01*
X112321417Y-100117145D01*
X111547942Y-100117145D01*
X110774468Y-100117145D01*
X110592561Y-100298768D01*
X110410654Y-100480391D01*
X110017130Y-100480391D01*
X109727761Y-100159020D01*
X109757200Y-100129612D01*
X110097003Y-100129612D01*
X110159222Y-100201146D01*
X110188454Y-100234547D01*
X110210738Y-100259618D01*
X110222234Y-100272049D01*
X110222988Y-100272680D01*
X110231481Y-100264464D01*
X110255366Y-100240819D01*
X110293133Y-100203255D01*
X110343271Y-100153279D01*
X110404268Y-100092400D01*
X110474614Y-100022125D01*
X110552796Y-99943962D01*
X110637304Y-99859420D01*
X110702552Y-99794112D01*
X111180568Y-99315544D01*
X112173798Y-99316194D01*
X113167028Y-99316843D01*
X113202920Y-99372697D01*
X113253846Y-99436061D01*
X113312754Y-99477951D01*
X113382980Y-99500363D01*
X113423681Y-99504907D01*
X113494811Y-99504570D01*
X113551673Y-99492816D01*
X113602165Y-99467236D01*
X113638286Y-99439529D01*
X113694313Y-99377358D01*
X113729248Y-99307031D01*
X113742900Y-99232038D01*
X113735081Y-99155867D01*
X113705602Y-99082008D01*
X113660956Y-99021001D01*
X113598663Y-98970302D01*
X113525459Y-98938989D01*
X113445884Y-98928176D01*
X113364476Y-98938975D01*
X113347497Y-98944119D01*
X113303719Y-98966081D01*
X113257547Y-99000679D01*
X113216601Y-99041149D01*
X113188503Y-99080724D01*
X113184849Y-99088525D01*
X113170107Y-99124117D01*
X112133664Y-99124102D01*
X111097221Y-99124087D01*
X110597112Y-99626849D01*
X110097003Y-100129612D01*
X109757200Y-100129612D01*
X110813292Y-99074626D01*
X110949826Y-98938222D01*
X111083173Y-98804974D01*
X111212190Y-98676029D01*
X111335730Y-98552533D01*
X111452649Y-98435630D01*
X111561801Y-98326467D01*
X111662041Y-98226189D01*
X111752224Y-98135941D01*
X111831204Y-98056870D01*
X111897838Y-97990121D01*
X111950978Y-97936839D01*
X111989481Y-97898171D01*
X112012200Y-97875261D01*
X112012246Y-97875215D01*
X112125670Y-97760198D01*
X111468108Y-97760198D01*
X110810546Y-97760198D01*
X109485278Y-99085107D01*
X108160009Y-100410016D01*
X108160009Y-98929572D01*
X108160009Y-98160130D01*
X108542864Y-98160130D01*
X108542864Y-99572213D01*
X108638577Y-99477061D01*
X108734291Y-99381908D01*
X108734417Y-99034666D01*
X108734543Y-98687423D01*
X109097781Y-98334479D01*
X109168937Y-98265281D01*
X109254712Y-98181768D01*
X109352623Y-98086361D01*
X109460187Y-97981483D01*
X109574924Y-97869556D01*
X109694349Y-97753001D01*
X109815981Y-97634240D01*
X109937338Y-97515696D01*
X110055937Y-97399789D01*
X110114612Y-97342422D01*
X110768205Y-96703309D01*
X110768205Y-95914885D01*
X110768205Y-95126461D01*
X110795125Y-95134102D01*
X111115083Y-95237045D01*
X111427180Y-95361635D01*
X111730034Y-95506923D01*
X112022266Y-95671963D01*
X112302497Y-95855805D01*
X112569345Y-96057501D01*
X112821431Y-96276104D01*
X113057375Y-96510664D01*
X113275797Y-96760235D01*
X113406217Y-96928025D01*
X113580024Y-97174461D01*
X113733695Y-97418372D01*
X113869819Y-97664716D01*
X113990989Y-97918452D01*
X114099796Y-98184540D01*
X114178555Y-98406265D01*
X114279809Y-98746412D01*
X114357618Y-99089917D01*
X114411977Y-99435842D01*
X114442884Y-99783250D01*
X114450337Y-100131202D01*
X114434331Y-100478760D01*
X114394865Y-100824987D01*
X114331934Y-101168943D01*
X114245537Y-101509691D01*
X114188951Y-101692556D01*
X114089313Y-101971437D01*
X113978188Y-102236264D01*
X113852881Y-102492526D01*
X113710694Y-102745713D01*
X113548928Y-103001316D01*
X113537457Y-103018464D01*
X113380725Y-103236389D01*
X113204279Y-103453587D01*
X113012080Y-103665855D01*
X112808088Y-103868990D01*
X112596263Y-104058789D01*
X112431229Y-104192494D01*
X112353170Y-104250543D01*
X112260332Y-104315939D01*
X112158937Y-104384563D01*
X112055209Y-104452292D01*
X111955369Y-104515006D01*
X111865639Y-104568584D01*
X111849244Y-104577959D01*
X111699421Y-104658309D01*
X111536091Y-104737772D01*
X111364757Y-104814097D01*
X111190925Y-104885033D01*
X111020097Y-104948327D01*
X110857779Y-105001728D01*
X110717357Y-105041022D01*
X110636599Y-105061270D01*
X110636599Y-105161511D01*
X110637454Y-105212392D01*
X110640476Y-105243378D01*
X110646350Y-105258458D01*
X110653803Y-105261752D01*
X110670740Y-105258574D01*
X110706293Y-105249799D01*
X110756119Y-105236570D01*
X110815872Y-105220026D01*
X110854203Y-105209121D01*
X111189846Y-105100585D01*
X111513757Y-104971255D01*
X111825672Y-104821286D01*
X112125324Y-104650831D01*
X112412450Y-104460045D01*
X112686782Y-104249081D01*
X112948054Y-104018093D01*
X113010153Y-103958359D01*
X113251198Y-103709243D01*
X113470227Y-103454409D01*
X113668906Y-103191556D01*
X113848904Y-102918383D01*
X114011886Y-102632588D01*
X114106982Y-102444183D01*
X114250165Y-102122733D01*
X114370562Y-101800243D01*
X114468946Y-101473894D01*
X114546094Y-101140872D01*
X114602778Y-100798361D01*
X114632120Y-100535893D01*
X114636311Y-100473417D01*
X114639612Y-100391913D01*
X114642021Y-100296014D01*
X114643536Y-100190354D01*
X114644154Y-100079566D01*
X114643874Y-99968285D01*
X114642694Y-99861144D01*
X114640611Y-99762778D01*
X114637623Y-99677820D01*
X114633729Y-99610904D01*
X114632538Y-99596703D01*
X114587564Y-99230467D01*
X114520575Y-98873223D01*
X114431673Y-98525238D01*
X114320960Y-98186780D01*
X114188535Y-97858118D01*
X114034501Y-97539519D01*
X113858959Y-97231251D01*
X113662010Y-96933582D01*
X113588132Y-96832075D01*
X113366504Y-96554178D01*
X113129514Y-96294163D01*
X112877809Y-96052499D01*
X112612035Y-95829659D01*
X112332839Y-95626112D01*
X112040868Y-95442330D01*
X111736770Y-95278782D01*
X111421190Y-95135939D01*
X111094776Y-95014272D01*
X111084980Y-95011007D01*
X111029851Y-94993413D01*
X110962686Y-94973089D01*
X110888601Y-94951466D01*
X110812714Y-94929975D01*
X110740140Y-94910048D01*
X110675997Y-94893115D01*
X110625400Y-94880608D01*
X110597548Y-94874649D01*
X110593535Y-94874888D01*
X110590066Y-94878228D01*
X110587101Y-94886274D01*
X110584603Y-94900633D01*
X110582532Y-94922911D01*
X110580851Y-94954714D01*
X110579519Y-94997649D01*
X110578499Y-95053323D01*
X110577753Y-95123340D01*
X110577240Y-95209309D01*
X110576924Y-95312834D01*
X110576764Y-95435523D01*
X110576723Y-95578982D01*
X110576760Y-95738852D01*
X110577077Y-96606862D01*
X110460157Y-96719917D01*
X110434336Y-96744994D01*
X110392856Y-96785419D01*
X110337149Y-96839792D01*
X110268646Y-96906714D01*
X110188778Y-96984786D01*
X110098977Y-97072606D01*
X110000674Y-97168776D01*
X109895301Y-97271895D01*
X109784289Y-97380564D01*
X109669069Y-97493383D01*
X109551073Y-97608952D01*
X109549344Y-97610645D01*
X109434236Y-97723334D01*
X109323913Y-97831208D01*
X109219582Y-97933094D01*
X109122449Y-98027819D01*
X109033723Y-98114212D01*
X108954608Y-98191099D01*
X108886312Y-98257307D01*
X108830043Y-98311665D01*
X108787006Y-98352999D01*
X108758409Y-98380137D01*
X108745458Y-98391906D01*
X108744871Y-98392306D01*
X108742939Y-98381378D01*
X108741141Y-98348234D01*
X108739502Y-98294584D01*
X108738044Y-98222141D01*
X108736791Y-98132617D01*
X108735766Y-98027722D01*
X108734992Y-97909169D01*
X108734494Y-97778669D01*
X108734294Y-97637933D01*
X108734291Y-97618576D01*
X108734291Y-96840857D01*
X109206698Y-96382275D01*
X109679106Y-95923693D01*
X109679284Y-95276260D01*
X109679463Y-94628828D01*
X109732358Y-94608627D01*
X109783373Y-94579508D01*
X109834706Y-94533651D01*
X109880251Y-94477366D01*
X109910665Y-94424287D01*
X109929665Y-94361214D01*
X109936791Y-94287173D01*
X109932038Y-94211974D01*
X109915401Y-94145429D01*
X109910834Y-94134437D01*
X109862523Y-94054243D01*
X109798649Y-93991759D01*
X109721035Y-93948254D01*
X109631503Y-93924997D01*
X109606287Y-93922408D01*
X109521761Y-93923786D01*
X109449213Y-93942697D01*
X109382886Y-93981324D01*
X109332014Y-94026292D01*
X109276691Y-94093204D01*
X109242387Y-94163753D01*
X109227258Y-94243049D01*
X109227674Y-94315531D01*
X109244774Y-94400973D01*
X109281531Y-94478700D01*
X109335005Y-94544702D01*
X109402258Y-94594969D01*
X109447611Y-94615766D01*
X109488036Y-94630384D01*
X109488036Y-95231826D01*
X109488036Y-95833267D01*
X109287635Y-96028764D01*
X109224363Y-96090357D01*
X109148498Y-96163994D01*
X109064711Y-96245156D01*
X108977675Y-96329319D01*
X108892063Y-96411962D01*
X108815049Y-96486154D01*
X108542864Y-96748046D01*
X108542864Y-98160130D01*
X108160009Y-98160130D01*
X108160009Y-97449128D01*
X107687423Y-97449128D01*
X107214837Y-97449128D01*
X107214837Y-98448139D01*
X107214837Y-99447150D01*
X107056312Y-99446737D01*
X106897786Y-99446324D01*
X106676448Y-99213848D01*
X106455111Y-98981373D01*
X106118419Y-98980959D01*
X105781727Y-98980546D01*
X105773953Y-98949571D01*
X105757348Y-98916861D01*
X105725850Y-98878892D01*
X105685758Y-98841521D01*
X105643370Y-98810603D01*
X105604982Y-98791996D01*
X105604264Y-98791779D01*
X105522901Y-98778603D01*
X105445460Y-98786549D01*
X105375224Y-98813567D01*
X105315474Y-98857607D01*
X105269492Y-98916618D01*
X105240560Y-98988552D01*
X105234180Y-99022934D01*
X105233965Y-99105343D01*
X105255663Y-99178995D01*
X105299969Y-99246197D01*
X105302373Y-99248955D01*
X105355010Y-99296824D01*
X105414238Y-99325858D01*
X105484929Y-99337892D01*
X105537552Y-99337570D01*
X105617088Y-99324062D01*
X105681768Y-99292561D01*
X105733920Y-99241727D01*
X105753176Y-99213420D01*
X105785115Y-99160766D01*
X106078681Y-99160387D01*
X106372247Y-99160009D01*
X106592717Y-99390320D01*
X106813186Y-99620631D01*
X107011021Y-99626613D01*
X107208855Y-99632595D01*
X107212150Y-99821031D01*
X107215445Y-100009468D01*
X106500280Y-100009089D01*
X105785115Y-100008711D01*
X105752703Y-99955298D01*
X105702808Y-99894286D01*
X105640547Y-99851532D01*
X105569774Y-99827705D01*
X105494345Y-99823471D01*
X105418111Y-99839496D01*
X105344930Y-99876448D01*
X105335462Y-99883100D01*
X105284438Y-99931010D01*
X105251254Y-99989179D01*
X105233764Y-100061863D01*
X105231038Y-100090244D01*
X104518304Y-100090244D01*
X104518115Y-100039378D01*
X104528755Y-99692567D01*
X104560278Y-99355999D01*
X104613096Y-99027530D01*
X104687617Y-98705018D01*
X104784253Y-98386320D01*
X104887975Y-98107160D01*
X105028553Y-97789442D01*
X105188268Y-97484940D01*
X105366308Y-97194336D01*
X105561862Y-96918318D01*
X105700468Y-96748046D01*
X105774118Y-96657570D01*
X106002264Y-96412777D01*
X106245488Y-96184626D01*
X106502978Y-95973801D01*
X106773923Y-95780988D01*
X107057511Y-95606871D01*
X107352930Y-95452138D01*
X107659367Y-95317472D01*
X107976012Y-95203560D01*
X108302052Y-95111086D01*
X108486300Y-95069361D01*
X108644559Y-95036692D01*
X108648034Y-94938812D01*
X108649483Y-94890712D01*
X108648744Y-94861699D01*
X108644500Y-94846948D01*
X108635433Y-94841634D01*
X108621305Y-94840933D01*
X108592837Y-94843772D01*
X108545332Y-94851699D01*
X108482925Y-94863832D01*
X108409750Y-94879285D01*
X108329941Y-94897175D01*
X108247634Y-94916619D01*
X108166962Y-94936731D01*
X108137864Y-94944294D01*
X107822091Y-95039594D01*
X107511229Y-95157587D01*
X107207087Y-95297241D01*
X106911475Y-95457522D01*
X106626202Y-95637398D01*
X106353078Y-95835835D01*
X106093912Y-96051800D01*
X105930111Y-96204685D01*
X105683778Y-96459809D01*
X105459509Y-96722763D01*
X105256248Y-96995210D01*
X105072939Y-97278812D01*
X104908526Y-97575230D01*
X104761954Y-97886125D01*
X104632166Y-98213160D01*
X104604471Y-98291145D01*
X104508497Y-98601469D01*
X104431806Y-98923468D01*
X104374645Y-99254322D01*
X104337257Y-99591210D01*
X104319887Y-99931313D01*
X101998446Y-99931313D01*
X101998446Y-92998446D01*
X109500000Y-92998446D01*
X117001554Y-92998446D01*
X117001554Y-100500000D01*
G37*
%TD*%
M02*
