%TF.GenerationSoftware,KiCad,Pcbnew,10.0.5*%
%TF.CreationDate,2026-09-08T09:33:27-05:00*%
%TF.ProjectId,Test,54657374-2e6b-4696-9361-645f70636258,rev?*%
%TF.SameCoordinates,Original*%
%TF.FileFunction,Copper,L1,Top*%
%TF.FilePolarity,Positive*%
%FSLAX46Y46*%
G04 Gerber Fmt 4.6, Leading zero omitted, Abs format (unit mm)*
G04 Created by KiCad (PCBNEW 10.0.5) date 2026-09-08 09:33:27*
%MOMM*%
%LPD*%
G01*
G04 APERTURE LIST*
G04 Aperture macros list*
%AMRoundRect*
0 Rectangle with rounded corners*
0 $1 Rounding radius*
0 $2 $3 $4 $5 $6 $7 $8 $9 X,Y pos of 4 corners*
0 Add a 4 corners polygon primitive as box body*
4,1,4,$2,$3,$4,$5,$6,$7,$8,$9,$2,$3,0*
0 Add four circle primitives for the rounded corners*
1,1,$1+$1,$2,$3*
1,1,$1+$1,$4,$5*
1,1,$1+$1,$6,$7*
1,1,$1+$1,$8,$9*
0 Add four rect primitives between the rounded corners*
20,1,$1+$1,$2,$3,$4,$5,0*
20,1,$1+$1,$4,$5,$6,$7,0*
20,1,$1+$1,$6,$7,$8,$9,0*
20,1,$1+$1,$8,$9,$2,$3,0*%
G04 Aperture macros list end*
%TA.AperFunction,ComponentPad*%
%ADD10R,1.700000X1.700000*%
%TD*%
%TA.AperFunction,ComponentPad*%
%ADD11C,1.700000*%
%TD*%
%TA.AperFunction,SMDPad,CuDef*%
%ADD12RoundRect,0.150000X0.150000X0.425000X-0.150000X0.425000X-0.150000X-0.425000X0.150000X-0.425000X0*%
%TD*%
%TA.AperFunction,SMDPad,CuDef*%
%ADD13RoundRect,0.075000X0.075000X0.500000X-0.075000X0.500000X-0.075000X-0.500000X0.075000X-0.500000X0*%
%TD*%
%TA.AperFunction,ComponentPad*%
%ADD14O,1.000000X2.100000*%
%TD*%
%TA.AperFunction,ComponentPad*%
%ADD15O,1.000000X1.800000*%
%TD*%
%TA.AperFunction,SMDPad,CuDef*%
%ADD16RoundRect,0.137500X-0.137500X0.612500X-0.137500X-0.612500X0.137500X-0.612500X0.137500X0.612500X0*%
%TD*%
%TA.AperFunction,SMDPad,CuDef*%
%ADD17RoundRect,0.243750X-0.243750X-0.456250X0.243750X-0.456250X0.243750X0.456250X-0.243750X0.456250X0*%
%TD*%
%TA.AperFunction,ComponentPad*%
%ADD18C,3.000000*%
%TD*%
%TA.AperFunction,ComponentPad*%
%ADD19R,1.800000X2.600000*%
%TD*%
%TA.AperFunction,ComponentPad*%
%ADD20O,1.800000X2.600000*%
%TD*%
%TA.AperFunction,ComponentPad*%
%ADD21C,2.000000*%
%TD*%
%TA.AperFunction,ComponentPad*%
%ADD22RoundRect,0.250000X-0.550000X0.550000X-0.550000X-0.550000X0.550000X-0.550000X0.550000X0.550000X0*%
%TD*%
%TA.AperFunction,ComponentPad*%
%ADD23C,1.600000*%
%TD*%
%TA.AperFunction,ComponentPad*%
%ADD24C,1.620000*%
%TD*%
%TA.AperFunction,ComponentPad*%
%ADD25C,1.500000*%
%TD*%
%TA.AperFunction,ViaPad*%
%ADD26C,0.600000*%
%TD*%
%TA.AperFunction,Conductor*%
%ADD27C,0.200000*%
%TD*%
%TA.AperFunction,Conductor*%
%ADD28C,0.450000*%
%TD*%
G04 APERTURE END LIST*
D10*
%TO.P,J1,1,MISO_1*%
%TO.N,Miso*%
X178500000Y-78420000D03*
D11*
%TO.P,J1,2,VCC_2*%
%TO.N,+5V*%
X181040000Y-78420000D03*
%TO.P,J1,3,SCK_3*%
%TO.N,SCK*%
X178500000Y-80960000D03*
%TO.P,J1,4,MOSI_4*%
%TO.N,Mosi*%
X181040000Y-80960000D03*
%TO.P,J1,5,~{RST}_5*%
%TO.N,RST*%
X178500000Y-83500000D03*
%TO.P,J1,6,GND_6*%
%TO.N,GND*%
X181040000Y-83500000D03*
%TD*%
D12*
%TO.P,P1,A1,GND_A1*%
%TO.N,GND*%
X156200000Y-81575000D03*
%TO.P,P1,A4,VBUS_A4*%
%TO.N,Net-(U3-VI)*%
X155400000Y-81575000D03*
D13*
%TO.P,P1,A5,CC1_A5*%
%TO.N,Net-(P1-CC1)*%
X154250000Y-81575000D03*
%TO.P,P1,A6,D+_A6*%
%TO.N,USB_C D+*%
X153250000Y-81575000D03*
%TO.P,P1,A7,D-_A7*%
%TO.N,USB_C D-*%
X152750000Y-81575000D03*
%TO.P,P1,A8*%
%TO.N,N/C*%
X151750000Y-81575000D03*
D12*
%TO.P,P1,A9,VBUS_A9*%
%TO.N,Net-(U3-VI)*%
X150600000Y-81575000D03*
%TO.P,P1,A12,GND_A12*%
%TO.N,GND*%
X149800000Y-81575000D03*
%TO.P,P1,B1,GND_B1*%
X149800000Y-81575000D03*
%TO.P,P1,B4,VBUS_B4*%
%TO.N,Net-(U3-VI)*%
X150600000Y-81575000D03*
D13*
%TO.P,P1,B5,CC2_B5*%
%TO.N,Net-(P1-CC2)*%
X151250000Y-81575000D03*
%TO.P,P1,B6,D+_B6*%
%TO.N,USB_C D+*%
X152250000Y-81575000D03*
%TO.P,P1,B7,D-_B7*%
%TO.N,USB_C D-*%
X153750000Y-81575000D03*
%TO.P,P1,B8*%
%TO.N,N/C*%
X154750000Y-81575000D03*
D12*
%TO.P,P1,B9,VBUS_B9*%
%TO.N,Net-(U3-VI)*%
X155400000Y-81575000D03*
%TO.P,P1,B12,GND_B12*%
%TO.N,GND*%
X156200000Y-81575000D03*
D14*
%TO.P,P1,SH,SHIELD_SH*%
X157320000Y-81000000D03*
D15*
X157320000Y-76820000D03*
D14*
X148680000Y-81000000D03*
D15*
X148680000Y-76820000D03*
%TD*%
D16*
%TO.P,U2,1,UD+_1*%
%TO.N,USB_C D+*%
X153905000Y-83700000D03*
%TO.P,U2,2,UD-_2*%
%TO.N,USB_C D-*%
X152635000Y-83700000D03*
%TO.P,U2,3,GND_3*%
%TO.N,GND*%
X151365000Y-83700000D03*
%TO.P,U2,4,~{RTS}_4*%
%TO.N,unconnected-(U2-~{RTS}-Pad4)*%
X150095000Y-83700000D03*
%TO.P,U2,5,VCC_5*%
%TO.N,+5V*%
X150095000Y-89000000D03*
%TO.P,U2,6,TXD_6*%
%TO.N,CH340N_TX*%
X151365000Y-89000000D03*
%TO.P,U2,7,RXD_7*%
%TO.N,CH340N_RX*%
X152635000Y-89000000D03*
%TO.P,U2,8,V3_8*%
%TO.N,unconnected-(U2-V3-Pad8)*%
X153905000Y-89000000D03*
%TD*%
D17*
%TO.P,D2,1,K_1*%
%TO.N,Net-(D2-K)*%
X118000000Y-90000000D03*
%TO.P,D2,2,A_2*%
%TO.N,GND*%
X119875000Y-90000000D03*
%TD*%
D18*
%TO.P,DS1,*%
%TO.N,*%
X104275900Y-113560000D03*
X104275900Y-144560700D03*
X179274480Y-144560700D03*
X179275000Y-113560000D03*
D19*
%TO.P,DS1,1,VSS_1*%
%TO.N,GND*%
X109775000Y-113560000D03*
D20*
%TO.P,DS1,2,VDD_2*%
%TO.N,+5V*%
X112315000Y-113560000D03*
%TO.P,DS1,3,VO_3*%
%TO.N,Net-(DS1-VO)*%
X114855000Y-113560000D03*
%TO.P,DS1,4,RS_4*%
%TO.N,Net-(DS1-RS)*%
X117395000Y-113560000D03*
%TO.P,DS1,5,R/W_5*%
%TO.N,GND*%
X119935000Y-113560000D03*
%TO.P,DS1,6,E_6*%
%TO.N,Net-(DS1-E)*%
X122475000Y-113560000D03*
%TO.P,DS1,7,D0_7*%
%TO.N,unconnected-(DS1-D0-Pad7)*%
X125015000Y-113560000D03*
%TO.P,DS1,8,D1_8*%
%TO.N,unconnected-(DS1-D1-Pad8)*%
X127555000Y-113560000D03*
%TO.P,DS1,9,D2_9*%
%TO.N,unconnected-(DS1-D2-Pad9)*%
X130095000Y-113560000D03*
%TO.P,DS1,10,D3_10*%
%TO.N,unconnected-(DS1-D3-Pad10)*%
X132635000Y-113560000D03*
%TO.P,DS1,11,D4_11*%
%TO.N,Net-(DS1-D4)*%
X135175000Y-113560000D03*
%TO.P,DS1,12,D5_12*%
%TO.N,Net-(DS1-D5)*%
X137715000Y-113560000D03*
%TO.P,DS1,13,D6_13*%
%TO.N,Net-(DS1-D6)*%
X140255000Y-113560000D03*
%TO.P,DS1,14,D7_14*%
%TO.N,Net-(DS1-D7)*%
X142795000Y-113560000D03*
%TO.P,DS1,15,LED(+)_15*%
%TO.N,unconnected-(DS1-LED(+)-Pad15)*%
X145335000Y-113560000D03*
%TO.P,DS1,16,LED(-)_16*%
%TO.N,Net-(DS1-LED(-))*%
X147875000Y-113560000D03*
%TD*%
D17*
%TO.P,D1,1,K_1*%
%TO.N,Net-(D1-K)*%
X112500000Y-90000000D03*
%TO.P,D1,2,A_2*%
%TO.N,GND*%
X114375000Y-90000000D03*
%TD*%
D21*
%TO.P,SW1,1,1_1*%
%TO.N,RST*%
X137750000Y-88250000D03*
X144250000Y-88250000D03*
%TO.P,SW1,2,2_2*%
%TO.N,GND*%
X137750000Y-92750000D03*
X144250000Y-92750000D03*
%TD*%
D22*
%TO.P,U1,1,~{RESET}/PC6_1*%
%TO.N,RST*%
X148140000Y-91380000D03*
D23*
%TO.P,U1,2,PD0_2*%
%TO.N,CH340N_TX*%
X150680000Y-91380000D03*
%TO.P,U1,3,PD1_3*%
%TO.N,CH340N_RX*%
X153220000Y-91380000D03*
%TO.P,U1,4,PD2_4*%
%TO.N,Net-(DS1-RS)*%
X155760000Y-91380000D03*
%TO.P,U1,5,PD3_5*%
%TO.N,Net-(DS1-E)*%
X158300000Y-91380000D03*
%TO.P,U1,6,PD4_6*%
%TO.N,Net-(DS1-D4)*%
X160840000Y-91380000D03*
%TO.P,U1,7,VCC_7*%
%TO.N,+5V*%
X163380000Y-91380000D03*
%TO.P,U1,8,GND_8*%
%TO.N,GND*%
X165920000Y-91380000D03*
%TO.P,U1,9,XTAL1/PB6_9*%
%TO.N,Net-(U1-XTAL1{slash}PB6)*%
X168460000Y-91380000D03*
%TO.P,U1,10,XTAL2/PB7_10*%
%TO.N,Net-(U1-XTAL2{slash}PB7)*%
X171000000Y-91380000D03*
%TO.P,U1,11,PD5_11*%
%TO.N,Net-(DS1-D5)*%
X173540000Y-91380000D03*
%TO.P,U1,12,PD6_12*%
%TO.N,Net-(DS1-D6)*%
X176080000Y-91380000D03*
%TO.P,U1,13,PD7_13*%
%TO.N,Net-(DS1-D7)*%
X178620000Y-91380000D03*
%TO.P,U1,14,PB0_14*%
%TO.N,unconnected-(U1-PB0-Pad14)*%
X181160000Y-91380000D03*
%TO.P,U1,15,PB1_15*%
%TO.N,unconnected-(U1-PB1-Pad15)*%
X181160000Y-99000000D03*
%TO.P,U1,16,PB2_16*%
%TO.N,unconnected-(U1-PB2-Pad16)*%
X178620000Y-99000000D03*
%TO.P,U1,17,PB3_17*%
%TO.N,Mosi*%
X176080000Y-99000000D03*
%TO.P,U1,18,PB4_18*%
%TO.N,Miso*%
X173540000Y-99000000D03*
%TO.P,U1,19,PB5_19*%
%TO.N,SCK*%
X171000000Y-99000000D03*
%TO.P,U1,20,AVCC_20*%
%TO.N,+5V*%
X168460000Y-99000000D03*
%TO.P,U1,21,AREF_21*%
%TO.N,unconnected-(U1-AREF-Pad21)*%
X165920000Y-99000000D03*
%TO.P,U1,22,GND_22*%
%TO.N,GND*%
X163380000Y-99000000D03*
%TO.P,U1,23,PC0_23*%
%TO.N,unconnected-(U1-PC0-Pad23)*%
X160840000Y-99000000D03*
%TO.P,U1,24,PC1_24*%
%TO.N,PC1*%
X158300000Y-99000000D03*
%TO.P,U1,25,PC2_25*%
%TO.N,PC2*%
X155760000Y-99000000D03*
%TO.P,U1,26,PC3_26*%
%TO.N,unconnected-(U1-PC3-Pad26)*%
X153220000Y-99000000D03*
%TO.P,U1,27,PC4_27*%
%TO.N,unconnected-(U1-PC4-Pad27)*%
X150680000Y-99000000D03*
%TO.P,U1,28,PC5_28*%
%TO.N,unconnected-(U1-PC5-Pad28)*%
X148140000Y-99000000D03*
%TD*%
D24*
%TO.P,R3,1,1_1*%
%TO.N,GND*%
X140000000Y-97000000D03*
%TO.P,R3,2,2_2*%
%TO.N,Net-(DS1-VO)*%
X142500000Y-99500000D03*
%TO.P,R3,3,3_3*%
%TO.N,+5V*%
X145000000Y-97000000D03*
%TD*%
D25*
%TO.P,Y1,1,1_1*%
%TO.N,Net-(U1-XTAL1{slash}PB6)*%
X168620000Y-87000000D03*
%TO.P,Y1,2,2_2*%
%TO.N,Net-(U1-XTAL2{slash}PB7)*%
X173500000Y-87000000D03*
%TD*%
D26*
%TO.N,USB_C D+*%
X153900000Y-85200000D03*
X151800000Y-80300000D03*
%TO.N,+5V*%
X173500000Y-77500000D03*
X147500000Y-86000000D03*
%TO.N,SCK*%
X177500000Y-86000000D03*
%TO.N,RST*%
X178000000Y-89000000D03*
%TO.N,Net-(U3-VI)*%
X157500000Y-83000000D03*
%TO.N,Net-(P1-CC1)*%
X155500000Y-83500000D03*
%TO.N,Net-(P1-CC2)*%
X146500000Y-82500000D03*
%TO.N,Net-(D2-K)*%
X130500000Y-98500000D03*
%TO.N,Net-(DS1-RS)*%
X125000000Y-106500000D03*
X132500000Y-95500000D03*
%TO.N,Net-(D1-K)*%
X127000000Y-101000000D03*
%TD*%
%TO.N,USB_C D+*%
D27*
X153905000Y-83700000D02*
X153905000Y-85195000D01*
%TO.N,Net-(U3-VI)*%
X150600000Y-81575000D02*
X150600000Y-80964594D01*
X150600000Y-80964594D02*
X151200000Y-80364594D01*
X151200000Y-80364594D02*
X151200000Y-80000000D01*
X151200000Y-80000000D02*
X151700000Y-79500000D01*
X151700000Y-79500000D02*
X153900000Y-79500000D01*
X153900000Y-79500000D02*
X155400000Y-81000000D01*
X155400000Y-81000000D02*
X155400000Y-81575000D01*
%TO.N,USB_C D-*%
X153750000Y-81575000D02*
X153750000Y-80550000D01*
X153750000Y-80550000D02*
X153500000Y-80300000D01*
X153500000Y-80300000D02*
X153000000Y-80300000D01*
X153000000Y-80300000D02*
X152750000Y-80550000D01*
X152750000Y-80550000D02*
X152750000Y-81575000D01*
%TO.N,USB_C D+*%
X151800000Y-80300000D02*
X152250000Y-80750000D01*
X152250000Y-80750000D02*
X152250000Y-81575000D01*
%TO.N,+5V*%
D28*
X150095000Y-89000000D02*
X150095000Y-88595000D01*
X150095000Y-88595000D02*
X147500000Y-86000000D01*
%TO.N,SCK*%
D27*
X177500000Y-86000000D02*
X177400000Y-86100000D01*
X177400000Y-92034314D02*
X171000000Y-98434314D01*
X177400000Y-86100000D02*
X177400000Y-92034314D01*
X171000000Y-98434314D02*
X171000000Y-99000000D01*
%TO.N,Mosi*%
X181040000Y-80960000D02*
X179890000Y-82110000D01*
X179890000Y-82110000D02*
X179890000Y-95190000D01*
X179890000Y-95190000D02*
X176080000Y-99000000D01*
%TO.N,RST*%
X178500000Y-83500000D02*
X178500000Y-88500000D01*
X178500000Y-88500000D02*
X178000000Y-89000000D01*
%TO.N,GND*%
X156775000Y-81000000D02*
X156200000Y-81575000D01*
X148680000Y-81000000D02*
X149225000Y-81000000D01*
X149225000Y-81000000D02*
X149800000Y-81575000D01*
X157320000Y-81000000D02*
X156775000Y-81000000D01*
%TO.N,Net-(U3-VI)*%
X157500000Y-83000000D02*
X156250001Y-83000000D01*
X156250001Y-83000000D02*
X155400000Y-82149999D01*
X155400000Y-82149999D02*
X155400000Y-81575000D01*
%TO.N,Net-(P1-CC1)*%
X154250000Y-82250000D02*
X154250000Y-81575000D01*
X155500000Y-83500000D02*
X154250000Y-82250000D01*
%TO.N,USB_C D+*%
X153905000Y-83700000D02*
X153250000Y-83045000D01*
X153250000Y-83045000D02*
X153250000Y-81575000D01*
%TO.N,USB_C D-*%
X152635000Y-83700000D02*
X152750000Y-83585000D01*
X152750000Y-83585000D02*
X152750000Y-81575000D01*
%TO.N,Net-(P1-CC2)*%
X146500000Y-82500000D02*
X150899999Y-82500000D01*
X150899999Y-82500000D02*
X151250000Y-82149999D01*
X151250000Y-82149999D02*
X151250000Y-81575000D01*
%TO.N,CH340N_TX*%
X151365000Y-90695000D02*
X150680000Y-91380000D01*
X151365000Y-89000000D02*
X151365000Y-90695000D01*
%TO.N,CH340N_RX*%
X152635000Y-89000000D02*
X152635000Y-90795000D01*
X152635000Y-90795000D02*
X153220000Y-91380000D01*
%TO.N,Net-(D2-K)*%
X126500000Y-98500000D02*
X130500000Y-98500000D01*
X118000000Y-90000000D02*
X126500000Y-98500000D01*
%TO.N,Net-(DS1-VO)*%
X138500000Y-103500000D02*
X124915000Y-103500000D01*
X142500000Y-99500000D02*
X138500000Y-103500000D01*
X124915000Y-103500000D02*
X114855000Y-113560000D01*
%TO.N,Net-(DS1-RS)*%
X124455000Y-106500000D02*
X125000000Y-106500000D01*
X152140000Y-95000000D02*
X155760000Y-91380000D01*
X132500000Y-95500000D02*
X133000000Y-95000000D01*
X133000000Y-95000000D02*
X152140000Y-95000000D01*
X117395000Y-113560000D02*
X124455000Y-106500000D01*
%TO.N,Net-(DS1-E)*%
X128910000Y-107125000D02*
X136809314Y-107125000D01*
X153680000Y-96000000D02*
X158300000Y-91380000D01*
X122475000Y-113560000D02*
X128910000Y-107125000D01*
X136809314Y-107125000D02*
X147934315Y-96000000D01*
X147934315Y-96000000D02*
X153680000Y-96000000D01*
%TO.N,Net-(DS1-D4)*%
X148000000Y-96500000D02*
X155720000Y-96500000D01*
X135175000Y-109325000D02*
X148000000Y-96500000D01*
X155720000Y-96500000D02*
X160840000Y-91380000D01*
X135175000Y-113560000D02*
X135175000Y-109325000D01*
%TO.N,Net-(DS1-D5)*%
X167020000Y-100480000D02*
X167020000Y-97900000D01*
X166500000Y-101000000D02*
X167020000Y-100480000D01*
X137715000Y-113560000D02*
X150275000Y-101000000D01*
X150275000Y-101000000D02*
X166500000Y-101000000D01*
X167020000Y-97900000D02*
X173540000Y-91380000D01*
%TO.N,Net-(DS1-D6)*%
X151815000Y-102000000D02*
X168500000Y-102000000D01*
X140255000Y-113560000D02*
X151815000Y-102000000D01*
X169900000Y-100600000D02*
X169900000Y-97560000D01*
X168500000Y-102000000D02*
X169900000Y-100600000D01*
X169900000Y-97560000D02*
X176080000Y-91380000D01*
%TO.N,Net-(DS1-D7)*%
X170500000Y-103000000D02*
X172440000Y-101060000D01*
X142795000Y-113560000D02*
X153355000Y-103000000D01*
X172440000Y-97560000D02*
X178620000Y-91380000D01*
X153355000Y-103000000D02*
X170500000Y-103000000D01*
X172440000Y-101060000D02*
X172440000Y-97560000D01*
%TO.N,Net-(D1-K)*%
X123500000Y-101000000D02*
X127000000Y-101000000D01*
X112500000Y-90000000D02*
X123500000Y-101000000D01*
%TO.N,Net-(U1-XTAL1{slash}PB6)*%
X168620000Y-87000000D02*
X168620000Y-91220000D01*
X168620000Y-91220000D02*
X168460000Y-91380000D01*
%TO.N,Net-(U1-XTAL2{slash}PB7)*%
X173500000Y-87000000D02*
X173500000Y-87500000D01*
X173500000Y-87500000D02*
X171000000Y-90000000D01*
X171000000Y-90000000D02*
X171000000Y-91380000D01*
%TD*%
%TA.AperFunction,Conductor*%
%TO.N,GND*%
G36*
X162980000Y-99052661D02*
G01*
X163007259Y-99154394D01*
X163059920Y-99245606D01*
X163134394Y-99320080D01*
X163225606Y-99372741D01*
X163327339Y-99400000D01*
X163333553Y-99400000D01*
X162654076Y-100079474D01*
X162698650Y-100111859D01*
X162802974Y-100165015D01*
X162853770Y-100212989D01*
X162870565Y-100280810D01*
X162848028Y-100346945D01*
X162793313Y-100390397D01*
X162746679Y-100399500D01*
X161474421Y-100399500D01*
X161407382Y-100379815D01*
X161361627Y-100327011D01*
X161351683Y-100257853D01*
X161380708Y-100194297D01*
X161418126Y-100165015D01*
X161429785Y-100159073D01*
X161521610Y-100112287D01*
X161614590Y-100044732D01*
X161687213Y-99991971D01*
X161687215Y-99991968D01*
X161687219Y-99991966D01*
X161831966Y-99847219D01*
X161831968Y-99847215D01*
X161831971Y-99847213D01*
X161952286Y-99681611D01*
X161952415Y-99681359D01*
X161999795Y-99588369D01*
X162047769Y-99537573D01*
X162115590Y-99520778D01*
X162181725Y-99543315D01*
X162220765Y-99588369D01*
X162268141Y-99681350D01*
X162268147Y-99681359D01*
X162300523Y-99725921D01*
X162300524Y-99725922D01*
X162980000Y-99046446D01*
X162980000Y-99052661D01*
G37*
%TD.AperFunction*%
%TA.AperFunction,Conductor*%
G36*
X164459474Y-99725921D02*
G01*
X164491861Y-99681347D01*
X164491861Y-99681346D01*
X164539234Y-99588371D01*
X164587208Y-99537575D01*
X164655028Y-99520779D01*
X164721164Y-99543316D01*
X164760203Y-99588369D01*
X164807713Y-99681611D01*
X164928028Y-99847213D01*
X165072786Y-99991971D01*
X165193226Y-100079474D01*
X165238390Y-100112287D01*
X165325042Y-100156438D01*
X165341874Y-100165015D01*
X165392670Y-100212990D01*
X165409465Y-100280811D01*
X165386927Y-100346946D01*
X165332212Y-100390397D01*
X165285579Y-100399500D01*
X164013321Y-100399500D01*
X163946282Y-100379815D01*
X163900527Y-100327011D01*
X163890583Y-100257853D01*
X163919608Y-100194297D01*
X163957026Y-100165015D01*
X164061349Y-100111859D01*
X164105921Y-100079474D01*
X163426447Y-99400000D01*
X163432661Y-99400000D01*
X163534394Y-99372741D01*
X163625606Y-99320080D01*
X163700080Y-99245606D01*
X163752741Y-99154394D01*
X163780000Y-99052661D01*
X163780000Y-99046447D01*
X164459474Y-99725921D01*
G37*
%TD.AperFunction*%
%TA.AperFunction,Conductor*%
G36*
X165520000Y-91432661D02*
G01*
X165547259Y-91534394D01*
X165599920Y-91625606D01*
X165674394Y-91700080D01*
X165765606Y-91752741D01*
X165867339Y-91780000D01*
X165873553Y-91780000D01*
X165194076Y-92459474D01*
X165238650Y-92491859D01*
X165420968Y-92584755D01*
X165615582Y-92647990D01*
X165817683Y-92680000D01*
X166022317Y-92680000D01*
X166224417Y-92647990D01*
X166419031Y-92584755D01*
X166601349Y-92491859D01*
X166645921Y-92459474D01*
X165966447Y-91780000D01*
X165972661Y-91780000D01*
X166074394Y-91752741D01*
X166165606Y-91700080D01*
X166240080Y-91625606D01*
X166292741Y-91534394D01*
X166320000Y-91432661D01*
X166320000Y-91426447D01*
X166999474Y-92105921D01*
X167031861Y-92061347D01*
X167031861Y-92061346D01*
X167079234Y-91968371D01*
X167127208Y-91917575D01*
X167195028Y-91900779D01*
X167261164Y-91923316D01*
X167300203Y-91968369D01*
X167347713Y-92061611D01*
X167468028Y-92227213D01*
X167612786Y-92371971D01*
X167733226Y-92459474D01*
X167778390Y-92492287D01*
X167867534Y-92537708D01*
X167960776Y-92585218D01*
X167960778Y-92585218D01*
X167960781Y-92585220D01*
X168035535Y-92609509D01*
X168155465Y-92648477D01*
X168256557Y-92664488D01*
X168357648Y-92680500D01*
X168357649Y-92680500D01*
X168562351Y-92680500D01*
X168562352Y-92680500D01*
X168764534Y-92648477D01*
X168959219Y-92585220D01*
X169141610Y-92492287D01*
X169270482Y-92398657D01*
X169307213Y-92371971D01*
X169307215Y-92371968D01*
X169307219Y-92371966D01*
X169451966Y-92227219D01*
X169451968Y-92227215D01*
X169451971Y-92227213D01*
X169572284Y-92061614D01*
X169572286Y-92061611D01*
X169572287Y-92061610D01*
X169619516Y-91968917D01*
X169667489Y-91918123D01*
X169735310Y-91901328D01*
X169801445Y-91923865D01*
X169840483Y-91968917D01*
X169846140Y-91980018D01*
X169887715Y-92061614D01*
X170008028Y-92227213D01*
X170152786Y-92371971D01*
X170273226Y-92459474D01*
X170318390Y-92492287D01*
X170407534Y-92537708D01*
X170500776Y-92585218D01*
X170500778Y-92585218D01*
X170500781Y-92585220D01*
X170575535Y-92609509D01*
X170695465Y-92648477D01*
X170796557Y-92664488D01*
X170897648Y-92680500D01*
X170897649Y-92680500D01*
X171090902Y-92680500D01*
X171157941Y-92700185D01*
X171203696Y-92752989D01*
X171213640Y-92822147D01*
X171184615Y-92885703D01*
X171178583Y-92892181D01*
X166539481Y-97531282D01*
X166539475Y-97531290D01*
X166496396Y-97605907D01*
X166496396Y-97605908D01*
X166484212Y-97627011D01*
X166460422Y-97668215D01*
X166460419Y-97668222D01*
X166459741Y-97670755D01*
X166458586Y-97672648D01*
X166457314Y-97675721D01*
X166456834Y-97675522D01*
X166423370Y-97730411D01*
X166360519Y-97760933D01*
X166301653Y-97756579D01*
X166224542Y-97731524D01*
X166224535Y-97731523D01*
X166106336Y-97712802D01*
X166022352Y-97699500D01*
X165817648Y-97699500D01*
X165803310Y-97701771D01*
X165615465Y-97731522D01*
X165420776Y-97794781D01*
X165238386Y-97887715D01*
X165072786Y-98008028D01*
X164928028Y-98152786D01*
X164807713Y-98318388D01*
X164760203Y-98411630D01*
X164712228Y-98462426D01*
X164644407Y-98479220D01*
X164578272Y-98456682D01*
X164539234Y-98411628D01*
X164491861Y-98318652D01*
X164459474Y-98274077D01*
X164459474Y-98274076D01*
X163780000Y-98953551D01*
X163780000Y-98947339D01*
X163752741Y-98845606D01*
X163700080Y-98754394D01*
X163625606Y-98679920D01*
X163534394Y-98627259D01*
X163432661Y-98600000D01*
X163426446Y-98600000D01*
X164105922Y-97920524D01*
X164105921Y-97920523D01*
X164061359Y-97888147D01*
X164061350Y-97888141D01*
X163879031Y-97795244D01*
X163684417Y-97732009D01*
X163482317Y-97700000D01*
X163277683Y-97700000D01*
X163075582Y-97732009D01*
X162880968Y-97795244D01*
X162698644Y-97888143D01*
X162654077Y-97920523D01*
X162654077Y-97920524D01*
X163333554Y-98600000D01*
X163327339Y-98600000D01*
X163225606Y-98627259D01*
X163134394Y-98679920D01*
X163059920Y-98754394D01*
X163007259Y-98845606D01*
X162980000Y-98947339D01*
X162980000Y-98953553D01*
X162300524Y-98274077D01*
X162300523Y-98274077D01*
X162268143Y-98318644D01*
X162220765Y-98411630D01*
X162172790Y-98462426D01*
X162104969Y-98479221D01*
X162038834Y-98456683D01*
X161999795Y-98411630D01*
X161983251Y-98379160D01*
X161952287Y-98318390D01*
X161952285Y-98318387D01*
X161952284Y-98318385D01*
X161831971Y-98152786D01*
X161687213Y-98008028D01*
X161521613Y-97887715D01*
X161521612Y-97887714D01*
X161521610Y-97887713D01*
X161454921Y-97853733D01*
X161339223Y-97794781D01*
X161144534Y-97731522D01*
X160956690Y-97701771D01*
X160942352Y-97699500D01*
X160737648Y-97699500D01*
X160723310Y-97701771D01*
X160535465Y-97731522D01*
X160340776Y-97794781D01*
X160158386Y-97887715D01*
X159992786Y-98008028D01*
X159848028Y-98152786D01*
X159727715Y-98318386D01*
X159680485Y-98411080D01*
X159632510Y-98461876D01*
X159564689Y-98478671D01*
X159498554Y-98456134D01*
X159459515Y-98411080D01*
X159443251Y-98379160D01*
X159412287Y-98318390D01*
X159388400Y-98285512D01*
X159291971Y-98152786D01*
X159147213Y-98008028D01*
X158981613Y-97887715D01*
X158981612Y-97887714D01*
X158981610Y-97887713D01*
X158914921Y-97853733D01*
X158799223Y-97794781D01*
X158604534Y-97731522D01*
X158416690Y-97701771D01*
X158402352Y-97699500D01*
X158197648Y-97699500D01*
X158183310Y-97701771D01*
X157995465Y-97731522D01*
X157800776Y-97794781D01*
X157618386Y-97887715D01*
X157452786Y-98008028D01*
X157308028Y-98152786D01*
X157187715Y-98318386D01*
X157140485Y-98411080D01*
X157092510Y-98461876D01*
X157024689Y-98478671D01*
X156958554Y-98456134D01*
X156919515Y-98411080D01*
X156903251Y-98379160D01*
X156872287Y-98318390D01*
X156848400Y-98285512D01*
X156751971Y-98152786D01*
X156607213Y-98008028D01*
X156441613Y-97887715D01*
X156441612Y-97887714D01*
X156441610Y-97887713D01*
X156374921Y-97853733D01*
X156259223Y-97794781D01*
X156064534Y-97731522D01*
X155876690Y-97701771D01*
X155862352Y-97699500D01*
X155657648Y-97699500D01*
X155643310Y-97701771D01*
X155455465Y-97731522D01*
X155260776Y-97794781D01*
X155078386Y-97887715D01*
X154912786Y-98008028D01*
X154768028Y-98152786D01*
X154647715Y-98318386D01*
X154600485Y-98411080D01*
X154552510Y-98461876D01*
X154484689Y-98478671D01*
X154418554Y-98456134D01*
X154379515Y-98411080D01*
X154363251Y-98379160D01*
X154332287Y-98318390D01*
X154308400Y-98285512D01*
X154211971Y-98152786D01*
X154067213Y-98008028D01*
X153901613Y-97887715D01*
X153901612Y-97887714D01*
X153901610Y-97887713D01*
X153834921Y-97853733D01*
X153719223Y-97794781D01*
X153524534Y-97731522D01*
X153336690Y-97701771D01*
X153322352Y-97699500D01*
X153117648Y-97699500D01*
X153103310Y-97701771D01*
X152915465Y-97731522D01*
X152720776Y-97794781D01*
X152538386Y-97887715D01*
X152372786Y-98008028D01*
X152228028Y-98152786D01*
X152107715Y-98318386D01*
X152060485Y-98411080D01*
X152012510Y-98461876D01*
X151944689Y-98478671D01*
X151878554Y-98456134D01*
X151839515Y-98411080D01*
X151823251Y-98379160D01*
X151792287Y-98318390D01*
X151768400Y-98285512D01*
X151671971Y-98152786D01*
X151527213Y-98008028D01*
X151361613Y-97887715D01*
X151361612Y-97887714D01*
X151361610Y-97887713D01*
X151294921Y-97853733D01*
X151179223Y-97794781D01*
X150984534Y-97731522D01*
X150796690Y-97701771D01*
X150782352Y-97699500D01*
X150577648Y-97699500D01*
X150563310Y-97701771D01*
X150375465Y-97731522D01*
X150180776Y-97794781D01*
X149998386Y-97887715D01*
X149832786Y-98008028D01*
X149688028Y-98152786D01*
X149567715Y-98318386D01*
X149520485Y-98411080D01*
X149472510Y-98461876D01*
X149404689Y-98478671D01*
X149338554Y-98456134D01*
X149299515Y-98411080D01*
X149283251Y-98379160D01*
X149252287Y-98318390D01*
X149228400Y-98285512D01*
X149131971Y-98152786D01*
X148987213Y-98008028D01*
X148821613Y-97887715D01*
X148821612Y-97887714D01*
X148821610Y-97887713D01*
X148754921Y-97853733D01*
X148639223Y-97794781D01*
X148444534Y-97731522D01*
X148256690Y-97701771D01*
X148242352Y-97699500D01*
X148037648Y-97699500D01*
X147953664Y-97712802D01*
X147884371Y-97703846D01*
X147830919Y-97658849D01*
X147810280Y-97592098D01*
X147829005Y-97524784D01*
X147846580Y-97502654D01*
X148212416Y-97136819D01*
X148273739Y-97103334D01*
X148300097Y-97100500D01*
X155633331Y-97100500D01*
X155633347Y-97100501D01*
X155640943Y-97100501D01*
X155799054Y-97100501D01*
X155799057Y-97100501D01*
X155951785Y-97059577D01*
X156001904Y-97030639D01*
X156088716Y-96980520D01*
X156200520Y-96868716D01*
X156200520Y-96868714D01*
X156210728Y-96858507D01*
X156210730Y-96858504D01*
X160395158Y-92674075D01*
X160456479Y-92640592D01*
X160521151Y-92643825D01*
X160535466Y-92648477D01*
X160737648Y-92680500D01*
X160737649Y-92680500D01*
X160942351Y-92680500D01*
X160942352Y-92680500D01*
X161144534Y-92648477D01*
X161339219Y-92585220D01*
X161521610Y-92492287D01*
X161650482Y-92398657D01*
X161687213Y-92371971D01*
X161687215Y-92371968D01*
X161687219Y-92371966D01*
X161831966Y-92227219D01*
X161831968Y-92227215D01*
X161831971Y-92227213D01*
X161952284Y-92061614D01*
X161952286Y-92061611D01*
X161952287Y-92061610D01*
X161999516Y-91968917D01*
X162047489Y-91918123D01*
X162115310Y-91901328D01*
X162181445Y-91923865D01*
X162220483Y-91968917D01*
X162226140Y-91980018D01*
X162267715Y-92061614D01*
X162388028Y-92227213D01*
X162532786Y-92371971D01*
X162653226Y-92459474D01*
X162698390Y-92492287D01*
X162787534Y-92537708D01*
X162880776Y-92585218D01*
X162880778Y-92585218D01*
X162880781Y-92585220D01*
X162955535Y-92609509D01*
X163075465Y-92648477D01*
X163176557Y-92664488D01*
X163277648Y-92680500D01*
X163277649Y-92680500D01*
X163482351Y-92680500D01*
X163482352Y-92680500D01*
X163684534Y-92648477D01*
X163879219Y-92585220D01*
X164061610Y-92492287D01*
X164190482Y-92398657D01*
X164227213Y-92371971D01*
X164227215Y-92371968D01*
X164227219Y-92371966D01*
X164371966Y-92227219D01*
X164371968Y-92227215D01*
X164371971Y-92227213D01*
X164476894Y-92082797D01*
X164492287Y-92061610D01*
X164539795Y-91968369D01*
X164587769Y-91917573D01*
X164655590Y-91900778D01*
X164721725Y-91923315D01*
X164760765Y-91968369D01*
X164808141Y-92061350D01*
X164808147Y-92061359D01*
X164840523Y-92105921D01*
X164840524Y-92105922D01*
X165520000Y-91426446D01*
X165520000Y-91432661D01*
G37*
%TD.AperFunction*%
%TA.AperFunction,Conductor*%
G36*
X147952962Y-75520185D02*
G01*
X147998717Y-75572989D01*
X148008661Y-75642147D01*
X147979636Y-75705703D01*
X147973604Y-75712181D01*
X147903251Y-75782533D01*
X147903248Y-75782537D01*
X147793814Y-75946315D01*
X147793807Y-75946328D01*
X147718430Y-76128306D01*
X147718427Y-76128318D01*
X147680000Y-76321504D01*
X147680000Y-76570000D01*
X148380000Y-76570000D01*
X148380000Y-77070000D01*
X147680000Y-77070000D01*
X147680000Y-77318495D01*
X147718427Y-77511681D01*
X147718430Y-77511693D01*
X147793807Y-77693671D01*
X147793814Y-77693684D01*
X147903248Y-77857462D01*
X147903251Y-77857466D01*
X148042533Y-77996748D01*
X148042537Y-77996751D01*
X148206315Y-78106185D01*
X148206328Y-78106192D01*
X148388308Y-78181569D01*
X148430000Y-78189862D01*
X148430000Y-77386988D01*
X148439940Y-77404205D01*
X148495795Y-77460060D01*
X148564204Y-77499556D01*
X148640504Y-77520000D01*
X148719496Y-77520000D01*
X148795796Y-77499556D01*
X148864205Y-77460060D01*
X148920060Y-77404205D01*
X148930000Y-77386988D01*
X148930000Y-78189862D01*
X148971690Y-78181569D01*
X148971692Y-78181569D01*
X149153671Y-78106192D01*
X149153684Y-78106185D01*
X149317462Y-77996751D01*
X149317466Y-77996748D01*
X149456748Y-77857466D01*
X149456751Y-77857462D01*
X149566185Y-77693684D01*
X149566192Y-77693671D01*
X149641569Y-77511693D01*
X149641572Y-77511681D01*
X149679999Y-77318495D01*
X149680000Y-77318492D01*
X149680000Y-77070000D01*
X148980000Y-77070000D01*
X148980000Y-76570000D01*
X149680000Y-76570000D01*
X149680000Y-76321508D01*
X149679999Y-76321504D01*
X149641572Y-76128318D01*
X149641569Y-76128306D01*
X149566192Y-75946328D01*
X149566185Y-75946315D01*
X149456751Y-75782537D01*
X149456748Y-75782533D01*
X149386396Y-75712181D01*
X149352911Y-75650858D01*
X149357895Y-75581166D01*
X149399767Y-75525233D01*
X149465231Y-75500816D01*
X149474077Y-75500500D01*
X156525923Y-75500500D01*
X156592962Y-75520185D01*
X156638717Y-75572989D01*
X156648661Y-75642147D01*
X156619636Y-75705703D01*
X156613604Y-75712181D01*
X156543251Y-75782533D01*
X156543248Y-75782537D01*
X156433814Y-75946315D01*
X156433807Y-75946328D01*
X156358430Y-76128306D01*
X156358427Y-76128318D01*
X156320000Y-76321504D01*
X156320000Y-76570000D01*
X157020000Y-76570000D01*
X157020000Y-77070000D01*
X156320000Y-77070000D01*
X156320000Y-77318495D01*
X156358427Y-77511681D01*
X156358430Y-77511693D01*
X156433807Y-77693671D01*
X156433814Y-77693684D01*
X156543248Y-77857462D01*
X156543251Y-77857466D01*
X156682533Y-77996748D01*
X156682537Y-77996751D01*
X156846315Y-78106185D01*
X156846328Y-78106192D01*
X157028308Y-78181569D01*
X157070000Y-78189862D01*
X157070000Y-77386988D01*
X157079940Y-77404205D01*
X157135795Y-77460060D01*
X157204204Y-77499556D01*
X157280504Y-77520000D01*
X157359496Y-77520000D01*
X157435796Y-77499556D01*
X157504205Y-77460060D01*
X157560060Y-77404205D01*
X157570000Y-77386988D01*
X157570000Y-78189862D01*
X157611690Y-78181569D01*
X157611692Y-78181569D01*
X157793671Y-78106192D01*
X157793684Y-78106185D01*
X157957462Y-77996751D01*
X157957466Y-77996748D01*
X158096748Y-77857466D01*
X158096751Y-77857462D01*
X158206185Y-77693684D01*
X158206192Y-77693671D01*
X158281569Y-77511693D01*
X158281572Y-77511681D01*
X158299580Y-77421153D01*
X172699500Y-77421153D01*
X172699500Y-77578846D01*
X172730261Y-77733489D01*
X172730264Y-77733501D01*
X172790602Y-77879172D01*
X172790609Y-77879185D01*
X172878210Y-78010288D01*
X172878213Y-78010292D01*
X172989707Y-78121786D01*
X172989711Y-78121789D01*
X173120814Y-78209390D01*
X173120827Y-78209397D01*
X173266498Y-78269735D01*
X173266503Y-78269737D01*
X173421153Y-78300499D01*
X173421156Y-78300500D01*
X173421158Y-78300500D01*
X173578844Y-78300500D01*
X173578845Y-78300499D01*
X173733497Y-78269737D01*
X173879179Y-78209394D01*
X174010289Y-78121789D01*
X174121789Y-78010289D01*
X174209394Y-77879179D01*
X174269737Y-77733497D01*
X174300500Y-77578842D01*
X174300500Y-77421158D01*
X174300500Y-77421155D01*
X174300499Y-77421153D01*
X174294476Y-77390876D01*
X174269737Y-77266503D01*
X174247350Y-77212455D01*
X174209397Y-77120827D01*
X174209390Y-77120814D01*
X174121789Y-76989711D01*
X174121786Y-76989707D01*
X174010292Y-76878213D01*
X174010288Y-76878210D01*
X173879185Y-76790609D01*
X173879172Y-76790602D01*
X173733501Y-76730264D01*
X173733489Y-76730261D01*
X173578845Y-76699500D01*
X173578842Y-76699500D01*
X173421158Y-76699500D01*
X173421155Y-76699500D01*
X173266510Y-76730261D01*
X173266498Y-76730264D01*
X173120827Y-76790602D01*
X173120814Y-76790609D01*
X172989711Y-76878210D01*
X172989707Y-76878213D01*
X172878213Y-76989707D01*
X172878210Y-76989711D01*
X172790609Y-77120814D01*
X172790602Y-77120827D01*
X172730264Y-77266498D01*
X172730261Y-77266510D01*
X172699500Y-77421153D01*
X158299580Y-77421153D01*
X158305597Y-77390904D01*
X158305602Y-77390876D01*
X158320000Y-77318489D01*
X158320000Y-77070000D01*
X157620000Y-77070000D01*
X157620000Y-76570000D01*
X158320000Y-76570000D01*
X158320000Y-76321508D01*
X158319999Y-76321504D01*
X158281572Y-76128318D01*
X158281569Y-76128306D01*
X158206192Y-75946328D01*
X158206185Y-75946315D01*
X158096751Y-75782537D01*
X158096748Y-75782533D01*
X158026396Y-75712181D01*
X157992911Y-75650858D01*
X157997895Y-75581166D01*
X158039767Y-75525233D01*
X158105231Y-75500816D01*
X158114077Y-75500500D01*
X179934108Y-75500500D01*
X179997294Y-75500500D01*
X180002702Y-75500617D01*
X180386773Y-75517386D01*
X180397505Y-75518326D01*
X180775963Y-75568150D01*
X180786601Y-75570025D01*
X181159279Y-75652647D01*
X181169720Y-75655445D01*
X181533765Y-75770227D01*
X181543911Y-75773920D01*
X181896578Y-75920000D01*
X181906369Y-75924566D01*
X181948174Y-75946328D01*
X182244942Y-76100816D01*
X182254310Y-76106224D01*
X182576244Y-76311318D01*
X182585105Y-76317523D01*
X182887930Y-76549889D01*
X182896217Y-76556843D01*
X183177635Y-76814715D01*
X183185284Y-76822364D01*
X183443156Y-77103782D01*
X183450110Y-77112069D01*
X183682476Y-77414894D01*
X183688681Y-77423755D01*
X183893775Y-77745689D01*
X183899183Y-77755057D01*
X184075430Y-78093623D01*
X184080002Y-78103427D01*
X184226075Y-78456078D01*
X184229775Y-78466244D01*
X184344553Y-78830276D01*
X184347353Y-78840724D01*
X184429972Y-79213390D01*
X184431850Y-79224044D01*
X184461612Y-79450109D01*
X184478648Y-79579514D01*
X184481671Y-79602472D01*
X184482614Y-79613248D01*
X184499382Y-79997297D01*
X184499500Y-80002706D01*
X184499500Y-144997293D01*
X184499382Y-145002702D01*
X184482614Y-145386751D01*
X184481671Y-145397527D01*
X184431850Y-145775955D01*
X184429972Y-145786609D01*
X184347353Y-146159275D01*
X184344553Y-146169723D01*
X184229775Y-146533755D01*
X184226075Y-146543921D01*
X184080002Y-146896572D01*
X184075430Y-146906376D01*
X183899183Y-147244942D01*
X183893775Y-147254310D01*
X183688681Y-147576244D01*
X183682476Y-147585105D01*
X183450110Y-147887930D01*
X183443156Y-147896217D01*
X183185284Y-148177635D01*
X183177635Y-148185284D01*
X182896217Y-148443156D01*
X182887930Y-148450110D01*
X182585105Y-148682476D01*
X182576244Y-148688681D01*
X182254310Y-148893775D01*
X182244942Y-148899183D01*
X181906376Y-149075430D01*
X181896572Y-149080002D01*
X181543921Y-149226075D01*
X181533755Y-149229775D01*
X181169723Y-149344553D01*
X181159275Y-149347353D01*
X180786609Y-149429972D01*
X180775955Y-149431850D01*
X180397527Y-149481671D01*
X180386751Y-149482614D01*
X180002703Y-149499382D01*
X179997294Y-149499500D01*
X105002706Y-149499500D01*
X104997297Y-149499382D01*
X104613248Y-149482614D01*
X104602474Y-149481671D01*
X104540007Y-149473447D01*
X104224044Y-149431850D01*
X104213390Y-149429972D01*
X103840724Y-149347353D01*
X103830276Y-149344553D01*
X103466244Y-149229775D01*
X103456078Y-149226075D01*
X103103427Y-149080002D01*
X103093623Y-149075430D01*
X102755057Y-148899183D01*
X102745689Y-148893775D01*
X102423755Y-148688681D01*
X102414894Y-148682476D01*
X102112069Y-148450110D01*
X102103782Y-148443156D01*
X101822364Y-148185284D01*
X101814715Y-148177635D01*
X101556843Y-147896217D01*
X101549889Y-147887930D01*
X101317523Y-147585105D01*
X101311318Y-147576244D01*
X101106224Y-147254310D01*
X101100816Y-147244942D01*
X100924569Y-146906376D01*
X100919997Y-146896572D01*
X100785072Y-146570834D01*
X100773920Y-146543911D01*
X100770224Y-146533755D01*
X100768084Y-146526969D01*
X100655445Y-146169720D01*
X100652646Y-146159275D01*
X100632407Y-146067982D01*
X100570025Y-145786601D01*
X100568149Y-145775955D01*
X100554793Y-145674503D01*
X100518326Y-145397505D01*
X100517386Y-145386773D01*
X100500618Y-145002702D01*
X100500500Y-144997293D01*
X100500500Y-144429572D01*
X102275400Y-144429572D01*
X102275400Y-144691827D01*
X102302023Y-144894039D01*
X102309630Y-144951816D01*
X102322541Y-145000000D01*
X102377502Y-145205118D01*
X102377505Y-145205128D01*
X102477853Y-145447390D01*
X102477858Y-145447400D01*
X102608975Y-145674503D01*
X102768618Y-145882551D01*
X102768626Y-145882560D01*
X102954040Y-146067974D01*
X102954048Y-146067981D01*
X103162096Y-146227624D01*
X103389199Y-146358741D01*
X103389209Y-146358746D01*
X103631471Y-146459094D01*
X103631481Y-146459098D01*
X103884784Y-146526970D01*
X104144780Y-146561200D01*
X104144787Y-146561200D01*
X104407013Y-146561200D01*
X104407020Y-146561200D01*
X104667016Y-146526970D01*
X104920319Y-146459098D01*
X105162597Y-146358743D01*
X105389703Y-146227624D01*
X105597751Y-146067982D01*
X105597755Y-146067977D01*
X105597760Y-146067974D01*
X105783174Y-145882560D01*
X105783177Y-145882555D01*
X105783182Y-145882551D01*
X105942824Y-145674503D01*
X106073943Y-145447397D01*
X106174298Y-145205119D01*
X106242170Y-144951816D01*
X106276400Y-144691820D01*
X106276400Y-144429580D01*
X106276399Y-144429572D01*
X177273980Y-144429572D01*
X177273980Y-144691827D01*
X177300603Y-144894039D01*
X177308210Y-144951816D01*
X177321121Y-145000000D01*
X177376082Y-145205118D01*
X177376085Y-145205128D01*
X177476433Y-145447390D01*
X177476438Y-145447400D01*
X177607555Y-145674503D01*
X177767198Y-145882551D01*
X177767206Y-145882560D01*
X177952620Y-146067974D01*
X177952628Y-146067981D01*
X178160676Y-146227624D01*
X178387779Y-146358741D01*
X178387789Y-146358746D01*
X178630051Y-146459094D01*
X178630061Y-146459098D01*
X178883364Y-146526970D01*
X179143360Y-146561200D01*
X179143367Y-146561200D01*
X179405593Y-146561200D01*
X179405600Y-146561200D01*
X179665596Y-146526970D01*
X179918899Y-146459098D01*
X180161177Y-146358743D01*
X180388283Y-146227624D01*
X180596331Y-146067982D01*
X180596335Y-146067977D01*
X180596340Y-146067974D01*
X180781754Y-145882560D01*
X180781757Y-145882555D01*
X180781762Y-145882551D01*
X180941404Y-145674503D01*
X181072523Y-145447397D01*
X181172878Y-145205119D01*
X181240750Y-144951816D01*
X181274980Y-144691820D01*
X181274980Y-144429580D01*
X181240750Y-144169584D01*
X181172878Y-143916281D01*
X181172874Y-143916271D01*
X181072526Y-143674009D01*
X181072521Y-143673999D01*
X180941404Y-143446896D01*
X180781761Y-143238848D01*
X180781754Y-143238840D01*
X180596340Y-143053426D01*
X180596331Y-143053418D01*
X180388283Y-142893775D01*
X180161180Y-142762658D01*
X180161170Y-142762653D01*
X179918908Y-142662305D01*
X179918901Y-142662303D01*
X179918899Y-142662302D01*
X179665596Y-142594430D01*
X179607819Y-142586823D01*
X179405607Y-142560200D01*
X179405600Y-142560200D01*
X179143360Y-142560200D01*
X179143352Y-142560200D01*
X178912252Y-142590626D01*
X178883364Y-142594430D01*
X178630061Y-142662302D01*
X178630051Y-142662305D01*
X178387789Y-142762653D01*
X178387779Y-142762658D01*
X178160676Y-142893775D01*
X177952628Y-143053418D01*
X177767198Y-143238848D01*
X177607555Y-143446896D01*
X177476438Y-143673999D01*
X177476433Y-143674009D01*
X177376085Y-143916271D01*
X177376082Y-143916281D01*
X177308210Y-144169585D01*
X177273980Y-144429572D01*
X106276399Y-144429572D01*
X106242170Y-144169584D01*
X106174298Y-143916281D01*
X106174294Y-143916271D01*
X106073946Y-143674009D01*
X106073941Y-143673999D01*
X105942824Y-143446896D01*
X105783181Y-143238848D01*
X105783174Y-143238840D01*
X105597760Y-143053426D01*
X105597751Y-143053418D01*
X105389703Y-142893775D01*
X105162600Y-142762658D01*
X105162590Y-142762653D01*
X104920328Y-142662305D01*
X104920321Y-142662303D01*
X104920319Y-142662302D01*
X104667016Y-142594430D01*
X104609239Y-142586823D01*
X104407027Y-142560200D01*
X104407020Y-142560200D01*
X104144780Y-142560200D01*
X104144772Y-142560200D01*
X103913672Y-142590626D01*
X103884784Y-142594430D01*
X103631481Y-142662302D01*
X103631471Y-142662305D01*
X103389209Y-142762653D01*
X103389199Y-142762658D01*
X103162096Y-142893775D01*
X102954048Y-143053418D01*
X102768618Y-143238848D01*
X102608975Y-143446896D01*
X102477858Y-143673999D01*
X102477853Y-143674009D01*
X102377505Y-143916271D01*
X102377502Y-143916281D01*
X102309630Y-144169585D01*
X102275400Y-144429572D01*
X100500500Y-144429572D01*
X100500500Y-113428872D01*
X102275400Y-113428872D01*
X102275400Y-113691127D01*
X102291051Y-113810000D01*
X102309630Y-113951116D01*
X102354644Y-114119111D01*
X102377502Y-114204418D01*
X102377505Y-114204428D01*
X102477853Y-114446690D01*
X102477858Y-114446700D01*
X102608975Y-114673803D01*
X102768618Y-114881851D01*
X102768626Y-114881860D01*
X102954040Y-115067274D01*
X102954048Y-115067281D01*
X103162096Y-115226924D01*
X103389199Y-115358041D01*
X103389209Y-115358046D01*
X103631471Y-115458394D01*
X103631481Y-115458398D01*
X103884784Y-115526270D01*
X104144780Y-115560500D01*
X104144787Y-115560500D01*
X104407013Y-115560500D01*
X104407020Y-115560500D01*
X104667016Y-115526270D01*
X104920319Y-115458398D01*
X105097240Y-115385114D01*
X105162590Y-115358046D01*
X105162591Y-115358045D01*
X105162597Y-115358043D01*
X105389703Y-115226924D01*
X105597751Y-115067282D01*
X105597755Y-115067277D01*
X105597760Y-115067274D01*
X105783174Y-114881860D01*
X105783177Y-114881855D01*
X105783182Y-114881851D01*
X105942824Y-114673803D01*
X106073943Y-114446697D01*
X106174298Y-114204419D01*
X106242170Y-113951116D01*
X106276400Y-113691120D01*
X106276400Y-113428880D01*
X106242170Y-113168884D01*
X106174298Y-112915581D01*
X106139697Y-112832047D01*
X106073946Y-112673309D01*
X106073941Y-112673299D01*
X105942824Y-112446196D01*
X105874358Y-112356971D01*
X105783182Y-112238149D01*
X105783176Y-112238143D01*
X105783173Y-112238139D01*
X105757189Y-112212155D01*
X108375000Y-112212155D01*
X108375000Y-113310000D01*
X109226518Y-113310000D01*
X109215889Y-113328409D01*
X109175000Y-113481009D01*
X109175000Y-113638991D01*
X109215889Y-113791591D01*
X109226518Y-113810000D01*
X108375000Y-113810000D01*
X108375000Y-114907844D01*
X108381401Y-114967372D01*
X108381403Y-114967379D01*
X108431645Y-115102086D01*
X108431649Y-115102093D01*
X108517809Y-115217187D01*
X108517812Y-115217190D01*
X108632906Y-115303350D01*
X108632913Y-115303354D01*
X108767620Y-115353596D01*
X108767627Y-115353598D01*
X108827155Y-115359999D01*
X108827172Y-115360000D01*
X109525000Y-115360000D01*
X109525000Y-114108482D01*
X109543409Y-114119111D01*
X109696009Y-114160000D01*
X109853991Y-114160000D01*
X110006591Y-114119111D01*
X110025000Y-114108482D01*
X110025000Y-115360000D01*
X110722828Y-115360000D01*
X110722844Y-115359999D01*
X110782372Y-115353598D01*
X110782379Y-115353596D01*
X110917086Y-115303354D01*
X110917093Y-115303350D01*
X111032187Y-115217190D01*
X111032190Y-115217187D01*
X111118350Y-115102093D01*
X111118354Y-115102086D01*
X111148213Y-115022031D01*
X111190084Y-114966097D01*
X111255548Y-114941680D01*
X111323821Y-114956531D01*
X111352076Y-114977683D01*
X111402636Y-115028243D01*
X111402641Y-115028247D01*
X111558192Y-115141260D01*
X111580978Y-115157815D01*
X111697501Y-115217187D01*
X111777393Y-115257895D01*
X111777396Y-115257896D01*
X111882221Y-115291955D01*
X111987049Y-115326015D01*
X112204778Y-115360500D01*
X112204779Y-115360500D01*
X112425221Y-115360500D01*
X112425222Y-115360500D01*
X112642951Y-115326015D01*
X112852606Y-115257895D01*
X113049022Y-115157815D01*
X113227365Y-115028242D01*
X113383242Y-114872365D01*
X113393804Y-114857826D01*
X113484682Y-114732745D01*
X113540011Y-114690079D01*
X113609625Y-114684100D01*
X113671420Y-114716705D01*
X113685318Y-114732745D01*
X113786752Y-114872358D01*
X113786756Y-114872363D01*
X113942636Y-115028243D01*
X113942641Y-115028247D01*
X114098192Y-115141260D01*
X114120978Y-115157815D01*
X114237501Y-115217187D01*
X114317393Y-115257895D01*
X114317396Y-115257896D01*
X114422221Y-115291955D01*
X114527049Y-115326015D01*
X114744778Y-115360500D01*
X114744779Y-115360500D01*
X114965221Y-115360500D01*
X114965222Y-115360500D01*
X115182951Y-115326015D01*
X115392606Y-115257895D01*
X115589022Y-115157815D01*
X115767365Y-115028242D01*
X115923242Y-114872365D01*
X115933804Y-114857826D01*
X116024682Y-114732745D01*
X116080011Y-114690079D01*
X116149625Y-114684100D01*
X116211420Y-114716705D01*
X116225318Y-114732745D01*
X116326752Y-114872358D01*
X116326756Y-114872363D01*
X116482636Y-115028243D01*
X116482641Y-115028247D01*
X116638192Y-115141260D01*
X116660978Y-115157815D01*
X116777501Y-115217187D01*
X116857393Y-115257895D01*
X116857396Y-115257896D01*
X116962221Y-115291955D01*
X117067049Y-115326015D01*
X117284778Y-115360500D01*
X117284779Y-115360500D01*
X117505221Y-115360500D01*
X117505222Y-115360500D01*
X117722951Y-115326015D01*
X117932606Y-115257895D01*
X118129022Y-115157815D01*
X118307365Y-115028242D01*
X118463242Y-114872365D01*
X118564991Y-114732317D01*
X118620320Y-114689653D01*
X118689933Y-114683674D01*
X118751729Y-114716279D01*
X118765627Y-114732318D01*
X118867142Y-114872041D01*
X119022958Y-115027857D01*
X119201239Y-115157386D01*
X119397589Y-115257432D01*
X119607163Y-115325526D01*
X119684999Y-115337854D01*
X119685000Y-115337854D01*
X119685000Y-114108482D01*
X119703409Y-114119111D01*
X119856009Y-114160000D01*
X120013991Y-114160000D01*
X120166591Y-114119111D01*
X120185000Y-114108482D01*
X120185000Y-115337854D01*
X120262834Y-115325526D01*
X120262837Y-115325526D01*
X120472410Y-115257432D01*
X120668760Y-115157386D01*
X120847041Y-115027857D01*
X121002857Y-114872041D01*
X121002862Y-114872035D01*
X121104372Y-114732319D01*
X121159702Y-114689653D01*
X121229315Y-114683674D01*
X121291110Y-114716279D01*
X121305008Y-114732319D01*
X121406752Y-114872358D01*
X121406756Y-114872363D01*
X121562636Y-115028243D01*
X121562641Y-115028247D01*
X121718192Y-115141260D01*
X121740978Y-115157815D01*
X121857501Y-115217187D01*
X121937393Y-115257895D01*
X121937396Y-115257896D01*
X122042221Y-115291955D01*
X122147049Y-115326015D01*
X122364778Y-115360500D01*
X122364779Y-115360500D01*
X122585221Y-115360500D01*
X122585222Y-115360500D01*
X122802951Y-115326015D01*
X123012606Y-115257895D01*
X123209022Y-115157815D01*
X123387365Y-115028242D01*
X123543242Y-114872365D01*
X123553804Y-114857826D01*
X123644682Y-114732745D01*
X123700011Y-114690079D01*
X123769625Y-114684100D01*
X123831420Y-114716705D01*
X123845318Y-114732745D01*
X123946752Y-114872358D01*
X123946756Y-114872363D01*
X124102636Y-115028243D01*
X124102641Y-115028247D01*
X124258192Y-115141260D01*
X124280978Y-115157815D01*
X124397501Y-115217187D01*
X124477393Y-115257895D01*
X124477396Y-115257896D01*
X124582221Y-115291955D01*
X124687049Y-115326015D01*
X124904778Y-115360500D01*
X124904779Y-115360500D01*
X125125221Y-115360500D01*
X125125222Y-115360500D01*
X125342951Y-115326015D01*
X125552606Y-115257895D01*
X125749022Y-115157815D01*
X125927365Y-115028242D01*
X126083242Y-114872365D01*
X126093804Y-114857826D01*
X126184682Y-114732745D01*
X126240011Y-114690079D01*
X126309625Y-114684100D01*
X126371420Y-114716705D01*
X126385318Y-114732745D01*
X126486752Y-114872358D01*
X126486756Y-114872363D01*
X126642636Y-115028243D01*
X126642641Y-115028247D01*
X126798192Y-115141260D01*
X126820978Y-115157815D01*
X126937501Y-115217187D01*
X127017393Y-115257895D01*
X127017396Y-115257896D01*
X127122221Y-115291955D01*
X127227049Y-115326015D01*
X127444778Y-115360500D01*
X127444779Y-115360500D01*
X127665221Y-115360500D01*
X127665222Y-115360500D01*
X127882951Y-115326015D01*
X128092606Y-115257895D01*
X128289022Y-115157815D01*
X128467365Y-115028242D01*
X128623242Y-114872365D01*
X128633804Y-114857826D01*
X128724682Y-114732745D01*
X128780011Y-114690079D01*
X128849625Y-114684100D01*
X128911420Y-114716705D01*
X128925318Y-114732745D01*
X129026752Y-114872358D01*
X129026756Y-114872363D01*
X129182636Y-115028243D01*
X129182641Y-115028247D01*
X129338192Y-115141260D01*
X129360978Y-115157815D01*
X129477501Y-115217187D01*
X129557393Y-115257895D01*
X129557396Y-115257896D01*
X129662221Y-115291955D01*
X129767049Y-115326015D01*
X129984778Y-115360500D01*
X129984779Y-115360500D01*
X130205221Y-115360500D01*
X130205222Y-115360500D01*
X130422951Y-115326015D01*
X130632606Y-115257895D01*
X130829022Y-115157815D01*
X131007365Y-115028242D01*
X131163242Y-114872365D01*
X131173804Y-114857826D01*
X131264682Y-114732745D01*
X131320011Y-114690079D01*
X131389625Y-114684100D01*
X131451420Y-114716705D01*
X131465318Y-114732745D01*
X131566752Y-114872358D01*
X131566756Y-114872363D01*
X131722636Y-115028243D01*
X131722641Y-115028247D01*
X131878192Y-115141260D01*
X131900978Y-115157815D01*
X132017501Y-115217187D01*
X132097393Y-115257895D01*
X132097396Y-115257896D01*
X132202221Y-115291955D01*
X132307049Y-115326015D01*
X132524778Y-115360500D01*
X132524779Y-115360500D01*
X132745221Y-115360500D01*
X132745222Y-115360500D01*
X132962951Y-115326015D01*
X133172606Y-115257895D01*
X133369022Y-115157815D01*
X133547365Y-115028242D01*
X133703242Y-114872365D01*
X133713804Y-114857826D01*
X133804682Y-114732745D01*
X133860011Y-114690079D01*
X133929625Y-114684100D01*
X133991420Y-114716705D01*
X134005318Y-114732745D01*
X134106752Y-114872358D01*
X134106756Y-114872363D01*
X134262636Y-115028243D01*
X134262641Y-115028247D01*
X134418192Y-115141260D01*
X134440978Y-115157815D01*
X134557501Y-115217187D01*
X134637393Y-115257895D01*
X134637396Y-115257896D01*
X134742221Y-115291955D01*
X134847049Y-115326015D01*
X135064778Y-115360500D01*
X135064779Y-115360500D01*
X135285221Y-115360500D01*
X135285222Y-115360500D01*
X135502951Y-115326015D01*
X135712606Y-115257895D01*
X135909022Y-115157815D01*
X136087365Y-115028242D01*
X136243242Y-114872365D01*
X136253804Y-114857826D01*
X136344682Y-114732745D01*
X136400011Y-114690079D01*
X136469625Y-114684100D01*
X136531420Y-114716705D01*
X136545318Y-114732745D01*
X136646752Y-114872358D01*
X136646756Y-114872363D01*
X136802636Y-115028243D01*
X136802641Y-115028247D01*
X136958192Y-115141260D01*
X136980978Y-115157815D01*
X137097501Y-115217187D01*
X137177393Y-115257895D01*
X137177396Y-115257896D01*
X137282221Y-115291955D01*
X137387049Y-115326015D01*
X137604778Y-115360500D01*
X137604779Y-115360500D01*
X137825221Y-115360500D01*
X137825222Y-115360500D01*
X138042951Y-115326015D01*
X138252606Y-115257895D01*
X138449022Y-115157815D01*
X138627365Y-115028242D01*
X138783242Y-114872365D01*
X138793804Y-114857826D01*
X138884682Y-114732745D01*
X138940011Y-114690079D01*
X139009625Y-114684100D01*
X139071420Y-114716705D01*
X139085318Y-114732745D01*
X139186752Y-114872358D01*
X139186756Y-114872363D01*
X139342636Y-115028243D01*
X139342641Y-115028247D01*
X139498192Y-115141260D01*
X139520978Y-115157815D01*
X139637501Y-115217187D01*
X139717393Y-115257895D01*
X139717396Y-115257896D01*
X139822221Y-115291955D01*
X139927049Y-115326015D01*
X140144778Y-115360500D01*
X140144779Y-115360500D01*
X140365221Y-115360500D01*
X140365222Y-115360500D01*
X140582951Y-115326015D01*
X140792606Y-115257895D01*
X140989022Y-115157815D01*
X141167365Y-115028242D01*
X141323242Y-114872365D01*
X141333804Y-114857826D01*
X141424682Y-114732745D01*
X141480011Y-114690079D01*
X141549625Y-114684100D01*
X141611420Y-114716705D01*
X141625318Y-114732745D01*
X141726752Y-114872358D01*
X141726756Y-114872363D01*
X141882636Y-115028243D01*
X141882641Y-115028247D01*
X142038192Y-115141260D01*
X142060978Y-115157815D01*
X142177501Y-115217187D01*
X142257393Y-115257895D01*
X142257396Y-115257896D01*
X142362221Y-115291955D01*
X142467049Y-115326015D01*
X142684778Y-115360500D01*
X142684779Y-115360500D01*
X142905221Y-115360500D01*
X142905222Y-115360500D01*
X143122951Y-115326015D01*
X143332606Y-115257895D01*
X143529022Y-115157815D01*
X143707365Y-115028242D01*
X143863242Y-114872365D01*
X143873804Y-114857826D01*
X143964682Y-114732745D01*
X144020011Y-114690079D01*
X144089625Y-114684100D01*
X144151420Y-114716705D01*
X144165318Y-114732745D01*
X144266752Y-114872358D01*
X144266756Y-114872363D01*
X144422636Y-115028243D01*
X144422641Y-115028247D01*
X144578192Y-115141260D01*
X144600978Y-115157815D01*
X144717501Y-115217187D01*
X144797393Y-115257895D01*
X144797396Y-115257896D01*
X144902221Y-115291955D01*
X145007049Y-115326015D01*
X145224778Y-115360500D01*
X145224779Y-115360500D01*
X145445221Y-115360500D01*
X145445222Y-115360500D01*
X145662951Y-115326015D01*
X145872606Y-115257895D01*
X146069022Y-115157815D01*
X146247365Y-115028242D01*
X146403242Y-114872365D01*
X146413804Y-114857826D01*
X146504682Y-114732745D01*
X146560011Y-114690079D01*
X146629625Y-114684100D01*
X146691420Y-114716705D01*
X146705318Y-114732745D01*
X146806752Y-114872358D01*
X146806756Y-114872363D01*
X146962636Y-115028243D01*
X146962641Y-115028247D01*
X147118192Y-115141260D01*
X147140978Y-115157815D01*
X147257501Y-115217187D01*
X147337393Y-115257895D01*
X147337396Y-115257896D01*
X147442221Y-115291955D01*
X147547049Y-115326015D01*
X147764778Y-115360500D01*
X147764779Y-115360500D01*
X147985221Y-115360500D01*
X147985222Y-115360500D01*
X148202951Y-115326015D01*
X148412606Y-115257895D01*
X148609022Y-115157815D01*
X148787365Y-115028242D01*
X148943242Y-114872365D01*
X149072815Y-114694022D01*
X149172895Y-114497606D01*
X149241015Y-114287951D01*
X149275500Y-114070222D01*
X149275500Y-113428872D01*
X177274500Y-113428872D01*
X177274500Y-113691127D01*
X177290151Y-113810000D01*
X177308730Y-113951116D01*
X177353744Y-114119111D01*
X177376602Y-114204418D01*
X177376605Y-114204428D01*
X177476953Y-114446690D01*
X177476958Y-114446700D01*
X177608075Y-114673803D01*
X177767718Y-114881851D01*
X177767726Y-114881860D01*
X177953140Y-115067274D01*
X177953148Y-115067281D01*
X178161196Y-115226924D01*
X178388299Y-115358041D01*
X178388309Y-115358046D01*
X178630571Y-115458394D01*
X178630581Y-115458398D01*
X178883884Y-115526270D01*
X179143880Y-115560500D01*
X179143887Y-115560500D01*
X179406113Y-115560500D01*
X179406120Y-115560500D01*
X179666116Y-115526270D01*
X179919419Y-115458398D01*
X180096340Y-115385114D01*
X180161690Y-115358046D01*
X180161691Y-115358045D01*
X180161697Y-115358043D01*
X180388803Y-115226924D01*
X180596851Y-115067282D01*
X180596855Y-115067277D01*
X180596860Y-115067274D01*
X180782274Y-114881860D01*
X180782277Y-114881855D01*
X180782282Y-114881851D01*
X180941924Y-114673803D01*
X181073043Y-114446697D01*
X181173398Y-114204419D01*
X181241270Y-113951116D01*
X181275500Y-113691120D01*
X181275500Y-113428880D01*
X181241270Y-113168884D01*
X181173398Y-112915581D01*
X181138797Y-112832047D01*
X181073046Y-112673309D01*
X181073041Y-112673299D01*
X180941924Y-112446196D01*
X180789809Y-112247958D01*
X180782282Y-112238149D01*
X180782281Y-112238148D01*
X180782274Y-112238140D01*
X180596860Y-112052726D01*
X180596851Y-112052718D01*
X180388803Y-111893075D01*
X180161700Y-111761958D01*
X180161690Y-111761953D01*
X179919428Y-111661605D01*
X179919421Y-111661603D01*
X179919419Y-111661602D01*
X179666116Y-111593730D01*
X179608339Y-111586123D01*
X179406127Y-111559500D01*
X179406120Y-111559500D01*
X179143880Y-111559500D01*
X179143872Y-111559500D01*
X178917327Y-111589327D01*
X178883884Y-111593730D01*
X178630581Y-111661602D01*
X178630571Y-111661605D01*
X178388309Y-111761953D01*
X178388299Y-111761958D01*
X178161196Y-111893075D01*
X177953148Y-112052718D01*
X177767718Y-112238148D01*
X177608075Y-112446196D01*
X177476958Y-112673299D01*
X177476953Y-112673309D01*
X177376605Y-112915571D01*
X177376602Y-112915581D01*
X177308730Y-113168885D01*
X177274500Y-113428872D01*
X149275500Y-113428872D01*
X149275500Y-113049778D01*
X149241015Y-112832049D01*
X149172895Y-112622394D01*
X149172895Y-112622393D01*
X149138237Y-112554375D01*
X149072815Y-112425978D01*
X149044681Y-112387254D01*
X148943247Y-112247641D01*
X148943243Y-112247636D01*
X148787363Y-112091756D01*
X148787358Y-112091752D01*
X148609025Y-111962187D01*
X148609024Y-111962186D01*
X148609022Y-111962185D01*
X148538392Y-111926197D01*
X148412606Y-111862104D01*
X148412603Y-111862103D01*
X148202952Y-111793985D01*
X148094086Y-111776742D01*
X147985222Y-111759500D01*
X147764778Y-111759500D01*
X147692201Y-111770995D01*
X147547047Y-111793985D01*
X147337396Y-111862103D01*
X147337393Y-111862104D01*
X147140974Y-111962187D01*
X146962641Y-112091752D01*
X146962636Y-112091756D01*
X146806756Y-112247636D01*
X146806752Y-112247641D01*
X146705318Y-112387254D01*
X146649988Y-112429920D01*
X146580375Y-112435899D01*
X146518580Y-112403293D01*
X146504682Y-112387254D01*
X146403247Y-112247641D01*
X146403243Y-112247636D01*
X146247363Y-112091756D01*
X146247358Y-112091752D01*
X146069025Y-111962187D01*
X146069024Y-111962186D01*
X146069022Y-111962185D01*
X145998392Y-111926197D01*
X145872606Y-111862104D01*
X145872603Y-111862103D01*
X145664667Y-111794542D01*
X145606992Y-111755105D01*
X145579793Y-111690746D01*
X145591707Y-111621900D01*
X145615301Y-111588933D01*
X153567416Y-103636819D01*
X153628739Y-103603334D01*
X153655097Y-103600500D01*
X170413331Y-103600500D01*
X170413347Y-103600501D01*
X170420943Y-103600501D01*
X170579054Y-103600501D01*
X170579057Y-103600501D01*
X170731785Y-103559577D01*
X170781904Y-103530639D01*
X170868716Y-103480520D01*
X170980520Y-103368716D01*
X170980520Y-103368714D01*
X170990728Y-103358507D01*
X170990730Y-103358504D01*
X172808713Y-101540521D01*
X172808716Y-101540520D01*
X172920520Y-101428716D01*
X172970639Y-101341904D01*
X172999577Y-101291785D01*
X173040500Y-101139058D01*
X173040500Y-100980943D01*
X173040500Y-100375800D01*
X173060185Y-100308761D01*
X173112989Y-100263006D01*
X173182147Y-100253062D01*
X173202820Y-100257870D01*
X173235458Y-100268475D01*
X173235461Y-100268475D01*
X173235466Y-100268477D01*
X173437648Y-100300500D01*
X173437649Y-100300500D01*
X173642351Y-100300500D01*
X173642352Y-100300500D01*
X173844534Y-100268477D01*
X174039219Y-100205220D01*
X174221610Y-100112287D01*
X174314590Y-100044732D01*
X174387213Y-99991971D01*
X174387215Y-99991968D01*
X174387219Y-99991966D01*
X174531966Y-99847219D01*
X174531968Y-99847215D01*
X174531971Y-99847213D01*
X174652284Y-99681614D01*
X174652286Y-99681611D01*
X174652287Y-99681610D01*
X174699516Y-99588917D01*
X174747489Y-99538123D01*
X174815310Y-99521328D01*
X174881445Y-99543865D01*
X174920483Y-99588917D01*
X174927730Y-99603139D01*
X174967715Y-99681614D01*
X175088028Y-99847213D01*
X175232786Y-99991971D01*
X175353226Y-100079474D01*
X175398390Y-100112287D01*
X175506061Y-100167148D01*
X175580776Y-100205218D01*
X175580778Y-100205218D01*
X175580781Y-100205220D01*
X175669932Y-100234187D01*
X175775465Y-100268477D01*
X175876557Y-100284488D01*
X175977648Y-100300500D01*
X175977649Y-100300500D01*
X176182351Y-100300500D01*
X176182352Y-100300500D01*
X176384534Y-100268477D01*
X176579219Y-100205220D01*
X176761610Y-100112287D01*
X176854590Y-100044732D01*
X176927213Y-99991971D01*
X176927215Y-99991968D01*
X176927219Y-99991966D01*
X177071966Y-99847219D01*
X177071968Y-99847215D01*
X177071971Y-99847213D01*
X177192284Y-99681614D01*
X177192286Y-99681611D01*
X177192287Y-99681610D01*
X177239516Y-99588917D01*
X177287489Y-99538123D01*
X177355310Y-99521328D01*
X177421445Y-99543865D01*
X177460483Y-99588917D01*
X177467730Y-99603139D01*
X177507715Y-99681614D01*
X177628028Y-99847213D01*
X177772786Y-99991971D01*
X177893226Y-100079474D01*
X177938390Y-100112287D01*
X178046061Y-100167148D01*
X178120776Y-100205218D01*
X178120778Y-100205218D01*
X178120781Y-100205220D01*
X178209932Y-100234187D01*
X178315465Y-100268477D01*
X178416557Y-100284488D01*
X178517648Y-100300500D01*
X178517649Y-100300500D01*
X178722351Y-100300500D01*
X178722352Y-100300500D01*
X178924534Y-100268477D01*
X179119219Y-100205220D01*
X179301610Y-100112287D01*
X179394590Y-100044732D01*
X179467213Y-99991971D01*
X179467215Y-99991968D01*
X179467219Y-99991966D01*
X179611966Y-99847219D01*
X179611968Y-99847215D01*
X179611971Y-99847213D01*
X179732284Y-99681614D01*
X179732286Y-99681611D01*
X179732287Y-99681610D01*
X179779516Y-99588917D01*
X179827489Y-99538123D01*
X179895310Y-99521328D01*
X179961445Y-99543865D01*
X180000483Y-99588917D01*
X180007730Y-99603139D01*
X180047715Y-99681614D01*
X180168028Y-99847213D01*
X180312786Y-99991971D01*
X180433226Y-100079474D01*
X180478390Y-100112287D01*
X180586061Y-100167148D01*
X180660776Y-100205218D01*
X180660778Y-100205218D01*
X180660781Y-100205220D01*
X180749932Y-100234187D01*
X180855465Y-100268477D01*
X180956557Y-100284488D01*
X181057648Y-100300500D01*
X181057649Y-100300500D01*
X181262351Y-100300500D01*
X181262352Y-100300500D01*
X181464534Y-100268477D01*
X181659219Y-100205220D01*
X181841610Y-100112287D01*
X181934590Y-100044732D01*
X182007213Y-99991971D01*
X182007215Y-99991968D01*
X182007219Y-99991966D01*
X182151966Y-99847219D01*
X182151968Y-99847215D01*
X182151971Y-99847213D01*
X182204732Y-99774590D01*
X182272287Y-99681610D01*
X182365220Y-99499219D01*
X182428477Y-99304534D01*
X182460500Y-99102352D01*
X182460500Y-98897648D01*
X182442725Y-98785421D01*
X182428477Y-98695465D01*
X182390584Y-98578844D01*
X182365220Y-98500781D01*
X182365218Y-98500778D01*
X182365218Y-98500776D01*
X182324647Y-98421153D01*
X182272287Y-98318390D01*
X182248400Y-98285512D01*
X182151971Y-98152786D01*
X182007213Y-98008028D01*
X181841613Y-97887715D01*
X181841612Y-97887714D01*
X181841610Y-97887713D01*
X181774921Y-97853733D01*
X181659223Y-97794781D01*
X181464534Y-97731522D01*
X181276690Y-97701771D01*
X181262352Y-97699500D01*
X181057648Y-97699500D01*
X181043310Y-97701771D01*
X180855465Y-97731522D01*
X180660776Y-97794781D01*
X180478386Y-97887715D01*
X180312786Y-98008028D01*
X180168028Y-98152786D01*
X180047715Y-98318386D01*
X180000485Y-98411080D01*
X179952510Y-98461876D01*
X179884689Y-98478671D01*
X179818554Y-98456134D01*
X179779515Y-98411080D01*
X179763251Y-98379160D01*
X179732287Y-98318390D01*
X179708400Y-98285512D01*
X179611971Y-98152786D01*
X179467213Y-98008028D01*
X179301613Y-97887715D01*
X179301612Y-97887714D01*
X179301610Y-97887713D01*
X179234921Y-97853733D01*
X179119223Y-97794781D01*
X178924534Y-97731522D01*
X178736690Y-97701771D01*
X178722352Y-97699500D01*
X178529097Y-97699500D01*
X178462058Y-97679815D01*
X178416303Y-97627011D01*
X178406359Y-97557853D01*
X178435384Y-97494297D01*
X178441416Y-97487819D01*
X179236116Y-96693119D01*
X180370520Y-95558716D01*
X180449577Y-95421784D01*
X180490501Y-95269057D01*
X180490501Y-95110942D01*
X180490501Y-95103347D01*
X180490500Y-95103329D01*
X180490500Y-92700266D01*
X180510185Y-92633227D01*
X180562989Y-92587472D01*
X180632147Y-92577528D01*
X180656029Y-92584080D01*
X180656148Y-92583714D01*
X180660777Y-92585218D01*
X180660781Y-92585220D01*
X180768888Y-92620346D01*
X180855465Y-92648477D01*
X180956557Y-92664488D01*
X181057648Y-92680500D01*
X181057649Y-92680500D01*
X181262351Y-92680500D01*
X181262352Y-92680500D01*
X181464534Y-92648477D01*
X181659219Y-92585220D01*
X181841610Y-92492287D01*
X181970482Y-92398657D01*
X182007213Y-92371971D01*
X182007215Y-92371968D01*
X182007219Y-92371966D01*
X182151966Y-92227219D01*
X182151968Y-92227215D01*
X182151971Y-92227213D01*
X182220021Y-92133548D01*
X182272287Y-92061610D01*
X182365220Y-91879219D01*
X182428477Y-91684534D01*
X182460500Y-91482352D01*
X182460500Y-91277648D01*
X182447430Y-91195131D01*
X182428477Y-91075465D01*
X182388957Y-90953837D01*
X182365220Y-90880781D01*
X182365218Y-90880778D01*
X182365218Y-90880776D01*
X182313865Y-90779991D01*
X182272287Y-90698390D01*
X182240092Y-90654077D01*
X182151971Y-90532786D01*
X182007213Y-90388028D01*
X181841613Y-90267715D01*
X181841612Y-90267714D01*
X181841610Y-90267713D01*
X181775305Y-90233929D01*
X181659223Y-90174781D01*
X181464534Y-90111522D01*
X181289995Y-90083878D01*
X181262352Y-90079500D01*
X181057648Y-90079500D01*
X180997378Y-90089046D01*
X180855464Y-90111523D01*
X180855461Y-90111523D01*
X180656147Y-90176285D01*
X180655717Y-90174963D01*
X180592486Y-90181763D01*
X180530006Y-90150490D01*
X180494352Y-90090402D01*
X180490500Y-90059733D01*
X180490500Y-84911601D01*
X180510185Y-84844562D01*
X180562989Y-84798807D01*
X180632147Y-84788863D01*
X180652820Y-84793671D01*
X180723866Y-84816756D01*
X180723872Y-84816757D01*
X180933754Y-84850000D01*
X181146246Y-84850000D01*
X181356127Y-84816757D01*
X181356130Y-84816757D01*
X181558217Y-84751095D01*
X181747554Y-84654622D01*
X181801716Y-84615270D01*
X181801717Y-84615270D01*
X181169409Y-83982962D01*
X181232993Y-83965925D01*
X181347007Y-83900099D01*
X181440099Y-83807007D01*
X181505925Y-83692993D01*
X181522962Y-83629408D01*
X182155270Y-84261717D01*
X182155270Y-84261716D01*
X182194622Y-84207554D01*
X182291095Y-84018217D01*
X182356757Y-83816130D01*
X182356757Y-83816127D01*
X182390000Y-83606246D01*
X182390000Y-83393753D01*
X182356757Y-83183872D01*
X182356757Y-83183869D01*
X182291095Y-82981782D01*
X182194624Y-82792449D01*
X182155270Y-82738282D01*
X182155269Y-82738282D01*
X181522962Y-83370590D01*
X181505925Y-83307007D01*
X181440099Y-83192993D01*
X181347007Y-83099901D01*
X181232993Y-83034075D01*
X181169407Y-83017036D01*
X181801716Y-82384728D01*
X181747547Y-82345373D01*
X181747547Y-82345372D01*
X181738500Y-82340763D01*
X181687706Y-82292788D01*
X181670912Y-82224966D01*
X181693451Y-82158832D01*
X181738508Y-82119793D01*
X181747816Y-82115051D01*
X181873591Y-82023671D01*
X181919786Y-81990109D01*
X181919788Y-81990106D01*
X181919792Y-81990104D01*
X182070104Y-81839792D01*
X182070106Y-81839788D01*
X182070109Y-81839786D01*
X182195048Y-81667820D01*
X182195047Y-81667820D01*
X182195051Y-81667816D01*
X182291557Y-81478412D01*
X182357246Y-81276243D01*
X182390500Y-81066287D01*
X182390500Y-80853713D01*
X182357246Y-80643757D01*
X182291557Y-80441588D01*
X182195051Y-80252184D01*
X182195049Y-80252181D01*
X182195048Y-80252179D01*
X182070109Y-80080213D01*
X181919786Y-79929890D01*
X181747820Y-79804951D01*
X181747115Y-79804591D01*
X181739054Y-79800485D01*
X181688259Y-79752512D01*
X181671463Y-79684692D01*
X181693999Y-79618556D01*
X181739054Y-79579515D01*
X181747816Y-79575051D01*
X181814578Y-79526546D01*
X181919786Y-79450109D01*
X181919788Y-79450106D01*
X181919792Y-79450104D01*
X182070104Y-79299792D01*
X182070106Y-79299788D01*
X182070109Y-79299786D01*
X182195048Y-79127820D01*
X182195047Y-79127820D01*
X182195051Y-79127816D01*
X182291557Y-78938412D01*
X182357246Y-78736243D01*
X182390500Y-78526287D01*
X182390500Y-78313713D01*
X182357246Y-78103757D01*
X182291557Y-77901588D01*
X182195051Y-77712184D01*
X182195049Y-77712181D01*
X182195048Y-77712179D01*
X182070109Y-77540213D01*
X181919786Y-77389890D01*
X181747820Y-77264951D01*
X181558414Y-77168444D01*
X181558413Y-77168443D01*
X181558412Y-77168443D01*
X181356243Y-77102754D01*
X181356241Y-77102753D01*
X181356240Y-77102753D01*
X181194957Y-77077208D01*
X181146287Y-77069500D01*
X180933713Y-77069500D01*
X180885042Y-77077208D01*
X180723760Y-77102753D01*
X180521585Y-77168444D01*
X180332179Y-77264951D01*
X180160215Y-77389889D01*
X180046673Y-77503431D01*
X179985350Y-77536915D01*
X179915658Y-77531931D01*
X179859725Y-77490059D01*
X179842810Y-77459082D01*
X179793797Y-77327671D01*
X179793793Y-77327664D01*
X179707547Y-77212455D01*
X179707544Y-77212452D01*
X179592335Y-77126206D01*
X179592328Y-77126202D01*
X179457482Y-77075908D01*
X179457483Y-77075908D01*
X179397883Y-77069501D01*
X179397881Y-77069500D01*
X179397873Y-77069500D01*
X179397864Y-77069500D01*
X177602129Y-77069500D01*
X177602123Y-77069501D01*
X177542516Y-77075908D01*
X177407671Y-77126202D01*
X177407664Y-77126206D01*
X177292455Y-77212452D01*
X177292452Y-77212455D01*
X177206206Y-77327664D01*
X177206202Y-77327671D01*
X177155908Y-77462517D01*
X177149501Y-77522116D01*
X177149500Y-77522135D01*
X177149500Y-79317870D01*
X177149501Y-79317876D01*
X177155908Y-79377483D01*
X177206202Y-79512328D01*
X177206206Y-79512335D01*
X177292452Y-79627544D01*
X177292455Y-79627547D01*
X177407664Y-79713793D01*
X177407671Y-79713797D01*
X177539082Y-79762810D01*
X177595016Y-79804681D01*
X177619433Y-79870145D01*
X177604582Y-79938418D01*
X177583431Y-79966673D01*
X177469889Y-80080215D01*
X177344951Y-80252179D01*
X177248444Y-80441585D01*
X177182753Y-80643760D01*
X177149500Y-80853713D01*
X177149500Y-81066286D01*
X177182753Y-81276239D01*
X177248444Y-81478414D01*
X177344951Y-81667820D01*
X177469890Y-81839786D01*
X177620213Y-81990109D01*
X177792182Y-82115050D01*
X177800946Y-82119516D01*
X177851742Y-82167491D01*
X177868536Y-82235312D01*
X177845998Y-82301447D01*
X177800946Y-82340484D01*
X177792182Y-82344949D01*
X177620213Y-82469890D01*
X177469890Y-82620213D01*
X177344951Y-82792179D01*
X177248444Y-82981585D01*
X177182753Y-83183760D01*
X177149500Y-83393713D01*
X177149500Y-83606286D01*
X177182735Y-83816127D01*
X177182754Y-83816243D01*
X177245803Y-84010288D01*
X177248444Y-84018414D01*
X177344951Y-84207820D01*
X177469890Y-84379786D01*
X177620213Y-84530109D01*
X177792184Y-84655051D01*
X177792184Y-84655052D01*
X177831793Y-84675233D01*
X177882590Y-84723206D01*
X177899500Y-84785718D01*
X177899500Y-85113444D01*
X177879815Y-85180483D01*
X177827011Y-85226238D01*
X177757853Y-85236182D01*
X177739575Y-85231202D01*
X177739324Y-85232031D01*
X177733500Y-85230264D01*
X177733497Y-85230263D01*
X177733492Y-85230262D01*
X177733489Y-85230261D01*
X177578845Y-85199500D01*
X177578842Y-85199500D01*
X177421158Y-85199500D01*
X177421155Y-85199500D01*
X177266510Y-85230261D01*
X177266498Y-85230264D01*
X177120827Y-85290602D01*
X177120814Y-85290609D01*
X176989711Y-85378210D01*
X176989707Y-85378213D01*
X176878213Y-85489707D01*
X176878210Y-85489711D01*
X176790609Y-85620814D01*
X176790602Y-85620827D01*
X176730264Y-85766498D01*
X176730261Y-85766510D01*
X176699500Y-85921153D01*
X176699500Y-86078846D01*
X176730261Y-86233489D01*
X176730264Y-86233501D01*
X176790061Y-86377864D01*
X176799500Y-86425316D01*
X176799500Y-90084668D01*
X176779815Y-90151707D01*
X176727011Y-90197462D01*
X176657853Y-90207406D01*
X176619207Y-90195154D01*
X176579223Y-90174782D01*
X176579222Y-90174781D01*
X176579219Y-90174780D01*
X176488135Y-90145185D01*
X176384534Y-90111522D01*
X176209995Y-90083878D01*
X176182352Y-90079500D01*
X175977648Y-90079500D01*
X175965911Y-90081359D01*
X175775465Y-90111522D01*
X175580776Y-90174781D01*
X175398386Y-90267715D01*
X175232786Y-90388028D01*
X175088028Y-90532786D01*
X174967715Y-90698386D01*
X174920485Y-90791080D01*
X174872510Y-90841876D01*
X174804689Y-90858671D01*
X174738554Y-90836134D01*
X174699515Y-90791080D01*
X174690842Y-90774058D01*
X174652287Y-90698390D01*
X174620092Y-90654077D01*
X174531971Y-90532786D01*
X174387213Y-90388028D01*
X174221613Y-90267715D01*
X174221612Y-90267714D01*
X174221610Y-90267713D01*
X174155305Y-90233929D01*
X174039223Y-90174781D01*
X173844534Y-90111522D01*
X173669995Y-90083878D01*
X173642352Y-90079500D01*
X173437648Y-90079500D01*
X173425911Y-90081359D01*
X173235465Y-90111522D01*
X173040776Y-90174781D01*
X172858386Y-90267715D01*
X172692786Y-90388028D01*
X172548028Y-90532786D01*
X172427715Y-90698386D01*
X172380485Y-90791080D01*
X172332510Y-90841876D01*
X172264689Y-90858671D01*
X172198554Y-90836134D01*
X172159515Y-90791080D01*
X172150842Y-90774058D01*
X172112287Y-90698390D01*
X172080092Y-90654077D01*
X171991971Y-90532786D01*
X171847217Y-90388032D01*
X171847212Y-90388028D01*
X171741097Y-90310931D01*
X171698431Y-90255601D01*
X171692452Y-90185988D01*
X171725058Y-90124193D01*
X171726231Y-90123002D01*
X173570306Y-88278927D01*
X173631627Y-88245444D01*
X173638574Y-88244139D01*
X173792826Y-88219709D01*
X173980025Y-88158884D01*
X174155405Y-88069524D01*
X174314646Y-87953828D01*
X174453828Y-87814646D01*
X174569524Y-87655405D01*
X174658884Y-87480025D01*
X174719709Y-87292826D01*
X174749381Y-87105485D01*
X174750500Y-87098422D01*
X174750500Y-86901577D01*
X174719709Y-86707173D01*
X174658882Y-86519970D01*
X174587145Y-86379179D01*
X174569524Y-86344595D01*
X174453828Y-86185354D01*
X174314646Y-86046172D01*
X174155405Y-85930476D01*
X174137117Y-85921158D01*
X173980029Y-85841117D01*
X173792826Y-85780290D01*
X173598422Y-85749500D01*
X173598417Y-85749500D01*
X173401583Y-85749500D01*
X173401578Y-85749500D01*
X173207173Y-85780290D01*
X173019970Y-85841117D01*
X172844594Y-85930476D01*
X172753741Y-85996485D01*
X172685354Y-86046172D01*
X172685352Y-86046174D01*
X172685351Y-86046174D01*
X172546174Y-86185351D01*
X172546174Y-86185352D01*
X172546172Y-86185354D01*
X172511200Y-86233489D01*
X172430476Y-86344594D01*
X172341117Y-86519970D01*
X172280290Y-86707173D01*
X172249500Y-86901577D01*
X172249500Y-87098422D01*
X172280290Y-87292826D01*
X172341117Y-87480029D01*
X172411476Y-87618115D01*
X172424372Y-87686785D01*
X172398096Y-87751525D01*
X172388672Y-87762091D01*
X170631286Y-89519478D01*
X170519481Y-89631282D01*
X170519477Y-89631287D01*
X170493125Y-89676933D01*
X170493124Y-89676935D01*
X170440423Y-89768215D01*
X170399499Y-89920943D01*
X170399499Y-89920945D01*
X170399499Y-90089046D01*
X170399500Y-90089059D01*
X170399500Y-90150397D01*
X170379815Y-90217436D01*
X170331800Y-90260879D01*
X170318389Y-90267712D01*
X170152786Y-90388028D01*
X170008028Y-90532786D01*
X169887715Y-90698386D01*
X169840485Y-90791080D01*
X169792510Y-90841876D01*
X169724689Y-90858671D01*
X169658554Y-90836134D01*
X169619515Y-90791080D01*
X169610842Y-90774058D01*
X169572287Y-90698390D01*
X169540092Y-90654077D01*
X169451971Y-90532786D01*
X169307221Y-90388036D01*
X169307219Y-90388034D01*
X169271613Y-90362164D01*
X169228949Y-90306836D01*
X169220500Y-90261848D01*
X169220500Y-88172596D01*
X169240185Y-88105557D01*
X169271614Y-88072278D01*
X169275403Y-88069524D01*
X169275405Y-88069524D01*
X169434646Y-87953828D01*
X169573828Y-87814646D01*
X169689524Y-87655405D01*
X169778884Y-87480025D01*
X169839709Y-87292826D01*
X169869381Y-87105485D01*
X169870500Y-87098422D01*
X169870500Y-86901577D01*
X169839709Y-86707173D01*
X169778882Y-86519970D01*
X169707145Y-86379179D01*
X169689524Y-86344595D01*
X169573828Y-86185354D01*
X169434646Y-86046172D01*
X169275405Y-85930476D01*
X169257117Y-85921158D01*
X169100029Y-85841117D01*
X168912826Y-85780290D01*
X168718422Y-85749500D01*
X168718417Y-85749500D01*
X168521583Y-85749500D01*
X168521578Y-85749500D01*
X168327173Y-85780290D01*
X168139970Y-85841117D01*
X167964594Y-85930476D01*
X167873741Y-85996485D01*
X167805354Y-86046172D01*
X167805352Y-86046174D01*
X167805351Y-86046174D01*
X167666174Y-86185351D01*
X167666174Y-86185352D01*
X167666172Y-86185354D01*
X167631200Y-86233489D01*
X167550476Y-86344594D01*
X167461117Y-86519970D01*
X167400290Y-86707173D01*
X167369500Y-86901577D01*
X167369500Y-87098422D01*
X167400290Y-87292826D01*
X167461117Y-87480029D01*
X167531476Y-87618115D01*
X167550476Y-87655405D01*
X167666172Y-87814646D01*
X167805354Y-87953828D01*
X167964594Y-88069523D01*
X167968386Y-88072278D01*
X168011051Y-88127608D01*
X168019500Y-88172596D01*
X168019500Y-90068873D01*
X167999815Y-90135912D01*
X167951795Y-90179358D01*
X167778386Y-90267715D01*
X167612786Y-90388028D01*
X167468028Y-90532786D01*
X167347713Y-90698388D01*
X167300203Y-90791630D01*
X167252228Y-90842426D01*
X167184407Y-90859220D01*
X167118272Y-90836682D01*
X167079234Y-90791628D01*
X167031861Y-90698652D01*
X166999474Y-90654077D01*
X166999474Y-90654076D01*
X166320000Y-91333551D01*
X166320000Y-91327339D01*
X166292741Y-91225606D01*
X166240080Y-91134394D01*
X166165606Y-91059920D01*
X166074394Y-91007259D01*
X165972661Y-90980000D01*
X165966446Y-90980000D01*
X166645922Y-90300524D01*
X166645921Y-90300523D01*
X166601359Y-90268147D01*
X166601350Y-90268141D01*
X166419031Y-90175244D01*
X166224417Y-90112009D01*
X166022317Y-90080000D01*
X165817683Y-90080000D01*
X165615582Y-90112009D01*
X165420968Y-90175244D01*
X165238644Y-90268143D01*
X165194077Y-90300523D01*
X165194077Y-90300524D01*
X165873554Y-90980000D01*
X165867339Y-90980000D01*
X165765606Y-91007259D01*
X165674394Y-91059920D01*
X165599920Y-91134394D01*
X165547259Y-91225606D01*
X165520000Y-91327339D01*
X165520000Y-91333553D01*
X164840524Y-90654077D01*
X164840523Y-90654077D01*
X164808143Y-90698644D01*
X164760765Y-90791630D01*
X164712790Y-90842426D01*
X164644969Y-90859221D01*
X164578834Y-90836683D01*
X164539795Y-90791630D01*
X164530842Y-90774058D01*
X164492287Y-90698390D01*
X164492285Y-90698387D01*
X164492284Y-90698385D01*
X164371971Y-90532786D01*
X164227213Y-90388028D01*
X164061613Y-90267715D01*
X164061612Y-90267714D01*
X164061610Y-90267713D01*
X163995305Y-90233929D01*
X163879223Y-90174781D01*
X163684534Y-90111522D01*
X163509995Y-90083878D01*
X163482352Y-90079500D01*
X163277648Y-90079500D01*
X163265911Y-90081359D01*
X163075465Y-90111522D01*
X162880776Y-90174781D01*
X162698386Y-90267715D01*
X162532786Y-90388028D01*
X162388028Y-90532786D01*
X162267715Y-90698386D01*
X162220485Y-90791080D01*
X162172510Y-90841876D01*
X162104689Y-90858671D01*
X162038554Y-90836134D01*
X161999515Y-90791080D01*
X161990842Y-90774058D01*
X161952287Y-90698390D01*
X161920092Y-90654077D01*
X161831971Y-90532786D01*
X161687213Y-90388028D01*
X161521613Y-90267715D01*
X161521612Y-90267714D01*
X161521610Y-90267713D01*
X161455305Y-90233929D01*
X161339223Y-90174781D01*
X161144534Y-90111522D01*
X160969995Y-90083878D01*
X160942352Y-90079500D01*
X160737648Y-90079500D01*
X160725911Y-90081359D01*
X160535465Y-90111522D01*
X160340776Y-90174781D01*
X160158386Y-90267715D01*
X159992786Y-90388028D01*
X159848028Y-90532786D01*
X159727715Y-90698386D01*
X159680485Y-90791080D01*
X159632510Y-90841876D01*
X159564689Y-90858671D01*
X159498554Y-90836134D01*
X159459515Y-90791080D01*
X159450842Y-90774058D01*
X159412287Y-90698390D01*
X159380092Y-90654077D01*
X159291971Y-90532786D01*
X159147213Y-90388028D01*
X158981613Y-90267715D01*
X158981612Y-90267714D01*
X158981610Y-90267713D01*
X158915305Y-90233929D01*
X158799223Y-90174781D01*
X158604534Y-90111522D01*
X158429995Y-90083878D01*
X158402352Y-90079500D01*
X158197648Y-90079500D01*
X158185911Y-90081359D01*
X157995465Y-90111522D01*
X157800776Y-90174781D01*
X157618386Y-90267715D01*
X157452786Y-90388028D01*
X157308028Y-90532786D01*
X157187715Y-90698386D01*
X157140485Y-90791080D01*
X157092510Y-90841876D01*
X157024689Y-90858671D01*
X156958554Y-90836134D01*
X156919515Y-90791080D01*
X156910842Y-90774058D01*
X156872287Y-90698390D01*
X156840092Y-90654077D01*
X156751971Y-90532786D01*
X156607213Y-90388028D01*
X156441613Y-90267715D01*
X156441612Y-90267714D01*
X156441610Y-90267713D01*
X156375305Y-90233929D01*
X156259223Y-90174781D01*
X156064534Y-90111522D01*
X155889995Y-90083878D01*
X155862352Y-90079500D01*
X155657648Y-90079500D01*
X155645911Y-90081359D01*
X155455465Y-90111522D01*
X155260776Y-90174781D01*
X155078386Y-90267715D01*
X154912786Y-90388028D01*
X154768028Y-90532786D01*
X154647715Y-90698386D01*
X154600485Y-90791080D01*
X154552510Y-90841876D01*
X154484689Y-90858671D01*
X154418554Y-90836134D01*
X154379515Y-90791080D01*
X154370842Y-90774058D01*
X154332287Y-90698390D01*
X154300092Y-90654077D01*
X154211971Y-90532786D01*
X154123784Y-90444599D01*
X154090299Y-90383276D01*
X154095283Y-90313584D01*
X154137155Y-90257651D01*
X154176864Y-90237843D01*
X154297894Y-90202681D01*
X154436643Y-90120626D01*
X154550626Y-90006643D01*
X154632681Y-89867894D01*
X154677654Y-89713098D01*
X154680500Y-89676935D01*
X154680499Y-88323066D01*
X154677654Y-88286902D01*
X154632681Y-88132106D01*
X154550626Y-87993357D01*
X154550624Y-87993355D01*
X154550621Y-87993351D01*
X154436648Y-87879378D01*
X154436636Y-87879369D01*
X154297896Y-87797320D01*
X154297889Y-87797317D01*
X154143102Y-87752346D01*
X154143096Y-87752345D01*
X154106935Y-87749500D01*
X153703077Y-87749500D01*
X153703052Y-87749501D01*
X153666901Y-87752346D01*
X153512110Y-87797317D01*
X153512103Y-87797320D01*
X153373363Y-87879369D01*
X153373351Y-87879378D01*
X153357681Y-87895049D01*
X153296358Y-87928534D01*
X153226666Y-87923550D01*
X153182319Y-87895049D01*
X153166648Y-87879378D01*
X153166636Y-87879369D01*
X153027896Y-87797320D01*
X153027889Y-87797317D01*
X152873102Y-87752346D01*
X152873096Y-87752345D01*
X152836935Y-87749500D01*
X152433077Y-87749500D01*
X152433052Y-87749501D01*
X152396901Y-87752346D01*
X152242110Y-87797317D01*
X152242103Y-87797320D01*
X152103363Y-87879369D01*
X152103351Y-87879378D01*
X152087681Y-87895049D01*
X152026358Y-87928534D01*
X151956666Y-87923550D01*
X151912319Y-87895049D01*
X151896648Y-87879378D01*
X151896636Y-87879369D01*
X151757896Y-87797320D01*
X151757889Y-87797317D01*
X151603102Y-87752346D01*
X151603096Y-87752345D01*
X151566935Y-87749500D01*
X151163077Y-87749500D01*
X151163052Y-87749501D01*
X151126901Y-87752346D01*
X150972110Y-87797317D01*
X150972103Y-87797320D01*
X150833363Y-87879369D01*
X150833351Y-87879378D01*
X150817681Y-87895049D01*
X150756358Y-87928534D01*
X150686666Y-87923550D01*
X150642319Y-87895049D01*
X150626648Y-87879378D01*
X150626636Y-87879369D01*
X150487896Y-87797320D01*
X150487889Y-87797317D01*
X150333102Y-87752346D01*
X150333096Y-87752345D01*
X150319287Y-87751259D01*
X150253998Y-87726375D01*
X150241334Y-87715322D01*
X148271071Y-85745059D01*
X148244191Y-85704830D01*
X148209396Y-85620827D01*
X148209394Y-85620821D01*
X148209392Y-85620819D01*
X148209392Y-85620817D01*
X148121789Y-85489711D01*
X148121786Y-85489707D01*
X148010292Y-85378213D01*
X148010288Y-85378210D01*
X147879185Y-85290609D01*
X147879172Y-85290602D01*
X147733501Y-85230264D01*
X147733489Y-85230261D01*
X147578845Y-85199500D01*
X147578842Y-85199500D01*
X147421158Y-85199500D01*
X147421155Y-85199500D01*
X147266510Y-85230261D01*
X147266498Y-85230264D01*
X147120827Y-85290602D01*
X147120814Y-85290609D01*
X146989711Y-85378210D01*
X146989707Y-85378213D01*
X146878213Y-85489707D01*
X146878210Y-85489711D01*
X146790609Y-85620814D01*
X146790602Y-85620827D01*
X146730264Y-85766498D01*
X146730261Y-85766510D01*
X146699500Y-85921153D01*
X146699500Y-86078846D01*
X146730261Y-86233489D01*
X146730264Y-86233501D01*
X146790602Y-86379172D01*
X146790609Y-86379185D01*
X146878210Y-86510288D01*
X146878213Y-86510292D01*
X146989707Y-86621786D01*
X146989711Y-86621789D01*
X147120817Y-86709392D01*
X147120819Y-86709392D01*
X147120821Y-86709394D01*
X147204830Y-86744191D01*
X147245059Y-86771071D01*
X149283181Y-88809193D01*
X149316666Y-88870516D01*
X149319500Y-88896874D01*
X149319500Y-89676922D01*
X149319501Y-89676947D01*
X149322346Y-89713098D01*
X149367317Y-89867889D01*
X149367320Y-89867896D01*
X149449369Y-90006636D01*
X149449378Y-90006648D01*
X149563351Y-90120621D01*
X149563355Y-90120624D01*
X149563357Y-90120626D01*
X149563360Y-90120627D01*
X149563363Y-90120630D01*
X149622666Y-90155701D01*
X149689378Y-90195154D01*
X149702103Y-90202679D01*
X149702108Y-90202682D01*
X149745642Y-90215330D01*
X149804527Y-90252936D01*
X149833733Y-90316409D01*
X149823987Y-90385596D01*
X149798728Y-90422087D01*
X149688027Y-90532788D01*
X149619978Y-90626451D01*
X149564648Y-90669117D01*
X149495035Y-90675096D01*
X149433240Y-90642490D01*
X149401954Y-90592570D01*
X149374814Y-90510666D01*
X149282712Y-90361344D01*
X149158656Y-90237288D01*
X149064736Y-90179358D01*
X149009336Y-90145187D01*
X149009331Y-90145185D01*
X148981347Y-90135912D01*
X148842797Y-90090001D01*
X148842795Y-90090000D01*
X148740010Y-90079500D01*
X147539998Y-90079500D01*
X147539981Y-90079501D01*
X147437203Y-90090000D01*
X147437200Y-90090001D01*
X147270668Y-90145185D01*
X147270663Y-90145187D01*
X147121342Y-90237289D01*
X146997289Y-90361342D01*
X146905187Y-90510663D01*
X146905186Y-90510666D01*
X146850001Y-90677203D01*
X146850001Y-90677204D01*
X146850000Y-90677204D01*
X146839500Y-90779983D01*
X146839500Y-91980001D01*
X146839501Y-91980018D01*
X146850000Y-92082796D01*
X146850001Y-92082799D01*
X146866818Y-92133548D01*
X146905186Y-92249334D01*
X146997288Y-92398656D01*
X147121344Y-92522712D01*
X147270666Y-92614814D01*
X147437203Y-92669999D01*
X147539991Y-92680500D01*
X148740008Y-92680499D01*
X148842797Y-92669999D01*
X149009334Y-92614814D01*
X149158656Y-92522712D01*
X149282712Y-92398656D01*
X149374814Y-92249334D01*
X149401955Y-92167427D01*
X149441726Y-92109984D01*
X149506242Y-92083161D01*
X149575018Y-92095476D01*
X149619977Y-92133547D01*
X149688030Y-92227213D01*
X149688034Y-92227219D01*
X149832786Y-92371971D01*
X149953226Y-92459474D01*
X149998390Y-92492287D01*
X150087534Y-92537708D01*
X150180776Y-92585218D01*
X150180778Y-92585218D01*
X150180781Y-92585220D01*
X150255535Y-92609509D01*
X150375465Y-92648477D01*
X150476557Y-92664488D01*
X150577648Y-92680500D01*
X150577649Y-92680500D01*
X150782351Y-92680500D01*
X150782352Y-92680500D01*
X150984534Y-92648477D01*
X151179219Y-92585220D01*
X151361610Y-92492287D01*
X151490482Y-92398657D01*
X151527213Y-92371971D01*
X151527215Y-92371968D01*
X151527219Y-92371966D01*
X151671966Y-92227219D01*
X151671968Y-92227215D01*
X151671971Y-92227213D01*
X151792284Y-92061614D01*
X151792286Y-92061611D01*
X151792287Y-92061610D01*
X151839516Y-91968917D01*
X151887489Y-91918123D01*
X151955310Y-91901328D01*
X152021445Y-91923865D01*
X152060483Y-91968917D01*
X152066140Y-91980018D01*
X152107715Y-92061614D01*
X152228028Y-92227213D01*
X152372786Y-92371971D01*
X152493226Y-92459474D01*
X152538390Y-92492287D01*
X152627534Y-92537708D01*
X152720776Y-92585218D01*
X152720778Y-92585218D01*
X152720781Y-92585220D01*
X152795535Y-92609509D01*
X152915465Y-92648477D01*
X153016557Y-92664488D01*
X153117648Y-92680500D01*
X153117649Y-92680500D01*
X153310902Y-92680500D01*
X153377941Y-92700185D01*
X153423696Y-92752989D01*
X153433640Y-92822147D01*
X153404615Y-92885703D01*
X153398583Y-92892181D01*
X151927584Y-94363181D01*
X151866261Y-94396666D01*
X151839903Y-94399500D01*
X144810366Y-94399500D01*
X144743327Y-94379815D01*
X144697572Y-94327011D01*
X144687628Y-94257853D01*
X144716653Y-94194297D01*
X144772047Y-94157569D01*
X144825804Y-94140101D01*
X145036163Y-94032918D01*
X145036169Y-94032914D01*
X145119104Y-93972658D01*
X145119105Y-93972658D01*
X144420233Y-93273787D01*
X144462292Y-93262518D01*
X144587708Y-93190110D01*
X144690110Y-93087708D01*
X144762518Y-92962292D01*
X144773787Y-92920234D01*
X145472658Y-93619105D01*
X145472658Y-93619104D01*
X145532914Y-93536169D01*
X145532918Y-93536163D01*
X145640102Y-93325802D01*
X145713065Y-93101247D01*
X145750000Y-92868052D01*
X145750000Y-92631947D01*
X145713065Y-92398752D01*
X145640102Y-92174197D01*
X145532914Y-91963828D01*
X145472658Y-91880894D01*
X145472658Y-91880893D01*
X144773787Y-92579765D01*
X144762518Y-92537708D01*
X144690110Y-92412292D01*
X144587708Y-92309890D01*
X144462292Y-92237482D01*
X144420234Y-92226212D01*
X145119105Y-91527340D01*
X145119104Y-91527338D01*
X145036174Y-91467087D01*
X144825802Y-91359897D01*
X144601247Y-91286934D01*
X144601248Y-91286934D01*
X144368052Y-91250000D01*
X144131948Y-91250000D01*
X143898752Y-91286934D01*
X143674197Y-91359897D01*
X143463830Y-91467084D01*
X143380894Y-91527340D01*
X144079766Y-92226212D01*
X144037708Y-92237482D01*
X143912292Y-92309890D01*
X143809890Y-92412292D01*
X143737482Y-92537708D01*
X143726212Y-92579765D01*
X143027340Y-91880894D01*
X142967084Y-91963830D01*
X142859897Y-92174197D01*
X142786934Y-92398752D01*
X142750000Y-92631947D01*
X142750000Y-92868052D01*
X142786934Y-93101247D01*
X142859897Y-93325802D01*
X142967087Y-93536174D01*
X143027338Y-93619104D01*
X143027340Y-93619105D01*
X143726212Y-92920233D01*
X143737482Y-92962292D01*
X143809890Y-93087708D01*
X143912292Y-93190110D01*
X144037708Y-93262518D01*
X144079765Y-93273787D01*
X143380893Y-93972658D01*
X143463828Y-94032914D01*
X143674195Y-94140101D01*
X143727953Y-94157569D01*
X143785628Y-94197007D01*
X143812826Y-94261366D01*
X143800911Y-94330212D01*
X143753667Y-94381688D01*
X143689634Y-94399500D01*
X138310366Y-94399500D01*
X138243327Y-94379815D01*
X138197572Y-94327011D01*
X138187628Y-94257853D01*
X138216653Y-94194297D01*
X138272047Y-94157569D01*
X138325804Y-94140101D01*
X138536163Y-94032918D01*
X138536169Y-94032914D01*
X138619104Y-93972658D01*
X138619105Y-93972658D01*
X137920233Y-93273787D01*
X137962292Y-93262518D01*
X138087708Y-93190110D01*
X138190110Y-93087708D01*
X138262518Y-92962292D01*
X138273787Y-92920234D01*
X138972658Y-93619105D01*
X138972658Y-93619104D01*
X139032914Y-93536169D01*
X139032918Y-93536163D01*
X139140102Y-93325802D01*
X139213065Y-93101247D01*
X139250000Y-92868052D01*
X139250000Y-92631947D01*
X139213065Y-92398752D01*
X139140102Y-92174197D01*
X139032914Y-91963828D01*
X138972658Y-91880894D01*
X138972658Y-91880893D01*
X138273787Y-92579765D01*
X138262518Y-92537708D01*
X138190110Y-92412292D01*
X138087708Y-92309890D01*
X137962292Y-92237482D01*
X137920234Y-92226212D01*
X138619105Y-91527340D01*
X138619104Y-91527339D01*
X138536174Y-91467087D01*
X138325802Y-91359897D01*
X138101247Y-91286934D01*
X138101248Y-91286934D01*
X137868052Y-91250000D01*
X137631948Y-91250000D01*
X137398752Y-91286934D01*
X137174197Y-91359897D01*
X136963830Y-91467084D01*
X136880894Y-91527340D01*
X137579766Y-92226212D01*
X137537708Y-92237482D01*
X137412292Y-92309890D01*
X137309890Y-92412292D01*
X137237482Y-92537708D01*
X137226212Y-92579765D01*
X136527340Y-91880894D01*
X136467084Y-91963830D01*
X136359897Y-92174197D01*
X136286934Y-92398752D01*
X136250000Y-92631947D01*
X136250000Y-92868052D01*
X136286934Y-93101247D01*
X136359897Y-93325802D01*
X136467087Y-93536174D01*
X136527338Y-93619104D01*
X136527340Y-93619105D01*
X137226212Y-92920233D01*
X137237482Y-92962292D01*
X137309890Y-93087708D01*
X137412292Y-93190110D01*
X137537708Y-93262518D01*
X137579765Y-93273787D01*
X136880893Y-93972658D01*
X136963828Y-94032914D01*
X137174195Y-94140101D01*
X137227953Y-94157569D01*
X137285628Y-94197007D01*
X137312826Y-94261366D01*
X137300911Y-94330212D01*
X137253667Y-94381688D01*
X137189634Y-94399500D01*
X133086670Y-94399500D01*
X133086654Y-94399499D01*
X133079058Y-94399499D01*
X132920943Y-94399499D01*
X132844579Y-94419961D01*
X132768214Y-94440423D01*
X132768209Y-94440426D01*
X132631290Y-94519475D01*
X132631286Y-94519478D01*
X132485337Y-94665427D01*
X132424014Y-94698911D01*
X132421848Y-94699362D01*
X132266508Y-94730261D01*
X132266498Y-94730264D01*
X132120827Y-94790602D01*
X132120814Y-94790609D01*
X131989711Y-94878210D01*
X131989707Y-94878213D01*
X131878213Y-94989707D01*
X131878210Y-94989711D01*
X131790609Y-95120814D01*
X131790602Y-95120827D01*
X131730264Y-95266498D01*
X131730261Y-95266510D01*
X131699500Y-95421153D01*
X131699500Y-95578846D01*
X131730261Y-95733489D01*
X131730264Y-95733501D01*
X131790602Y-95879172D01*
X131790609Y-95879185D01*
X131878210Y-96010288D01*
X131878213Y-96010292D01*
X131989707Y-96121786D01*
X131989711Y-96121789D01*
X132120814Y-96209390D01*
X132120827Y-96209397D01*
X132259695Y-96266917D01*
X132266503Y-96269737D01*
X132421153Y-96300499D01*
X132421156Y-96300500D01*
X132421158Y-96300500D01*
X132578844Y-96300500D01*
X132578845Y-96300499D01*
X132733497Y-96269737D01*
X132879179Y-96209394D01*
X133010289Y-96121789D01*
X133121789Y-96010289D01*
X133209394Y-95879179D01*
X133269737Y-95733497D01*
X133276339Y-95700309D01*
X133308724Y-95638398D01*
X133369439Y-95603824D01*
X133397956Y-95600500D01*
X139344651Y-95600500D01*
X139411690Y-95620185D01*
X139457445Y-95672989D01*
X139467389Y-95742147D01*
X139438364Y-95805703D01*
X139400946Y-95834985D01*
X139313413Y-95879585D01*
X139266918Y-95913365D01*
X139266918Y-95913366D01*
X139911414Y-96557861D01*
X139826306Y-96580667D01*
X139723694Y-96639910D01*
X139639910Y-96723694D01*
X139580667Y-96826306D01*
X139557861Y-96911414D01*
X138913366Y-96266918D01*
X138913365Y-96266918D01*
X138879585Y-96313413D01*
X138785976Y-96497131D01*
X138722256Y-96693240D01*
X138690000Y-96896895D01*
X138690000Y-97103104D01*
X138722256Y-97306759D01*
X138785976Y-97502868D01*
X138879587Y-97686590D01*
X138913365Y-97733080D01*
X138913365Y-97733081D01*
X139557861Y-97088584D01*
X139580667Y-97173694D01*
X139639910Y-97276306D01*
X139723694Y-97360090D01*
X139826306Y-97419333D01*
X139911414Y-97442137D01*
X139266917Y-98086633D01*
X139266918Y-98086634D01*
X139313404Y-98120408D01*
X139313417Y-98120416D01*
X139497131Y-98214023D01*
X139693240Y-98277743D01*
X139896896Y-98310000D01*
X140103104Y-98310000D01*
X140306759Y-98277743D01*
X140502868Y-98214023D01*
X140686590Y-98120412D01*
X140733080Y-98086634D01*
X140733080Y-98086633D01*
X140088585Y-97442138D01*
X140173694Y-97419333D01*
X140276306Y-97360090D01*
X140360090Y-97276306D01*
X140419333Y-97173694D01*
X140442138Y-97088585D01*
X141086633Y-97733080D01*
X141086634Y-97733080D01*
X141120412Y-97686590D01*
X141214023Y-97502868D01*
X141277743Y-97306759D01*
X141310000Y-97103104D01*
X141310000Y-96896895D01*
X141277743Y-96693240D01*
X141214023Y-96497131D01*
X141120416Y-96313417D01*
X141120408Y-96313404D01*
X141086634Y-96266918D01*
X141086633Y-96266917D01*
X140442137Y-96911413D01*
X140419333Y-96826306D01*
X140360090Y-96723694D01*
X140276306Y-96639910D01*
X140173694Y-96580667D01*
X140088583Y-96557861D01*
X140733081Y-95913365D01*
X140686590Y-95879587D01*
X140599054Y-95834985D01*
X140548258Y-95787010D01*
X140531463Y-95719189D01*
X140554001Y-95653054D01*
X140608716Y-95609603D01*
X140655349Y-95600500D01*
X144343552Y-95600500D01*
X144410591Y-95620185D01*
X144456346Y-95672989D01*
X144466290Y-95742147D01*
X144437265Y-95805703D01*
X144399847Y-95834985D01*
X144313147Y-95879160D01*
X144146265Y-96000408D01*
X144000408Y-96146265D01*
X143879160Y-96313147D01*
X143785510Y-96496945D01*
X143721769Y-96693119D01*
X143721769Y-96693122D01*
X143700675Y-96826306D01*
X143689500Y-96896861D01*
X143689500Y-97103139D01*
X143700675Y-97173694D01*
X143721769Y-97306877D01*
X143721769Y-97306880D01*
X143785510Y-97503054D01*
X143864892Y-97658849D01*
X143879160Y-97686852D01*
X144000407Y-97853733D01*
X144146267Y-97999593D01*
X144313148Y-98120840D01*
X144375846Y-98152786D01*
X144496945Y-98214489D01*
X144586511Y-98243591D01*
X144644186Y-98283028D01*
X144671385Y-98347387D01*
X144659470Y-98416233D01*
X144635874Y-98449203D01*
X143949203Y-99135874D01*
X143887880Y-99169359D01*
X143818188Y-99164375D01*
X143762255Y-99122503D01*
X143743591Y-99086511D01*
X143714489Y-98996945D01*
X143706120Y-98980520D01*
X143620840Y-98813148D01*
X143499593Y-98646267D01*
X143353733Y-98500407D01*
X143186852Y-98379160D01*
X143124494Y-98347387D01*
X143003054Y-98285510D01*
X142806879Y-98221769D01*
X142654073Y-98197567D01*
X142603139Y-98189500D01*
X142396861Y-98189500D01*
X142328948Y-98200256D01*
X142193122Y-98221769D01*
X142193119Y-98221769D01*
X141996945Y-98285510D01*
X141813147Y-98379160D01*
X141646265Y-98500408D01*
X141500408Y-98646265D01*
X141379160Y-98813147D01*
X141285510Y-98996945D01*
X141221769Y-99193119D01*
X141221769Y-99193122D01*
X141189500Y-99396861D01*
X141189500Y-99603138D01*
X141221768Y-99806875D01*
X141228236Y-99826781D01*
X141230230Y-99896623D01*
X141197985Y-99952778D01*
X138287584Y-102863181D01*
X138226261Y-102896666D01*
X138199903Y-102899500D01*
X124835940Y-102899500D01*
X124795019Y-102910464D01*
X124795019Y-102910465D01*
X124757751Y-102920451D01*
X124683214Y-102940423D01*
X124683209Y-102940426D01*
X124546290Y-103019475D01*
X124546282Y-103019481D01*
X124434478Y-103131286D01*
X115662369Y-111903394D01*
X115601046Y-111936879D01*
X115531354Y-111931895D01*
X115518392Y-111926197D01*
X115392610Y-111862106D01*
X115392603Y-111862103D01*
X115182952Y-111793985D01*
X115074086Y-111776742D01*
X114965222Y-111759500D01*
X114744778Y-111759500D01*
X114672201Y-111770995D01*
X114527047Y-111793985D01*
X114317396Y-111862103D01*
X114317393Y-111862104D01*
X114120974Y-111962187D01*
X113942641Y-112091752D01*
X113942636Y-112091756D01*
X113786756Y-112247636D01*
X113786752Y-112247641D01*
X113685318Y-112387254D01*
X113629988Y-112429920D01*
X113560375Y-112435899D01*
X113498580Y-112403293D01*
X113484682Y-112387254D01*
X113383247Y-112247641D01*
X113383243Y-112247636D01*
X113227363Y-112091756D01*
X113227358Y-112091752D01*
X113049025Y-111962187D01*
X113049024Y-111962186D01*
X113049022Y-111962185D01*
X112978392Y-111926197D01*
X112852606Y-111862104D01*
X112852603Y-111862103D01*
X112642952Y-111793985D01*
X112534086Y-111776742D01*
X112425222Y-111759500D01*
X112204778Y-111759500D01*
X112132201Y-111770995D01*
X111987047Y-111793985D01*
X111777396Y-111862103D01*
X111777393Y-111862104D01*
X111580974Y-111962187D01*
X111402641Y-112091752D01*
X111402636Y-112091756D01*
X111352075Y-112142317D01*
X111290752Y-112175801D01*
X111221060Y-112170816D01*
X111165127Y-112128945D01*
X111148213Y-112097968D01*
X111118354Y-112017913D01*
X111118350Y-112017906D01*
X111032190Y-111902812D01*
X111032187Y-111902809D01*
X110917093Y-111816649D01*
X110917086Y-111816645D01*
X110782379Y-111766403D01*
X110782372Y-111766401D01*
X110722844Y-111760000D01*
X110025000Y-111760000D01*
X110025000Y-113011517D01*
X110006591Y-113000889D01*
X109853991Y-112960000D01*
X109696009Y-112960000D01*
X109543409Y-113000889D01*
X109525000Y-113011517D01*
X109525000Y-111760000D01*
X108827155Y-111760000D01*
X108767627Y-111766401D01*
X108767620Y-111766403D01*
X108632913Y-111816645D01*
X108632906Y-111816649D01*
X108517812Y-111902809D01*
X108517809Y-111902812D01*
X108431649Y-112017906D01*
X108431645Y-112017913D01*
X108381403Y-112152620D01*
X108381401Y-112152627D01*
X108375000Y-112212155D01*
X105757189Y-112212155D01*
X105597760Y-112052726D01*
X105597751Y-112052718D01*
X105389703Y-111893075D01*
X105162600Y-111761958D01*
X105162590Y-111761953D01*
X104920328Y-111661605D01*
X104920321Y-111661603D01*
X104920319Y-111661602D01*
X104667016Y-111593730D01*
X104609239Y-111586123D01*
X104407027Y-111559500D01*
X104407020Y-111559500D01*
X104144780Y-111559500D01*
X104144772Y-111559500D01*
X103918227Y-111589327D01*
X103884784Y-111593730D01*
X103631481Y-111661602D01*
X103631471Y-111661605D01*
X103389209Y-111761953D01*
X103389199Y-111761958D01*
X103162096Y-111893075D01*
X102954048Y-112052718D01*
X102768618Y-112238148D01*
X102608975Y-112446196D01*
X102477858Y-112673299D01*
X102477853Y-112673309D01*
X102377505Y-112915571D01*
X102377502Y-112915581D01*
X102309630Y-113168885D01*
X102275400Y-113428872D01*
X100500500Y-113428872D01*
X100500500Y-89494144D01*
X111512000Y-89494144D01*
X111512000Y-90505855D01*
X111522413Y-90607776D01*
X111577137Y-90772922D01*
X111577142Y-90772933D01*
X111668471Y-90920999D01*
X111668474Y-90921003D01*
X111791496Y-91044025D01*
X111791500Y-91044028D01*
X111939566Y-91135357D01*
X111939569Y-91135358D01*
X111939575Y-91135362D01*
X112104725Y-91190087D01*
X112206652Y-91200500D01*
X112206657Y-91200500D01*
X112793340Y-91200500D01*
X112793348Y-91200500D01*
X112793356Y-91200499D01*
X112793418Y-91200496D01*
X112793435Y-91200500D01*
X112796505Y-91200500D01*
X112796505Y-91201233D01*
X112861373Y-91216738D01*
X112887419Y-91236654D01*
X123015139Y-101364374D01*
X123015149Y-101364385D01*
X123019479Y-101368715D01*
X123019480Y-101368716D01*
X123131284Y-101480520D01*
X123182845Y-101510288D01*
X123218095Y-101530639D01*
X123218097Y-101530641D01*
X123235210Y-101540521D01*
X123268215Y-101559577D01*
X123420943Y-101600500D01*
X123579057Y-101600500D01*
X126420234Y-101600500D01*
X126487273Y-101620185D01*
X126489125Y-101621398D01*
X126620814Y-101709390D01*
X126620827Y-101709397D01*
X126699894Y-101742147D01*
X126766503Y-101769737D01*
X126921153Y-101800499D01*
X126921156Y-101800500D01*
X126921158Y-101800500D01*
X127078844Y-101800500D01*
X127078845Y-101800499D01*
X127233497Y-101769737D01*
X127379179Y-101709394D01*
X127510289Y-101621789D01*
X127621789Y-101510289D01*
X127709394Y-101379179D01*
X127769737Y-101233497D01*
X127800500Y-101078842D01*
X127800500Y-100921158D01*
X127800500Y-100921155D01*
X127800499Y-100921153D01*
X127781759Y-100826942D01*
X127769737Y-100766503D01*
X127713728Y-100631284D01*
X127709397Y-100620827D01*
X127709390Y-100620814D01*
X127621789Y-100489711D01*
X127621786Y-100489707D01*
X127510292Y-100378213D01*
X127510288Y-100378210D01*
X127379185Y-100290609D01*
X127379172Y-100290602D01*
X127233501Y-100230264D01*
X127233489Y-100230261D01*
X127078845Y-100199500D01*
X127078842Y-100199500D01*
X126921158Y-100199500D01*
X126921155Y-100199500D01*
X126766510Y-100230261D01*
X126766498Y-100230264D01*
X126620827Y-100290602D01*
X126620814Y-100290609D01*
X126489125Y-100378602D01*
X126422447Y-100399480D01*
X126420234Y-100399500D01*
X123800097Y-100399500D01*
X123733058Y-100379815D01*
X123712416Y-100363181D01*
X114738560Y-91389325D01*
X114705075Y-91328002D01*
X114710059Y-91258310D01*
X114751931Y-91202377D01*
X114787238Y-91183938D01*
X114935207Y-91134906D01*
X114935214Y-91134903D01*
X115083191Y-91043629D01*
X115206129Y-90920691D01*
X115297403Y-90772714D01*
X115297405Y-90772709D01*
X115352092Y-90607673D01*
X115362499Y-90505815D01*
X115362500Y-90505802D01*
X115362500Y-90250000D01*
X114499000Y-90250000D01*
X114431961Y-90230315D01*
X114386206Y-90177511D01*
X114375000Y-90126000D01*
X114375000Y-90000000D01*
X114249000Y-90000000D01*
X114181961Y-89980315D01*
X114136206Y-89927511D01*
X114125000Y-89876000D01*
X114125000Y-89750000D01*
X114625000Y-89750000D01*
X115362500Y-89750000D01*
X115362500Y-89494197D01*
X115362499Y-89494184D01*
X115362495Y-89494144D01*
X117012000Y-89494144D01*
X117012000Y-90505855D01*
X117022413Y-90607776D01*
X117077137Y-90772922D01*
X117077142Y-90772933D01*
X117168471Y-90920999D01*
X117168474Y-90921003D01*
X117291496Y-91044025D01*
X117291500Y-91044028D01*
X117439566Y-91135357D01*
X117439569Y-91135358D01*
X117439575Y-91135362D01*
X117604725Y-91190087D01*
X117706652Y-91200500D01*
X117706657Y-91200500D01*
X118293340Y-91200500D01*
X118293348Y-91200500D01*
X118293356Y-91200499D01*
X118293418Y-91200496D01*
X118293435Y-91200500D01*
X118296505Y-91200500D01*
X118296505Y-91201233D01*
X118361373Y-91216738D01*
X118387419Y-91236654D01*
X126015139Y-98864374D01*
X126015149Y-98864385D01*
X126019479Y-98868715D01*
X126019480Y-98868716D01*
X126131284Y-98980520D01*
X126198767Y-99019481D01*
X126268215Y-99059577D01*
X126420942Y-99100500D01*
X126420943Y-99100500D01*
X129920234Y-99100500D01*
X129987273Y-99120185D01*
X129989125Y-99121398D01*
X130120814Y-99209390D01*
X130120827Y-99209397D01*
X130208245Y-99245606D01*
X130266503Y-99269737D01*
X130374897Y-99291298D01*
X130421153Y-99300499D01*
X130421156Y-99300500D01*
X130421158Y-99300500D01*
X130578844Y-99300500D01*
X130578845Y-99300499D01*
X130733497Y-99269737D01*
X130879179Y-99209394D01*
X131010289Y-99121789D01*
X131121789Y-99010289D01*
X131209394Y-98879179D01*
X131269737Y-98733497D01*
X131300500Y-98578842D01*
X131300500Y-98421158D01*
X131300500Y-98421155D01*
X131300499Y-98421153D01*
X131280110Y-98318652D01*
X131269737Y-98266503D01*
X131237842Y-98189500D01*
X131209397Y-98120827D01*
X131209390Y-98120814D01*
X131201005Y-98108265D01*
X131121789Y-97989711D01*
X131121786Y-97989707D01*
X131010292Y-97878213D01*
X131010288Y-97878210D01*
X130879185Y-97790609D01*
X130879172Y-97790602D01*
X130733501Y-97730264D01*
X130733489Y-97730261D01*
X130578845Y-97699500D01*
X130578842Y-97699500D01*
X130421158Y-97699500D01*
X130421155Y-97699500D01*
X130266510Y-97730261D01*
X130266498Y-97730264D01*
X130120827Y-97790602D01*
X130120814Y-97790609D01*
X129989125Y-97878602D01*
X129922447Y-97899480D01*
X129920234Y-97899500D01*
X126800097Y-97899500D01*
X126733058Y-97879815D01*
X126712416Y-97863181D01*
X120238560Y-91389325D01*
X120205075Y-91328002D01*
X120210059Y-91258310D01*
X120251931Y-91202377D01*
X120287238Y-91183938D01*
X120435207Y-91134906D01*
X120435214Y-91134903D01*
X120583191Y-91043629D01*
X120706129Y-90920691D01*
X120797403Y-90772714D01*
X120797405Y-90772709D01*
X120852092Y-90607673D01*
X120862499Y-90505815D01*
X120862500Y-90505802D01*
X120862500Y-90250000D01*
X119999000Y-90250000D01*
X119931961Y-90230315D01*
X119886206Y-90177511D01*
X119875000Y-90126000D01*
X119875000Y-90000000D01*
X119749000Y-90000000D01*
X119681961Y-89980315D01*
X119636206Y-89927511D01*
X119625000Y-89876000D01*
X119625000Y-89750000D01*
X120125000Y-89750000D01*
X120862500Y-89750000D01*
X120862500Y-89494197D01*
X120862499Y-89494184D01*
X120852092Y-89392326D01*
X120797405Y-89227290D01*
X120797403Y-89227285D01*
X120706129Y-89079308D01*
X120583191Y-88956370D01*
X120435214Y-88865096D01*
X120435209Y-88865094D01*
X120270173Y-88810407D01*
X120168315Y-88800000D01*
X120125000Y-88800000D01*
X120125000Y-89750000D01*
X119625000Y-89750000D01*
X119625000Y-88800000D01*
X119581684Y-88800000D01*
X119479826Y-88810407D01*
X119314790Y-88865094D01*
X119314785Y-88865096D01*
X119166808Y-88956370D01*
X119043869Y-89079309D01*
X119043864Y-89079315D01*
X119043329Y-89080184D01*
X119042806Y-89080654D01*
X119039388Y-89084977D01*
X119038649Y-89084392D01*
X118991379Y-89126906D01*
X118922416Y-89138125D01*
X118858335Y-89110278D01*
X118836086Y-89084601D01*
X118836007Y-89084664D01*
X118834611Y-89082898D01*
X118832258Y-89080183D01*
X118831528Y-89078999D01*
X118708503Y-88955974D01*
X118708499Y-88955971D01*
X118560433Y-88864642D01*
X118560427Y-88864639D01*
X118560425Y-88864638D01*
X118560422Y-88864637D01*
X118395276Y-88809913D01*
X118293355Y-88799500D01*
X118293348Y-88799500D01*
X117706652Y-88799500D01*
X117706644Y-88799500D01*
X117604723Y-88809913D01*
X117439577Y-88864637D01*
X117439566Y-88864642D01*
X117291500Y-88955971D01*
X117291496Y-88955974D01*
X117168474Y-89078996D01*
X117168471Y-89079000D01*
X117077142Y-89227066D01*
X117077137Y-89227077D01*
X117022413Y-89392223D01*
X117012000Y-89494144D01*
X115362495Y-89494144D01*
X115352092Y-89392326D01*
X115297405Y-89227290D01*
X115297403Y-89227285D01*
X115206129Y-89079308D01*
X115083191Y-88956370D01*
X114935214Y-88865096D01*
X114935209Y-88865094D01*
X114770173Y-88810407D01*
X114668315Y-88800000D01*
X114625000Y-88800000D01*
X114625000Y-89750000D01*
X114125000Y-89750000D01*
X114125000Y-88800000D01*
X114081684Y-88800000D01*
X113979826Y-88810407D01*
X113814790Y-88865094D01*
X113814785Y-88865096D01*
X113666808Y-88956370D01*
X113543869Y-89079309D01*
X113543864Y-89079315D01*
X113543329Y-89080184D01*
X113542806Y-89080654D01*
X113539388Y-89084977D01*
X113538649Y-89084392D01*
X113491379Y-89126906D01*
X113422416Y-89138125D01*
X113358335Y-89110278D01*
X113336086Y-89084601D01*
X113336007Y-89084664D01*
X113334611Y-89082898D01*
X113332258Y-89080183D01*
X113331528Y-89078999D01*
X113208503Y-88955974D01*
X113208499Y-88955971D01*
X113060433Y-88864642D01*
X113060427Y-88864639D01*
X113060425Y-88864638D01*
X113060422Y-88864637D01*
X112895276Y-88809913D01*
X112793355Y-88799500D01*
X112793348Y-88799500D01*
X112206652Y-88799500D01*
X112206644Y-88799500D01*
X112104723Y-88809913D01*
X111939577Y-88864637D01*
X111939566Y-88864642D01*
X111791500Y-88955971D01*
X111791496Y-88955974D01*
X111668474Y-89078996D01*
X111668471Y-89079000D01*
X111577142Y-89227066D01*
X111577137Y-89227077D01*
X111522413Y-89392223D01*
X111512000Y-89494144D01*
X100500500Y-89494144D01*
X100500500Y-88131902D01*
X136249500Y-88131902D01*
X136249500Y-88368097D01*
X136286446Y-88601368D01*
X136359433Y-88825996D01*
X136455563Y-89014660D01*
X136466657Y-89036433D01*
X136605483Y-89227510D01*
X136772490Y-89394517D01*
X136963567Y-89533343D01*
X137062991Y-89584002D01*
X137174003Y-89640566D01*
X137174005Y-89640566D01*
X137174008Y-89640568D01*
X137285894Y-89676922D01*
X137398631Y-89713553D01*
X137631903Y-89750500D01*
X137631908Y-89750500D01*
X137868097Y-89750500D01*
X138101368Y-89713553D01*
X138114180Y-89709390D01*
X138325992Y-89640568D01*
X138536433Y-89533343D01*
X138727510Y-89394517D01*
X138894517Y-89227510D01*
X139033343Y-89036433D01*
X139140568Y-88825992D01*
X139213553Y-88601368D01*
X139217087Y-88579057D01*
X139250500Y-88368097D01*
X139250500Y-88131902D01*
X142749500Y-88131902D01*
X142749500Y-88368097D01*
X142786446Y-88601368D01*
X142859433Y-88825996D01*
X142955563Y-89014660D01*
X142966657Y-89036433D01*
X143105483Y-89227510D01*
X143272490Y-89394517D01*
X143463567Y-89533343D01*
X143562991Y-89584002D01*
X143674003Y-89640566D01*
X143674005Y-89640566D01*
X143674008Y-89640568D01*
X143785894Y-89676922D01*
X143898631Y-89713553D01*
X144131903Y-89750500D01*
X144131908Y-89750500D01*
X144368097Y-89750500D01*
X144601368Y-89713553D01*
X144614180Y-89709390D01*
X144825992Y-89640568D01*
X145036433Y-89533343D01*
X145227510Y-89394517D01*
X145394517Y-89227510D01*
X145533343Y-89036433D01*
X145640568Y-88825992D01*
X145713553Y-88601368D01*
X145717087Y-88579057D01*
X145750500Y-88368097D01*
X145750500Y-88131902D01*
X145713553Y-87898631D01*
X145646734Y-87692985D01*
X145640568Y-87674008D01*
X145640566Y-87674005D01*
X145640566Y-87674003D01*
X145584002Y-87562991D01*
X145533343Y-87463567D01*
X145394517Y-87272490D01*
X145227510Y-87105483D01*
X145036433Y-86966657D01*
X144825996Y-86859433D01*
X144601368Y-86786446D01*
X144368097Y-86749500D01*
X144368092Y-86749500D01*
X144131908Y-86749500D01*
X144131903Y-86749500D01*
X143898631Y-86786446D01*
X143674003Y-86859433D01*
X143463566Y-86966657D01*
X143354550Y-87045862D01*
X143272490Y-87105483D01*
X143272488Y-87105485D01*
X143272487Y-87105485D01*
X143105485Y-87272487D01*
X143105485Y-87272488D01*
X143105483Y-87272490D01*
X143090708Y-87292826D01*
X142966657Y-87463566D01*
X142859433Y-87674003D01*
X142786446Y-87898631D01*
X142749500Y-88131902D01*
X139250500Y-88131902D01*
X139213553Y-87898631D01*
X139146734Y-87692985D01*
X139140568Y-87674008D01*
X139140566Y-87674005D01*
X139140566Y-87674003D01*
X139084002Y-87562991D01*
X139033343Y-87463567D01*
X138894517Y-87272490D01*
X138727510Y-87105483D01*
X138536433Y-86966657D01*
X138325996Y-86859433D01*
X138101368Y-86786446D01*
X137868097Y-86749500D01*
X137868092Y-86749500D01*
X137631908Y-86749500D01*
X137631903Y-86749500D01*
X137398631Y-86786446D01*
X137174003Y-86859433D01*
X136963566Y-86966657D01*
X136854550Y-87045862D01*
X136772490Y-87105483D01*
X136772488Y-87105485D01*
X136772487Y-87105485D01*
X136605485Y-87272487D01*
X136605485Y-87272488D01*
X136605483Y-87272490D01*
X136590708Y-87292826D01*
X136466657Y-87463566D01*
X136359433Y-87674003D01*
X136286446Y-87898631D01*
X136249500Y-88131902D01*
X100500500Y-88131902D01*
X100500500Y-82421153D01*
X145699500Y-82421153D01*
X145699500Y-82578846D01*
X145730261Y-82733489D01*
X145730264Y-82733501D01*
X145790602Y-82879172D01*
X145790609Y-82879185D01*
X145878210Y-83010288D01*
X145878213Y-83010292D01*
X145989707Y-83121786D01*
X145989711Y-83121789D01*
X146120814Y-83209390D01*
X146120827Y-83209397D01*
X146266498Y-83269735D01*
X146266503Y-83269737D01*
X146421153Y-83300499D01*
X146421156Y-83300500D01*
X146421158Y-83300500D01*
X146578844Y-83300500D01*
X146578845Y-83300499D01*
X146733497Y-83269737D01*
X146879179Y-83209394D01*
X146903725Y-83192993D01*
X147010875Y-83121398D01*
X147077553Y-83100520D01*
X147079766Y-83100500D01*
X149195500Y-83100500D01*
X149262539Y-83120185D01*
X149308294Y-83172989D01*
X149319500Y-83224500D01*
X149319500Y-84376922D01*
X149319501Y-84376947D01*
X149322346Y-84413098D01*
X149367317Y-84567889D01*
X149367320Y-84567896D01*
X149449369Y-84706636D01*
X149449378Y-84706648D01*
X149563351Y-84820621D01*
X149563354Y-84820623D01*
X149563357Y-84820626D01*
X149563360Y-84820627D01*
X149563363Y-84820630D01*
X149603831Y-84844562D01*
X149702106Y-84902681D01*
X149742928Y-84914541D01*
X149856897Y-84947653D01*
X149856900Y-84947653D01*
X149856902Y-84947654D01*
X149893065Y-84950500D01*
X150296934Y-84950499D01*
X150333098Y-84947654D01*
X150487894Y-84902681D01*
X150626643Y-84820626D01*
X150642672Y-84804596D01*
X150703992Y-84771111D01*
X150773684Y-84776094D01*
X150818036Y-84804598D01*
X150833661Y-84820223D01*
X150833668Y-84820229D01*
X150972305Y-84902218D01*
X151115000Y-84943674D01*
X151115000Y-83824000D01*
X151134685Y-83756961D01*
X151187489Y-83711206D01*
X151239000Y-83700000D01*
X151491000Y-83700000D01*
X151558039Y-83719685D01*
X151603794Y-83772489D01*
X151615000Y-83824000D01*
X151615000Y-84943673D01*
X151757694Y-84902218D01*
X151757695Y-84902218D01*
X151896329Y-84820231D01*
X151896336Y-84820225D01*
X151911963Y-84804598D01*
X151973285Y-84771111D01*
X152042977Y-84776094D01*
X152087329Y-84804598D01*
X152103357Y-84820626D01*
X152103361Y-84820628D01*
X152103363Y-84820630D01*
X152143831Y-84844562D01*
X152242106Y-84902681D01*
X152282928Y-84914541D01*
X152396897Y-84947653D01*
X152396900Y-84947653D01*
X152396902Y-84947654D01*
X152433065Y-84950500D01*
X152836934Y-84950499D01*
X152873098Y-84947654D01*
X152953977Y-84924156D01*
X153023843Y-84924355D01*
X153082513Y-84962296D01*
X153111358Y-85025934D01*
X153110188Y-85067422D01*
X153099500Y-85121158D01*
X153099500Y-85278846D01*
X153130261Y-85433489D01*
X153130264Y-85433501D01*
X153190602Y-85579172D01*
X153190609Y-85579185D01*
X153278210Y-85710288D01*
X153278213Y-85710292D01*
X153389707Y-85821786D01*
X153389711Y-85821789D01*
X153520814Y-85909390D01*
X153520827Y-85909397D01*
X153666498Y-85969735D01*
X153666503Y-85969737D01*
X153821153Y-86000499D01*
X153821156Y-86000500D01*
X153821158Y-86000500D01*
X153978844Y-86000500D01*
X153978845Y-86000499D01*
X154133497Y-85969737D01*
X154279179Y-85909394D01*
X154410289Y-85821789D01*
X154521789Y-85710289D01*
X154609394Y-85579179D01*
X154669737Y-85433497D01*
X154700500Y-85278842D01*
X154700500Y-85121158D01*
X154700500Y-85121155D01*
X154700499Y-85121153D01*
X154689811Y-85067422D01*
X154669737Y-84966503D01*
X154669735Y-84966498D01*
X154609397Y-84820827D01*
X154609390Y-84820814D01*
X154585739Y-84785418D01*
X154564861Y-84718741D01*
X154582108Y-84653408D01*
X154632681Y-84567894D01*
X154677654Y-84413098D01*
X154680500Y-84376935D01*
X154680499Y-84111937D01*
X154700183Y-84044901D01*
X154752987Y-83999146D01*
X154822146Y-83989202D01*
X154885701Y-84018227D01*
X154892180Y-84024259D01*
X154989707Y-84121786D01*
X154989711Y-84121789D01*
X155120814Y-84209390D01*
X155120827Y-84209397D01*
X155247138Y-84261716D01*
X155266503Y-84269737D01*
X155421153Y-84300499D01*
X155421156Y-84300500D01*
X155421158Y-84300500D01*
X155578844Y-84300500D01*
X155578845Y-84300499D01*
X155733497Y-84269737D01*
X155879179Y-84209394D01*
X156010289Y-84121789D01*
X156121789Y-84010289D01*
X156209394Y-83879179D01*
X156269737Y-83733497D01*
X156274531Y-83709397D01*
X156276339Y-83700309D01*
X156308724Y-83638398D01*
X156369439Y-83603824D01*
X156397956Y-83600500D01*
X156920234Y-83600500D01*
X156987273Y-83620185D01*
X156989125Y-83621398D01*
X157120814Y-83709390D01*
X157120827Y-83709397D01*
X157253756Y-83764457D01*
X157266503Y-83769737D01*
X157421153Y-83800499D01*
X157421156Y-83800500D01*
X157421158Y-83800500D01*
X157578844Y-83800500D01*
X157578845Y-83800499D01*
X157733497Y-83769737D01*
X157854334Y-83719685D01*
X157879172Y-83709397D01*
X157879172Y-83709396D01*
X157879179Y-83709394D01*
X158010289Y-83621789D01*
X158121789Y-83510289D01*
X158209394Y-83379179D01*
X158209395Y-83379174D01*
X158209400Y-83379167D01*
X158269735Y-83233501D01*
X158269737Y-83233497D01*
X158300500Y-83078842D01*
X158300500Y-82921158D01*
X158300500Y-82921155D01*
X158300499Y-82921153D01*
X158292148Y-82879172D01*
X158269737Y-82766503D01*
X158239439Y-82693357D01*
X158209397Y-82620827D01*
X158209390Y-82620814D01*
X158121789Y-82489711D01*
X158121786Y-82489707D01*
X158045828Y-82413749D01*
X158012343Y-82352426D01*
X158017327Y-82282734D01*
X158045828Y-82238387D01*
X158096748Y-82187466D01*
X158096751Y-82187462D01*
X158206185Y-82023684D01*
X158206192Y-82023671D01*
X158281569Y-81841693D01*
X158281572Y-81841681D01*
X158319999Y-81648495D01*
X158320000Y-81648492D01*
X158320000Y-81250000D01*
X157620000Y-81250000D01*
X157620000Y-80750000D01*
X158320000Y-80750000D01*
X158320000Y-80351508D01*
X158319999Y-80351504D01*
X158281572Y-80158318D01*
X158281569Y-80158306D01*
X158206192Y-79976328D01*
X158206185Y-79976315D01*
X158096751Y-79812537D01*
X158096748Y-79812533D01*
X157957466Y-79673251D01*
X157957462Y-79673248D01*
X157793684Y-79563814D01*
X157793671Y-79563807D01*
X157611691Y-79488429D01*
X157611683Y-79488427D01*
X157570000Y-79480135D01*
X157570000Y-80283011D01*
X157560060Y-80265795D01*
X157504205Y-80209940D01*
X157435796Y-80170444D01*
X157359496Y-80150000D01*
X157280504Y-80150000D01*
X157204204Y-80170444D01*
X157135795Y-80209940D01*
X157079940Y-80265795D01*
X157070000Y-80283011D01*
X157070000Y-79480136D01*
X157069999Y-79480135D01*
X157028316Y-79488427D01*
X157028308Y-79488429D01*
X156846328Y-79563807D01*
X156846315Y-79563814D01*
X156682537Y-79673248D01*
X156682533Y-79673251D01*
X156543251Y-79812533D01*
X156543248Y-79812537D01*
X156433814Y-79976315D01*
X156433809Y-79976324D01*
X156429866Y-79985845D01*
X156386023Y-80040247D01*
X156319728Y-80062310D01*
X156252030Y-80045029D01*
X156246597Y-80041351D01*
X156112136Y-79963719D01*
X156017709Y-79938418D01*
X155965766Y-79924500D01*
X155814234Y-79924500D01*
X155667863Y-79963719D01*
X155536635Y-80039485D01*
X155536631Y-80039488D01*
X155500357Y-80075762D01*
X155439034Y-80109247D01*
X155369342Y-80104261D01*
X155324996Y-80075761D01*
X154387590Y-79138355D01*
X154387588Y-79138352D01*
X154268717Y-79019481D01*
X154268716Y-79019480D01*
X154181904Y-78969360D01*
X154181904Y-78969359D01*
X154181900Y-78969358D01*
X154131785Y-78940423D01*
X153979057Y-78899499D01*
X153820943Y-78899499D01*
X153813347Y-78899499D01*
X153813331Y-78899500D01*
X151786670Y-78899500D01*
X151786654Y-78899499D01*
X151779058Y-78899499D01*
X151620943Y-78899499D01*
X151544579Y-78919961D01*
X151468214Y-78940423D01*
X151468209Y-78940426D01*
X151331290Y-79019475D01*
X151331282Y-79019481D01*
X150824217Y-79526546D01*
X150824214Y-79526548D01*
X150824215Y-79526549D01*
X150719478Y-79631285D01*
X150689116Y-79683875D01*
X150680096Y-79699500D01*
X150671842Y-79713797D01*
X150644331Y-79761447D01*
X150640423Y-79768215D01*
X150599499Y-79920943D01*
X150599499Y-79920945D01*
X150597396Y-79928794D01*
X150595957Y-79928408D01*
X150571327Y-79984070D01*
X150512999Y-80022535D01*
X150443134Y-80023360D01*
X150414663Y-80011367D01*
X150367384Y-79984070D01*
X150332136Y-79963719D01*
X150237709Y-79938418D01*
X150185766Y-79924500D01*
X150034234Y-79924500D01*
X149887863Y-79963719D01*
X149805338Y-80011366D01*
X149756635Y-80039485D01*
X149756633Y-80039486D01*
X149749597Y-80043549D01*
X149748327Y-80041349D01*
X149694995Y-80061960D01*
X149626552Y-80047914D01*
X149576568Y-79999094D01*
X149570131Y-79985838D01*
X149566192Y-79976328D01*
X149566185Y-79976315D01*
X149456751Y-79812537D01*
X149456748Y-79812533D01*
X149317466Y-79673251D01*
X149317462Y-79673248D01*
X149153684Y-79563814D01*
X149153671Y-79563807D01*
X148971691Y-79488429D01*
X148971683Y-79488427D01*
X148930000Y-79480135D01*
X148930000Y-80283011D01*
X148920060Y-80265795D01*
X148864205Y-80209940D01*
X148795796Y-80170444D01*
X148719496Y-80150000D01*
X148640504Y-80150000D01*
X148564204Y-80170444D01*
X148495795Y-80209940D01*
X148439940Y-80265795D01*
X148430000Y-80283011D01*
X148430000Y-79480136D01*
X148429999Y-79480135D01*
X148388316Y-79488427D01*
X148388308Y-79488429D01*
X148206328Y-79563807D01*
X148206315Y-79563814D01*
X148042537Y-79673248D01*
X148042533Y-79673251D01*
X147903251Y-79812533D01*
X147903248Y-79812537D01*
X147793814Y-79976315D01*
X147793807Y-79976328D01*
X147718430Y-80158306D01*
X147718427Y-80158318D01*
X147680000Y-80351504D01*
X147680000Y-80750000D01*
X148380000Y-80750000D01*
X148380000Y-81250000D01*
X147680000Y-81250000D01*
X147680000Y-81648495D01*
X147700451Y-81751309D01*
X147694224Y-81820901D01*
X147651361Y-81876078D01*
X147585471Y-81899322D01*
X147578834Y-81899500D01*
X147079766Y-81899500D01*
X147012727Y-81879815D01*
X147010875Y-81878602D01*
X146879185Y-81790609D01*
X146879172Y-81790602D01*
X146733501Y-81730264D01*
X146733489Y-81730261D01*
X146578845Y-81699500D01*
X146578842Y-81699500D01*
X146421158Y-81699500D01*
X146421155Y-81699500D01*
X146266510Y-81730261D01*
X146266498Y-81730264D01*
X146120827Y-81790602D01*
X146120814Y-81790609D01*
X145989711Y-81878210D01*
X145989707Y-81878213D01*
X145878213Y-81989707D01*
X145878210Y-81989711D01*
X145790609Y-82120814D01*
X145790602Y-82120827D01*
X145730264Y-82266498D01*
X145730261Y-82266510D01*
X145699500Y-82421153D01*
X100500500Y-82421153D01*
X100500500Y-80002706D01*
X100500618Y-79997297D01*
X100501118Y-79985838D01*
X100517387Y-79613224D01*
X100518325Y-79602496D01*
X100568151Y-79224032D01*
X100570024Y-79213402D01*
X100652648Y-78840714D01*
X100655446Y-78830276D01*
X100770230Y-78466227D01*
X100773917Y-78456095D01*
X100920003Y-78103412D01*
X100924561Y-78093638D01*
X101100822Y-77755045D01*
X101106217Y-77745700D01*
X101311325Y-77423744D01*
X101317515Y-77414905D01*
X101549896Y-77112060D01*
X101556834Y-77103791D01*
X101814726Y-76822352D01*
X101822352Y-76814726D01*
X102103791Y-76556834D01*
X102112060Y-76549896D01*
X102414905Y-76317515D01*
X102423744Y-76311325D01*
X102745700Y-76106217D01*
X102755045Y-76100822D01*
X103093638Y-75924561D01*
X103103412Y-75920003D01*
X103456095Y-75773917D01*
X103466227Y-75770230D01*
X103830285Y-75655443D01*
X103840714Y-75652648D01*
X104213402Y-75570024D01*
X104224032Y-75568151D01*
X104602496Y-75518325D01*
X104613224Y-75517387D01*
X104997297Y-75500617D01*
X105002706Y-75500500D01*
X105065892Y-75500500D01*
X147885923Y-75500500D01*
X147952962Y-75520185D01*
G37*
%TD.AperFunction*%
%TD*%
M02*
