%TF.GenerationSoftware,KiCad,Pcbnew,10.0.5*%
%TF.CreationDate,2026-09-08T09:33:27-05:00*%
%TF.ProjectId,Test,54657374-2e6b-4696-9361-645f70636258,rev?*%
%TF.SameCoordinates,Original*%
%TF.FileFunction,Copper,L3,Inr*%
%TF.FilePolarity,Positive*%
%FSLAX46Y46*%
G04 Gerber Fmt 4.6, Leading zero omitted, Abs format (unit mm)*
G04 Created by KiCad (PCBNEW 10.0.5) date 2026-09-08 09:33:27*
%MOMM*%
%LPD*%
G01*
G04 APERTURE LIST*
G04 Aperture macros list*
%AMRoundRect*
0 Rectangle with rounded corners*
0 $1 Rounding radius*
0 $2 $3 $4 $5 $6 $7 $8 $9 X,Y pos of 4 corners*
0 Add a 4 corners polygon primitive as box body*
4,1,4,$2,$3,$4,$5,$6,$7,$8,$9,$2,$3,0*
0 Add four circle primitives for the rounded corners*
1,1,$1+$1,$2,$3*
1,1,$1+$1,$4,$5*
1,1,$1+$1,$6,$7*
1,1,$1+$1,$8,$9*
0 Add four rect primitives between the rounded corners*
20,1,$1+$1,$2,$3,$4,$5,0*
20,1,$1+$1,$4,$5,$6,$7,0*
20,1,$1+$1,$6,$7,$8,$9,0*
20,1,$1+$1,$8,$9,$2,$3,0*%
G04 Aperture macros list end*
%TA.AperFunction,ComponentPad*%
%ADD10R,1.700000X1.700000*%
%TD*%
%TA.AperFunction,ComponentPad*%
%ADD11C,1.700000*%
%TD*%
%TA.AperFunction,ComponentPad*%
%ADD12O,1.000000X2.100000*%
%TD*%
%TA.AperFunction,ComponentPad*%
%ADD13O,1.000000X1.800000*%
%TD*%
%TA.AperFunction,ComponentPad*%
%ADD14C,3.000000*%
%TD*%
%TA.AperFunction,ComponentPad*%
%ADD15R,1.800000X2.600000*%
%TD*%
%TA.AperFunction,ComponentPad*%
%ADD16O,1.800000X2.600000*%
%TD*%
%TA.AperFunction,ComponentPad*%
%ADD17C,2.000000*%
%TD*%
%TA.AperFunction,ComponentPad*%
%ADD18RoundRect,0.250000X-0.550000X0.550000X-0.550000X-0.550000X0.550000X-0.550000X0.550000X0.550000X0*%
%TD*%
%TA.AperFunction,ComponentPad*%
%ADD19C,1.600000*%
%TD*%
%TA.AperFunction,ComponentPad*%
%ADD20C,1.620000*%
%TD*%
%TA.AperFunction,ComponentPad*%
%ADD21C,1.500000*%
%TD*%
%TA.AperFunction,ViaPad*%
%ADD22C,0.600000*%
%TD*%
G04 APERTURE END LIST*
D10*
%TO.N,Miso*%
%TO.C,J1*%
X178500000Y-78420000D03*
D11*
%TO.N,+5V*%
X181040000Y-78420000D03*
%TO.N,SCK*%
X178500000Y-80960000D03*
%TO.N,Mosi*%
X181040000Y-80960000D03*
%TO.N,RST*%
X178500000Y-83500000D03*
%TO.N,GND*%
X181040000Y-83500000D03*
%TD*%
D12*
%TO.N,GND*%
%TO.C,P1*%
X157320000Y-81000000D03*
D13*
X157320000Y-76820000D03*
D12*
X148680000Y-81000000D03*
D13*
X148680000Y-76820000D03*
%TD*%
D14*
%TO.N,*%
%TO.C,DS1*%
X104275900Y-113560000D03*
X104275900Y-144560700D03*
X179274480Y-144560700D03*
X179275000Y-113560000D03*
D15*
%TO.N,GND*%
X109775000Y-113560000D03*
D16*
%TO.N,+5V*%
X112315000Y-113560000D03*
%TO.N,Net-(DS1-VO)*%
X114855000Y-113560000D03*
%TO.N,Net-(DS1-RS)*%
X117395000Y-113560000D03*
%TO.N,GND*%
X119935000Y-113560000D03*
%TO.N,Net-(DS1-E)*%
X122475000Y-113560000D03*
%TO.N,unconnected-(DS1-D0-Pad7)*%
X125015000Y-113560000D03*
%TO.N,unconnected-(DS1-D1-Pad8)*%
X127555000Y-113560000D03*
%TO.N,unconnected-(DS1-D2-Pad9)*%
X130095000Y-113560000D03*
%TO.N,unconnected-(DS1-D3-Pad10)*%
X132635000Y-113560000D03*
%TO.N,Net-(DS1-D4)*%
X135175000Y-113560000D03*
%TO.N,Net-(DS1-D5)*%
X137715000Y-113560000D03*
%TO.N,Net-(DS1-D6)*%
X140255000Y-113560000D03*
%TO.N,Net-(DS1-D7)*%
X142795000Y-113560000D03*
%TO.N,unconnected-(DS1-LED(+)-Pad15)*%
X145335000Y-113560000D03*
%TO.N,Net-(DS1-LED(-))*%
X147875000Y-113560000D03*
%TD*%
D17*
%TO.N,RST*%
%TO.C,SW1*%
X137750000Y-88250000D03*
X144250000Y-88250000D03*
%TO.N,GND*%
X137750000Y-92750000D03*
X144250000Y-92750000D03*
%TD*%
D18*
%TO.N,RST*%
%TO.C,U1*%
X148140000Y-91380000D03*
D19*
%TO.N,CH340N_TX*%
X150680000Y-91380000D03*
%TO.N,CH340N_RX*%
X153220000Y-91380000D03*
%TO.N,Net-(DS1-RS)*%
X155760000Y-91380000D03*
%TO.N,Net-(DS1-E)*%
X158300000Y-91380000D03*
%TO.N,Net-(DS1-D4)*%
X160840000Y-91380000D03*
%TO.N,+5V*%
X163380000Y-91380000D03*
%TO.N,GND*%
X165920000Y-91380000D03*
%TO.N,Net-(U1-XTAL1{slash}PB6)*%
X168460000Y-91380000D03*
%TO.N,Net-(U1-XTAL2{slash}PB7)*%
X171000000Y-91380000D03*
%TO.N,Net-(DS1-D5)*%
X173540000Y-91380000D03*
%TO.N,Net-(DS1-D6)*%
X176080000Y-91380000D03*
%TO.N,Net-(DS1-D7)*%
X178620000Y-91380000D03*
%TO.N,unconnected-(U1-PB0-Pad14)*%
X181160000Y-91380000D03*
%TO.N,unconnected-(U1-PB1-Pad15)*%
X181160000Y-99000000D03*
%TO.N,unconnected-(U1-PB2-Pad16)*%
X178620000Y-99000000D03*
%TO.N,Mosi*%
X176080000Y-99000000D03*
%TO.N,Miso*%
X173540000Y-99000000D03*
%TO.N,SCK*%
X171000000Y-99000000D03*
%TO.N,+5V*%
X168460000Y-99000000D03*
%TO.N,unconnected-(U1-AREF-Pad21)*%
X165920000Y-99000000D03*
%TO.N,GND*%
X163380000Y-99000000D03*
%TO.N,unconnected-(U1-PC0-Pad23)*%
X160840000Y-99000000D03*
%TO.N,PC1*%
X158300000Y-99000000D03*
%TO.N,PC2*%
X155760000Y-99000000D03*
%TO.N,unconnected-(U1-PC3-Pad26)*%
X153220000Y-99000000D03*
%TO.N,unconnected-(U1-PC4-Pad27)*%
X150680000Y-99000000D03*
%TO.N,unconnected-(U1-PC5-Pad28)*%
X148140000Y-99000000D03*
%TD*%
D20*
%TO.N,GND*%
%TO.C,R3*%
X140000000Y-97000000D03*
%TO.N,Net-(DS1-VO)*%
X142500000Y-99500000D03*
%TO.N,+5V*%
X145000000Y-97000000D03*
%TD*%
D21*
%TO.N,Net-(U1-XTAL1{slash}PB6)*%
%TO.C,Y1*%
X168620000Y-87000000D03*
%TO.N,Net-(U1-XTAL2{slash}PB7)*%
X173500000Y-87000000D03*
%TD*%
D22*
%TO.N,USB_C D+*%
X153900000Y-85200000D03*
X151800000Y-80300000D03*
%TO.N,+5V*%
X173500000Y-77500000D03*
X147500000Y-86000000D03*
%TO.N,SCK*%
X177500000Y-86000000D03*
%TO.N,RST*%
X178000000Y-89000000D03*
%TO.N,Net-(U3-VI)*%
X157500000Y-83000000D03*
%TO.N,Net-(P1-CC1)*%
X155500000Y-83500000D03*
%TO.N,Net-(P1-CC2)*%
X146500000Y-82500000D03*
%TO.N,Net-(D2-K)*%
X130500000Y-98500000D03*
%TO.N,Net-(DS1-RS)*%
X125000000Y-106500000D03*
X132500000Y-95500000D03*
%TO.N,Net-(D1-K)*%
X127000000Y-101000000D03*
%TD*%
M02*
