%TF.GenerationSoftware,KiCad,Pcbnew,10.0.5*%
%TF.CreationDate,2026-09-08T09:33:28-05:00*%
%TF.ProjectId,Test,54657374-2e6b-4696-9361-645f70636258,rev?*%
%TF.SameCoordinates,Original*%
%TF.FileFunction,Soldermask,Bot*%
%TF.FilePolarity,Negative*%
%FSLAX46Y46*%
G04 Gerber Fmt 4.6, Leading zero omitted, Abs format (unit mm)*
G04 Created by KiCad (PCBNEW 10.0.5) date 2026-09-08 09:33:28*
%MOMM*%
%LPD*%
G01*
G04 APERTURE LIST*
G04 Aperture macros list*
%AMRoundRect*
0 Rectangle with rounded corners*
0 $1 Rounding radius*
0 $2 $3 $4 $5 $6 $7 $8 $9 X,Y pos of 4 corners*
0 Add a 4 corners polygon primitive as box body*
4,1,4,$2,$3,$4,$5,$6,$7,$8,$9,$2,$3,0*
0 Add four circle primitives for the rounded corners*
1,1,$1+$1,$2,$3*
1,1,$1+$1,$4,$5*
1,1,$1+$1,$6,$7*
1,1,$1+$1,$8,$9*
0 Add four rect primitives between the rounded corners*
20,1,$1+$1,$2,$3,$4,$5,0*
20,1,$1+$1,$4,$5,$6,$7,0*
20,1,$1+$1,$6,$7,$8,$9,0*
20,1,$1+$1,$8,$9,$2,$3,0*%
G04 Aperture macros list end*
%ADD10R,1.700000X1.700000*%
%ADD11C,1.700000*%
%ADD12C,0.650000*%
%ADD13O,1.000000X2.100000*%
%ADD14O,1.000000X1.800000*%
%ADD15C,3.000000*%
%ADD16R,1.800000X2.600000*%
%ADD17O,1.800000X2.600000*%
%ADD18C,2.000000*%
%ADD19RoundRect,0.250000X-0.550000X0.550000X-0.550000X-0.550000X0.550000X-0.550000X0.550000X0.550000X0*%
%ADD20C,1.600000*%
%ADD21RoundRect,0.250000X0.262500X0.450000X-0.262500X0.450000X-0.262500X-0.450000X0.262500X-0.450000X0*%
%ADD22RoundRect,0.375000X0.375000X-0.625000X0.375000X0.625000X-0.375000X0.625000X-0.375000X-0.625000X0*%
%ADD23RoundRect,0.500000X1.400000X-0.500000X1.400000X0.500000X-1.400000X0.500000X-1.400000X-0.500000X0*%
%ADD24RoundRect,0.250000X-0.250000X-0.475000X0.250000X-0.475000X0.250000X0.475000X-0.250000X0.475000X0*%
%ADD25C,1.620000*%
%ADD26C,1.500000*%
%ADD27RoundRect,0.250000X-0.262500X-0.450000X0.262500X-0.450000X0.262500X0.450000X-0.262500X0.450000X0*%
%ADD28RoundRect,0.250000X0.250000X0.475000X-0.250000X0.475000X-0.250000X-0.475000X0.250000X-0.475000X0*%
%ADD29RoundRect,0.250000X0.450000X-0.262500X0.450000X0.262500X-0.450000X0.262500X-0.450000X-0.262500X0*%
%ADD30RoundRect,0.250000X-0.450000X0.262500X-0.450000X-0.262500X0.450000X-0.262500X0.450000X0.262500X0*%
G04 APERTURE END LIST*
D10*
%TO.C,J1*%
X178500000Y-78420000D03*
D11*
X181040000Y-78420000D03*
X178500000Y-80960000D03*
X181040000Y-80960000D03*
X178500000Y-83500000D03*
X181040000Y-83500000D03*
%TD*%
D12*
%TO.C,P1*%
X155890000Y-80500000D03*
X150110000Y-80500000D03*
D13*
X157320000Y-81000000D03*
D14*
X157320000Y-76820000D03*
D13*
X148680000Y-81000000D03*
D14*
X148680000Y-76820000D03*
%TD*%
D15*
%TO.C,DS1*%
X104275900Y-113560000D03*
X104275900Y-144560700D03*
X179274480Y-144560700D03*
X179275000Y-113560000D03*
D16*
X109775000Y-113560000D03*
D17*
X112315000Y-113560000D03*
X114855000Y-113560000D03*
X117395000Y-113560000D03*
X119935000Y-113560000D03*
X122475000Y-113560000D03*
X125015000Y-113560000D03*
X127555000Y-113560000D03*
X130095000Y-113560000D03*
X132635000Y-113560000D03*
X135175000Y-113560000D03*
X137715000Y-113560000D03*
X140255000Y-113560000D03*
X142795000Y-113560000D03*
X145335000Y-113560000D03*
X147875000Y-113560000D03*
%TD*%
D18*
%TO.C,SW1*%
X137750000Y-88250000D03*
X144250000Y-88250000D03*
X137750000Y-92750000D03*
X144250000Y-92750000D03*
%TD*%
D19*
%TO.C,U1*%
X148140000Y-91380000D03*
D20*
X150680000Y-91380000D03*
X153220000Y-91380000D03*
X155760000Y-91380000D03*
X158300000Y-91380000D03*
X160840000Y-91380000D03*
X163380000Y-91380000D03*
X165920000Y-91380000D03*
X168460000Y-91380000D03*
X171000000Y-91380000D03*
X173540000Y-91380000D03*
X176080000Y-91380000D03*
X178620000Y-91380000D03*
X181160000Y-91380000D03*
X181160000Y-99000000D03*
X178620000Y-99000000D03*
X176080000Y-99000000D03*
X173540000Y-99000000D03*
X171000000Y-99000000D03*
X168460000Y-99000000D03*
X165920000Y-99000000D03*
X163380000Y-99000000D03*
X160840000Y-99000000D03*
X158300000Y-99000000D03*
X155760000Y-99000000D03*
X153220000Y-99000000D03*
X150680000Y-99000000D03*
X148140000Y-99000000D03*
%TD*%
D21*
%TO.C,R1*%
X136412500Y-97000000D03*
X134587500Y-97000000D03*
%TD*%
D22*
%TO.C,U3*%
X164600000Y-83150000D03*
X162300000Y-83150000D03*
D23*
X162300000Y-76850000D03*
D22*
X160000000Y-83150000D03*
%TD*%
D24*
%TO.C,C2*%
X169050000Y-82000000D03*
X170950000Y-82000000D03*
%TD*%
D25*
%TO.C,R3*%
X140000000Y-97000000D03*
X142500000Y-99500000D03*
X145000000Y-97000000D03*
%TD*%
D21*
%TO.C,R7*%
X153000000Y-101000000D03*
X151175000Y-101000000D03*
%TD*%
D26*
%TO.C,Y1*%
X168620000Y-87000000D03*
X173500000Y-87000000D03*
%TD*%
D27*
%TO.C,R2*%
X146087500Y-109500000D03*
X147912500Y-109500000D03*
%TD*%
D28*
%TO.C,C1*%
X162450000Y-86500000D03*
X160550000Y-86500000D03*
%TD*%
D29*
%TO.C,R5*%
X144000000Y-78500000D03*
X144000000Y-76675000D03*
%TD*%
D21*
%TO.C,R6*%
X158412500Y-101000000D03*
X156587500Y-101000000D03*
%TD*%
D30*
%TO.C,R4*%
X157000000Y-84587500D03*
X157000000Y-86412500D03*
%TD*%
M02*
